<svg width="120" height="120" fill="none" xmlns="http://www.w3.org/2000/svg">
    <path fill="#332F2C" d="M0 0h120v120H0z"/>
    <path d="M58.743 28c13.084-.023 23.76 10.592 23.783 23.649.024 13.15-10.581 23.761-23.772 23.78-13.094.02-23.774-10.591-23.793-23.638C34.943 38.654 45.57 28.024 58.743 28zm1.244 44.658c9.602-.276 19.709-8.493 19.85-20.721.144-12.253-10.132-21.915-22.487-21.2-11.864.687-20.983 11.552-19.58 23.293 1.447 12.116 11.95 18.59 19.718 18.59.017-.055.05-.116.05-.176.004-3.325.002-6.65.014-9.973.002-.387-.175-.465-.506-.46-.767.012-1.535.006-2.302.002-1.113-.005-1.358-.25-1.36-1.346-.002-.734 0-1.468 0-2.253h-.81c-1.79 0-3.581.001-5.372-.001-.938-.002-1.232-.285-1.234-1.211-.005-3.453-.004-6.906 0-10.36 0-.925.302-1.224 1.22-1.227.89-.004 1.778-.001 2.741-.001v-.831c0-1.983-.003-3.965.001-5.947.002-.94.448-1.491 1.199-1.498.758-.007 1.21.534 1.21 1.475.005 2.046.021 4.092-.01 6.138-.007.544.165.677.687.674 3.837-.02 7.673-.011 11.509-.014.185 0 .37-.025.62-.043v-.728c0-2.004-.003-4.007.001-6.01.001-.93.46-1.492 1.204-1.494.755-.003 1.202.542 1.203 1.483.003 2.025.018 4.05-.011 6.075-.008.542.11.776.699.73.657-.051 1.321-.013 1.981-.011 1.023 0 1.292.262 1.292 1.277.002 3.431 0 6.862-.002 10.295 0 .942-.284 1.226-1.212 1.228-1.833.002-3.666-.002-5.5.002-.223 0-.447.026-.703.041v1.738c0 1.78-.04 1.82-1.836 1.82h-2.278c.004 3.615.004 7.105.004 10.644zM47.862 47.475v9.028h21.742V47.52c-.142-.019-.225-.04-.308-.04-2.366-.003-4.73-.013-7.096.01-.237.004-.526.16-.699.337a74.584 74.584 0 0 0-2.391 2.576c-.377.426-.656.43-1.02-.014a51.42 51.42 0 0 0-2.173-2.513 1.335 1.335 0 0 0-.856-.384c-1.853-.034-3.707-.018-5.562-.018l-1.637.002zM62.212 58.5h-6.918v1.622h6.919V58.5zM68.261 90.338v2.4c-1.243.232-2.474.412-3.717.067-.985-.273-1.563-.967-1.721-1.942-.137-.837-.183-1.694-.199-2.543-.03-1.661-.011-3.323-.015-4.986 0-.061-.027-.123-.053-.233H58.59c-.011.22-.03.425-.03.63.001 1.876-.01 3.752.016 5.626.016 1.066.275 1.273 1.33 1.167.442-.045.878-.122 1.39-.193 0 .737.016 1.434-.016 2.129-.005.121-.215.329-.339.335-1.015.055-2.044.171-3.049.073-1.155-.113-1.867-.898-2.07-2.12-.124-.751-.151-1.525-.161-2.29-.022-1.764-.007-3.53-.007-5.366l-1.451-.07v-2.357c.463-.02.918-.04 1.424-.064v-2.448h2.902v2.481h2.855c1.235 0 1.235 0 1.234-1.253v-1.243h2.9c0 .593.041 1.203-.011 1.804-.052.586.172.74.722.703.655-.045 1.315-.01 2.013-.01v2.407h-2.686c-.015.29-.034.497-.035.704-.003 1.683-.003 3.367 0 5.05 0 .212.002.427.021.638.092 1.014.287 1.186 1.287 1.096.46-.043.92-.123 1.433-.192z" fill="#BFBFBF"/>
    <path d="M78.872 87.4h-7.28c-.19 1.79.802 3.03 2.518 3.124.738.04 1.49-.03 2.225-.132.712-.1 1.41-.306 2.204-.486 0 .738.014 1.468-.015 2.196-.003.111-.185.275-.314.313-1.714.51-3.46.769-5.236.436-2.42-.453-3.871-1.955-4.388-4.333-.364-1.675-.31-3.352.343-4.963.874-2.157 2.866-3.327 5.32-3.16 2.155.147 3.803 1.542 4.31 3.811.224.999.21 2.051.313 3.195zm-7.101-2.498h3.953c-.122-1.23-.8-2.032-1.727-2.094-1.064-.071-1.93.727-2.226 2.094zM38.607 85.272c.04-.107.065-.145.068-.185.146-1.855-.347-2.426-2.19-2.25-1 .096-1.98.453-2.964.707-.24.061-.467.179-.734.285v-3.33c1.966 0 3.91-.133 5.828.038 1.829.164 2.83 1.25 2.9 3.089.114 2.978.049 5.962.055 8.944 0 .036-.035.072-.074.142h-2.748l-.088-.64c-.864.293-1.697.7-2.577.852-1.824.315-3.316-.593-3.856-2.194-.595-1.764-.01-3.553 1.63-4.38.946-.477 2.04-.683 3.085-.938.532-.128 1.1-.097 1.665-.14zm-.011 2.158c-1.091.023-2.196.024-3.12.771-.53.429-.7 1.12-.444 1.668.277.595.817.783 1.387.664 1.52-.316 2.704-1.008 2.177-3.103zM53.876 87.018c-.192.78-.329 1.83-.71 2.78-.842 2.103-2.73 3.25-4.994 3.195-2.293-.056-4.083-1.263-4.88-3.384-.75-1.992-.743-4.011.053-5.994.917-2.279 2.997-3.446 5.61-3.207 2.28.208 4.097 1.893 4.612 4.319.141.663.185 1.347.309 2.291zm-8.055-.26c.087.635.115 1.367.297 2.058.294 1.124 1.124 1.74 2.163 1.74 1.032-.002 1.853-.627 2.156-1.748.373-1.38.363-2.789.025-4.17-.296-1.215-1.183-1.873-2.286-1.832-1.043.038-1.876.776-2.123 1.963-.128.619-.15 1.262-.232 1.99zM87.919 83.321c-.395-.069-.75-.134-1.105-.194-1.926-.329-3.744 1.502-3.624 3.119.157 2.118.038 4.256.038 6.443h-2.856V80.675h2.822l.084 1.039c1.065-.997 2.255-1.402 3.613-1.333 1.093.055 1.094.041 1.093 1.106-.001.554-.005 1.108-.01 1.662.001.04-.024.081-.055.172z" fill="#BFBFBF"/>
</svg>
