<svg width="120" height="120" fill="none" xmlns="http://www.w3.org/2000/svg">
    <path fill="#332F2C" d="M0 0h120v120H0z"/>
    <path d="M33.305 72.934h-1.748l.559.113c-.118.216-.251.426-.37.61h1.282v3.02c0 .317-.077.45-.297.537-.215.082-.538.088-1.015.088a1.969 1.969 0 0 0-.19-.518c.287.01.626.01.718.005.097 0 .133-.03.133-.118v-2.44h-.922v.154c0 .113.01.17.112.17h.293c.087 0 .266-.011.348-.037.005.16.02.313.041.472-.082.03-.246.04-.374.04h-.487c-.482 0-.569-.225-.569-.65v-.149h-.42c-.072.441-.257.728-.774.918h2.158v1.455H30.06v.246h-.594v-1.645c-.072.016-.144.036-.226.051a1.215 1.215 0 0 0-.281-.44v2.506h-.677v-3.665h1.23c-.067-.18-.18-.41-.277-.594l.395-.123H28v-.595h2.353a3.487 3.487 0 0 0-.139-.446l.687-.174c.072.19.154.425.21.62h2.194v.59zm-4.346 1.835c.553-.097.748-.256.82-.543h-.82v.543zm2.127-1.112c.117-.225.246-.502.312-.722h-1.507c.108.194.231.43.298.584l-.385.138h1.282zm-1.025 1.979v.476h1.158v-.476H30.06zm7.37.866v.835h-.676v-.835h-1.272v-.62h1.272v-.298h-1.041v-2.157h2.799v2.157H37.43v.298h1.235v.62h-1.235zm-.436-3.306h-1.337V71.92h1.337v1.276zm-.517-.836h-.313v.39h.313v-.39zm-.175 1.892h.498v-.308h-.498v.308zm0 .81h.498v-.323h-.498v.323zm2.26-1.866h-1.347V71.92h1.348v1.276zm-.66.748h-.508v.308h.508v-.308zm0 .8h-.508v.323h.508v-.323zm.133-2.384h-.318v.39h.318v-.39zm2.911 1.969a6.027 6.027 0 0 1-.825 1.63c.102.333.215.522.338.538.098 0 .16-.282.19-.82.113.153.4.333.513.4-.15 1.04-.452 1.27-.713 1.266-.359-.016-.63-.293-.835-.775-.277.288-.58.523-.908.713a2.634 2.634 0 0 0-.512-.497c.446-.21.85-.538 1.2-.933a13.225 13.225 0 0 1-.257-1.748l-.497.062-.072-.656.518-.067a48.73 48.73 0 0 1-.067-1.64h.677c.005.543.025 1.076.05 1.563l1.272-.154.072.651-1.287.16c.036.394.077.758.123 1.08.195-.338.359-.702.472-1.066l.548.293zm-.492-1.169a4.788 4.788 0 0 0-.558-1.03l.538-.282c.23.313.502.723.59 1.005l-.57.307zm4.485 2.301c-.01-.071-.03-.159-.046-.256-1.194.18-1.41.22-1.538.287a7.262 7.262 0 0 0-.22-.62c.148-.036.282-.17.466-.39.072-.082.21-.256.374-.497-.445.052-.579.087-.666.133a5.929 5.929 0 0 0-.21-.584c.118-.036.22-.149.338-.328.123-.174.502-.835.713-1.466l.615.257a8.567 8.567 0 0 1-.8 1.424l.395-.03c.143-.252.287-.513.4-.774l.584.358c-.333.616-.769 1.251-1.22 1.78l.625-.078c-.04-.159-.097-.323-.143-.466l.507-.16c.149.395.313.913.37 1.231l-.544.18zm-.994.313c-.041.554-.149 1.148-.277 1.528-.123-.072-.405-.154-.554-.206.144-.358.216-.912.252-1.414l.579.092zm.605-.103c.071.4.143.897.158 1.23l-.543.108a11.466 11.466 0 0 0-.123-1.235l.508-.103zm.594-.184c.108.292.22.661.277.907l-.508.18a6.815 6.815 0 0 0-.256-.933l.487-.154zm3.562 1.061v.651h-3.413v-.651h1.348v-.825h-1.077v-.63h2.896v.63H47.36v.825h1.348zm-2.147-3.66c-.18.313-.385.646-.574.923.25.328.487.697.615.953l-.57.22c-.133-.312-.394-.753-.701-1.163.246-.359.486-.794.625-1.081l.605.148zm2.08-.24h-3.218v-.631h3.219v.63zm-1.593 2.316c-.134-.302-.41-.748-.723-1.153.24-.349.497-.774.63-1.056l.595.139c-.18.302-.39.64-.574.912.246.318.502.681.625.922l-.553.236zm1.05.02c-.143-.312-.446-.758-.789-1.163.251-.353.513-.794.656-1.081l.61.143c-.184.318-.4.646-.594.923.266.318.543.681.681.933l-.564.246zm4.747 1.16c-.656.23-1.374.46-1.948.645l-.159-.723c.21-.051.451-.118.728-.195v-1.404h-.605v-.65h.605v-1.052h-.656v-.66h1.968v.66h-.636v1.051h.539v.651h-.538v1.194c.194-.061.394-.118.584-.184l.118.666zm3.547.363v.646h-3.84v-.646h1.646v-.564h-1.235v-.64h1.235v-.513h-1.194v-2.773h3.116v2.773h-1.2v.512h1.267v.641h-1.267v.57h1.472v-.006zm-2.748-3.393h.615v-.497h-.615v.497zm0 1.071h.615v-.512h-.615v.512zm1.804-1.568h-.589v.497h.59v-.497zm0 1.056h-.589v.512h.59v-.512zm6.11-1.902c-.005.251-.015.574-.04.933.081.805.445 3.055 2.531 3.972-.22.174-.425.41-.517.615-1.323-.63-1.99-1.794-2.333-2.824-.328 1.05-.953 2.132-2.193 2.86a2.269 2.269 0 0 0-.59-.58c2.425-1.296 2.312-3.966 2.332-4.976h.81zm5.797 2.014c.42 0 .764.349.764.764a.772.772 0 0 1-.764.764.772.772 0 0 1-.763-.764c0-.415.348-.764.763-.764zm5.341-.476h-1.973l-.005-.559h.912a6.007 6.007 0 0 0-.477-.718l.605-.23c.21.24.44.569.554.79l-.364.158h.748v.559zm-.097 1.62H70.89v-.534h1.707v.533zm-.067 2.085h-1.04v.246h-.549v-2.04h1.589v1.794zm-1.568-2.89v-.539h1.573v.539h-1.573zm.533 1.65v.687h.471v-.687h-.471zm3.726.682c.395.148.794.312 1.056.43l-.364.467a13.49 13.49 0 0 0-1.21-.559l.246-.333h-1.025l.405.256c-.333.251-.897.508-1.348.626a5.88 5.88 0 0 0-.44-.42 4.297 4.297 0 0 0 1.132-.467h-.61v-1.794h2.932v1.789h-.774v.005zm-1.097-3.988h-1.281v-.436h1.281v-.266h.692v.266h1.369v.436h-1.369v.205h1.205v.41h-2.978v-.41h1.081v-.205zm-1.26.79h3.285v1.26h-3.286v-1.26zm.558.912h.42v-.57h-.42v.57zm.266 1.035h1.646v-.18h-1.646v.18zm0 .446h1.646v-.18h-1.646v.18zm0 .446h1.646v-.19h-1.646v.19zm1.02-1.927v-.57h-.446v.57h.446zm.861-.57h-.425v.57h.425v-.57zm5.905.283v.21h1.912v.43h-1.912v.216h2.348v.497h-5.357v-.497h2.297v-.216h-1.881v-.43h1.88v-.21h-1.747v-.41h1.748v-.226h-2.291v-.487h2.29v-.22h-1.68v-.41h1.68v-.374h.713v.374h1.666v.63h.682v.487h-.682v.64h-1.666v-.004zm-2.265 1.532h3.957v1.933h-.718v-.175h-2.552v.18h-.687v-1.938zm.687.456v.216h2.552v-.216h-2.552zm2.557.856v-.23h-2.552v.23h2.552zm-.979-3.972h.959v-.22h-.959v.22zm0 .718h.959v-.226h-.959v.226zM89.292 71.935a1.68 1.68 0 0 0-.088.113c.549.476 1.528.886 2.476 1.076a2.272 2.272 0 0 0-.446.543c-.118-.03-.246-.071-.369-.107v1.537H86.72v-1.501a5.935 5.935 0 0 1-.37.112 3.343 3.343 0 0 0-.384-.548c1.097-.256 2.158-.753 2.701-1.445l.626.22zm1.358 1.548a6.393 6.393 0 0 1-.81-.364v.154h-2.096v-.118c-.231.118-.472.23-.723.328h3.629zm-3.598 1.814h3.51v2.02h-.727v-.144h-2.081v.16h-.697v-2.036h-.005zm.671-.625a2.312 2.312 0 0 0-.205-.62l.461-.133h-.676v.753h.42zm.026 1.092v.24h2.08v-.24h-2.08zm2.08.943v-.241h-2.08v.24h2.08zm-1.352-2.788h-.467c.108.205.205.46.241.63l-.384.118h.61v-.748zm.856-1.102a5.003 5.003 0 0 1-.503-.39 6.95 6.95 0 0 1-.507.39h1.01zm-.282 1.102v.753h.553l-.359-.102c.082-.18.18-.451.231-.651h-.425zm1.178 0h-.62l.467.112c-.118.241-.23.472-.328.641h.481v-.753zM28.128 80.28h1.097c.723 0 1.25.23 1.25.87 0 .34-.189.657-.502.764v.026c.405.087.697.359.697.84 0 .703-.569 1.036-1.353 1.036h-1.179V80.28h-.01zm1.03 1.476c.539 0 .764-.2.764-.533 0-.37-.251-.508-.748-.508h-.492v1.04h.476zm.087 1.62c.554 0 .872-.196.872-.631 0-.4-.308-.57-.872-.57h-.563v1.2h.564zm2.497-.544v-1.66h.553v1.593c0 .457.128.636.441.636.246 0 .415-.113.636-.395v-1.835h.553v2.64h-.45l-.042-.4h-.015c-.241.277-.497.462-.867.462-.563.005-.81-.364-.81-1.041zm3.229.677.261-.354c.236.19.467.302.748.302.318 0 .467-.153.467-.353 0-.241-.297-.344-.584-.457-.349-.133-.754-.322-.754-.768 0-.441.354-.774.938-.774.354 0 .646.143.861.312l-.261.344c-.185-.133-.37-.23-.59-.23-.287 0-.42.143-.42.327 0 .226.272.313.564.42.369.139.779.303.779.8 0 .44-.348.8-1.005.8-.374 0-.748-.154-1.004-.37zm3.003-3.158c0-.195.149-.328.349-.328.2 0 .354.128.354.328 0 .19-.154.328-.354.328-.2 0-.349-.138-.349-.328zm.077.82h.549v2.64h-.549v-2.64zm1.876 0h.451l.041.364h.016c.246-.236.512-.43.876-.43.564 0 .81.374.81 1.045v1.661h-.554v-1.594c0-.456-.133-.64-.446-.64-.246 0-.415.122-.645.358v1.87h-.549v-2.634zm3.306 1.328c0-.861.585-1.394 1.205-1.394.702 0 1.076.502 1.076 1.255 0 .108-.01.216-.026.277h-1.712c.041.502.36.805.816.805.235 0 .435-.072.63-.195l.19.349a1.6 1.6 0 0 1-.892.276c-.713.006-1.287-.507-1.287-1.373zm1.81-.241c0-.456-.206-.723-.59-.723-.333 0-.625.257-.677.723h1.266zm1.312 1.25.261-.353c.236.19.467.302.748.302.318 0 .467-.153.467-.353 0-.241-.297-.344-.585-.457-.348-.133-.753-.322-.753-.768 0-.441.354-.774.938-.774.354 0 .646.143.861.312l-.261.344c-.185-.133-.37-.23-.59-.23-.287 0-.42.143-.42.327 0 .226.272.313.564.42.369.139.779.303.779.8 0 .44-.349.8-1.005.8-.374 0-.748-.154-1.004-.37zm2.803 0 .262-.353c.236.19.466.302.748.302.318 0 .467-.153.467-.353 0-.241-.298-.344-.585-.457-.348-.133-.753-.322-.753-.768 0-.441.353-.774.938-.774.353 0 .646.143.86.312l-.26.344c-.185-.133-.37-.23-.59-.23-.287 0-.42.143-.42.327 0 .226.271.313.563.42.37.139.78.303.78.8 0 .44-.349.8-1.005.8-.38 0-.753-.154-1.005-.37zm4.706-3.228h.558v3.065h1.492v.471h-2.05V80.28zm2.87 2.219c0-.861.584-1.394 1.204-1.394.703 0 1.077.502 1.077 1.255 0 .108-.01.216-.026.277h-1.712c.041.502.36.805.815.805.236 0 .436-.072.63-.195l.19.349a1.6 1.6 0 0 1-.892.276c-.717.006-1.286-.507-1.286-1.373zm1.804-.241c0-.456-.205-.723-.59-.723-.332 0-.625.257-.676.723h1.266zm1.369.856c0-.569.482-.861 1.578-.98-.005-.307-.112-.573-.502-.573-.277 0-.538.123-.764.266l-.205-.374c.272-.174.646-.343 1.066-.343.657 0 .959.42.959 1.117v1.59h-.451l-.046-.303h-.02c-.242.205-.523.364-.841.364-.456 0-.774-.298-.774-.764zm1.578.015v-.645c-.784.097-1.045.292-1.045.589 0 .261.18.364.415.364.226 0 .415-.108.63-.308zm1.83-1.958h.451l.041.477h.016c.19-.343.466-.543.748-.543.128 0 .215.02.297.056l-.102.482a.745.745 0 0 0-.267-.041c-.215 0-.477.148-.646.569v1.645h-.538v-2.645zm2.466 0h.45l.042.364h.015c.246-.236.513-.43.877-.43.563 0 .81.374.81 1.045v1.661h-.554v-1.594c0-.456-.134-.64-.446-.64-.246 0-.415.122-.646.358v1.87h-.548v-2.634zm3.413-.82c0-.195.149-.328.349-.328.2 0 .353.128.353.328 0 .19-.153.328-.353.328-.2 0-.349-.138-.349-.328zm.077.82h.549v2.64h-.549v-2.64zm1.876 0h.451l.041.364h.016c.246-.236.512-.43.876-.43.564 0 .81.374.81 1.045v1.661h-.554v-1.594c0-.456-.133-.64-.446-.64-.246 0-.415.122-.645.358v1.87h-.549v-2.634zm3.301 3.132c0-.22.138-.425.384-.574v-.026a.488.488 0 0 1-.24-.435c0-.205.148-.385.292-.492v-.02a.897.897 0 0 1-.344-.703c0-.6.477-.953 1.025-.953.149 0 .282.03.385.066h.938v.415h-.503a.709.709 0 0 1 .175.487c0 .574-.436.907-.99.907a.94.94 0 0 1-.369-.081c-.087.076-.143.153-.143.276 0 .16.108.262.44.262h.488c.625 0 .948.19.948.645 0 .508-.538.923-1.384.923-.64 0-1.102-.236-1.102-.697zm1.948-.138c0-.22-.175-.287-.492-.287h-.4c-.123 0-.246-.016-.354-.041-.159.112-.225.25-.225.384 0 .261.266.415.707.415.456 0 .764-.225.764-.471zm-.334-2.107c0-.354-.22-.564-.497-.564-.276 0-.497.2-.497.564 0 .349.226.569.497.569.272-.005.498-.22.498-.569zm3.286 0c0-1.153.702-1.845 1.594-1.845.44 0 .79.21 1.005.446l-.303.353c-.184-.19-.405-.317-.692-.317-.61 0-1.03.507-1.03 1.337 0 .841.395 1.354 1.02 1.354.323 0 .569-.144.784-.375l.298.349a1.392 1.392 0 0 1-1.102.507c-.892.01-1.574-.656-1.574-1.809zm3.742 1.138v-3.209h.548v3.235c0 .148.067.2.133.2.026 0 .041 0 .093-.01l.071.42a.856.856 0 0 1-.297.04c-.4.006-.548-.25-.548-.676zm1.896-.364v-1.66h.554v1.593c0 .457.128.636.44.636.246 0 .416-.113.636-.395v-1.835h.554v2.64h-.451l-.041-.4h-.016c-.24.277-.497.462-.866.462-.564.005-.81-.364-.81-1.041zm4.008.707h-.015l-.051.272h-.43v-3.829h.548v1.015l-.016.451c.226-.195.508-.343.79-.343.666 0 1.045.533 1.045 1.343 0 .907-.543 1.425-1.138 1.425-.246.005-.507-.118-.733-.334zm1.297-1.081c0-.554-.18-.892-.62-.892-.205 0-.41.108-.63.323v1.291c.2.18.415.241.574.241.39 0 .676-.343.676-.963zM60.204 63.98c-2.47-2.455-6.586-4.838-8.647-5.956a2.072 2.072 0 0 1-1.066-2.091l1.348-10.067a.829.829 0 0 1 1.112-.666 51.2 51.2 0 0 1 5.434 2.434l.63.334-.149.112c-3.88 2.912-3.183 3.922-2.957 4.25.425.615 1.2 1.025 2.183 1.168.246.036.503.052.759.052 1.266 0 2.568-.426 3.665-1.19l.05-.036 1.595.708.02.02c.58.703 2.845 3.962 3.727 5.362l.066.107-.112.062c-.415.225-.82.456-1.21.687l-.103.061-.061-.102c-1.292-2.163-3.332-4.393-3.419-4.485a.707.707 0 0 0-.969-.041.687.687 0 0 0-.04.968c.02.02 2.05 2.24 3.26 4.28l.056.098-.098.061c-.261.17-.523.344-.784.523l-.097.067-.067-.098c-1.297-1.906-3.29-3.854-3.378-3.936a.701.701 0 0 0-.968.015.693.693 0 0 0 .015.974c.02.02 1.999 1.943 3.219 3.757l.061.092-.087.067c-.302.23-.579.44-.835.65l-.093.078-.071-.098c-1.276-1.665-3.132-3.28-3.214-3.347a.703.703 0 0 0-.969.072.681.681 0 0 0-.164.497.7.7 0 0 0 .236.472c.015.015 1.891 1.645 3.07 3.208l.067.088-.082.071a31.21 31.21 0 0 0-.78.723l-.081.077-.072-.082zm-2.255-11.763a.77.77 0 0 1-.605-.518.798.798 0 0 1 .19-.81c.394-.394 4.049-3.92 10.133-5.76a.833.833 0 0 1 1.061.682l1.4 10.43a1.562 1.562 0 0 1-.877 1.624l-.052.026-.056-.092c-1.133-1.835-3.726-5.5-4.095-5.838l-.082-.077-2.373-1.051a.393.393 0 0 0-.395.051l-.149.118c-1.302 1.097-2.49 1.322-3.25 1.322-.486 0-.794-.092-.85-.107zm-9.098 4.51c-.497-.21-.99-.405-1.466-.579a1.795 1.795 0 0 1-1.169-1.507l-1.199-11.543.149.02c.835.119 1.717.288 2.624.493l.45.113c.754.184 1.533.405 2.318.65l.092.031-.015.098-1.646 12.28-.138-.056zm22.711-.092-1.64-12.23.092-.03a39 39 0 0 1 2.317-.651l.451-.113c.902-.21 1.784-.374 2.624-.492l.15-.02-1.2 11.542a1.795 1.795 0 0 1-1.169 1.507c-.477.18-.969.374-1.466.58l-.143.06-.016-.153zM55.965 44.96l-.482-.21c-.117-.051-.235-.103-.358-.154l-.144-.061c-.128-.052-.256-.108-.39-.16l-.128-.05c-.138-.057-.282-.113-.42-.17l-.113-.046c-.148-.056-.297-.118-.45-.174l-.098-.036c-.159-.062-.318-.118-.482-.18l-.082-.03c-.17-.062-.338-.123-.507-.18l-.067-.025-.538-.185-.051-.015c-.185-.062-.375-.123-.564-.185l-.036-.01c-.195-.061-.39-.123-.59-.18l-.02-.004c-.2-.062-.405-.118-.61-.18a.967.967 0 0 1-.723-.943l.031-2.296.159.066a27.4 27.4 0 0 1 2.962 1.456l.067.041c.195.113.39.226.574.344l.062.035c1.947 1.205 3.613 2.614 4.946 4.188l.364.43-2.312-1.086zm6.7.656c1.332-1.574 2.998-2.978 4.946-4.182l.061-.036c.184-.113.38-.226.574-.339l.072-.04a26.495 26.495 0 0 1 2.962-1.456l.16-.067.03 2.296a.97.97 0 0 1-.702.938c-.226.062-.426.123-.63.185l-.026.005c-.2.062-.395.123-.59.18l-.035.01-.564.184-.052.016-.538.184-.066.026c-.17.061-.344.123-.508.18l-.082.03c-.164.056-.323.118-.482.18l-.097.035c-.154.056-.302.113-.451.174l-.113.046c-.143.057-.282.113-.42.17l-.128.05c-.134.052-.262.109-.39.16l-.143.061-.36.154-2.285 1.046-.508.25.364-.44zm-3.953-1.194c-.05-.062-.107-.118-.158-.18l-.103-.112c-.24-.262-.502-.528-.764-.79-1.337-1.302-2.906-2.475-4.654-3.48a.631.631 0 0 1-.317-.62l.256-2.301.164.112c3.567 2.481 5.14 5.346 5.828 7.314l.2.575-.452-.518zm2.896-.057c.692-1.968 2.26-4.838 5.839-7.314l.163-.112.257 2.3a.631.631 0 0 1-.318.621c-1.748 1.005-3.316 2.178-4.654 3.48-.267.262-.523.523-.769.79l-.102.112c-.057.062-.108.123-.16.18l-.456.517.2-.574zm-9.707-9.185a.353.353 0 0 0-.149.262l-.39 3.531-.148-.071c-.8-.385-1.64-.739-2.502-1.061-.281-.103-.604-.026-.85.276a.354.354 0 0 0-.077.226l-.051 3.86-.15-.042c-.799-.22-2.213-.41-3.259-.527-.026-.006-.051-.006-.082-.006a.687.687 0 0 0-.682.759l1.369 13.168a2 2 0 0 0 1.312 1.676c2.722.989 9.021 3.639 13.552 8.283a.706.706 0 0 0 .984 0c4.51-4.614 10.825-7.284 13.557-8.283a2.01 2.01 0 0 0 1.307-1.676l1.369-13.158a.683.683 0 0 0-.764-.753c-1.015.123-2.399.312-3.26.517l-.143.036-.052-3.854a.354.354 0 0 0-.076-.226c-.246-.302-.564-.379-.851-.276a29.51 29.51 0 0 0-2.502 1.06l-.148.072-.39-3.393a.354.354 0 0 0-.143-.256c-.303-.205-.6-.236-.851-.092-2.102 1.168-5.864 3.818-7.427 8.462l-.113.323-.113-.323c-1.64-4.654-5.35-7.38-7.416-8.596a.7.7 0 0 0-.349-.097.97.97 0 0 0-.512.18z" fill="#BFBFBF"/>
</svg>
