<svg width="120" height="120" fill="none" xmlns="http://www.w3.org/2000/svg">
    <path fill="#332F2C" d="M0 0h120v120H0z"/>
    <path d="M84.855 65.459c-.457.798-1 1.558-1.646 2.249a10.778 10.778 0 0 1-2.245 1.83c-.85.52-1.813.912-2.87 1.115-.527.1-1.086.146-1.643.126a8.062 8.062 0 0 1-1.644-.235c-1.07-.263-2.047-.72-2.928-1.252a16.338 16.338 0 0 1-2.398-1.806c-.729-.65-1.39-1.337-2.015-2.032-.313-.346-.613-.699-.907-1.045l-.433-.522-.436-.535a75.053 75.053 0 0 1-.84-1.076l-.808-1.075-1.562-2.126a59.68 59.68 0 0 1-.782-1.089c-.252-.35-.494-.692-.74-1.018-.488-.65-.98-1.246-1.489-1.714-.063-.062-.127-.114-.192-.17l-.098-.083-.12-.091c-.161-.12-.32-.248-.488-.36-.166-.116-.331-.238-.504-.348-.172-.112-.341-.228-.519-.333a23.212 23.212 0 0 0-2.215-1.207 30.963 30.963 0 0 0-2.404-1.021c-.828-.313-1.682-.597-2.557-.89.904-.189 1.826-.279 2.756-.297.931-.021 1.87.04 2.808.172a16.386 16.386 0 0 1 3.48.9c.23.082.454.179.68.275.226.093.445.204.668.31l.167.08c.058.03.12.067.18.1.122.067.246.136.36.21.937.58 1.694 1.274 2.374 1.965.679.693 1.28 1.4 1.844 2.047l.22.252.222.26.44.522c.29.348.572.7.854 1.045l1.644 2.062.404.505.414.513c.27.34.544.672.813 1 .54.655 1.08 1.285 1.633 1.873 1.107 1.174 2.275 2.194 3.531 2.775.632.29 1.27.468 1.988.51.72.04 1.498-.04 2.281-.235.787-.19 1.578-.49 2.369-.854.783-.366 1.552-.819 2.353-1.282z" fill="#BFBFBF"/>
    <path d="M67.671 50.376c.039 1.399.076 2.655.164 3.54.065.656.388 1.308.876 1.847.55.606 1.346 1.282 1.485 1.746.35-.166 2.206-4.693 2.206-7.81 0-3.358-1.47-6.147-4.413-8.368C65.047 39.11 61.092 38 56.125 38c-4.03 0-7.693.715-10.986 2.145-3.294 1.43-5.862 3.354-7.707 5.77-1.845 2.417-2.767 4.92-2.767 7.51 0 1.551.615 3.064 1.844 4.54.903 1.054 1.834 1.58 2.792 1.58.434 0 .818-.139 1.152-.418.334-.277.502-.598.502-.959a1.06 1.06 0 0 0-.256-.722c-.172-.195-.545-.43-1.12-.7-2.016-.904-3.025-2.32-3.025-4.246 0-1.973.823-4.002 2.468-6.088 1.645-2.085 3.88-3.76 6.702-5.025 2.823-1.265 5.825-1.898 9.007-1.898 3.775 0 6.832 1.02 9.17 3.06 2.34 2.043 3.673 4.325 3.77 7.827z" fill="#BFBFBF"/>
    <path d="M60.299 62.977c-.37.017-.699.177-1.09.311-1.946.672-4.37 1.524-6.415 1.76-1.179.137-3.794.254-5.34-.001 1.601-2.32 3.04-5.753 4.318-10.3l1.78-6.3c.594-2.123 1.277-4.021 2.05-5.692-2.662.527-4.973.859-6.934.994l-.27.971c.378-.045.63-.068.755-.068.324 0 .575.072.755.215.18.144.27.335.27.577a3.3 3.3 0 0 1-.162.925l-2.157 7.363-1.86 5.895c-.9 2.319-1.61 3.825-2.132 4.517-.287.392-.633.67-1.038.835-.809.332-1.881.314-2.738.374-.53.037-.973.015-1.42.334-.407.289-.717.686-1.093 1.009.437-.135.942-.034 1.394-.058.552-.03 1.104-.065 1.657-.093 1.108-.058 2.22-.095 3.328-.03 2.662.159 5.313.472 7.978.612 3.31.174 6.22-1.166 9.227-2.365.662-.264 1.8-.92 2.46-1.182-.474.066-.95-.146-1.408-.233-.504-.096-1.007-.2-1.503-.327a1.392 1.392 0 0 0-.412-.044z" fill="#BFBFBF"/>
    <path d="M65.943 57.59c-.46-.778-1.075-1.526-1.706-2.415-2.994-4.224-8.601-5.246-13.784-5.899-.205.461-.483.888-.742 1.32-.161.269-1.225 1.658-1.087 1.977.226.522 1.013.532 1.45.543.996.025 2.277-.112 3.688-.01 5.581.407 7.656 4.284 7.656 4.284 2.394 3.589 2.971 3.388 3.68 4.74.773-1.247-.25-3.556.845-4.54zM25.707 82.245v-3.9H25v-.65h2.013c.556 0 .985.03 1.285.087.3.057.593.187.874.389.282.202.508.48.676.832.168.352.252.755.252 1.206 0 .513-.08.959-.243 1.338-.162.38-.375.662-.638.849a2.437 2.437 0 0 1-.94.39c-.363.074-.824.111-1.386.111H25v-.65h.707v-.002zm.786 0h.412c.459 0 .822-.03 1.09-.086.27-.058.495-.156.68-.293.184-.138.334-.347.448-.627.115-.28.172-.608.172-.987 0-.45-.095-.834-.283-1.147-.188-.315-.428-.52-.722-.616-.293-.095-.744-.143-1.353-.143h-.445v3.899h.001zM31.302 82.264v-2.355h-.56v-.632h1.272v2.987h.56v.631H30.74v-.631h.562zm-.1-4.217c0-.114.04-.215.121-.299a.407.407 0 0 1 .309-.127c.117 0 .218.04.302.124a.403.403 0 0 1 .128.302c0 .12-.042.222-.128.305a.415.415 0 0 1-.302.125.412.412 0 0 1-.305-.128.414.414 0 0 1-.125-.302zM33.579 82.264v-2.355h-.603v-.632h1.313v.457c.43-.342.849-.513 1.26-.513.413 0 .699.188.855.565.472-.376.91-.565 1.318-.565.235 0 .428.051.578.155.151.104.253.235.305.392.053.16.079.393.079.702v1.795h.632v.631h-1.344v-2.299c0-.209-.01-.357-.028-.443a.353.353 0 0 0-.142-.214.452.452 0 0 0-.275-.084c-.305 0-.65.155-1.036.467v1.94h.621v.631H35.78v-2.367c0-.237-.034-.408-.103-.514-.067-.107-.184-.16-.349-.16-.269 0-.614.156-1.038.468v1.94h.637v.63h-1.995v-.63h.647v.003zM43.47 81.266h-3.046c.044.334.178.604.397.81.22.208.5.311.843.311.496 0 .889-.2 1.179-.597l.628.276c-.204.317-.47.551-.797.705-.326.154-.668.23-1.026.23-.553 0-1.027-.172-1.42-.518-.393-.345-.59-.811-.59-1.396 0-.555.191-1.013.575-1.372.383-.36.822-.538 1.319-.538.486 0 .927.175 1.322.525.396.35.6.872.616 1.564zm-.734-.516a1.293 1.293 0 0 0-.397-.69 1.1 1.1 0 0 0-.79-.308c-.284 0-.528.094-.73.28a1.185 1.185 0 0 0-.37.72h2.287v-.002zM45.308 79.277v.438c.457-.33.873-.494 1.25-.494.235 0 .43.056.582.167a.77.77 0 0 1 .302.407c.047.161.07.396.07.705v1.765h.61v.631h-1.32V80.53c0-.274-.042-.452-.124-.536a.408.408 0 0 0-.303-.125c-.314 0-.67.153-1.067.46v1.936h.625v.631h-1.972v-.631h.637v-2.355h-.637v-.632h1.347zM48.463 82.896v-1.24h.637v.12c.022.169.114.309.274.419.161.11.352.164.572.164.229 0 .412-.04.55-.12.137-.08.206-.19.206-.333a.324.324 0 0 0-.171-.302c-.113-.064-.339-.125-.675-.178-.5-.084-.856-.22-1.068-.409a.928.928 0 0 1-.32-.732c0-.302.115-.554.348-.757.232-.203.537-.305.917-.305.342 0 .637.07.883.212v-.156h.632v1.2h-.632v-.22c-.191-.297-.472-.445-.837-.445a.822.822 0 0 0-.463.121.37.37 0 0 0-.181.324c0 .136.055.23.166.282.11.051.35.105.716.162.352.055.618.12.797.193a1.023 1.023 0 0 1 .625.963.958.958 0 0 1-.387.801c-.258.199-.593.298-1.005.298-.386 0-.702-.087-.946-.264v.203h-.638zM52.472 82.264v-2.355h-.56v-.632h1.272v2.987h.56v.631H51.91v-.631h.562zm-.102-4.217c0-.114.041-.215.122-.299a.407.407 0 0 1 .309-.127c.116 0 .218.04.302.124a.403.403 0 0 1 .127.302c0 .12-.042.222-.127.305a.415.415 0 0 1-.303.125.413.413 0 0 1-.304-.128.415.415 0 0 1-.126-.302zM54.19 81.086c0-.558.184-1.016.553-1.374.37-.357.82-.537 1.351-.537.521 0 .97.177 1.344.53.373.352.56.813.56 1.381 0 .568-.186 1.03-.56 1.383a1.886 1.886 0 0 1-1.345.531c-.539 0-.991-.18-1.357-.538-.363-.358-.546-.817-.546-1.376zm.752-.001c0 .357.112.65.335.878.223.227.497.342.818.342.327 0 .6-.116.822-.347.22-.231.33-.522.33-.874 0-.355-.112-.647-.336-.877a1.098 1.098 0 0 0-.816-.344c-.334 0-.61.117-.827.351a1.236 1.236 0 0 0-.326.87zM59.844 79.277v.438c.457-.33.873-.494 1.25-.494.235 0 .43.056.582.167a.77.77 0 0 1 .302.407c.048.161.071.396.071.705v1.765h.61v.631h-1.322V80.53c0-.274-.04-.452-.123-.536a.408.408 0 0 0-.303-.125c-.314 0-.67.153-1.067.46v1.936h.625v.631h-1.972v-.631h.637v-2.355h-.637v-.632h1.347zM65.414 82.245v-3.9H64.7v-.65h2.115c.442 0 .792.035 1.052.104.259.068.474.213.643.434.17.22.255.495.255.824 0 .687-.357 1.12-1.072 1.296l.92 1.892h.636v.65H68.12l-1.186-2.43h-.733v1.78h.666v.65h-2.168v-.65h.715zm.787-2.43h.613c.297 0 .517-.02.657-.058a.629.629 0 0 0 .346-.236c.09-.118.134-.278.134-.476a.677.677 0 0 0-.137-.43.594.594 0 0 0-.336-.222 2.905 2.905 0 0 0-.612-.047H66.2v1.47zM69.523 81.086c0-.558.185-1.016.554-1.374.37-.357.82-.537 1.35-.537.522 0 .97.177 1.345.53.373.352.56.813.56 1.381 0 .568-.186 1.03-.56 1.383a1.886 1.886 0 0 1-1.345.531c-.539 0-.991-.18-1.357-.538-.364-.358-.547-.817-.547-1.376zm.753-.001c0 .357.112.65.335.878.223.227.497.342.818.342.327 0 .6-.116.822-.347.22-.231.33-.522.33-.874 0-.355-.112-.647-.336-.877a1.098 1.098 0 0 0-.816-.344c-.334 0-.61.117-.827.351a1.236 1.236 0 0 0-.326.87zM77.597 82.264v.631h-1.242v-.441c-.345.334-.729.5-1.153.5a1.26 1.26 0 0 1-.859-.32 1.049 1.049 0 0 1-.365-.823c0-.336.13-.615.388-.838.259-.222.57-.333.934-.333.339 0 .667.103.984.307v-.36c0-.184-.018-.326-.053-.425-.035-.1-.117-.19-.245-.27a.949.949 0 0 0-.504-.119c-.356 0-.614.143-.774.426l-.682-.18c.302-.563.824-.844 1.565-.844.272 0 .507.036.706.11.198.073.346.167.444.283a.925.925 0 0 1 .196.376c.034.134.05.349.05.643v1.674h.61v.003zm-1.314-.713c-.308-.24-.618-.359-.933-.359a.728.728 0 0 0-.494.172.561.561 0 0 0-.199.445c0 .169.059.311.175.426.115.114.273.171.473.171.344 0 .67-.145.976-.434v-.421h.002zM78.008 82.896v-1.24h.637v.12c.022.169.114.309.274.419a.99.99 0 0 0 .572.164c.228 0 .412-.04.55-.12.136-.08.206-.19.206-.333a.324.324 0 0 0-.171-.302c-.113-.064-.339-.125-.675-.178-.5-.084-.856-.22-1.068-.409a.928.928 0 0 1-.32-.732c0-.302.115-.554.348-.757.232-.203.537-.305.917-.305.342 0 .637.07.883.212v-.156h.632v1.2h-.632v-.22c-.191-.297-.472-.445-.838-.445a.821.821 0 0 0-.462.121.37.37 0 0 0-.181.324c0 .136.055.23.166.282.11.051.35.105.716.162.352.055.618.12.797.193a1.023 1.023 0 0 1 .625.963.958.958 0 0 1-.387.801c-.258.199-.593.298-1.005.298-.387 0-.702-.087-.946-.264v.203h-.638zM81.436 79.909v-.632h.473v-.557l.711-.65v1.208h.67v.632h-.67v1.756c0 .281.015.455.047.522.031.066.108.099.233.099.133 0 .262-.025.39-.075v.647a1.637 1.637 0 0 1-.547.097c-.218 0-.393-.048-.528-.144a.614.614 0 0 1-.255-.36c-.035-.145-.053-.394-.053-.749V79.91h-.47zM87.626 81.266H84.58c.045.334.178.604.398.81.22.208.5.311.842.311.497 0 .89-.2 1.179-.597l.629.276c-.205.317-.471.551-.797.705-.326.154-.669.23-1.026.23-.554 0-1.027-.172-1.421-.518-.393-.345-.59-.811-.59-1.396 0-.555.192-1.013.575-1.372.383-.36.822-.538 1.319-.538.486 0 .928.175 1.323.525.396.35.601.872.615 1.564zm-.733-.516a1.293 1.293 0 0 0-.398-.69 1.1 1.1 0 0 0-.79-.308c-.284 0-.528.094-.73.28a1.186 1.186 0 0 0-.37.72h2.288v-.002zM88.81 82.264v-2.355h-.73v-.632h1.298v.815c.08-.213.19-.388.333-.528.143-.14.293-.232.451-.276.16-.045.375-.068.65-.068h.187v.718h-.143c-.362 0-.632.036-.81.108a.73.73 0 0 0-.398.395c-.086.19-.128.532-.128 1.026v.796h.79v.63h-2.23v-.63h.73zM91.422 82.896v-1.24h.636v.12c.023.169.115.309.275.419a.99.99 0 0 0 .571.164c.23 0 .413-.04.55-.12.137-.08.206-.19.206-.333a.324.324 0 0 0-.17-.302c-.114-.064-.34-.125-.676-.178-.498-.084-.855-.22-1.067-.409a.928.928 0 0 1-.32-.732c0-.302.115-.554.348-.757.232-.203.537-.305.917-.305.342 0 .637.07.883.212v-.156h.632v1.2h-.632v-.22c-.192-.297-.472-.445-.838-.445a.822.822 0 0 0-.462.121.37.37 0 0 0-.181.324c0 .136.054.23.165.282.111.051.351.105.717.162.351.055.618.12.796.193a1.023 1.023 0 0 1 .625.963.958.958 0 0 1-.386.801c-.258.199-.594.298-1.005.298-.387 0-.702-.087-.946-.264v.203h-.638z" fill="#BFBFBF"/>
</svg>
