<svg width="120" height="120" fill="none" xmlns="http://www.w3.org/2000/svg">
    <path fill="#332F2C" d="M0 0h120v120H0z"/>
    <path d="M79.855 60.47c.19-.229.223-.26.27-.26.046 0 .098.023.289.229.098.103.112.158.112.206 0 .063-.02.095-.165.198v.594c0 1.023.026 1.506.026 1.656 0 .166-.092.246-.289.246-.151 0-.197-.055-.197-.222v-.143h-1.375c.356.563.809.967 1.349 1.284.493.293 1.02.46 1.506.515.033 0 .026.08-.007.087-.17.056-.27.159-.322.365-.04.143-.086.198-.132.198a.95.95 0 0 1-.322-.119 5.143 5.143 0 0 1-1.092-.769c-.369-.34-.743-.824-1.092-1.474.026.967.06 2.203.06 2.449 0 .182-.113.253-.316.253-.165 0-.217-.063-.217-.214 0-.23.026-1.236.052-2.147-.775 1.061-1.598 1.625-2.795 2.06-.046.016-.079-.103-.04-.126.994-.54 1.9-1.332 2.513-2.362h-1.046v.127c0 .174-.079.254-.276.254-.145 0-.204-.064-.204-.206 0-.199.04-.508.04-1.672 0-.595 0-.936-.047-1.316.237.11.336.166.553.309h1.283v-.84h-2.112c-.17 0-.309.015-.493.047l-.066-.31c.21.049.368.064.559.064h2.112v-.07c0-.563-.014-.738-.046-.96.664.103.723.135.723.238 0 .071-.04.119-.21.206v.586h1.868c.289-.404.335-.443.375-.443.046 0 .092.04.407.34.145.135.17.183.17.23 0 .047-.019.071-.085.071H78.44v.84h1.415v.002zm-3.23.2v.926h1.348v-.927h-1.348zm0 1.125v.983h1.348v-.983h-1.348zm1.815-.198h1.46v-.927h-1.46v.927zm0 1.18h1.46v-.983h-1.46v.983zM93.797 61.815c0-.119.026-.174.184-.372.217-.278.317-.666.33-1.158 0-.04.065-.047.072-.008.066.262.098.539.098.8 0 .572-.158 1.04-.453 1.04-.132 0-.23-.12-.23-.302zm4.13 2.377h1.047c.237-.34.296-.388.342-.388.04 0 .099.048.349.301.105.112.138.159.138.206 0 .056-.02.08-.086.08h-1.79c.007.745.027 1.061.027 1.188 0 .166-.092.254-.283.254-.131 0-.197-.071-.197-.198 0-.135.027-.492.033-1.245h-1.112c-.118 0-.217.016-.381.048l-.066-.31c.184.056.29.064.44.064h1.119v-.895h-1.263c-.131 0-.224.016-.381.047l-.066-.3c.17.046.283.055.434.055h.224v-1.134h-.375c-.124 0-.224.016-.38.047l-.067-.309c.178.048.283.064.44.064h.382v-1.03h-.151c-.112 0-.21.015-.369.047l-.026-.119h-.079c-.29.317-.4.452-.638.642a14.51 14.51 0 0 1-.17 1.846c.52.325.809.69.809 1.046 0 .198-.099.373-.23.373-.139 0-.198-.103-.257-.436a2.028 2.028 0 0 0-.349-.848 7.78 7.78 0 0 1-.112.468 4.58 4.58 0 0 1-1 1.862c-.026.031-.092-.04-.072-.08.33-.586.566-1.149.724-1.894.17-.793.224-1.688.224-3.138 0-1.173-.007-1.522-.033-1.862.631.087.697.11.697.214 0 .079-.046.119-.21.198v.975c0 .38 0 .728-.014 1.054.106-.199.198-.404.263-.587.053-.158.099-.293.112-.412.303.254.428.357.467.428a.911.911 0 0 0 .257.024h2.71c.184-.278.243-.325.276-.325.046 0 .105.048.335.27.079.079.105.127.105.174 0 .055-.02.08-.086.08h-.625v1.03h.224c.198-.31.263-.358.303-.358.04 0 .092.04.322.27.093.095.126.158.126.206 0 .055-.02.079-.086.079h-.888v1.133h.132c.19-.285.243-.333.283-.333.046 0 .105.048.315.262.079.087.112.15.112.198 0 .048-.02.071-.086.071H97.93v.897h-.001zm-1.61-4.564c-.139 0-.257.016-.448.047l-.066-.301c.204.047.343.055.514.055h.565v-.166c0-.317 0-.428-.026-.706.585.088.664.12.664.23 0 .047-.032.087-.204.166v.476h.783v-.159c0-.309 0-.428-.026-.713.598.088.664.112.664.222 0 .056-.032.095-.197.175v.476h.678c.204-.333.276-.38.315-.38.04 0 .099.047.342.285.092.103.125.166.125.213 0 .056-.02.08-.086.08H98.54c0 .27.006.404.006.46 0 .166-.086.238-.27.238-.131 0-.197-.056-.197-.214 0-.047.013-.175.02-.484h-.782c.006.278.013.413.013.46 0 .166-.092.238-.277.238-.131 0-.184-.055-.184-.214 0-.047.007-.174.013-.483h-.566v-.001zm1.19 1.11h-.625v1.03h.625v-1.03zm0 1.228h-.625v1.133h.625v-1.133zm1.079-.199v-1.03h-.658v1.03h.658zm0 1.332v-1.133h-.658v1.133h.658zM49.549 72.404a.11.11 0 1 0 0-.22.11.11 0 0 0 0 .22zM50.12 72.901a.11.11 0 1 0 0-.22.11.11 0 0 0 0 .22zM47.994 73.075a.099.099 0 1 0 0-.198.099.099 0 0 0 0 .198zM47.246 72.965a.099.099 0 1 0 0-.197.099.099 0 0 0 0 .197zM52.482 72.038a.11.11 0 1 0 0-.22.11.11 0 0 0 0 .22zM53.768 70.6a.11.11 0 1 0 0-.22.11.11 0 0 0 0 .22zM55.336 68.945a.11.11 0 1 0 0-.22.11.11 0 0 0 0 .22zM54.99 70.857a.11.11 0 1 0 .001-.22.11.11 0 0 0 0 .22zM55.522 69.805a.11.11 0 1 0 0-.22.11.11 0 0 0 0 .22zM59.449 58.44a.11.11 0 1 0 0-.22.11.11 0 0 0 0 .22zM61.518 57.04a.11.11 0 1 0 0-.22.11.11 0 0 0 0 .22zM60.57 58.644a.11.11 0 1 0 0-.22.11.11 0 0 0 0 .22zM64.54 50.777a.11.11 0 1 0 0-.22.11.11 0 0 0 0 .22zM62.665 56.977a.11.11 0 1 0 0-.22.11.11 0 0 0 0 .22zM64.646 58.224a.11.11 0 1 0 0-.22.11.11 0 0 0 0 .22zM63.277 54.544a.11.11 0 1 0 0-.22.11.11 0 0 0 0 .22zM48.941 73.076a.22.22 0 1 0 0-.441.22.22 0 0 0 0 .44zM56.51 69.829a.22.22 0 1 0 0-.441.22.22 0 0 0 0 .44zM61.068 65.918a.22.22 0 1 0 0-.441.22.22 0 0 0 0 .44zM62.785 58.814a.22.22 0 1 0 0-.441.22.22 0 0 0 0 .44zM57.5 65.555a.22.22 0 1 0 0-.44.22.22 0 0 0 0 .44zM58.42 62.475a.22.22 0 1 0 0-.44.22.22 0 0 0 0 .44zM61.096 56.412a.22.22 0 1 0 0-.44.22.22 0 0 0 0 .44zM59.04 54.874a.22.22 0 1 0 0-.44.22.22 0 0 0 0 .44zM64.864 55.626a.22.22 0 1 0 0-.441.22.22 0 0 0 0 .44zM54.168 71.5a.22.22 0 1 0 0-.44.22.22 0 0 0 0 .44zM56.756 67.575a.22.22 0 1 0 0-.441.22.22 0 0 0 0 .44zM52.748 71.403a.22.22 0 1 0 0-.44.22.22 0 0 0 0 .44zM51.25 72.705a.67.67 0 1 0 0-1.339.67.67 0 0 0 0 1.339zM61.13 65.016a.67.67 0 1 0 0-1.339.67.67 0 0 0 0 1.339zM58.39 67.977a.473.473 0 1 0 0-.947.473.473 0 0 0 0 .947zM59.254 61.094a.886.886 0 1 0 0-1.77.886.886 0 0 0 0 1.77zM63.123 61.439a.583.583 0 1 0 0-1.166.583.583 0 0 0 0 1.166zM61.252 53.17a.583.583 0 1 0 0-1.165.583.583 0 0 0 0 1.166zM61.615 55.264a.326.326 0 1 0 0-.651.326.326 0 0 0 0 .651zM58.874 63.644a.113.113 0 1 0 .1-.203.113.113 0 0 0-.1.203zM57.232 68.803c.005.074.07.13.144.124a.135.135 0 0 0 .123-.144.135.135 0 0 0-.144-.124.133.133 0 0 0-.123.144zM59.543 67.332a.072.072 0 1 0 .033.14.072.072 0 0 0-.033-.14zM59.355 64.419a.072.072 0 0 0-.045.09.072.072 0 0 0 .09.045.072.072 0 0 0 .045-.09.072.072 0 0 0-.09-.045zM61.739 62.809a.134.134 0 1 0-.06-.262.134.134 0 0 0 .06.262zM59.646 66.036a.134.134 0 1 0-.059-.262.134.134 0 0 0 .059.262zM60.85 61.747a.305.305 0 1 0 .61-.007.305.305 0 0 0-.61.007zM60.23 57.388a.134.134 0 0 0 .165.212.134.134 0 0 0-.165-.212zM62.771 62.962a.134.134 0 1 0 .102.249.134.134 0 0 0-.102-.249zM59.356 53.26a.088.088 0 1 0 .043.172.088.088 0 0 0-.043-.171zM62.543 46.491a.088.088 0 1 0 .043.171.088.088 0 0 0-.043-.17zM61.606 44.805a.088.088 0 1 0 .043.17.088.088 0 0 0-.043-.17zM60.38 55.059a.06.06 0 1 0 0-.121.06.06 0 0 0 0 .12zM65.62 53.07a.06.06 0 0 0 .001-.12.06.06 0 0 0 0 .12zM62.285 51.531a.134.134 0 1 0-.017-.268.134.134 0 0 0 .017.268zM64.764 47.953a.134.134 0 1 0-.016-.268.134.134 0 0 0 .016.268zM59.618 49.635a.134.134 0 0 0 .06-.18.133.133 0 0 0-.179-.06.134.134 0 1 0 .119.24zM60.907 50.613a.133.133 0 0 0 .06-.18.133.133 0 0 0-.179-.06.134.134 0 0 0 .119.24zM59.313 46.61a.133.133 0 0 0 .061-.18.134.134 0 0 0-.18-.06.134.134 0 1 0 .119.24zM58.134 43.106a.134.134 0 0 0 .06-.18.134.134 0 0 0-.18-.06.134.134 0 0 0-.06.18.133.133 0 0 0 .18.06zM59.454 56.449a.057.057 0 0 0 .034-.073.057.057 0 0 0-.073-.034.057.057 0 0 0-.034.073c.011.029.043.044.073.034zM62.167 49.064a.305.305 0 1 0 .22-.57.305.305 0 0 0-.22.57zM59.344 50.943a.278.278 0 1 0 .067-.55.278.278 0 0 0-.067.55zM31.058 49.833a.11.11 0 1 0 0-.22.11.11 0 0 0 0 .22zM24.77 67.222a.11.11 0 1 0 .001-.22.11.11 0 0 0 0 .22zM27.398 76.379a.11.11 0 1 0 0-.221.11.11 0 0 0 0 .22zM27.765 59.059a.11.11 0 1 0 0-.22.11.11 0 0 0 0 .22zM25.754 57.81a.11.11 0 1 0 0-.22.11.11 0 0 0 0 .22zM24.061 56.859a.11.11 0 1 0 0-.22.11.11 0 0 0 0 .22zM22.684 62.603a.11.11 0 1 0 0-.22.11.11 0 0 0 0 .22zM26.715 67.673a.11.11 0 1 0 0-.22.11.11 0 0 0 0 .22zM26.787 71.812a.11.11 0 1 0 0-.22.11.11 0 0 0 0 .22zM21.68 69.4a.11.11 0 1 0 0-.221.11.11 0 0 0 0 .22zM20.11 64.453a.11.11 0 1 0 0-.221.11.11 0 0 0 0 .22zM23.08 66.296a.22.22 0 1 0 0-.441.22.22 0 0 0 0 .44zM21.2 67.09a.22.22 0 1 0 0-.441.22.22 0 0 0 0 .44zM35.06 49.206a.128.128 0 1 0 0-.255.128.128 0 0 0 0 .255zM32.236 50.977a.22.22 0 1 0 0-.441.22.22 0 0 0 0 .44zM26.995 57.867a.22.22 0 1 0 0-.44.22.22 0 0 0 0 .44zM37.644 48.564a.11.11 0 1 0 0-.22.11.11 0 0 0 0 .22zM37.218 47.912a.11.11 0 1 0 0-.22.11.11 0 0 0 0 .22zM32.088 48.873a.11.11 0 1 0 0-.22.11.11 0 0 0 0 .22zM30.084 51.395a.11.11 0 1 0 0-.22.11.11 0 0 0 0 .22zM25.454 60.024a.11.11 0 1 0 0-.22.11.11 0 0 0 0 .22zM21.914 59.575a.11.11 0 1 0 0-.22.11.11 0 0 0 0 .22zM26.663 61.007a.11.11 0 1 0 0-.22.11.11 0 0 0 0 .22zM38.98 48.694a.22.22 0 1 0 0-.441.22.22 0 0 0 0 .44zM29.584 50.767a.22.22 0 1 0 0-.441.22.22 0 0 0 0 .44zM24.778 68.804a.22.22 0 1 0 0-.441.22.22 0 0 0 0 .44zM27.292 53.226a.22.22 0 1 0 0-.44.22.22 0 0 0 0 .44zM28.5 55.4a.22.22 0 1 0 0-.441.22.22 0 0 0 0 .44zM23.735 64.332a.22.22 0 1 0 0-.441.22.22 0 0 0 0 .44zM21.482 61.122a.22.22 0 1 0 0-.44.22.22 0 0 0 0 .44zM27.926 51.898a.22.22 0 1 0 0-.44.22.22 0 0 0 0 .44zM36.142 48.693a.22.22 0 1 0 0-.44.22.22 0 0 0 0 .44zM33.933 49.31a.379.379 0 1 0 0-.757.379.379 0 0 0 0 .758zM29.394 53.313a.473.473 0 1 0 0-.947.473.473 0 0 0 0 .947zM24.38 59.071a.886.886 0 1 0 0-1.77.886.886 0 0 0 0 1.77zM25.088 56.039a.547.547 0 1 0 0-1.094.547.547 0 0 0 0 1.094zM25.884 62.933a.387.387 0 1 0 0-.773.387.387 0 0 0 0 .773zM23.947 61.749a.387.387 0 1 0 0-.773.387.387 0 0 0 0 .773zM26.116 65.203a.134.134 0 1 0-.064-.261.134.134 0 0 0 .064.26zM24.203 69.66a.08.08 0 1 0-.16-.004.08.08 0 0 0 .16.004zM24.372 73.864a.08.08 0 1 0-.16-.004.08.08 0 0 0 .16.004zM26.602 73.644a.08.08 0 1 0-.16-.004.08.08 0 0 0 .16.004zM23.46 71.418a.08.08 0 1 0-.16-.005.08.08 0 0 0 .16.005zM26.42 63.846a.057.057 0 0 0-.06.053.057.057 0 0 0 .053.061.057.057 0 1 0 .008-.114zM24.567 66.243a.057.057 0 0 0-.06.053.057.057 0 0 0 .053.06.057.057 0 0 0 .06-.052.057.057 0 0 0-.053-.061zM27.51 69.612a.19.19 0 1 0-.186.33.19.19 0 0 0 .186-.33zM26.346 71.09a.19.19 0 1 0-.186.33.19.19 0 0 0 .186-.33zM26.816 59.692a.114.114 0 0 0-.173.147.114.114 0 0 0 .173-.147zM27.147 54.888a.113.113 0 1 0-.173.146.113.113 0 0 0 .173-.146zM27.636 56.408a.114.114 0 0 0-.173.146.114.114 0 0 0 .173-.146zM32.15 50.05a.135.135 0 1 0-.171.082.134.134 0 0 0 .172-.083z" fill="#C0BFBF"/>
    <path d="M33.775 49.002a.072.072 0 0 0 .077-.065.072.072 0 0 0-.064-.077.072.072 0 0 0-.078.064.072.072 0 0 0 .065.078zM34.952 48.137a.124.124 0 1 0 0-.247.124.124 0 0 0 0 .247zM30.498 67.041a.11.11 0 1 0 0-.22.11.11 0 0 0 0 .22zM30.579 69.282a.11.11 0 1 0 0-.22.11.11 0 0 0 0 .22zM31.28 68.962a.11.11 0 1 0 0-.22.11.11 0 0 0 0 .22zM31.964 71.789a.11.11 0 1 0 0-.22.11.11 0 0 0 0 .22zM32.122 70.318a.11.11 0 1 0 0-.22.11.11 0 0 0 0 .22zM33.24 70.968a.11.11 0 1 0 0-.22.11.11 0 0 0 0 .22zM33.874 76.13a.11.11 0 1 0 0-.22.11.11 0 0 0 0 .22zM37.59 74.641a.11.11 0 1 0 .001-.22.11.11 0 0 0 0 .22zM40.648 77.182a.11.11 0 1 0 0-.221.11.11 0 0 0 0 .22zM49.937 80.925a.11.11 0 1 0 0-.22.11.11 0 0 0 0 .22zM52.37 81.305a.11.11 0 1 0 0-.22.11.11 0 0 0 0 .22zM44.27 76.545a.11.11 0 1 0 0-.22.11.11 0 0 0 0 .22zM40.965 76.346a.11.11 0 1 0 0-.22.11.11 0 0 0 0 .22zM42.887 77.58a.11.11 0 1 0 0-.22.11.11 0 0 0 0 .22zM39.48 78.147a.11.11 0 1 0 0-.22.11.11 0 0 0 0 .22zM30.847 68.398a.22.22 0 1 0 0-.44.22.22 0 0 0 0 .44zM35.323 74.147a.22.22 0 1 0 0-.441.22.22 0 0 0 0 .44zM41.344 78.344a.373.373 0 1 0 0-.747.373.373 0 0 0 0 .747zM38.528 76.506a.22.22 0 1 0 0-.44.22.22 0 0 0 0 .44zM38.745 81.031a.22.22 0 1 0 0-.44.22.22 0 0 0 0 .44zM45.326 80.508a.22.22 0 1 0 0-.44.22.22 0 0 0 0 .44zM50.07 79.12a.22.22 0 1 0 0-.44.22.22 0 0 0 0 .44zM42.92 77.016a.22.22 0 1 0 0-.441.22.22 0 0 0 0 .44zM49.7 77.797a.22.22 0 1 0 0-.44.22.22 0 0 0 0 .44zM42.823 79.722a.22.22 0 1 0 0-.44.22.22 0 0 0 0 .44zM48.731 82.575a.22.22 0 1 0 0-.441.22.22 0 0 0 0 .44zM55.358 75.915a.22.22 0 1 0 0-.44.22.22 0 0 0 0 .44zM33.511 73.633a.555.555 0 1 0 0-1.11.555.555 0 0 0 0 1.11zM31.375 70.026a.22.22 0 1 0 0-.441.22.22 0 0 0 0 .44zM36.605 76.735a1.01 1.01 0 1 0 0-2.02 1.01 1.01 0 0 0 0 2.02zM58.982 75.046a.108.108 0 1 0 0-.215.108.108 0 0 0 0 .215zM51.859 77.37a.108.108 0 1 0 0-.216.108.108 0 0 0 0 .215zM53.233 79.382a.108.108 0 1 0 0-.216.108.108 0 0 0 0 .216zM54.72 80.687a.108.108 0 1 0 0-.215.108.108 0 0 0 0 .215zM54.608 79.614a.108.108 0 1 0 0-.216.108.108 0 0 0 0 .216zM30.475 66.15a.07.07 0 0 0-.059-.082.071.071 0 0 0-.082.06.07.07 0 0 0 .06.08.072.072 0 0 0 .081-.059zM30.392 65.37a.123.123 0 1 0-.246-.018.123.123 0 0 0 .246.017zM45.432 78.778a.134.134 0 1 0-.238.124.134.134 0 0 0 .238-.124zM54.33 77.29a.134.134 0 1 0-.24.125.134.134 0 0 0 .24-.124zM56.71 78.756a.134.134 0 1 0-.239.124.134.134 0 0 0 .239-.124zM52.83 76.316a.088.088 0 1 0-.167.06.088.088 0 0 0 .167-.06zM47.453 76.846a.088.088 0 1 0-.166.059.088.088 0 0 0 .166-.06zM45.478 76.934a.088.088 0 1 0-.166.06.088.088 0 0 0 .166-.06zM57.562 77.041a.08.08 0 0 0-.053.1.08.08 0 0 0 .1.054.08.08 0 1 0-.047-.154zM31.662 71.408a.134.134 0 1 0-.206-.172.134.134 0 0 0 .206.172zM34.324 74.463a.134.134 0 1 0-.106.246.134.134 0 0 0 .106-.246zM32.427 74.097a.088.088 0 1 0-.118-.132.088.088 0 0 0 .118.132zM31.552 73.154a.06.06 0 0 0-.026.081.06.06 0 1 0 .107-.055.06.06 0 0 0-.08-.026zM39.593 79.414a.08.08 0 0 0-.132.091.08.08 0 0 0 .132-.09zM41.635 80.926a.134.134 0 1 0-.01.269.134.134 0 0 0 .01-.269zM47.7 77.722a.134.134 0 1 0-.01.268.134.134 0 0 0 .01-.268zM47.376 81.006a.134.134 0 1 0-.01.268.134.134 0 0 0 .01-.268zM44.338 81.787a.134.134 0 1 0-.01.268.134.134 0 0 0 .01-.268zM37.292 78.793a.134.134 0 1 0 .218.158.134.134 0 0 0-.218-.158zM38.63 75.628a.072.072 0 0 0-.096-.035.072.072 0 0 0-.035.095.072.072 0 0 0 .095.035.071.071 0 0 0 .035-.095zM39.781 75.98a.072.072 0 0 0-.095-.035.072.072 0 0 0-.035.095.072.072 0 0 0 .095.035.072.072 0 0 0 .035-.095zM33.186 71.718a.057.057 0 0 0-.018.079.057.057 0 0 0 .079.017.057.057 0 0 0 .017-.078.058.058 0 0 0-.078-.018zM32.27 69.539a.057.057 0 0 0-.018.079.057.057 0 0 0 .079.017.057.057 0 0 0 .017-.079.057.057 0 0 0-.078-.017zM33.031 75.183a.134.134 0 1 0 .266-.036.134.134 0 0 0-.266.036zM35.381 77.584a.278.278 0 1 0 .197.519.278.278 0 0 0-.197-.52zM43.263 69.53l-4.906-1.787-.015-.016-2.896-3.163-.004-.025-.797-4.133 1.272-4.872.032-.018 5.747-3.222.034.008 5.536 1.452.016.014 3.85 3.347.533 4.758-.01.022-2.226 4.833-.03.014-6.136 2.787zm-4.806-1.937 4.8 1.748 6.04-2.745 2.188-4.752-.52-4.641-3.783-3.29-5.463-1.432-5.652 3.17-1.243 4.762.784 4.07 2.849 3.11z" fill="#C0BFBF"/>
    <path d="m46.155 60.521-2.684-3.224.727-2.645 3-.903.05.168-2.907.874-.678 2.464 2.567 3.083 4.113-.422.619-2.776.17.038-.646 2.899-4.331.444z" fill="#C0BFBF"/>
    <path d="m43.336 69.478-.153-.085 1.88-3.38 1.018-5.463-4.843 1.305-2.586 2.371-.119-.129 2.618-2.4.02-.005 5.133-1.383-1.074 5.764-1.894 3.405z" fill="#C0BFBF"/>
    <path d="m38.495 67.672-.175-.01.18-3.401-2.962.349-.02-.174 3.168-.373-.19 3.61z" fill="#C0BFBF"/>
    <path d="m45.123 66.128-6.576-1.888-3.873-3.768.122-.125 3.842 3.737 6.532 1.875-.047.169z" fill="#C0BFBF"/>
    <path d="m34.783 60.482-.097-.145 5.746-3.865 3.154.719-.038.17-3.08-.702-5.685 3.823zM50.49 59.95l-.148.092 1.16 1.861.149-.092-1.16-1.861z" fill="#C0BFBF"/>
    <path d="m45.133 66.156-4.02-4.34-.752-5.258.006-.018 1.257-4.179.167.05-1.251 4.16.738 5.166 3.883 4.193 6.367-4.146.095.147-6.49 4.225z" fill="#C0BFBF"/>
    <path d="m41.767 52.323-.117.13 2.562 2.334.118-.13-2.563-2.334zM43.739 45.434a.607.607 0 1 0 0-1.214.607.607 0 0 0 0 1.214zM37.756 43.72a.43.43 0 1 0 0-.858.43.43 0 0 0 0 .858zM48.064 52.406a.11.11 0 1 0 0-.22.11.11 0 0 0 0 .22zM48.236 51.691a.11.11 0 1 0 0-.22.11.11 0 0 0 0 .22zM48.07 50.09a.11.11 0 1 0 0-.22.11.11 0 0 0 0 .22zM45.205 47.264a.11.11 0 1 0 0-.22.11.11 0 0 0 0 .22zM48.113 49.304a.11.11 0 1 0 0-.22.11.11 0 0 0 0 .22zM46.129 48.072a.11.11 0 1 0 0-.22.11.11 0 0 0 0 .22zM46.353 47.673a.11.11 0 1 0 0-.22.11.11 0 0 0 0 .22zM40.806 44.412a.11.11 0 1 0 0-.22.11.11 0 0 0 0 .22zM41.9 44.89a.11.11 0 1 0 0-.22.11.11 0 0 0 0 .22zM32.255 43.98a.11.11 0 1 0 0-.221.11.11 0 0 0 0 .22zM31.474 44.82a.11.11 0 1 0 0-.221.11.11 0 0 0 0 .22zM37.227 42.397a.11.11 0 1 0 0-.22.11.11 0 0 0 0 .22zM39.49 42.161a.11.11 0 1 0 0-.22.11.11 0 0 0 0 .22zM42.087 42.908a.11.11 0 1 0 0-.22.11.11 0 0 0 0 .22zM41.111 41.78a.11.11 0 1 0 0-.22.11.11 0 0 0 0 .22zM34.016 42.786a.11.11 0 1 0 0-.22.11.11 0 0 0 0 .22zM36.67 44.421a.11.11 0 1 0-.001-.22.11.11 0 0 0 0 .22zM35.553 43.895a.11.11 0 1 0 0-.22.11.11 0 0 0 0 .22zM30.067 46.22a.11.11 0 1 0 0-.22.11.11 0 0 0 0 .22zM27.453 47.61a.11.11 0 1 0 0-.22.11.11 0 0 0 0 .22zM24.435 48.843a.11.11 0 1 0 0-.22.11.11 0 0 0 0 .22zM26.059 45.638a.11.11 0 1 0 0-.22.11.11 0 0 0 0 .22zM26.867 43.376a.11.11 0 1 0 0-.22.11.11 0 0 0 0 .22zM28.447 41.21a.11.11 0 1 0 0-.221.11.11 0 0 0 0 .22zM23.694 47.327a.11.11 0 1 0 0-.22.11.11 0 0 0 0 .22zM27.896 46.34a.369.369 0 1 0 0-.737.369.369 0 0 0 0 .737zM47.775 51.024a.22.22 0 1 0 0-.44.22.22 0 0 0 0 .44zM47.37 48.79a.22.22 0 1 0 0-.441.22.22 0 0 0 0 .44zM45.819 46.442a.22.22 0 1 0 0-.44.22.22 0 0 0 0 .44zM39.399 44.052a.22.22 0 1 0 0-.44.22.22 0 0 0 0 .44zM43.724 46.334a.22.22 0 1 0 0-.441.22.22 0 0 0 0 .44zM43.285 43.756a.22.22 0 1 0 0-.44.22.22 0 0 0 0 .44zM35.418 43.316a.22.22 0 1 0 0-.441.22.22 0 0 0 0 .44zM31.722 42.958a.22.22 0 1 0 0-.44.22.22 0 0 0 0 .44zM35.438 41.699a.22.22 0 1 0 0-.44.22.22 0 0 0 0 .44zM36.586 40.285a.22.22 0 1 0 0-.441.22.22 0 0 0 0 .44zM38.731 42.414a.22.22 0 1 0 0-.44.22.22 0 0 0 0 .44zM40.784 43.287a.22.22 0 1 0 0-.44.22.22 0 0 0 0 .44zM34.138 44.36a.22.22 0 1 0 0-.44.22.22 0 0 0 0 .44zM29.527 44.309a.946.946 0 1 0 0-1.893.946.946 0 0 0 0 1.893zM47.2 49.855a.34.34 0 1 0 0-.68.34.34 0 0 0 0 .68zM27.495 44.681a.134.134 0 1 0-.198-.18.134.134 0 1 0 .198.18zM31.173 43.532a.06.06 0 0 0-.068-.05.06.06 0 0 0-.05.067.06.06 0 0 0 .119-.017zM31.155 40.747a.08.08 0 1 0-.043-.154.08.08 0 0 0 .043.154zM37.678 41.436a.134.134 0 1 0-.22.153.134.134 0 0 0 .22-.153zM38.628 40.825a.134.134 0 1 0-.22.153.134.134 0 0 0 .22-.153zM33.59 41.302a.072.072 0 0 0 .064-.078.072.072 0 0 0-.079-.064.072.072 0 0 0-.064.078c.004.039.04.068.078.064zM33.416 39.995a.072.072 0 0 0 .065-.078.072.072 0 0 0-.078-.065.072.072 0 0 0 .014.142zM53.026 51.205a.861.861 0 1 0 0-1.722.861.861 0 0 0 0 1.722zM51.924 44.694a.609.609 0 1 0 0-1.217.609.609 0 0 0 0 1.217zM47.935 42.15a.858.858 0 1 0 0-1.716.858.858 0 0 0 0 1.716zM50.718 43.573a.22.22 0 1 0 0-.44.22.22 0 0 0 0 .44zM51.316 49.32a.22.22 0 1 0 0-.44.22.22 0 0 0 0 .44zM53.744 49.22a.22.22 0 1 0 0-.441.22.22 0 0 0 0 .44zM50.39 45.63a.11.11 0 1 0 0-.22.11.11 0 0 0 0 .22zM52.533 48.583a.11.11 0 1 0 0-.22.11.11 0 0 0 0 .22zM52.771 47.055a.11.11 0 1 0 0-.22.11.11 0 0 0 0 .22zM51.508 51.642a.11.11 0 1 0 0-.22.11.11 0 0 0 0 .22zM52.258 52.808a.11.11 0 1 0 0-.22.11.11 0 0 0 0 .22zM50.828 55.363a.11.11 0 1 0 0-.22.11.11 0 0 0 0 .22zM51.508 54.434a.11.11 0 1 0 0-.22.11.11 0 0 0 0 .22zM48.343 57.269a.11.11 0 1 0 0-.22.11.11 0 0 0 0 .22zM49.572 56.725a.11.11 0 1 0 0-.22.11.11 0 0 0 0 .22zM50.939 56.066a.11.11 0 1 0 0-.22.11.11 0 0 0 0 .22zM49.048 57.38a.11.11 0 1 0 0-.22.11.11 0 0 0 0 .22zM47.251 58.55a.11.11 0 1 0 0-.22.11.11 0 0 0 0 .22zM46.639 59.012a.11.11 0 1 0 0-.22.11.11 0 0 0 0 .22zM44.654 60.408a.11.11 0 1 0 0-.22.11.11 0 0 0 0 .22zM41.846 60.405a.11.11 0 1 0 0-.22.11.11 0 0 0 0 .22zM42.38 61.051a.11.11 0 1 0 0-.22.11.11 0 0 0 0 .22zM43.747 60.111a.11.11 0 1 0 0-.22.11.11 0 0 0 0 .22zM42.38 64.393a.11.11 0 1 0 0-.22.11.11 0 0 0 0 .22zM52.714 52.266a.22.22 0 1 0 0-.44.22.22 0 0 0 0 .44zM50.303 55.917a.22.22 0 1 0 0-.44.22.22 0 0 0 0 .44zM51.618 55.325a.22.22 0 1 0 0-.44.22.22 0 0 0 0 .44zM41.127 63.579a.22.22 0 1 0 0-.44.22.22 0 0 0 0 .44zM53.427 45.956a.22.22 0 1 0 0-.44.22.22 0 0 0 0 .44zM51.134 47.385a.22.22 0 1 0 0-.44.22.22 0 0 0 0 .44zM52.423 54.111a.43.43 0 1 0 0-.86.43.43 0 0 0 0 .86zM39.544 63.685a.123.123 0 1 0 .212.124.123.123 0 0 0-.212-.124zM37.24 60.32a.123.123 0 0 0 .11-.22.123.123 0 0 0-.11.22zM36.78 63.657a.052.052 0 0 0-.023-.07.052.052 0 0 0-.07.024.052.052 0 0 0 .023.07.053.053 0 0 0 .07-.024zM36.466 58.202a.061.061 0 0 0-.026-.082.061.061 0 0 0-.083.027.061.061 0 0 0 .027.082.06.06 0 0 0 .082-.027zM41.53 64.643a.1.1 0 1 0-.172-.1.1.1 0 0 0 .171.1zM40.19 63.771a.123.123 0 1 0 .125-.212.123.123 0 0 0-.124.212zM43.605 66.293a.122.122 0 1 0-.075-.156.122.122 0 0 0 .075.156zM42.262 65.774a.067.067 0 0 0 .029.09.067.067 0 0 0 .09-.029.067.067 0 0 0-.028-.09.067.067 0 0 0-.09.029zM41.978 64.847a.067.067 0 0 0 .028.09.067.067 0 0 0 .09-.029.067.067 0 0 0-.028-.09.066.066 0 0 0-.09.029zM45.334 67.828a.065.065 0 1 0-.124-.037c-.01.035.009.071.043.082.034.01.07-.01.08-.045zM48.024 66.402a.07.07 0 0 0 .07.069.07.07 0 0 0 .07-.07.07.07 0 0 0-.14.002zM48.908 65.455a.123.123 0 0 0 .097-.144.123.123 0 0 0-.144-.097.123.123 0 0 0 .047.24zM47.698 65.791a.075.075 0 1 0-.146-.027.075.075 0 0 0 .146.027zM39.61 59.2a.03.03 0 0 0-.04.013.03.03 0 0 0 .013.04.03.03 0 0 0 .04-.013.03.03 0 0 0-.013-.04zM35.795 62.195a.03.03 0 0 0-.041.014.03.03 0 0 0 .013.04.03.03 0 0 0 .041-.013.03.03 0 0 0-.013-.04zM37.75 62.45a.03.03 0 0 0-.04.013.03.03 0 0 0 .012.041.03.03 0 0 0 .041-.013.03.03 0 0 0-.013-.041zM46.032 67.572a.123.123 0 1 0 .054-.239.123.123 0 0 0-.054.24zM40.575 67.679a.189.189 0 1 0 .164-.34.189.189 0 0 0-.164.34zM37.707 57.095a.066.066 0 1 0-.118-.06.066.066 0 0 0 .118.06zM42.394 67.07a.123.123 0 0 0-.11.22.123.123 0 0 0 .11-.22zM41.685 66.594a.032.032 0 0 0-.014-.043.032.032 0 0 0-.042.014.032.032 0 0 0 .056.029zM40.126 64.214a.032.032 0 0 0-.014-.042.032.032 0 0 0-.042.014.032.032 0 0 0 .014.042.031.031 0 0 0 .042-.014zM44.7 59.793a.031.031 0 0 0-.018-.04.031.031 0 0 0-.04.017.031.031 0 0 0 .017.041.031.031 0 0 0 .04-.018zM46.142 59.433a.031.031 0 0 0-.009-.044.031.031 0 0 0-.043.008.031.031 0 0 0 .008.044c.015.01.034.006.044-.008zM47.812 57.941a.032.032 0 0 0-.01-.044.032.032 0 0 0-.043.01.032.032 0 0 0 .009.043c.014.01.034.006.044-.009zM43.946 60.492a.031.031 0 0 0-.019-.04.032.032 0 1 0 .018.04zM39.982 61.298a.032.032 0 0 0-.014-.042.032.032 0 0 0-.042.014.032.032 0 0 0 .014.042.032.032 0 0 0 .042-.014zM41.934 63.825a.032.032 0 0 0-.014-.043.032.032 0 0 0-.042.014.032.032 0 1 0 .056.029zM41.515 62.647a.032.032 0 0 0-.014-.043.032.032 0 0 0-.043.014.032.032 0 0 0 .014.043.031.031 0 0 0 .043-.014zM43.124 64.871a.032.032 0 0 0-.014-.042.032.032 0 0 0-.043.014.032.032 0 0 0 .057.028zM36.723 62.908a.123.123 0 1 0-.22-.111.123.123 0 0 0 .22.11zM42.91 68.01a.073.073 0 1 0 .05.09.073.073 0 0 0-.05-.09zM40.785 66.596a.073.073 0 1 0 .05.09.073.073 0 0 0-.05-.09zM37.085 65.36a.073.073 0 1 0 .05.09.073.073 0 0 0-.05-.09zM36.628 61.182a.062.062 0 0 0-.083.028.062.062 0 0 0 .027.083.062.062 0 0 0 .055-.11zM35.776 61.684a.062.062 0 0 0-.11-.055.062.062 0 0 0 .027.083c.03.015.068.003.083-.028zM37.943 59.53a.062.062 0 0 0 .028.082c.03.015.067.003.083-.027a.062.062 0 0 0-.028-.083.062.062 0 0 0-.083.027zM37.732 56.123a.123.123 0 1 0-.22-.11.123.123 0 0 0 .22.11zM38.464 58.829a.123.123 0 1 0 .11-.22.123.123 0 0 0-.11.22zM39.606 58.365a.123.123 0 1 0-.22-.11.123.123 0 0 0 .22.11zM36.936 56.812a.123.123 0 0 0-.22-.11.123.123 0 0 0 .22.11zM38.424 59.75a.321.321 0 1 0 .574.29.321.321 0 0 0-.574-.29zM37.33 59.673a.25.25 0 1 0 .225-.445.25.25 0 0 0-.225.445zM36.57 57.796a.09.09 0 0 0 .04.121.09.09 0 0 0 .122-.04.09.09 0 0 0-.04-.121.09.09 0 0 0-.122.04zM37.567 61.47a.123.123 0 1 0 .22.11.123.123 0 0 0-.22-.11zM40.366 61.836a.078.078 0 1 0-.07.14.078.078 0 0 0 .07-.14zM40.153 60.248a.078.078 0 1 0-.07.14.078.078 0 0 0 .07-.14zM39.312 60.634a.068.068 0 0 0 .091-.03.068.068 0 0 0-.03-.092.068.068 0 1 0-.061.122zM41.745 61.404a.068.068 0 0 0 .091-.03.068.068 0 1 0-.092.03zM42.97 60.592a.068.068 0 1 0 .065-.121.068.068 0 0 0-.064.12zM42.342 62.316a.068.068 0 1 0 .076-.114.068.068 0 0 0-.076.114zM41.753 63.129a.068.068 0 0 0 .094-.019.069.069 0 0 0-.018-.095.068.068 0 0 0-.076.114zM38.06 56.974a.123.123 0 1 0 .22.11.123.123 0 0 0-.22-.11zM36.025 63.146a.122.122 0 1 0-.11.219.122.122 0 0 0 .11-.22zM37.104 64.837a.123.123 0 0 0-.056-.164.123.123 0 1 0 .055.164zM39.39 62.419a.123.123 0 1 0 .22.109.123.123 0 0 0-.22-.11zM39.756 65.588a.099.099 0 1 0-.179-.085.099.099 0 0 0 .179.085zM42.353 67.653a.122.122 0 1 0 .166-.18.122.122 0 0 0-.166.18zM41.038 64.25a.065.065 0 1 0 .064-.113.065.065 0 0 0-.064.114zM48.646 65.653a.123.123 0 1 0-.077.232.123.123 0 0 0 .077-.232zM45.092 67.43a.057.057 0 1 0 .108-.034.057.057 0 0 0-.108.034zM44.678 67.731a.123.123 0 1 0-.111.22.123.123 0 0 0 .11-.22zM43.797 67.079a.122.122 0 1 0-.086.23.123.123 0 1 0 .086-.23zM46.043 66.809a.123.123 0 1 0-.11.22.123.123 0 0 0 .11-.22zM43.757 65.39a.122.122 0 0 0 .155-.077.123.123 0 1 0-.156.076zM46.601 66.287a.052.052 0 0 0 .034.066.052.052 0 0 0 .065-.033.052.052 0 0 0-.1-.033zM36.756 59.935a.122.122 0 1 0-.219-.11.122.122 0 0 0 .22.11zM38.483 60.761c.03.016.068.003.083-.027a.062.062 0 0 0-.028-.083.062.062 0 0 0-.082.028.062.062 0 0 0 .027.082zM36.05 60.632c.03.015.067.003.082-.028a.062.062 0 0 0-.028-.083.062.062 0 0 0-.083.028.062.062 0 0 0 .028.083zM37.419 61.108c.031.016.07.003.085-.028a.064.064 0 1 0-.086.029zM38.593 63.227a.064.064 0 0 0 .114.057.064.064 0 0 0-.114-.057zM38.213 62.902a.064.064 0 1 0 .057-.115.064.064 0 0 0-.057.115zM37.806 64.716a.064.064 0 0 0 .057-.114.064.064 0 0 0-.057.114zM39.844 66.746a.064.064 0 0 0-.115-.057.064.064 0 0 0 .029.086c.031.016.07.003.086-.029zM39.213 66.172a.064.064 0 0 0-.114-.057.064.064 0 0 0 .114.057zM41.43 67.369a.064.064 0 0 0-.115-.058.064.064 0 0 0 .114.058zM42.996 67.178a.064.064 0 0 0-.09-.004.064.064 0 0 0-.005.09.063.063 0 0 0 .09.004.063.063 0 0 0 .005-.09zM38.8 56.503a.343.343 0 1 0 .309-.613.343.343 0 0 0-.31.613zM47.404 66.461a.286.286 0 1 0-.258.512.286.286 0 0 0 .258-.512zM38.996 61.943a.458.458 0 1 0-.818-.413.458.458 0 0 0 .818.413zM42.857 66.587a.105.105 0 1 0-.156.14.105.105 0 0 0 .156-.14zM40.87 65.679a.254.254 0 1 0-.228.454.254.254 0 0 0 .229-.454zM46.916 39.95a.134.134 0 1 0 .049-.265.134.134 0 0 0-.049.264zM50.053 41.24a.089.089 0 0 0 .022.124c.04.028.094.018.122-.021a.089.089 0 0 0-.02-.123.089.089 0 0 0-.123.02zM48.748 42.733a.071.071 0 1 0 .087.113.071.071 0 0 0-.087-.113zM49.263 43.566a.057.057 0 1 0-.08-.08.057.057 0 0 0 .08.08zM50.59 38.477a.202.202 0 1 0-.133-.382.202.202 0 0 0 .134.382zM52.56 41.227a.088.088 0 0 0 .119.13.089.089 0 0 0 .005-.125.089.089 0 0 0-.125-.005zM46.3 38.133a.088.088 0 0 0 .119.13.088.088 0 0 0-.12-.13zM42.115 38.147a.113.113 0 1 0-.214-.075.113.113 0 0 0 .214.075zM53.782 43.138a.08.08 0 1 0-.077-.143.08.08 0 1 0 .077.143zM48.902 39.721a.08.08 0 1 0-.076-.143.08.08 0 1 0 .076.143zM48.387 37.126a.081.081 0 0 0 .112.02.081.081 0 0 0 .019-.112.08.08 0 0 0-.112-.02.08.08 0 0 0-.02.112zM44.845 37.349a.134.134 0 1 0 .008-.268.134.134 0 0 0-.008.267zM50.132 40.126a.134.134 0 1 0-.218-.156.134.134 0 0 0 .218.156zM45.198 39.658a.135.135 0 1 0-.254.09.135.135 0 0 0 .254-.09zM44.252 38.535a.135.135 0 1 0-.254.09.135.135 0 0 0 .254-.09zM52.496 39.686a.135.135 0 1 0-.254.09.135.135 0 0 0 .254-.09zM51.051 42.354a.277.277 0 1 0-.202-.516.277.277 0 0 0 .202.516z" fill="#C0BFBF"/>
</svg>
