<svg width="120" height="120" fill="none" xmlns="http://www.w3.org/2000/svg">
    <path fill="#332F2C" d="M0 0h120v120H0z"/>
    <path d="M44.4 77.634a.831.831 0 0 1 .291.284c.072.116.108.231.11.35a.542.542 0 0 1-.105.328c-.073.1-.19.174-.354.226-.018.017-.043.099-.073.245-.03.145-.068.314-.112.502-.044.19-.1.377-.161.565-.063.189-.131.33-.206.426-.07.076-.145.138-.23.188-.086.05-.172.096-.262.137a2.955 2.955 0 0 1-1.836.249c-.3-.055-.591-.161-.87-.319a3.231 3.231 0 0 1-.763-.603 3.103 3.103 0 0 1-.662-1.082 3.793 3.793 0 0 1-.231-1.26c-.002-.272.027-.55.09-.831.06-.281.153-.552.276-.81.123-.258.276-.497.462-.714.183-.217.393-.404.625-.559a3.02 3.02 0 0 1 .89-.395c.32-.083.64-.144.965-.182.252-.035.506-.046.76-.032.253.015.502.06.748.138.186.063.38.146.585.252.205.107.37.244.49.41a.816.816 0 0 1 .153.56.57.57 0 0 1-.102.253.562.562 0 0 1-.24.181.563.563 0 0 1-.307.046.94.94 0 0 1-.292-.096 2.09 2.09 0 0 1-.277-.173 4.057 4.057 0 0 0-.257-.173.636.636 0 0 0-.228-.096 2.075 2.075 0 0 0-.254-.038c-.252.007-.51.029-.773.065a3.493 3.493 0 0 0-.752.189c-.237.09-.454.212-.648.37-.195.158-.347.37-.458.635-.14.33-.21.675-.21 1.036 0 .362.084.7.255 1.016.11.208.256.39.434.547.178.157.375.274.592.351.218.076.44.11.673.097.233-.012.454-.08.666-.205l.278-1.087a6.496 6.496 0 0 0-.427-.072 4.708 4.708 0 0 1-.44-.08 2.231 2.231 0 0 1-.417-.139 1.262 1.262 0 0 1-.354-.235.546.546 0 0 1-.169-.328.621.621 0 0 1 .05-.342.714.714 0 0 1 .22-.272.565.565 0 0 1 .352-.114c.063.002.141.014.234.034.09.02.182.04.273.064.091.022.173.045.246.068.073.023.13.038.17.048.262.067.523.131.784.19.263.055.529.119.798.187zM47.249 81.65a.656.656 0 0 1-.278.39.887.887 0 0 1-.433.153.587.587 0 0 1-.389-.105c-.11-.08-.156-.213-.135-.398a57.62 57.62 0 0 1 .31-2.462c.125-.848.25-1.69.372-2.527a.5.5 0 0 1-.22-.221.601.601 0 0 1-.058-.288.755.755 0 0 1 .275-.542c.088-.071.202-.132.342-.18.14-.05.292-.092.456-.128a5.672 5.672 0 0 1 .874-.119 3.21 3.21 0 0 1 1.307.198c.425.158.787.38 1.084.67.298.288.5.638.61 1.046.107.409.06.851-.143 1.325-.061.13-.134.261-.215.389-.082.129-.173.244-.271.35-.143.16-.304.298-.482.412a4.167 4.167 0 0 1-.571.306c.11.156.213.319.307.486.094.168.205.325.331.47.047.055.117.142.208.26a4.543 4.543 0 0 1 .47.758c.06.125.08.224.062.298a.732.732 0 0 1-.161.339.752.752 0 0 1-.274.212.565.565 0 0 1-.316.043.593.593 0 0 1-.313-.161 2.306 2.306 0 0 1-.299-.39c-.091-.146-.18-.283-.266-.407a35.36 35.36 0 0 1-.554-.843c-.18-.283-.365-.561-.556-.834a3.321 3.321 0 0 1-.425-.005c-.143-.01-.283-.018-.423-.026l-.215 1.461-.011.07zm2.575-4.71a1.982 1.982 0 0 0-.86-.41 2.33 2.33 0 0 0-.962-.005l-.341 2.326c.311.024.62.03.928.015.307-.014.601-.102.885-.264.154-.09.284-.202.392-.338.108-.135.181-.277.222-.43a.95.95 0 0 0 .005-.461.88.88 0 0 0-.27-.433zM55.755 81.693c.18.017.325.08.438.187.112.108.18.228.208.361a.583.583 0 0 1-.053.388c-.062.124-.182.217-.36.276a1.606 1.606 0 0 1-.447.069c-.17.004-.34 0-.51-.014a8.657 8.657 0 0 1-.471-.049 5.586 5.586 0 0 0-.331-.035l-.612-.036a.608.608 0 0 1-.368-.142.676.676 0 0 1-.207-.299.615.615 0 0 1-.01-.355.663.663 0 0 1 .211-.331.6.6 0 0 1 .393-.145c.16-.004.32.005.477.028l.239-4.112-.447-.03a.767.767 0 0 1-.407-.175.526.526 0 0 1-.191-.579.773.773 0 0 1 .156-.278.6.6 0 0 1 .272-.182c.099-.037.2-.05.306-.044.352.021.707.04 1.064.056.357.017.716.04 1.074.068a.171.171 0 0 1 .097.037c.03.022.063.042.096.058a.678.678 0 0 1 .3.402.561.561 0 0 1-.092.485.538.538 0 0 1-.193.182.711.711 0 0 1-.244.079 1.412 1.412 0 0 1-.266.01c-.09-.004-.176-.01-.26-.015l-.24 4.133c.055.004.107.005.15.004l.152-.007.076.005zM62.603 81.75a.911.911 0 0 1 .374.28c.087.116.13.234.13.356a.575.575 0 0 1-.123.348.794.794 0 0 1-.391.256 1.192 1.192 0 0 1-.29.046c-.125.007-.298.015-.52.023l-.842.027c-.34.01-.759.029-1.257.052-.125.01-.252.018-.384.022a.483.483 0 0 1-.348-.124.604.604 0 0 1-.193-.311 2.435 2.435 0 0 1-.088-.446 5.32 5.32 0 0 1-.026-.468 20.086 20.086 0 0 0-.008-.39 36.486 36.486 0 0 1-.018-.717c-.006-.27-.01-.545-.017-.826-.006-.281-.013-.556-.021-.826l-.024-.717a27.983 27.983 0 0 1-.019-.89c0-.224.01-.402.03-.53a.543.543 0 0 1 .11-.285.657.657 0 0 1 .224-.158.545.545 0 0 1 .274-.045c.1.007.196.032.285.074a.631.631 0 0 1 .224.18.44.44 0 0 1 .097.264c.042.83.069 1.655.083 2.474.013.819.033 1.636.06 2.455.436-.014.872-.034 1.305-.06.433-.024.87-.051 1.314-.078l.06.015zM68.266 81.242c.167.059.298.143.393.25.096.11.148.224.157.345a.558.558 0 0 1-.099.356.804.804 0 0 1-.372.285c-.067.028-.162.05-.285.067-.125.017-.297.037-.517.06l-.838.09c-.34.037-.755.084-1.25.143-.124.02-.251.037-.382.052a.485.485 0 0 1-.355-.099.61.61 0 0 1-.214-.296 2.307 2.307 0 0 1-.12-.438 4.741 4.741 0 0 1-.06-.464 27.501 27.501 0 0 0-.036-.39 55.533 55.533 0 0 1-.07-.713 108.9 108.9 0 0 0-.16-1.647l-.075-.714c-.04-.366-.067-.66-.084-.885a3.63 3.63 0 0 1-.01-.533.556.556 0 0 1 .09-.292.689.689 0 0 1 .212-.175.56.56 0 0 1 .27-.065.8.8 0 0 1 .289.053c.09.037.17.09.237.163a.43.43 0 0 1 .115.255c.102.826.188 1.646.261 2.462.073.816.152 1.63.239 2.444.434-.045.867-.097 1.297-.153.43-.056.864-.114 1.305-.175l.062.014zM73.709 80.005a.681.681 0 0 1 .34.035.785.785 0 0 1 .264.167.595.595 0 0 1 .156.261.596.596 0 0 1-.004.334.57.57 0 0 1-.096.193.427.427 0 0 1-.156.152 6.254 6.254 0 0 1-1.297.497c-.455.118-.91.197-1.37.235-.131.01-.276.025-.43.04a.884.884 0 0 1-.429-.056.667.667 0 0 1-.428-.523l-.833-4.352a.689.689 0 0 1-.36-.413.532.532 0 0 1 .117-.526c.116-.135.259-.238.429-.31.17-.07.337-.136.503-.195a7.273 7.273 0 0 1 1.046-.286c.354-.068.714-.14 1.082-.217.109-.022.234-.053.373-.097a.819.819 0 0 1 .385-.037.665.665 0 0 1 .349.166c.094.088.16.188.196.302a.582.582 0 0 1-.002.35.592.592 0 0 1-.252.312 1.37 1.37 0 0 1-.528.196c-.196.03-.382.063-.56.096-.258.05-.516.102-.774.158a7.469 7.469 0 0 0-.764.21l.272 1.42a7.08 7.08 0 0 0 .735-.14 29.926 29.926 0 0 0 1.047-.284 1.35 1.35 0 0 1 .337-.064.527.527 0 0 1 .383.117.708.708 0 0 1 .214.315c.04.123.042.25.004.385a.554.554 0 0 1-.246.322c-.106.07-.257.136-.45.198a8.239 8.239 0 0 1-.613.17 13.179 13.179 0 0 1-1.174.23l.24 1.256c.384-.025.762-.09 1.137-.196a6.962 6.962 0 0 0 1.087-.409l.07-.012zM77.538 80.816a.85.85 0 0 1-.515-.109.667.667 0 0 1-.322-.415l-1.235-4.201a.633.633 0 0 1-.363.058.729.729 0 0 1-.328-.12.556.556 0 0 1-.2-.256.448.448 0 0 1 .012-.345c.053-.138.129-.262.226-.375a2.09 2.09 0 0 1 .324-.3 3.24 3.24 0 0 1 .378-.247c.133-.074.263-.145.387-.21a4.955 4.955 0 0 1 1.105-.374 3.793 3.793 0 0 1 1.13-.067c.372.035.73.132 1.077.29.346.158.659.392.937.7.17.189.314.394.43.617.115.223.212.453.29.69a3.254 3.254 0 0 1 .04 1.87 3.232 3.232 0 0 1-.379.853 3.37 3.37 0 0 1-.612.722c-.213.185-.45.344-.711.48-.26.133-.518.26-.772.378-.127.059-.262.121-.405.19a2.987 2.987 0 0 1-.424.162l-.07.01zM77.06 75.2a3.178 3.178 0 0 0-.477.184l1.175 4.002a.425.425 0 0 0 .098-.04.354.354 0 0 1 .077-.032.246.246 0 0 0 .067-.03c.09-.042.162-.074.22-.098a2.35 2.35 0 0 0 .318-.158c.053-.03.112-.065.179-.108.357-.213.615-.46.773-.743.16-.28.24-.629.242-1.042a2.075 2.075 0 0 0-.413-1.31 1.923 1.923 0 0 0-.5-.467 1.678 1.678 0 0 0-.658-.246 2.046 2.046 0 0 0-.56-.01c-.177.028-.358.06-.541.098zM45.984 89.682a.485.485 0 0 1 .009-.23.395.395 0 0 1 .107-.18.331.331 0 0 1 .181-.087.321.321 0 0 1 .222.057c.07.044.128.1.17.17.044.07.1.129.17.176.094.068.193.122.296.163.072.031.146.056.22.074.074.018.15.033.229.046.062-.007.115-.014.162-.023a.429.429 0 0 0 .158-.078.361.361 0 0 0 .144-.165.421.421 0 0 0 .034-.212.46.46 0 0 0-.072-.206.363.363 0 0 0-.162-.144 3.05 3.05 0 0 0-.398-.177 4.947 4.947 0 0 1-.389-.156 1.617 1.617 0 0 1-.346-.211 1.116 1.116 0 0 1-.278-.334.578.578 0 0 1-.08-.195 4.17 4.17 0 0 1-.022-.205c-.006-.196.035-.354.122-.474.086-.12.186-.226.303-.317.15-.119.309-.202.482-.25.171-.046.348-.068.527-.062.18.006.357.038.532.098.174.057.338.136.489.233.088.055.14.127.152.213a.42.42 0 0 1-.037.245.387.387 0 0 1-.167.174.294.294 0 0 1-.246.016 5.4 5.4 0 0 1-.257-.105 3.632 3.632 0 0 0-.24-.096.708.708 0 0 0-.203-.038 1.423 1.423 0 0 0-.404.037.441.441 0 0 0-.136.048.539.539 0 0 0-.109.093.31.31 0 0 0-.074.14.176.176 0 0 0 .05.179c.051.053.11.094.175.124.126.049.256.098.39.145.133.048.266.104.392.171.127.067.243.146.35.236.104.09.189.2.253.332a.935.935 0 0 1 .14.382 1.1 1.1 0 0 1-.019.4c-.03.128-.082.248-.152.362-.071.113-.16.207-.264.284a1.316 1.316 0 0 1-.225.133 3.432 3.432 0 0 1-.244.098 1.08 1.08 0 0 1-.53.043 1.954 1.954 0 0 1-.534-.167 2.214 2.214 0 0 1-.48-.309 2.09 2.09 0 0 1-.364-.384l-.027-.067zM51.84 90.1a.472.472 0 0 1 .254.026.33.33 0 0 1 .158.13.286.286 0 0 1 .032.197.435.435 0 0 1-.129.227.646.646 0 0 1-.234.15 2.916 2.916 0 0 1-.842.172 1.468 1.468 0 0 1-.491-.057 1.173 1.173 0 0 1-.41-.222 1.472 1.472 0 0 1-.332-.413 1.14 1.14 0 0 1-.135-.388 1.878 1.878 0 0 1 .23-1.212 1.12 1.12 0 0 1 .367-.346c.161-.099.334-.172.521-.219.187-.047.374-.065.562-.054.189.01.351.059.486.142.113.07.207.161.28.277a.88.88 0 0 1 .137.363.82.82 0 0 1-.034.373.687.687 0 0 1-.232.323 1.35 1.35 0 0 1-.356.205 3.117 3.117 0 0 1-.389.12 3.57 3.57 0 0 1-.404.072 5.317 5.317 0 0 0-.398.064.551.551 0 0 0 .266.215.906.906 0 0 0 .336.053c.118-.003.241-.022.366-.058.125-.036.243-.079.352-.126l.04-.014zm-1.088-1.163a.512.512 0 0 0-.225.171.93.93 0 0 0-.132.315c.106-.02.228-.041.361-.063a7.17 7.17 0 0 0 .38-.07c.12-.028.222-.06.307-.1.085-.04.13-.086.137-.14a.325.325 0 0 0-.005-.095.1.1 0 0 0-.056-.07.647.647 0 0 0-.343-.062c-.122.01-.225.033-.31.068l-.114.046zM55.56 91.042a.416.416 0 0 1-.347.344.34.34 0 0 1-.223-.046c-.07-.04-.117-.114-.142-.22a.92.92 0 0 1-.018-.354c.017-.122.03-.234.035-.339.015-.216.03-.43.047-.644.017-.214.023-.428.017-.647l-.01-.021a.17.17 0 0 0-.023-.03.51.51 0 0 0-.295-.002.9.9 0 0 0-.274.12 1.006 1.006 0 0 0-.203.2.46.46 0 0 0-.111.256l-.058.827a4.044 4.044 0 0 0-.009.21c-.001.076-.009.15-.024.222a.534.534 0 0 1-.082.193.315.315 0 0 1-.182.12.255.255 0 0 1-.125.009.548.548 0 0 1-.122-.038.262.262 0 0 1-.147-.134.633.633 0 0 1-.053-.19.91.91 0 0 1-.002-.193l.014-.147c.006-.093.015-.225.024-.4l.035-.548.038-.548.028-.398a.317.317 0 0 1 .092-.214.37.37 0 0 1 .192-.102.376.376 0 0 1 .22.027.371.371 0 0 1 .184.172c.167-.093.348-.15.542-.173.194-.023.375-.005.54.054.168.06.303.16.408.3.105.14.152.325.14.557l.001.073c.002.04 0 .096-.006.169l-.102 1.535zM59.098 90.83c.065.12.085.224.06.315a.334.334 0 0 1-.139.204.361.361 0 0 1-.25.047.47.47 0 0 1-.282-.161 1.318 1.318 0 0 1-.303.152 3.311 3.311 0 0 1-.333.091c-.18.035-.354.027-.52-.023a1.192 1.192 0 0 1-.738-.632 1.213 1.213 0 0 1-.12-.505c-.007-.201.014-.392.06-.576.047-.184.118-.35.214-.5.095-.15.22-.276.373-.381.154-.105.333-.177.538-.214.12-.022.242-.03.365-.028.121.003.243.017.363.04-.002-.088-.002-.19-.002-.304.002-.114.003-.225.006-.334a3.15 3.15 0 0 1 .02-.292.865.865 0 0 1 .035-.182.346.346 0 0 1 .507-.164c.061.036.11.088.143.156.008.02.017.04.029.058a.102.102 0 0 1 .017.058c-.01.525-.022 1.043-.037 1.557-.015.513-.029 1.031-.042 1.555.01.026.024.047.036.064zm-.826-.352a.131.131 0 0 1 .045-.034c.023-.013.034-.028.035-.048.005-.168.01-.332.012-.495.005-.162.007-.328.007-.495a1.892 1.892 0 0 0-.3-.044 1.12 1.12 0 0 0-.304.023.805.805 0 0 0-.273.114.584.584 0 0 0-.202.235c-.026.076-.05.15-.071.227a.976.976 0 0 0-.04.221.681.681 0 0 0 .021.214.61.61 0 0 0 .098.204.465.465 0 0 0 .056.05c.021.017.064.046.127.088.148.015.29.006.426-.032a.811.811 0 0 0 .363-.228zM64.553 87.703a.373.373 0 0 1 .422-.316.37.37 0 0 1 .228.128c.062.071.088.169.076.289a5.41 5.41 0 0 1-.076.46c-.032.153-.068.305-.106.454a7.57 7.57 0 0 1-.181.571c-.067.187-.13.378-.187.573a29.063 29.063 0 0 1-.433 1.28.634.634 0 0 1-.092.175.369.369 0 0 1-.242.154.333.333 0 0 1-.28-.069.463.463 0 0 1-.145-.202c-.03-.08-.064-.16-.099-.234l-.135-.314a9.71 9.71 0 0 1-.13-.309 17.862 17.862 0 0 1-.213-.536c-.069-.18-.14-.358-.215-.536-.05.17-.103.336-.16.495-.055.161-.108.324-.159.49-.04.11-.079.22-.114.33a10.255 10.255 0 0 1-.177.491l-.08.18a.499.499 0 0 1-.294.285.336.336 0 0 1-.19.004.315.315 0 0 1-.173-.138 1.015 1.015 0 0 1-.155-.361 3.407 3.407 0 0 0-.106-.382 183.932 183.932 0 0 1-.154-.422 11.819 11.819 0 0 0-.083-.214 9.345 9.345 0 0 1-.082-.208c-.088-.23-.18-.456-.274-.68l-.285-.672a.842.842 0 0 0-.072-.144 1.63 1.63 0 0 1-.083-.154.982.982 0 0 1-.062-.16.478.478 0 0 1-.022-.157.327.327 0 0 1 .069-.178.373.373 0 0 1 .322-.141.31.31 0 0 1 .176.068c.11.088.197.208.257.357.059.15.115.289.168.415.061.138.119.278.172.418.053.14.11.279.172.417.062.15.121.298.177.445.058.146.113.295.167.445a.964.964 0 0 0 .038-.112c.01-.038.023-.078.038-.119a12.282 12.282 0 0 0 .377-1.21 1.6 1.6 0 0 0 .046-.173c.012-.06.024-.116.039-.174.024-.097.04-.173.046-.227a.464.464 0 0 1 .065-.18c.033-.057.08-.1.14-.129a.414.414 0 0 1 .364.002c.055.03.099.077.13.14a2.207 2.207 0 0 1 .116.268c.023.058.044.111.066.16l.045.11c.053.125.103.25.152.373l.146.374a21.124 21.124 0 0 0 .383.941c.032-.104.062-.212.09-.322.03-.109.062-.217.098-.322.097-.291.19-.585.278-.876.088-.292.152-.59.193-.892l.003-.029zM66.095 87.474c.003-.149.045-.263.124-.34a.41.41 0 0 1 .265-.125.412.412 0 0 1 .431.383c.02.135-.006.243-.077.323a.443.443 0 0 1-.256.15.404.404 0 0 1-.288-.057c-.093-.056-.157-.153-.188-.292l-.011-.042zm1.081 3.339a.415.415 0 0 1-.065.22.448.448 0 0 1-.153.149.306.306 0 0 1-.2.035.338.338 0 0 1-.203-.116.393.393 0 0 1-.08-.129.844.844 0 0 1-.041-.153 1.438 1.438 0 0 1-.017-.161 12.927 12.927 0 0 0-.01-.148 22.586 22.586 0 0 1-.061-.7c-.019-.23-.04-.465-.063-.7a2.416 2.416 0 0 0-.042-.289.818.818 0 0 1-.008-.291.43.43 0 0 1 .248-.316.341.341 0 0 1 .191-.023c.067.01.128.047.18.11.072.075.11.151.116.229l.025.284c.012.135.022.272.035.407.012.135.024.269.04.4.02.192.04.383.055.575.017.191.034.383.049.574l.004.043zM68.285 90.477a.497.497 0 0 1-.053-.196.417.417 0 0 1 .029-.185.304.304 0 0 1 .114-.142.35.35 0 0 1 .199-.056.299.299 0 0 1 .123.021.456.456 0 0 1 .106.06c.034.024.067.05.1.079a.714.714 0 0 0 .33.16c.079.016.16.023.245.026a.2.2 0 0 0 .185-.167.312.312 0 0 0-.006-.129.196.196 0 0 0-.058-.104.48.48 0 0 0-.263-.102 2.137 2.137 0 0 1-.65-.15.768.768 0 0 1-.31-.22.79.79 0 0 1-.176-.34.951.951 0 0 1 .375-.996.756.756 0 0 1 .264-.125 1.41 1.41 0 0 1 .61-.023c.103.019.199.04.285.066a.471.471 0 0 1 .334.393.318.318 0 0 1-.059.222c-.047.065-.121.105-.225.117a.457.457 0 0 1-.177-.012 4.68 4.68 0 0 0-.169-.044.934.934 0 0 0-.24-.03.431.431 0 0 0-.2.04.12.12 0 0 0-.05.046.222.222 0 0 0-.03.182c.01.032.034.055.072.07.102.041.208.069.319.084.11.015.22.035.328.057.108.025.21.058.305.104.096.045.181.115.253.212a.966.966 0 0 1 .19.46c.02.165.007.323-.045.473a.989.989 0 0 1-.255.403.92.92 0 0 1-.437.237 1.19 1.19 0 0 1-.366.022 1.371 1.371 0 0 1-.362-.085 1.893 1.893 0 0 1-.615-.389l-.02-.04zM72.148 90.506a.392.392 0 0 1-.234.12.337.337 0 0 1-.242-.067.368.368 0 0 1-.14-.254L71 87.006a.302.302 0 0 1 .07-.25.48.48 0 0 1 .218-.156.344.344 0 0 1 .25.004c.081.031.136.106.163.223.049.203.088.402.117.598.03.196.058.394.087.593.13-.123.272-.213.425-.272.154-.06.305-.082.457-.07.152.012.3.06.444.147.144.087.27.219.38.395.076.119.135.248.177.39.043.14.078.285.104.433.025.148.047.297.065.444.018.147.036.286.058.416a.412.412 0 0 1-.03.236.412.412 0 0 1-.139.174.334.334 0 0 1-.204.063.329.329 0 0 1-.22-.1.603.603 0 0 1-.155-.26 1.888 1.888 0 0 1-.066-.34 8.998 8.998 0 0 1-.034-.374 2.69 2.69 0 0 0-.05-.366 1.031 1.031 0 0 0-.12-.313.524.524 0 0 0-.246-.21.46.46 0 0 0-.368.175c-.044.051-.085.11-.121.171a12.12 12.12 0 0 1-.113.189.612.612 0 0 1-.032.064c-.013.02-.027.042-.044.065l.181 1.127c0 .132-.036.234-.106.304zM69.707 38.968H54.94a.957.957 0 1 0 0 1.914h14.766a.957.957 0 1 0 0-1.914zM59.517 53.678h-2.713a.957.957 0 1 0 0 1.914h2.713a.957.957 0 1 0 0-1.914z" fill="#BFBFBF"/>
    <path d="m82.401 43.116-.009-.04-.01-.043-.035-.132-.017-.064a3.584 3.584 0 0 0-.099-.328l-.007-.023-.01-.027v-.004l-.028-.088-.005-.015c-.01-.033-.023-.065-.035-.1-.012-.035-.026-.07-.04-.105a7.356 7.356 0 0 0-.211-.51 6.281 6.281 0 0 0-.095-.205l-.006-.014-.003-.006-.091-.185c0-.002-.002-.002-.002-.003-.001-.002-.001-.005-.003-.006-.001-.005-.004-.008-.006-.013l-.036-.068a8.79 8.79 0 0 0-.063-.117c-.006-.012-.012-.024-.02-.035l-.06-.11-.002-.004a.034.034 0 0 0-.004-.007l-.026-.047-.106-.184c-.007-.01-.011-.019-.017-.03l-.017-.028a5.5 5.5 0 0 0-.103-.172l-.094-.148-.03-.046-.057-.087a3.208 3.208 0 0 0-.087-.132l-.001-.003c0-.001-.002-.001-.002-.003l-.001-.003a8.549 8.549 0 0 0-.146-.21l-.056-.08-.005-.008-.074-.106a17.1 17.1 0 0 0-.302-.402l-.092-.114-.063-.081-.072-.09a6.666 6.666 0 0 0-.108-.132c-.036-.044-.076-.09-.114-.133l-.057-.067-.184-.213-.144-.16-.026-.027c-.069-.074-.137-.15-.208-.224l-.01-.01c-.056-.06-.115-.12-.173-.18a15.14 15.14 0 0 0-.41-.41l-.01-.011-.008-.008-.021-.02-.006-.006c-.002-.001-.005-.003-.006-.006l-.053-.05-.003-.003-.002-.001-.003-.003-.002-.002-.121-.115-.005-.005a17.04 17.04 0 0 0-.167-.156c-.009-.008-.016-.016-.026-.023l-.015-.014-.003-.003h-.001l-.003-.003-.002-.001-.001-.002a15.02 15.02 0 0 0-.224-.202c-.003-.002-.004-.005-.007-.006-.055-.049-.11-.099-.166-.147-.001-.002-.003-.003-.005-.003l-.02-.019c0-.001-.002-.003-.004-.003a.128.128 0 0 1-.015-.013l-.001-.002-.007-.004a6.58 6.58 0 0 0-.157-.136l-.09-.076-.047-.04-.154-.128a11.376 11.376 0 0 0-.25-.204c-.019-.015-.037-.029-.053-.044l-.058-.047a4.355 4.355 0 0 0-.13-.103c0-.002-.004-.003-.005-.005l-.015-.012-.013-.009a18.074 18.074 0 0 0-.328-.252c-.016-.014-.035-.026-.051-.04l-.1-.076-.09-.068c-.061-.045-.122-.091-.184-.135l-.254-.182c-.038-.028-.076-.054-.114-.08l-.062-.045-.222-.155-.152-.105-.156-.105-.069-.045-.001-.002c-.11-.072-.22-.147-.333-.218l-.012-.008c-.001 0-.001-.002-.003-.002-.018-.01-.035-.022-.053-.034l-.15-.096-.038-.024c-.105-.066-.21-.133-.315-.196l-.033-.02a18.447 18.447 0 0 0-.258-.158c-.09-.055-.181-.108-.272-.161l-.082-.049a42.301 42.301 0 0 0-.268-.155l-.28-.158c-.028-.015-.055-.032-.084-.047l-.187-.103a2.784 2.784 0 0 0-.091-.049c-.002-.001-.005-.001-.006-.003a28.22 28.22 0 0 0-.374-.199l-.023-.012-.24-.126-.001-.001c-.002 0-.003-.002-.003-.002l-.01-.004h-.001c-.135-.07-.272-.137-.407-.206l-.067-.033-.199-.099-.28-.135h-.002c-.061-.029-.122-.056-.181-.085l-.078-.036c-.05-.025-.1-.049-.151-.072l-.011-.004a.382.382 0 0 0-.038-.017l-.012-.006c-.008-.003-.017-.008-.025-.01l-.025-.013-.043-.02-.005-.003-.009-.004c-.179-.082-.36-.163-.542-.242-3.644-1.589-7.036-2.456-10.09-2.584a8.932 8.932 0 0 0-.28-.009c-2.32-.062-4.405.337-5.9 1.127-.37.196-.708.43-1.02.707a5.566 5.566 0 0 0-.71.764l-.002.001-.072.095c-.17.226-.333.472-.494.747l-.002.001-.001.003s0 .002-.002.002c-.077.134-.156.276-.234.422v.002l-.01.02c-.003.006-.006.012-.01.016v.003c-.062.117-.124.24-.188.372l-.05.105a8.059 8.059 0 0 0-.08.169l-.023.048c0 .002-.002.002-.002.003l-.18.39c-.482 1.043-.938 2.03-1.743 2.604-.001.002-8.377 5.507-8.62 5.653-.738.44-1.574.94-2.198 1.672-.003.003-.006.008-.01.01l-.022.03a4.036 4.036 0 0 0-.275.372l-.004.007-.003.005-.002.001-.001.002v.001l-.038.056v.002c-.019.029-.037.06-.058.1a4.25 4.25 0 0 0-.173.328c0 .002-.002.002-.002.003v.002l-.001.003v.002l-.002.003v.001l-.001.002-.002.001v.002l-.001.003v.001c0 .002-.002.002-.002.003 0 .002-.002.002-.002.003l-.001.003c0 .002-.002.003-.002.003l-.006.016-.001.003-.002.003-.001.003c0 .001-.002.001-.002.003l-.001.003c0 .001-.002.001-.002.003v.001l-.001.003v.002c0 .001-.002.001-.002.003v.001l-.001.003-.002.004v.001l-.001.003-.03.067c0 .003-.002.008-.004.01-.012.03-.024.06-.035.092l-.06.174-.002.006a1.212 1.212 0 0 1-.005.019l-.007.029a2.755 2.755 0 0 0-.06.225l-.004.013-.001.006-.005.024-.026.128c-.009.047-.017.093-.023.138v.005l-.006.045c-.009.072-.016.146-.02.22l-.002.023-.002.02c-.003.06-.005.117-.006.176-.079 1.21-.032 4.43.372 5.777l.005.017a3.22 3.22 0 0 0 1.089 1.628l.017.014c.092.073 3.808 2.675 4.279 2.992.028.126.059.257.09.39l.01.042.16.672v.002c.07.289.14.588.216.896a.234.234 0 0 0 .005.017v.001l.102.415c.103.424.212.861.322 1.306l.196.786.003.01c.08.322.16.646.243.967l.936 3.674c.244.94 1.692 2.283 3.249 1.555.328-.153 1.605-1.2 4.426-4.137.088.057 3.172 2.052 3.337 2.155 2.175 1.355 4.49.725 5.19.103.148-.13 1.661-1.444 3.48-3.013a2.83 2.83 0 0 0 .915 1.753 2.85 2.85 0 0 0 4.758-2.253l-.125-2.51a2.874 2.874 0 0 1 1.328-2.577l.2-.125a3.05 3.05 0 0 0 2.611 1.23 3.046 3.046 0 0 0 2.12-1.003 3.046 3.046 0 0 0 .772-1.69c1.848-.398 3.897-1.53 4.892-3.712 1.168-2.283.825-6.06.171-8.622zm-39.682 9.01c-.053.127-.1.253-.143.375l-.015.045a4.508 4.508 0 0 0-.117.406c-.032.129-.058.264-.083.42l-.01.054c-.018.13-.031.267-.039.408l-.003.075c-.003.06-.003.121-.003.18v.057a459.342 459.342 0 0 1-2.623-1.863 1.322 1.322 0 0 1-.447-.682c-.003-.012-.008-.022-.01-.035-.14-.478-.22-1.23-.263-2.03l.047.035c.264.188 3.357 2.318 3.71 2.556zm5.772 6.253-.009.026c-.118.314-.23.641-.34.993l-.002.005-.001.006c0 .002 0 .002-.002.003l-.006.021-.007.023a21.493 21.493 0 0 0-.213.722c-.21.75-.71 2.608-1.203 4.453l-.064-.247v-.002l-.65-2.56c-.08-.323-.163-.645-.245-.975l-.195-.783c-.11-.44-.218-.877-.32-1.297l-.103-.414a.642.642 0 0 1-.012-.051l-.001-.005-.13-.536v-.002l-.001-.003-.075-.311-.001-.006-.002-.008-.154-.653a.054.054 0 0 1-.004-.015l-.009-.036-.01-.046a1.625 1.625 0 0 0-.01-.04v-.004l-.144-.612-.006-.025V56l-.001-.005v-.003c0-.001 0-.003-.002-.004a34.433 34.433 0 0 1-.314-1.483 3.014 3.014 0 0 1-.029-.246v-.005l-.003-.034c-.003-.043-.003-.087-.003-.131l.001-.108.002-.044c.005-.084.012-.166.024-.249l.005-.027c.014-.091.03-.174.048-.246l.003-.01c.02-.079.044-.162.075-.255l.01-.032c.028-.079.06-.162.096-.25l.017-.038c.036-.085.076-.169.121-.257l.013-.023c.045-.09.09-.17.135-.244l.007-.013a5.68 5.68 0 0 1 .22-.34l.011-.013.023-.034.003-.004v-.002l.002-.001a5.675 5.675 0 0 1 .208-.275l.009-.012.001-.002c.002-.002.003-.003.003-.005l.003-.004c.002-.002.003-.003.003-.005l.004-.004c.074-.093.153-.184.233-.272l.013-.014a7.197 7.197 0 0 1 .568-.557l.009-.008c.053-.047.106-.093.16-.137l.002-.001.044-.037.002-.001.001-.002.037-.029.024-.02a7.73 7.73 0 0 1 .243-.181l.018-.013a4.59 4.59 0 0 1 .23-.152l7.704-4.5.029-.017 3.102-1.812c.405-.237.688.012.79.13.07.08.19.256.162.474a.907.907 0 0 0-.064.2.72.72 0 0 1-.083.127l-7.428 9.317a9.681 9.681 0 0 0-.324.351l-.048.058-.01.014c-.112.129-.201.238-.282.34l-.033.044-.005.006a9.938 9.938 0 0 0-.261.352c-.006.008-.01.017-.017.025l-.003.004-.004.006c-.098.14-.193.282-.281.421l-.005.008c-.261.41-.509.858-.74 1.338l-.012.026a16.143 16.143 0 0 0-.536 1.256c.002.012-.006.027-.01.044zm.096 6.694c.238-.88.478-1.798.691-2.602.119-.45.228-.865.32-1.206 0 0 1.269.884 1.542 1.063-.726.907-1.71 2.037-2.553 2.745zm22.024-9.653a4.787 4.787 0 0 0-2.22 4.293l.125 2.51a.928.928 0 0 1-.241.674.929.929 0 0 1-.647.306.928.928 0 0 1-.675-.24.929.929 0 0 1-.307-.647l-.009-.193a1.693 1.693 0 0 0-1.034-1.485 1.7 1.7 0 0 0-1.791.276 998.175 998.175 0 0 0-3.782 3.275c-.228.134-1.559.582-2.935-.275-.16-.098-6.915-4.589-6.915-4.589l.1-.273V59.043c0-.002.002-.003.002-.003l.01-.024a13.919 13.919 0 0 1 .475-1.115l.013-.03c.05-.104.102-.207.155-.31.131.089 4.946 3.229 4.966 3.24h.003c1.865 1.131 3.823.815 4.768.312a1.95 1.95 0 0 0 .331-.217l.032-.027c.255-.227 5.763-5.002 8.127-6.998.29-.245.52-.438.69-.578.046-.037.089-.074.129-.104l.004-.003c.073-.06.149-.119.226-.178l.088-.067c.05-.036.1-.074.152-.11.04-.03.08-.059.12-.086l.104-.071.045-.032.105-.072a.169.169 0 0 1 .18-.009.18.18 0 0 1 .063.05.173.173 0 0 1 .03.095l.118 2.351c-.184.105-.388.226-.605.363zm4.653-3.95v.01l.176 3.547a1.148 1.148 0 0 1-1.094 1.207 1.155 1.155 0 0 1-1.17-.846l-.004-.021a1.157 1.157 0 0 1-.034-.225l-.126-2.532-.003-.053a2.07 2.07 0 0 0-1.14-1.709 2.05 2.05 0 0 0-2.078.114c-.005.003-.008.006-.013.007l-.007.005c-.35.23-9.858 8.336-9.975 8.438a1.225 1.225 0 0 1-.218.091c-.033.01-.068.023-.104.032-.494.14-1.442.25-2.437-.295-.047-.025-.094-.053-.141-.08-.002 0-.002-.002-.003-.002l-.003-.001-.029-.018a197.32 197.32 0 0 0-.17-.108l-.304-.193a680.94 680.94 0 0 1-4.411-2.89 20.5 20.5 0 0 1 .165-.2l.046-.054c.094-.108.188-.21.283-.306l.003-.003.001-.001a.879.879 0 0 0 .07-.08l3.679-4.616h7.742a.957.957 0 1 0 0-1.913h-6.217l2.245-2.817a2.31 2.31 0 0 0 .128-.174h11.078a.957.957 0 1 0 0-1.914H60.505a2.554 2.554 0 0 0-.577-1.16 2.512 2.512 0 0 0-3.204-.531l-2.892 1.692h-7.087a.957.957 0 1 0 0 1.914h3.812l-4.674 2.731-.014.008-.001.001s-.002 0-.002.002h-.001l-.002.001a6.85 6.85 0 0 0-.34.224l-.021.015a10.04 10.04 0 0 0-.316.235l-.038.03-.021.018a9.452 9.452 0 0 0-.309.258l-.022.02c-.061.053-.12.107-.18.163l-.003.004-.003.003a9.02 9.02 0 0 0-.509.515l-.001.001-.002.003-.015.017-.146.165-.148.178-.022.026-.027.035a.926.926 0 0 0-.035.045 527.967 527.967 0 0 1-3.57-2.462l-.065-.047c-.114-.082-.228-.164-.34-.25a.195.195 0 0 0-.027-.02 9.588 9.588 0 0 1-.257-.195l-.017-.014c-.318-.26-.494-.662-.49-1.117l.005-.1c.003-.042.008-.084.013-.125l.001-.017.008-.046a.658.658 0 0 1 .01-.053l.005-.02.001-.003v-.001c.002-.006.003-.01.003-.017v-.001l.016-.061.013-.047.01-.035.034-.094.01-.023.004-.01.01-.022c.028-.064.063-.134.108-.211l.03-.05a.69.69 0 0 1 .022-.034v-.001c.049-.076.103-.147.16-.216.007-.009.015-.018.02-.027.002-.003.006-.005.007-.008l.005-.006c.107-.123.229-.24.363-.35h.001c.003-.004.006-.005.01-.008.385-.322 9.125-5.96 10.019-6.582a5.054 5.054 0 0 0 1.096-1.04v-.002l.002-.002.001-.001.002-.002.001-.001.002-.002.001-.001v-.002c0-.001.002-.001.002-.003l.001-.001.002-.002.001-.003c.56-.714.94-1.536 1.31-2.34l.176-.379.021-.045.076-.16.002-.001.018-.038a11.99 11.99 0 0 1 .404-.769c0-.002.002-.002.002-.003l.036-.06.003-.005c.128-.213.254-.398.384-.566l.002-.001.096-.118a2.19 2.19 0 0 0 .054-.066l.002-.001c.149-.17.307-.32.474-.451.153-.12.314-.225.487-.316.13-.069.26-.133.395-.192.89-.396 1.91-.617 3.006-.695 3.278-.237 7.246.78 10.535 2.126l.06.024.035.016.032.013a27.577 27.577 0 0 1 .383.161l.162.07c.228.099.452.2.673.302l.128.06.09.042.098.046c.114.053.228.108.34.162.063.03.125.061.186.092l.065.031.388.195c.003.001.004.003.007.003l.003.001c.002 0 .003.002.003.002l.187.097.06.032.36.191.26.143.076.043a38.114 38.114 0 0 1 .522.296 13.422 13.422 0 0 1 .333.197l.242.148.002.001c.001 0 .001.002.003.002l.246.153.058.037.018.012.064.04c.051.034.104.066.156.1l.002.001c.001 0 .001.002.003.002a61.18 61.18 0 0 1 .331.217l.073.048.138.091a28 28 0 0 1 .35.244l.07.048c.032.021.064.044.096.067l.014.01c.163.115.322.231.478.35l.092.07c.129.097.258.196.384.296l.106.087.066.053c.094.076.188.152.28.23.043.034.084.07.127.105l.059.05c.084.072.167.142.248.213l.162.145.021.02c.078.068.154.138.228.206.06.056.122.112.18.169l.148.14.064.063a9.039 9.039 0 0 1 .184.182l.165.169.022.021c.054.058.11.114.164.17l.009.01.123.132.001.001.002.002.052.056.033.038a7.897 7.897 0 0 1 .114.126v.002l.003.004c.055.062.11.125.162.187l.061.07.096.11c.055.066.106.131.158.195l.07.087c.018.022.036.045.055.066v.002l.001.002.01.012c.089.114.174.228.256.34.003.003.004.008.007.01 0 0 0 .002.002.002l.053.075.073.103.091.13.028.04.002.005c.022.031.042.062.061.092l.02.03c0 .002.002.002.002.003l.001.004.021.033.002.002.018.027.003.004s0 .002.002.002c.001.002.001.003.003.003l.097.152.001.001.084.139.024.04.094.163.017.03.006.011.07.128c.002.001.002.003.003.006l.005.007c.001.002.001.004.003.005l.001.003c.025.046.049.091.072.137l.006.012a8.251 8.251 0 0 1 .158.331l.071.164c.023.053.043.106.064.158l.001.005.002.003a6.174 6.174 0 0 1 .064.17v.004c.006.015.01.03.015.047l.006.017.001.005v.001l.004.008.027.079.018.055.023.07c.01.039.021.075.03.113l.02.075c.01.033.018.067.026.099l.001.009a15.556 15.556 0 0 0 .03.152l.014.065.011.05.005.045.036.279.002.02c.013.168.016.324.007.467v.003c-.007.11-.02.228-.04.37l-.011.084c-.02.13-.041.24-.064.331l-.012.046c-.023.094-.05.191-.084.293l-.023.073a4.301 4.301 0 0 1-.117.305l-.018.04a4.209 4.209 0 0 1-.12.249l-.029.055a4.05 4.05 0 0 1-.155.26l-.033.051a3.849 3.849 0 0 1-.158.223l-.026.035c-.06.076-.123.152-.191.228l-.044.047a5.302 5.302 0 0 1-.202.207l-.017.017a3.78 3.78 0 0 1-.231.2l-.043.035c-.138.11-.287.217-.445.317a5.724 5.724 0 0 1-1.183.566l-.165.053-.011.003h-.003a2.787 2.787 0 0 0-1.941 2.8zm5.263-.616-.035.07c-.638 1.423-1.949 2.224-3.213 2.572l-.098-1.995-.007-.117v-.006a.88.88 0 0 1 .611-.88c1.355-.419 2.47-1.142 3.281-2.088-.056.996-.237 1.849-.54 2.444z" fill="#BFBFBF"/>
    <path d="M57.587 35.978h6.125a.957.957 0 1 0 0-1.913h-6.125a.957.957 0 1 0 0 1.913z" fill="#BFBFBF"/>
</svg>
