<svg width="120" height="120" fill="none" xmlns="http://www.w3.org/2000/svg">
    <path fill="#332F2C" d="M0 0h120v120H0z"/>
    <path d="M74.565 70.412h-.648l-.158-.642h-.838l-.154.642h-.6l.698-2.735h1l.7 2.735zm-1.135-1.998a3.347 3.347 0 0 1-.078-.375h-.017a4.103 4.103 0 0 1-.08.375l-.215.866h.6l-.21-.866zM76.532 67.607v2.805h-.578v-.022c0-.062.002-.115.017-.196h-.015a.636.636 0 0 1-.516.252c-.523 0-.806-.368-.806-1.042 0-.6.35-1.028.842-1.028.207 0 .368.078.487.224h.01c-.03-.144-.038-.245-.038-.543v-.451h.597zm-.569 1.796c0-.404-.12-.596-.364-.596-.221 0-.358.228-.358.6 0 .382.14.607.375.607.22-.001.347-.222.347-.611zM78.106 70.412h-.73l-.6-1.998h.631l.239.989c.067.276.094.427.115.641h.021c.022-.214.053-.365.12-.641l.238-.99h.564l-.598 1.999zM80.564 69.588H79.38c.035.334.168.456.347.456.133 0 .221-.091.264-.26l.523.159c-.168.403-.452.505-.792.505-.603 0-.944-.358-.944-1.004 0-.715.382-1.066.894-1.066.638 0 .893.406.893.905v.305zm-.554-.399c-.003-.274-.137-.41-.31-.41-.146 0-.28.09-.319.41h.629zM81.38 68.94c.056-.38.232-.572.513-.572.052 0 .115.003.168.014v.498a.955.955 0 0 0-.168-.014c-.26 0-.414.067-.414.466v1.08h-.6v-1.998h.485v.526h.017zM82.961 69.74c0 .192.092.259.291.259.063 0 .13-.015.168-.029v.42c-.105.036-.259.056-.393.056-.38 0-.646-.197-.646-.614v-1h-.288v-.42h.288v-.266l.579-.334v.6h.432v.42h-.432v.907h.001zM84.314 67.852a.336.336 0 0 1-.347.348c-.19 0-.337-.123-.337-.348 0-.218.147-.336.337-.336.19 0 .347.12.347.336zm-.048 2.56h-.596v-1.998h.596v1.998zM85.061 69.73c.113.237.252.34.418.34.137 0 .206-.067.206-.158 0-.147-.146-.204-.497-.313-.365-.112-.533-.266-.533-.578 0-.386.302-.649.771-.649.418 0 .706.186.793.526l-.48.147c-.05-.19-.179-.298-.337-.298-.123 0-.19.06-.19.165 0 .106.081.166.32.231.47.13.712.291.712.66 0 .404-.315.653-.828.653-.4 0-.706-.165-.85-.543l.495-.184zM87.19 67.852a.336.336 0 0 1-.349.348c-.19 0-.336-.123-.336-.348 0-.218.147-.336.336-.336.191 0 .348.12.348.336zm-.05 2.56h-.595v-1.998h.596v1.998zM88.13 68.683c.116-.207.322-.305.576-.305.358 0 .634.214.634.68v1.354h-.596v-1.227c0-.27-.084-.365-.276-.365-.173 0-.305.105-.305.365v1.227h-.596v-1.998h.557v.27h.006zM90.847 69.946c.501 0 .758.214.758.564 0 .387-.34.744-1.08.744-.702 0-.94-.242-.94-.473 0-.2.12-.315.32-.393a.438.438 0 0 1-.197-.36c0-.222.12-.369.29-.471a.6.6 0 0 1-.23-.495c0-.459.396-.672.845-.672.084 0 .168.007.25.024.112-.327.379-.456.69-.456v.48c-.158 0-.287.014-.393.087a.6.6 0 0 1 .295.536c0 .459-.389.677-.842.677-.14 0-.274-.022-.394-.063a.156.156 0 0 0-.06.123c0 .094.063.147.246.147h.442zm-.543.547a.975.975 0 0 1-.151-.01.265.265 0 0 0-.053.173c0 .185.214.25.484.25.257 0 .404-.085.404-.222 0-.14-.116-.19-.348-.19h-.336zm.041-1.43c0 .259.127.364.267.364s.263-.101.263-.365c0-.263-.122-.358-.263-.358-.14 0-.267.095-.267.358zM52.772 49.004l.802 2.965h3.789l-.014 14.026 4.502.001.003-14.027 2.018.021c1.725-2.829 4.537-2.974 4.537-2.974l-15.637-.012zM38.24 58.829l-2.85-9.819L27 49c1.015 0 1.6.721 1.6 1.59 0 0 0-.002 0 0l-.012 13.816c0 .845-.737 1.492-1.517 1.59l5.413.002-.022-14.005 4.036 14.003h4.484l4.574-16.985H40.83L38.24 58.83zM53.716 62.734l-6.354-.009-.486 1.816c-.116.744.43 1.37 1.384 1.457l6.345.006-.89-3.27zM50.541 51.993l-2.15 6.931h4.308l-2.157-6.931zM92 65.995c-.912 0-1.56-.667-1.56-1.394V50.42c-.008-.676.54-1.394 1.467-1.394h-1.495v.001l-4.59.006-.002 6.731h-6.474l-.004-6.737-6.742-.006c3.135.606 5.39 2.73 5.327 6.74l-3.967.033.013-.343c0-1.892-1.45-3.477-3.34-3.477h-.212c-1.89 0-3.409 1.496-3.409 3.387v1.745c-.001.06-.004.12-.004.182 0 .063.003.118.004.18v1.696c0 2.065 1.573 3.566 3.462 3.566 2.055 0 3.438-1.628 3.498-3.51l-.013-.291h3.97c-.004 4.927-2.576 6.533-5.363 7.045l6.758.005.007-7.053 6.478-.003-.003 7.03 6.194.042z" fill="#BFBFBF"/>
</svg>
