<svg width="120" height="120" fill="none" xmlns="http://www.w3.org/2000/svg">
    <path fill="#332F2C" d="M0 0h120v120H0z"/>
    <path d="M51.62 36.467a3.235 3.235 0 0 0 3.236-3.234A3.235 3.235 0 0 0 51.62 30a3.235 3.235 0 0 0-3.237 3.233 3.235 3.235 0 0 0 3.237 3.234zM63.554 59.302 51.881 39.097a3.778 3.778 0 0 0-1.773-1.581c-.006-.006-.017-.006-.022-.011-.098-.044-.201-.082-.3-.12-.038-.01-.076-.021-.114-.038-.076-.022-.146-.043-.223-.06-.054-.01-.108-.027-.168-.038-.066-.01-.125-.021-.19-.032-.06-.011-.126-.017-.186-.022-.06-.005-.12-.01-.18-.01-.059-.006-.124-.006-.184-.006s-.125 0-.185.005c-.06.006-.12.006-.18.011-.065.005-.125.01-.184.022-.066.01-.126.022-.19.032-.055.011-.11.022-.17.038a2.649 2.649 0 0 0-.337.098c-.103.033-.201.076-.299.12-.005.005-.016.005-.022.01a3.86 3.86 0 0 0-1.773 1.582l-11.69 20.205a3.866 3.866 0 0 0 1.41 5.26 3.864 3.864 0 0 0 5.26-1.407l8.349-14.45 8.355 14.444a3.864 3.864 0 0 0 5.26 1.408 3.853 3.853 0 0 0 1.41-5.255z" fill="#A5A5A5"/>
    <path d="M75.016 36.467a3.235 3.235 0 0 0 3.236-3.234A3.235 3.235 0 0 0 75.016 30a3.235 3.235 0 0 0-3.237 3.233 3.235 3.235 0 0 0 3.237 3.234zM86.95 59.302 75.271 39.097a3.778 3.778 0 0 0-1.773-1.581c-.006-.006-.017-.006-.022-.011-.098-.044-.201-.082-.305-.12-.038-.01-.076-.021-.114-.038-.076-.022-.147-.043-.223-.06-.054-.01-.109-.027-.168-.038-.066-.01-.126-.021-.19-.032-.06-.011-.126-.017-.186-.022-.06-.005-.12-.01-.18-.01-.06-.006-.124-.006-.184-.006s-.125 0-.185.005c-.06.006-.12.006-.18.011-.065.005-.125.01-.185.022l-.19.032c-.054.011-.109.022-.169.038a2.638 2.638 0 0 0-.337.098 2.855 2.855 0 0 0-.299.12c-.005.005-.016.005-.022.01a3.86 3.86 0 0 0-1.773 1.582l-7.8 13.493s3.677 6.054 3.927 6.527c.266.51.479 1.206.479 1.206l6.728-11.629 8.356 14.455a3.864 3.864 0 0 0 5.26 1.408c1.838-1.055 2.47-3.419 1.414-5.255zM44.597 70.09a.807.807 0 0 0-.413-.19.957.957 0 0 0-.479.037.69.69 0 0 0-.364.267l-3.09 4.657-3.09-4.657a.745.745 0 0 0-.364-.266.956.956 0 0 0-.479-.039.766.766 0 0 0-.413.19.536.536 0 0 0-.185.397v8.63c0 .12.043.293.25.446.141.103.32.157.522.157.196 0 .37-.054.511-.157.207-.153.25-.326.25-.446v-6.184l2.34 3.516c.146.206.364.315.658.315h.011c.288-.006.511-.109.658-.315l2.339-3.516v6.19c0 .119.044.293.25.445a.852.852 0 0 0 .511.158c.202 0 .381-.055.523-.158.206-.152.25-.326.25-.446v-8.635a.57.57 0 0 0-.196-.396zM59.839 78.92c-2.704-5.397-4.15-8.299-4.314-8.63l-.027-.05a.624.624 0 0 0-.174-.184c-.294-.217-.75-.206-1.033 0a.625.625 0 0 0-.174.185l-.028.038v.01c-.174.354-1.79 3.582-4.319 8.63a.525.525 0 0 0 .033.506c.098.141.24.239.435.288a.896.896 0 0 0 .25.038c.425 0 .62-.207.713-.38l1.284-2.571h4.645l1.284 2.576c.092.174.288.38.712.38.093 0 .18-.01.256-.032a.693.693 0 0 0 .435-.3.538.538 0 0 0 .022-.505zm-3.307-3.337h-3.438l1.719-3.44 1.719 3.44zM71.213 70.236a.758.758 0 0 0-.418-.31.984.984 0 0 0-.56 0 .732.732 0 0 0-.414.32l-2.453 4.435-2.454-4.435c-.081-.152-.223-.26-.424-.326a.945.945 0 0 0-.55 0 .742.742 0 0 0-.43.32.501.501 0 0 0 0 .495l3.096 5.576v2.831c0 .12.044.288.24.446a.882.882 0 0 0 .516.158.87.87 0 0 0 .528-.164.546.546 0 0 0 .234-.44v-2.831l3.095-5.576a.498.498 0 0 0-.006-.5zM83.594 70.91c-.767-.675-1.762-1.017-2.992-1.017-1.202 0-2.203.342-2.965 1.016-.772.68-1.164 1.565-1.164 2.641v2.544c0 1.07.392 1.961 1.165 2.64.766.675 1.762 1.017 2.991 1.017 1.203 0 2.203-.343 2.965-1.016.772-.68 1.164-1.57 1.164-2.641V73.55c-.005-1.07-.397-1.956-1.164-2.64zm-.24 2.64v2.544c0 .75-.239 1.331-.734 1.777-.49.445-1.164.674-2.018.674-.832 0-1.501-.229-1.996-.674-.495-.44-.735-1.022-.735-1.777V73.55c0-.75.24-1.331.735-1.777.495-.445 1.164-.673 2.018-.673.832 0 1.501.228 1.996.673.495.446.734 1.027.734 1.777zM63.304 84.767c.452-.359 1.001-.544 1.638-.544h.31a.35.35 0 0 0 .228-.076.253.253 0 0 0 .109-.2.253.253 0 0 0-.109-.202.377.377 0 0 0-.234-.076h-.31c-.81 0-1.517.234-2.094.696-.582.467-.876 1.032-.876 1.69v.108c0 .658.294 1.229.876 1.69.577.462 1.284.696 2.094.696h.31a.377.377 0 0 0 .234-.076.247.247 0 0 0 .104-.201c0-.082-.038-.147-.11-.201a.377.377 0 0 0-.233-.076h-.31c-.637 0-1.186-.18-1.637-.538-.447-.359-.67-.794-.67-1.294v-.108c.011-.5.24-.935.68-1.288zM69.043 85.517c-.354-.283-.789-.424-1.3-.424-.495 0-.925.141-1.278.424-.36.288-.539.636-.539 1.043v.522c0 .407.18.755.539 1.038.353.282.783.429 1.278.429h.016c.468 0 .876-.125 1.219-.375v.125c0 .07.032.13.092.185.055.043.125.07.207.07a.344.344 0 0 0 .212-.07.235.235 0 0 0 .093-.18v-1.739c0-.407-.18-.76-.539-1.048zm-.065 1.043v.522c0 .266-.114.483-.354.674-.24.19-.527.288-.881.288-.337 0-.626-.098-.865-.288-.24-.19-.353-.408-.353-.674v-.522c0-.266.114-.484.353-.674.24-.19.528-.288.881-.288.338 0 .626.098.865.288.24.19.354.408.354.674zM73.433 85.5c-.354-.282-.778-.424-1.29-.424-.495 0-.919.142-1.267.424-.354.283-.538.63-.538 1.033v3.217c0 .07.032.136.092.185.054.043.125.07.207.07a.32.32 0 0 0 .201-.065.22.22 0 0 0 .098-.185v-1.614c.332.245.74.37 1.218.37.495 0 .925-.141 1.273-.419.354-.282.533-.63.533-1.032v-.522c0-.407-.18-.755-.527-1.038zm-.066 1.033v.522c0 .26-.12.483-.353.668-.234.19-.522.288-.87.288-.332 0-.62-.098-.855-.288-.228-.185-.348-.408-.348-.668v-.522c0-.261.115-.478.349-.669a1.36 1.36 0 0 1 .87-.282c.332 0 .62.092.854.282.234.185.353.402.353.669zM74.804 84.919a.247.247 0 0 0-.098.196v3.168c0 .076.032.141.098.195.065.05.136.071.223.071a.362.362 0 0 0 .228-.076.241.241 0 0 0 .093-.196V85.11a.247.247 0 0 0-.098-.196.376.376 0 0 0-.446.006zM75.032 83.653a.403.403 0 0 0-.288.114.362.362 0 0 0-.12.277c0 .109.038.201.12.277a.394.394 0 0 0 .288.114.394.394 0 0 0 .288-.114.362.362 0 0 0 .12-.277.362.362 0 0 0-.12-.277.412.412 0 0 0-.288-.114zM78.209 88.049h-.288c-.332 0-.615-.092-.855-.283-.233-.184-.348-.402-.348-.663V85.61h.92a.318.318 0 0 0 .206-.07.226.226 0 0 0 .093-.18.237.237 0 0 0-.093-.185.339.339 0 0 0-.206-.07h-.92v-1.207c0-.07-.032-.13-.092-.18a.351.351 0 0 0-.414 0 .227.227 0 0 0-.092.18v3.201c0 .402.18.745.533 1.027.348.277.772.418 1.267.418h.289a.299.299 0 0 0 .206-.07.23.23 0 0 0 .093-.185c0-.07-.033-.13-.093-.18a.358.358 0 0 0-.206-.059zM81.962 85.517c-.353-.283-.789-.424-1.3-.424-.495 0-.925.141-1.278.424-.36.288-.539.636-.539 1.043v.522c0 .407.18.755.539 1.038.353.282.783.429 1.278.429h.016c.468 0 .876-.125 1.219-.375v.125c0 .07.032.13.092.185a.344.344 0 0 0 .419 0 .235.235 0 0 0 .093-.18v-1.739c0-.407-.18-.76-.539-1.048zm-.065 1.043v.522c0 .266-.114.483-.354.674-.239.19-.527.288-.88.288-.338 0-.626-.098-.866-.288-.24-.19-.353-.408-.353-.674v-.522c0-.266.114-.484.353-.674.24-.19.528-.288.881-.288.338 0 .626.098.865.288.24.19.354.408.354.674zM84.774 88.207c-.027-.066-.081-.11-.157-.142a1.266 1.266 0 0 1-.588-.402.92.92 0 0 1-.217-.581v-3.185c0-.07-.033-.13-.093-.18a.351.351 0 0 0-.413 0 .226.226 0 0 0-.093.18v3.185c0 .31.109.603.321.864.207.26.495.45.843.576a.293.293 0 0 0 .12.021c.125 0 .218-.048.272-.146a.196.196 0 0 0 .005-.19zM43.248 85.19a.22.22 0 0 0-.098.185v1.723c0 .26-.114.484-.348.668a1.36 1.36 0 0 1-.87.283c-.332 0-.62-.092-.854-.283-.234-.184-.348-.407-.348-.668v-1.723a.22.22 0 0 0-.098-.184.351.351 0 0 0-.414 0 .229.229 0 0 0-.092.184v1.723c0 .402.18.75.533 1.032.348.283.778.424 1.284.424.495 0 .919-.14 1.267-.424.354-.282.533-.63.533-1.032v-1.723a.237.237 0 0 0-.092-.184c-.098-.087-.289-.093-.403 0zM50.222 85.49c-.326-.267-.734-.397-1.235-.397-.31 0-.593.06-.848.174a1.564 1.564 0 0 0-.56.418 1.563 1.563 0 0 0-.561-.418 2.1 2.1 0 0 0-.865-.174c-.484 0-.892.136-1.218.397-.327.266-.495.603-.495 1.005v1.804c0 .07.032.13.092.185a.36.36 0 0 0 .419 0 .235.235 0 0 0 .093-.18V86.5c0-.255.103-.462.315-.636.212-.174.479-.26.81-.26.316 0 .588.087.795.266.206.168.315.38.315.636v1.804c0 .07.033.13.093.185a.351.351 0 0 0 .419 0 .235.235 0 0 0 .092-.18v-1.804c0-.255.103-.462.315-.636.207-.174.48-.26.811-.26.315 0 .587.086.794.266.212.168.316.38.316.636v1.804c0 .07.032.13.092.184a.344.344 0 0 0 .419 0 .237.237 0 0 0 .092-.184v-1.804a1.284 1.284 0 0 0-.5-1.027zM54.525 85.517c-.354-.283-.79-.424-1.3-.424-.496 0-.925.141-1.279.424-.359.288-.538.636-.538 1.043v.522c0 .407.18.755.538 1.038.354.282.783.429 1.278.429h.017c.468 0 .876-.125 1.218-.375v.125c0 .07.033.13.093.185a.343.343 0 0 0 .419 0 .234.234 0 0 0 .092-.18v-1.739c0-.407-.18-.76-.538-1.048zm-.066 1.043v.522c0 .266-.114.483-.353.674-.24.19-.528.288-.882.288a1.35 1.35 0 0 1-.864-.288c-.24-.19-.354-.408-.354-.674v-.522c0-.266.114-.484.353-.674.24-.19.528-.288.882-.288.337 0 .625.098.865.288.239.19.353.408.353.674zM58.865 85.544c-.348-.283-.778-.424-1.284-.424-.495 0-.919.141-1.267.424-.353.282-.533.63-.533 1.032V88.3c0 .07.033.136.093.185.114.087.299.092.413 0a.22.22 0 0 0 .098-.185v-1.723c0-.26.114-.478.348-.668a1.36 1.36 0 0 1 .87-.283c.332 0 .62.093.854.283.234.185.348.407.348.668V88.3c0 .07.033.136.098.185.055.043.126.07.207.07a.299.299 0 0 0 .207-.07.229.229 0 0 0 .092-.185v-1.723c-.005-.402-.185-.75-.544-1.032zM38.853 83.73a.255.255 0 0 0-.103.2v1.88h-2.416v-1.88a.24.24 0 0 0-.103-.2.392.392 0 0 0-.462 0 .255.255 0 0 0-.103.2v4.337c0 .076.032.147.103.201.13.103.337.098.462 0a.257.257 0 0 0 .098-.2V86.37h2.42v1.896c0 .076.033.147.099.201a.401.401 0 0 0 .468 0 .257.257 0 0 0 .097-.2V83.93a.257.257 0 0 0-.103-.206.392.392 0 0 0-.457.005z" fill="#BFBFBF"/>
</svg>
