<svg width="120" height="120" fill="none" xmlns="http://www.w3.org/2000/svg">
    <path fill="#332F2C" d="M0 0h120v120H0z"/>
    <path d="M46.473 89.952a.123.123 0 0 1-.072-.105c-.005-.044 0-.194.022-.444.034-.61.05-1.326.045-2.14-.006-.822-.028-1.388-.072-1.71-.006-.044 0-.066.022-.066a.612.612 0 0 1 .194.045c.205.06.333.11.388.15.056.038.05.077-.005.121l-.023.011c-.038.034-.06.1-.072.211-.005.111-.01.477-.016 1.099v.25c0 .754.005 1.197.01 1.325.006.127.029.205.062.233.033.022.31.039.826.044.516.006.788-.005.827-.028l.01-.005c.034-.017.056-.1.062-.239a55.77 55.77 0 0 0 0-1.464v-.483c0-1.015 0-1.658-.006-1.93-.01-.233-.022-.45-.044-.649v-.022c-.011-.072-.006-.111.005-.122.011-.011.061 0 .145.033a.07.07 0 0 0 .033.006c.216.066.35.116.4.155.055.039.055.078.005.122a.15.15 0 0 1-.028.022c-.028.022-.044.056-.055.106a5.623 5.623 0 0 0-.023.493c0 .183 0 .616-.005 1.304v2.08c.006.244.011.4.022.466.011.05.022.078.044.094l.006.006a.298.298 0 0 0 .144.027c.072 0 .305.006.694.006h.155c.35 0 .56-.006.616-.011.06-.006.1-.028.116-.072l.006-.006c.016-.033.022-.51.022-1.42-.006-.91-.017-1.447-.033-1.603a.711.711 0 0 1-.012-.122c-.01-.15-.016-.238-.005-.26.011-.023.055-.023.133.005l.072.022c.2.056.333.111.388.156.061.044.061.083-.005.121l-.011.006c-.045.033-.072.089-.078.172-.011.083-.017.36-.022.832v.183c0 1.07.011 1.88.039 2.424.01.166.005.266-.017.31-.022.045-.083.084-.194.117s-.183.039-.222.011c-.039-.028-.055-.094-.05-.205.011-.144.017-.25.006-.316-.011-.061-.034-.106-.072-.128-.034-.022-.688-.033-1.953-.028-1.264.006-1.913.017-1.947.04a.16.16 0 0 0-.066.105.967.967 0 0 0 0 .26.715.715 0 0 1 0 .228c-.011.033-.04.06-.09.094-.121.106-.232.128-.32.083zM58.243 89.958a.126.126 0 0 1-.06-.089 2.76 2.76 0 0 1 .01-.333c.028-.393.045-.898.045-1.503.01-.593.005-.915-.017-.965-.022-.044-.05-.06-.089-.044a1.005 1.005 0 0 0-.227.188c-.289.261-.45.394-.488.394-.05-.01-.056-.044-.011-.1.626-.743 1.059-1.464 1.292-2.157.005-.011.011-.023.011-.034.028-.083.05-.133.061-.138.017-.011.056.005.122.044a.094.094 0 0 0 .028.011c.427.228.544.338.35.338-.04 0-.128.1-.261.295-.011.016-.034.05-.067.094-.066.094-.11.155-.127.188-.1.145-.117.233-.045.272.033.011.039.033.028.067-.011.033-.039.044-.072.044-.04 0-.067.327-.078.987-.011.66 0 1.298.028 1.914.01.189.01.3.01.333a.097.097 0 0 1-.038.078.501.501 0 0 1-.222.116c-.077.028-.139.028-.183 0zm-.843-4.221c-.028-.033.006-.094.1-.189a6.54 6.54 0 0 0 .699-.876c.21-.305.35-.566.416-.777.01-.033.033-.05.055-.05.023 0 .078.034.161.09.139.082.227.132.266.154.167.09.189.14.067.156a.249.249 0 0 0-.128.06c-.038.04-.138.145-.294.317a8.075 8.075 0 0 1-1.076.97 1.51 1.51 0 0 1-.2.14c-.027.016-.05.022-.066.005zm4.149 4.249c-.011-.017-.011-.034-.011-.045 0-.094-.055-.177-.16-.25a1.154 1.154 0 0 0-.44-.155c-.06-.01-.088-.033-.071-.077.01-.011.033-.022.066-.022.04 0 .15.005.328.022.022 0 .05 0 .088.005.167.011.278.017.322.006.061-.022.1-.078.122-.166.011-.067.022-.228.022-.472v-.133c0-.36 0-.577-.005-.65-.011-.071-.034-.116-.072-.138-.04-.033-.35-.044-.927-.039-.577.006-.981.023-1.214.056a.33.33 0 0 1-.078.011c-.111.011-.178.017-.2.011-.022-.005-.044-.039-.072-.094-.011-.017-.017-.033-.022-.04-.044-.093-.061-.143-.056-.154.006-.012.056-.012.145-.006h.022a23 23 0 0 0 1.281.022c.716.006 1.087 0 1.115-.01.078-.04.1-.234.061-.583-.005-.033-.017-.05-.033-.061a.994.994 0 0 0-.228-.028h-.599c-.399 0-.67.006-.815.011a5.087 5.087 0 0 0-.51.05c-.011 0-.022 0-.045.006-.077.01-.122.01-.138 0-.017-.011-.04-.045-.072-.111-.006-.011-.012-.017-.012-.028a.651.651 0 0 1-.055-.144c.005-.011.033-.017.094-.006.26.022.854.033 1.77.033h.338c.372 0 .61 0 .715-.005.145-.006.24-.017.289-.033.033-.012.067-.05.1-.106.017-.022.033-.039.039-.055.077-.106.133-.161.166-.167.028-.005.094.034.189.111.222.183.327.305.305.366-.006.034-.034.05-.089.056a10.44 10.44 0 0 1-.516.016c-.283.006-.455.012-.516.017-.066.006-.1.022-.11.044-.012.023.05.073.171.14.084.043.133.077.145.099.01.022 0 .044-.034.072-.083.056-.116.128-.1.205.017.078.073.117.167.117a.2.2 0 0 0 .133-.039c.033-.028.089-.089.16-.183.073-.094.134-.133.184-.122.05.011.144.089.294.238.138.134.183.217.138.256-.044.038-.227.055-.543.055h-.161c-.144-.005-.233 0-.272.022-.055.017-.088.072-.1.167-.01.066-.01.221-.01.466v.393a9.145 9.145 0 0 1-.023.7.296.296 0 0 1-.105.188l-.006.005a.734.734 0 0 1-.288.14c-.156.027-.233.038-.261.016zm-1.725-3.534c-.039-.027-.055-.105-.039-.238.017-.2.022-.56.011-1.076-.01-.516-.027-.865-.055-1.054-.011-.044 0-.067.022-.067.022.006.089.028.194.073a1.145 1.145 0 0 0 .372.128c.077.01.294.01.649.01h.405c.3 0 .488 0 .565-.005a.608.608 0 0 0 .233-.04c.034-.016.061-.055.095-.11a.117.117 0 0 0 .022-.033c.044-.073.089-.1.139-.09.044.012.127.073.238.184.089.078.139.139.144.172.011.033-.016.066-.072.094-.083.044-.133.155-.139.333-.01.166-.005.61.028 1.32.011.128-.005.216-.044.26-.039.045-.122.078-.255.095-.056.011-.095.011-.111 0-.017-.011-.023-.033-.023-.067 0-.066-.033-.116-.1-.144-.044-.01-.349-.01-.92-.01-.355.005-.583.005-.682.005a.937.937 0 0 0-.25.039c-.028.01-.039.044-.039.1 0 .05-.05.088-.155.121-.117.028-.189.034-.233 0zm.76 2.635c-.05-.017-.089-.066-.122-.155a2.786 2.786 0 0 0-.433-.7c-.066-.082-.094-.132-.089-.154.012-.017.062-.011.156.027.166.056.31.133.438.233s.216.2.266.3c.067.133.078.25.028.35-.044.105-.128.138-.244.1zm1.525-3.145c.067-.044.094-.155.089-.327-.005-.172-.044-.277-.117-.305-.033-.022-.332-.034-.887-.034-.555 0-.854.012-.887.034-.073.033-.111.133-.117.305-.005.172.022.283.089.327.033.028.338.039.915.039.582.006.887-.011.915-.039zm-.022-.865c.067-.028.105-.128.111-.3.011-.172-.022-.283-.089-.327-.033-.028-.338-.039-.915-.039-.571 0-.876.011-.915.04-.067.043-.095.154-.089.32.011.173.044.273.111.306.033.01.333.022.887.022.56 0 .855-.011.9-.022zM68.893 89.936c-.016-.028-.022-.045-.005-.056a1.064 1.064 0 0 1 .194-.105c.466-.239.838-.527 1.11-.865a2.83 2.83 0 0 0 .56-1.21c.06-.288.072-.449.027-.477-.044-.027-.177.04-.41.211-.167.128-.366.272-.594.433a6.03 6.03 0 0 0-.321.238.344.344 0 0 0-.095.122c-.027.056-.05.078-.077.067-.023-.011-.09-.089-.189-.222a1.525 1.525 0 0 1-.155-.222c-.011-.028-.006-.044.016-.055.006-.006.05-.023.139-.061.072-.034.128-.056.166-.072.311-.134.633-.278.96-.428.35-.16.532-.255.555-.282.038-.034.06-.095.072-.178.005-.083.005-.355.005-.826v-.244c0-.538 0-.899-.005-1.082-.011-.178-.022-.355-.045-.533-.005-.044.006-.066.028-.072.022 0 .1.023.233.067.183.06.294.11.333.139.039.033.033.066-.028.11l-.022.017c-.039.033-.061.094-.072.194-.006.1-.011.433-.017.999v.227c-.005.644-.01 1.054-.01 1.226-.012.144-.029.31-.062.494v.005c-.188 1.132-.865 1.925-2.03 2.385-.011.006-.033.011-.061.022-.083.034-.133.056-.15.056-.016.005-.033-.006-.05-.022zm1.265-3.534a.2.2 0 0 1-.072-.05.459.459 0 0 1-.044-.116 2.495 2.495 0 0 0-.272-.632 4.124 4.124 0 0 0-.466-.655c-.089-.105-.094-.15-.011-.133.072.017.183.078.338.183.166.106.305.222.427.339.15.15.266.332.338.543.073.194.084.344.04.455-.04.11-.134.139-.278.066zm2.363 3.434c-.21-.033-.338-.128-.388-.289-.011-.027-.022-.16-.028-.404 0-.217 0-.86-.006-1.942v-.138c-.005-1.598-.016-2.474-.033-2.635a.719.719 0 0 1-.011-.128c-.017-.155-.022-.244-.006-.26.011-.023.067-.012.167.022.033.01.055.022.072.027.183.061.294.111.338.145.045.033.045.072-.005.11l-.017.006a.276.276 0 0 0-.078.178c-.01.077-.01.327-.01.748 0 .433.005.683.01.755.006.072.028.11.073.122.055.005.194-.139.416-.433.216-.294.393-.571.532-.843.011-.011.017-.033.028-.055.044-.09.078-.133.1-.14.022-.005.077.023.16.079.023.016.04.033.056.038.183.128.294.211.333.261.039.05.022.072-.061.072-.034 0-.067.017-.106.045-.038.033-.133.116-.282.255-.444.41-.81.71-1.088.893-.138.094-.188.2-.155.327a.187.187 0 0 0 .061.094.942.942 0 0 0 .189.095c.754.305 1.214.66 1.38 1.07.05.122.056.222.028.3-.033.077-.083.116-.16.105-.078-.011-.156-.072-.228-.183-.155-.239-.383-.494-.677-.776-.293-.283-.477-.411-.549-.389-.033.011-.05.061-.055.161-.006.1-.011.433-.011 1.01v.371c-.006.35 0 .566.01.66.023.128.079.211.162.239.06.022.21.033.438.027h.405c.266 0 .438-.005.516-.022a.293.293 0 0 0 .222-.15c.033-.055.066-.194.11-.415.012-.056.023-.1.034-.134.022-.077.05-.105.078-.072.01.022.016.128.027.317.006.166.017.277.028.327.017.05.05.094.094.138.094.09.111.167.056.239-.056.067-.183.116-.372.144-.083.011-.388.022-.91.028-.521.005-.82.011-.887 0zM48.758 94.978H48.037l-.011-.006.011-.055.011-.011c.033 0 .061 0 .089-.006.028-.005.05-.01.066-.028.012-.016.028-.033.04-.055a.286.286 0 0 0 .016-.116v-.117c0-.028 0-.061-.006-.1 0-.039-.005-.089-.01-.15-.017-.205-.028-.371-.04-.493l-.022-.289c-.005-.066-.01-.116-.01-.15-.006-.027-.006-.055-.006-.072-.017.034-.034.09-.067.167-.028.072-.06.16-.1.255-.039.094-.077.2-.122.305-.044.111-.088.216-.127.322-.045.105-.084.205-.122.3-.04.094-.073.177-.1.243h-.139l-.593-1.586c0 .022-.006.039-.006.061s-.006.05-.006.078c0 .033-.005.066-.005.105-.006.039-.006.089-.011.15l-.039.543c-.006.067-.011.122-.011.167 0 .044-.006.083-.006.11 0 .034-.005.056-.005.078v.067c0 .055.005.094.016.116a.217.217 0 0 0 .045.056.105.105 0 0 0 .055.028c.022.005.045.005.078.005l.011.011.011.056-.005.01h-.061c-.028 0-.056 0-.084-.005-.027 0-.055 0-.083-.005-.028-.006-.044 0-.06 0h-.389l-.006-.006.011-.055.017-.011c.028 0 .056 0 .083-.006a.164.164 0 0 0 .072-.028.485.485 0 0 0 .05-.055.31.31 0 0 0 .04-.117c0-.016.005-.027.005-.05 0-.016.005-.044.005-.066.006-.028.006-.061.011-.1.006-.039.006-.089.011-.15l.04-.599c.005-.066.01-.127.01-.172.006-.05.006-.088.006-.122 0-.033 0-.06.005-.083v-.072c0-.056-.005-.094-.027-.117a.212.212 0 0 0-.05-.05c-.017-.016-.039-.022-.067-.027-.028-.006-.055-.006-.089-.006l-.016-.01-.011-.056.005-.006h.577l.017.011a1.122 1.122 0 0 0 .072.244c.017.056.039.111.06.172.023.061.045.122.068.178l.2.549c.032.094.066.177.093.238l.073.178.05-.117c.027-.066.06-.15.1-.244.038-.1.082-.205.127-.321.044-.117.089-.228.128-.344.038-.111.077-.217.105-.31.028-.095.05-.173.055-.223l.017-.01h.538l.006.005-.011.055-.017.011c-.033 0-.061 0-.089.006a.092.092 0 0 0-.067.028.166.166 0 0 0-.05.055c-.016.022-.027.061-.027.117v.077c0 .022 0 .05.005.083 0 .034.006.072.006.117.005.044.005.105.011.172l.033.543c.006.073.011.128.011.172.006.045.006.084.011.111.006.028.006.056.012.078.005.022.005.044.01.067a.33.33 0 0 0 .034.116c.017.022.033.039.05.055.017.017.039.023.072.028.028.006.061.006.089.006l.016.01.028.062zM52.209 94.972H51.392l.011-.055.017-.011c.033 0 .066 0 .105-.006.039-.005.067-.01.083-.028a.247.247 0 0 0 .05-.055.242.242 0 0 0 .034-.116c0-.012.005-.028.005-.05 0-.017 0-.045.006-.067v-.849c0-.127 0-.244-.006-.344 0-.1-.005-.177-.005-.227h-.278c-.06 0-.116 0-.15.006-.038.005-.066.005-.083.01-.016.006-.033.012-.038.017-.045.022-.073.078-.078.156l-.011.01h-.072l.022-.338.01-.027.018-.011a1.667 1.667 0 0 0 .277.028H52.303c.066 0 .122 0 .172-.012a.583.583 0 0 0 .105-.016l.017.01.01.028.023.339h-.072l-.011-.011c-.011-.078-.039-.133-.078-.156-.005-.005-.022-.01-.039-.016-.016-.006-.05-.006-.083-.011-.039-.006-.089-.006-.15-.006h-.271c0 .055-.006.133-.006.222V94.55c0 .029 0 .056.006.078 0 .023 0 .045.005.067a.244.244 0 0 0 .033.117.504.504 0 0 0 .05.055c.017.017.045.022.083.028a.714.714 0 0 0 .106.005l.017.011.01.056-.021.005zM54.848 94.861c0-.039.011-.072.04-.1a.13.13 0 0 1 .099-.044.14.14 0 0 1 .1.044.139.139 0 0 1 .044.1.119.119 0 0 1-.044.095.134.134 0 0 1-.1.038.134.134 0 0 1-.139-.133zM58.17 93.463c0 .056.012.1.029.14.022.038.05.066.088.094.04.027.095.05.156.077.06.022.133.044.221.072.073.022.145.05.217.078a.595.595 0 0 1 .188.116.49.49 0 0 1 .183.405c0 .1-.022.183-.06.255a.518.518 0 0 1-.156.172.6.6 0 0 1-.227.095 1.08 1.08 0 0 1-.272.027c-.122 0-.233-.016-.333-.038a1.327 1.327 0 0 1-.272-.106l-.01-.039.05-.316h.071l.017.017c.011.122.055.21.144.266a.66.66 0 0 0 .355.083c.155 0 .272-.033.35-.105a.353.353 0 0 0 .116-.272.33.33 0 0 0-.044-.172.388.388 0 0 0-.117-.116.773.773 0 0 0-.166-.084c-.061-.022-.122-.044-.189-.066l-.222-.083a1.072 1.072 0 0 1-.177-.106.39.39 0 0 1-.117-.15.465.465 0 0 1-.044-.205c0-.094.017-.172.05-.233a.407.407 0 0 1 .133-.155.549.549 0 0 1 .2-.089c.077-.016.155-.027.244-.027a1.305 1.305 0 0 1 .532.1l.011.033-.038.26h-.084l-.016-.016a.205.205 0 0 0-.05-.122.276.276 0 0 0-.106-.072.483.483 0 0 0-.127-.034c-.045-.005-.089-.01-.122-.01a.48.48 0 0 0-.3.082.304.304 0 0 0-.105.245zM63.601 94.978H62.88l-.006-.006.011-.055.012-.011c.033 0 .06 0 .088-.006a.164.164 0 0 0 .072-.028c.017-.016.028-.033.045-.055a.353.353 0 0 0 .028-.117c0-.016.005-.027.005-.05 0-.016 0-.044.006-.066V93.996h-1.054v.565c0 .028 0 .056.005.078 0 .023 0 .045.006.067.005.055.01.094.028.116.01.023.027.04.044.056.017.016.039.022.072.028.028.005.061.005.089.005l.01.011.012.056-.006.005H61.626l-.005-.005.01-.056.017-.01c.034 0 .062 0 .09-.006.027-.006.05-.012.066-.028.017-.017.033-.033.044-.056.017-.022.022-.06.028-.116v-.05c0-.017 0-.044.006-.067v-1.142c0-.034 0-.061-.006-.083 0-.023 0-.05-.006-.073a.274.274 0 0 0-.027-.116c-.017-.022-.028-.039-.045-.055-.016-.017-.038-.023-.066-.028-.028-.006-.056-.006-.089-.006l-.017-.01-.01-.056.005-.006H62.342l.005.006-.01.055-.012.011c-.033 0-.06 0-.089.006a.117.117 0 0 0-.072.028.152.152 0 0 0-.044.055.352.352 0 0 0-.028.117c0 .027-.005.055-.005.077s0 .05-.006.083v.422h1.054v-.422c0-.033 0-.06-.005-.083 0-.022 0-.05-.006-.072-.006-.055-.011-.094-.028-.116-.016-.023-.027-.04-.044-.056-.017-.016-.039-.022-.072-.028-.028-.005-.061-.005-.089-.005l-.011-.011-.011-.056.005-.005H63.595l.006.005-.011.056-.017.01c-.033 0-.06 0-.089.006a.092.092 0 0 0-.066.028.15.15 0 0 0-.044.056c-.017.022-.023.06-.028.116 0 .028-.006.056-.006.078V94.65c0 .023 0 .045.006.067.005.055.01.094.028.117.016.022.027.038.044.055.017.017.039.022.066.028a.453.453 0 0 0 .09.005l.016.011.011.056v-.011zM66.69 93.031l-.01.055-.011.012c-.034 0-.061 0-.089.005a.117.117 0 0 0-.072.028.15.15 0 0 0-.044.055.352.352 0 0 0-.028.117c0 .028-.006.055-.006.077 0 .023 0 .05-.005.084v1.114c0 .028 0 .056.005.078 0 .022 0 .045.006.067.005.055.01.094.027.116a.215.215 0 0 0 .045.056c.017.016.039.022.072.027a.472.472 0 0 0 .089.006l.01.011.012.056-.006.005H65.964l-.005-.005.01-.056.018-.011c.033 0 .06 0 .088-.006.028-.005.05-.01.067-.027.016-.017.033-.034.044-.056.017-.022.022-.06.028-.116v-.05c0-.017 0-.044.005-.067v-1.142c0-.034 0-.061-.005-.084 0-.022 0-.05-.006-.072-.005-.05-.01-.088-.027-.11-.017-.023-.028-.045-.045-.056-.016-.017-.039-.022-.066-.028-.028-.005-.056-.005-.09-.005l-.016-.011-.01-.056.005-.005H66.68l.01-.006zM71.006 93.03l-.006.05-.016.012c-.033 0-.061 0-.089.005a.092.092 0 0 0-.066.028c-.017.011-.028.033-.045.056a.352.352 0 0 0-.028.116c0 .028-.005.056-.005.078s0 .05-.006.083v1.082c0 .072 0 .133.006.183 0 .05.005.094.005.133.006.039.006.083.011.127l-.022.011h-.183l-.028-.033-1.053-1.58V94.511c0 .039 0 .083.005.122 0 .039 0 .066.006.094.005.05.01.089.027.111a.122.122 0 0 0 .05.056.116.116 0 0 0 .061.022.513.513 0 0 0 .1.005l.017.011.01.056-.005.005h-.687l-.006-.005.011-.056.017-.01c.033 0 .066 0 .088-.006.023-.006.045-.011.067-.028a.458.458 0 0 0 .044-.05c.017-.022.028-.06.034-.122 0-.011.005-.028.005-.05V93.37c0-.022 0-.05-.005-.072-.006-.039-.011-.078-.028-.105a.112.112 0 0 0-.05-.061c-.017-.017-.039-.022-.067-.028-.027-.006-.055-.006-.088-.006l-.017-.01-.01-.05.005-.012h.06c.028 0 .056.006.084.006.028 0 .055.005.083.005H69.525c.028 0 .05-.005.072-.01l.017.01a.45.45 0 0 0 .05.117c.022.05.055.1.088.16.034.062.073.123.111.19.04.066.084.132.122.199.15.239.283.438.394.588l.216.294v-1.126c0-.033 0-.061-.005-.083 0-.022 0-.05-.006-.072-.005-.056-.01-.095-.027-.117-.011-.022-.028-.039-.045-.055-.016-.017-.038-.022-.072-.028-.028-.006-.06-.006-.089-.006l-.01-.01-.012-.05.006-.012h.06c.029 0 .05.006.079.006.027 0 .055.005.077.005h.26c.029 0 .05 0 .078-.005.028 0 .056-.006.078-.006.028 0 .044-.005.061-.005l-.022.01zM74.195 93.025H74.69l.017.028-.011.322h-.073l-.01-.011a1.067 1.067 0 0 0-.017-.106c-.006-.027-.028-.044-.061-.055a.488.488 0 0 0-.145-.017h-.56l-.005.117c0 .033-.006.055-.006.077 0 .023 0 .05-.005.078v.427H74.15c.05 0 .089-.005.122-.011.033-.005.056-.017.067-.033a.303.303 0 0 0 .038-.05.118.118 0 0 0 .017-.067l.017-.016.05-.006.01.006c-.005.044-.005.083-.01.116-.006.033-.006.072-.006.117 0 .05 0 .088.006.133.005.038.005.083.01.133l-.01.005-.056-.005-.011-.011a.23.23 0 0 0-.017-.089c-.01-.028-.027-.05-.038-.067a.125.125 0 0 0-.067-.027.701.701 0 0 0-.122-.011h-.344v.571c0 .033 0 .067.006.094 0 .028.005.061.01.1 0 .039.023.056.062.056h.25c.116 0 .21 0 .277-.006a.468.468 0 0 0 .155-.033.163.163 0 0 0 .078-.072c.016-.034.027-.078.044-.128l.011-.011h.078l-.056.372-.022.027H73.341l-.005-.005.01-.056.017-.01c.034 0 .061 0 .09-.006.027-.006.049-.011.066-.028.016-.017.033-.033.044-.056.017-.022.022-.06.028-.116v-.05c0-.017 0-.044.005-.066V93.353c0-.023 0-.05-.005-.072a.275.275 0 0 0-.028-.117c-.017-.022-.028-.039-.044-.055-.017-.017-.04-.023-.067-.028-.028-.006-.055-.006-.089-.006l-.016-.01-.011-.056.005-.006h.855v.022z" fill="#BFBFBF"/>
    <path d="M42.025 72.69c.493-4.475 1.048-9.55-.75-13.19-.332-.643-.776-1.33-1.275-2.057v.438c.41.61.776 1.193 1.054 1.73 1.764 3.578 1.215 8.615.727 13.058-.195 1.775-.378 3.444-.405 4.903h.244c.027-1.448.21-3.112.405-4.881zM79.449 52.922v-2.856c-.189.926-.245 1.891 0 2.856zM76.27 57.193c.055-.321.11-.648-.089-1.048-.421-.838-.926-1.02-1.276-1.026-.543-.006-1.12.416-1.503 1.115-.394.715-.632 1.875-.028 2.784.75 1.126 1.249 2.025 1.648 2.74.688 1.237 1.054 1.892 1.786 1.892.116 0 .238-.017.372-.05a.786.786 0 0 0 .565-.471c.51-1.143-.882-3.878-1.32-4.693-.277-.516-.216-.888-.155-1.243zm1.254 5.841a.545.545 0 0 1-.4.327c-.782.189-1.054-.232-1.886-1.725-.405-.72-.904-1.625-1.658-2.756-.544-.816-.316-1.875.039-2.53.332-.61.82-.987 1.27-.987h.01c.406.006.772.316 1.06.893.161.322.117.588.061.893-.066.383-.138.81.183 1.409.888 1.625 1.692 3.65 1.32 4.476zM49.923 26.437c2.014.438 3.489 1.536 5.053 2.695.405.3.821.61 1.26.91.238.128.47.26.715.388 1.087.6 2.235 1.237 3.566 1.786 1.332.416 2.88.677 4.76.677 1.236 0 2.518-.227 3.871-.471 2.718-.489 5.852-1.043 10.3-.256v-.216c-6.805-1.198-10.566.721-14.171.721-8.553 0-10.162-5.325-15.326-6.456-2.674-.577-6.556-1.12-9.951-1.215v.222c.117.005.227.005.344.011 3.594.127 7.305.71 9.58 1.204z" fill="#C0BFBF"/>
    <path d="M70.746 33.559c-1.32.094-2.569.177-3.822.105-2.618-.155-4.665-.727-6.407-1.448-1.73-.538-3.078-1.342-4.276-2.174-1.187-.65-2.352-1.232-3.628-1.57a9.213 9.213 0 0 0-.904-.194c-2.712-.471-7.826-1.237-11.709-1.06v.25c4.066-.183 9.513.671 11.665 1.049.316.055.604.116.882.194 1.497.399 2.85 1.148 4.282 1.936 2.535 1.403 5.413 2.99 10.078 3.261 1.27.078 2.524-.017 3.855-.105 1.98-.14 4.022-.283 6.357.094a14.62 14.62 0 0 1 2.33.588v-.26a14.567 14.567 0 0 0-2.291-.572c-2.358-.377-4.421-.233-6.412-.094z" fill="#C0BFBF"/>
    <path d="M56.951 30.436c-.238-.133-.477-.26-.715-.388 1.198.832 2.551 1.636 4.276 2.174-1.325-.55-2.474-1.187-3.56-1.786z" fill="#C0BFBF"/>
    <path d="m52.669 30.508.732.094c.338.045.616.089.87.133 1.498.283 2.985.866 4.699 1.537 2.618 1.026 5.585 2.185 9.574 2.657 1.192.138 2.38.2 3.527.26 2.175.111 4.233.217 6.252.816.393.116.765.255 1.12.405v-.266a10.643 10.643 0 0 0-1.054-.378c-2.047-.604-4.116-.71-6.307-.82-1.148-.062-2.335-.117-3.516-.256-3.955-.466-6.906-1.62-9.513-2.64-1.725-.677-3.217-1.26-4.742-1.548-.261-.05-.538-.094-.882-.138l-.727-.1c-4.149-.55-9.446-1.243-12.702-.55v.262c3.245-.71 8.725.01 12.669.532zM43.411 57.044c2.114 3.222 1.803 7.35 1.537 10.988-.244 3.328-.46 6.201 1.142 7.77 1.404 1.382 3.75 1.354 6.235 1.326 1.542-.016 3.14-.033 4.482.317.144.038.3.077.449.122h.943a97.908 97.908 0 0 0-1.337-.36c-1.376-.361-2.984-.345-4.548-.328-2.43.022-4.726.05-6.057-1.26-1.52-1.491-1.315-4.315-1.07-7.576.271-3.678.582-7.849-1.582-11.15-.527-.715-1.153-1.486-1.819-2.306-.577-.716-1.193-1.476-1.786-2.253v.405a95.117 95.117 0 0 0 1.603 2.014 63.632 63.632 0 0 1 1.808 2.29z" fill="#C0BFBF"/>
    <path d="M70.219 35.705c-2.83-.505-5.442-1.187-7.75-1.786-2.49-.649-4.636-1.209-6.444-1.398a35.127 35.127 0 0 0-.86-.077c-.877-.072-1.808-.172-2.796-.278-4.859-.526-10.333-1.098-12.369.888v.355c.965-1.148 3.034-1.503 5.525-1.503 2.118 0 4.537.255 6.817.499.987.105 1.924.205 2.8.277.295.022.577.05.86.078 1.786.189 3.927.749 6.407 1.392 2.307.605 4.925 1.281 7.765 1.792.627.11 1.254.216 1.864.321 2.807.477 5.458.932 7.405 1.798v-.267c-1.97-.848-4.587-1.303-7.366-1.775-.605-.1-1.231-.205-1.858-.316zM78.223 76.945c-1.265-.71-2.696-1.52-4.72-2.057-2.297-.61-5.098-1.176-7.805-1.714-2.945-.594-5.73-1.149-7.804-1.748-.982-.282-2.07-.416-3.117-.549-1.87-.233-3.64-.449-4.843-1.447-1.68-1.393-1.636-3.556-1.586-6.069.055-2.867.122-6.118-2.402-9.052-2.23-2.135-4.665-4.648-5.946-7.155v.51c1.342 2.407 3.65 4.787 5.769 6.811 2.451 2.857 2.39 6.058 2.33 8.88-.05 2.575-.095 4.793 1.674 6.263 1.265 1.043 3.15 1.276 4.97 1.503 1.038.128 2.114.261 3.079.538 2.085.605 4.87 1.165 7.826 1.753 2.701.544 5.497 1.104 7.788 1.714 1.997.533 3.411 1.331 4.665 2.036.255.144.499.277.737.41h.527c-.36-.188-.737-.4-1.142-.627z" fill="#C0BFBF"/>
    <path d="M78.722 74.494c-1.759-.206-3.245-1.22-5.308-2.63-1.11-.76-2.375-1.62-3.922-2.518-2.08-1.209-4.61-1.947-7.294-2.723-3-.87-6.107-1.775-8.592-3.4-1.891-1.243-2.002-2.78-2.136-4.56-.15-2.063-.321-4.398-3.189-6.95-5.264-3.444-6.9-7.127-7.35-9.612-.42-2.347.034-4.643 1.249-6.296.96-1.303 3.006-1.675 5.458-1.675 1.642 0 3.466.166 5.27.333 1.641.15 3.338.305 4.82.322 5.102.05 16.717 2.285 21.715 4.687V39.2c-5.103-2.396-16.63-4.61-21.716-4.665-1.475-.017-3.167-.172-4.803-.322-4.549-.416-9.258-.848-10.95 1.442l.1.072-.1-.072c-1.253 1.703-1.725 4.066-1.292 6.484.455 2.53 2.119 6.285 7.438 9.763 2.78 2.474 2.946 4.759 3.095 6.772.133 1.848.25 3.44 2.247 4.748 2.518 1.648 5.64 2.558 8.658 3.434 2.668.776 5.187 1.509 7.239 2.701 1.542.899 2.8 1.753 3.91 2.513 2.091 1.425 3.6 2.452 5.414 2.668a2.786 2.786 0 0 0 .754-.022v-.256a2.191 2.191 0 0 1-.715.034z" fill="#C0BFBF"/>
    <path d="M70.862 66.945c-.449-.439-.898-.871-1.342-1.298-4.415-4.26-8.231-7.938-7.471-11.06.41-1.687 1.608-1.759 3.267-1.859 1.603-.094 3.6-.21 5.54-1.897 1.05-.91 2.047-1.908 3.018-2.879 2.136-2.13 4.033-4.026 5.514-4.026.022 0 .038.005.06.005v-.238c-1.591-.05-3.544 1.891-5.746 4.093-.965.965-1.963 1.958-3.006 2.862-1.875 1.631-3.827 1.747-5.397 1.842-1.697.1-3.04.177-3.495 2.04l.122.029-.122-.028c-.793 3.261 3.068 6.983 7.544 11.299.444.427.893.86 1.342 1.298 2.485 2.412 4.549 3.122 6.551 3.122.738 0 1.47-.1 2.208-.244v-.25c-2.69.522-5.259.428-8.587-2.811z" fill="#C0BFBF"/>
    <path d="M79.132 65.275c-1.498.87-2.795 1.625-5.097-.111-3.095-2.33-5.985-4.964-6.213-8.415-.072-1.092.544-1.286 1.564-1.608.833-.26 1.864-.593 2.852-1.553.26-.25.515-.51.77-.766 1.515-1.508 2.957-2.95 4.16-2.95.333 0 .65.11.944.366.46.399.244 1.092-.028 1.963-.339 1.082-.76 2.424.044 3.716.333.539.799 1.038 1.315 1.51v-.34c-.433-.415-.821-.842-1.104-1.303-.743-1.203-.36-2.43-.017-3.516.289-.921.538-1.72-.044-2.224-1.514-1.32-3.422.582-5.436 2.595-.255.255-.51.51-.77.76-.944.921-1.948 1.237-2.752 1.492-1.02.322-1.82.577-1.736 1.864.233 3.55 3.172 6.23 6.312 8.598 1.07.804 1.941 1.098 2.712 1.098.988 0 1.809-.477 2.652-.97.06-.034.127-.073.188-.106v-.283l-.316.183zM43.306 41.724c-.283 1.003.083 1.852 1.06 2.457 2.24 1.386 3.904 3.538 5.368 5.441 1.625 2.108 3.034 3.933 4.837 4.299.227.044.455.066.677.066 1.63 0 3.206-1.142 4.859-2.34 1.642-1.187 3.333-2.419 5.32-2.801 3.444-.66 8.852-3.55 10.405-6.14.383-.644.499-1.221.338-1.726-.849-2.718-4.282-2.718-8.62-2.718-2.185 0-4.509-.516-6.966-1.06-2.552-.565-5.186-1.147-7.76-1.147-3.7-.006-8.764 3.017-9.518 5.669zM67.545 38.5c4.704 0 7.627.122 8.387 2.546.138.438.027.948-.317 1.53-1.475 2.469-6.86 5.376-10.239 6.03-2.041.394-3.76 1.636-5.419 2.846-1.836 1.33-3.572 2.59-5.342 2.23-1.714-.35-3.09-2.136-4.687-4.21-1.48-1.92-3.156-4.094-5.435-5.498-.888-.543-1.204-1.28-.949-2.18.727-2.568 5.669-5.496 9.274-5.496 2.552 0 5.175.582 7.71 1.142 2.469.544 4.804 1.06 7.017 1.06z" fill="#C0BFBF"/>
    <path d="M47.882 43.215c-.139.66.117 1.226.743 1.626 1.12.715 2.003 1.72 2.857 2.69 1.06 1.209 2.063 2.346 3.322 2.59.161.033.322.044.483.044 1.026 0 2.052-.604 3.128-1.242 1.004-.593 2.047-1.21 3.217-1.442 2.59-.516 6.884-2.846 6.895-4.526.011-1.659-2.119-1.98-3.672-2.208-.255-.055-.538-.122-.849-.194-1.38-.322-3.272-.754-4.908-1.004-2.474-.372-5.67-.15-6.568.094-1.814.283-4.315 1.986-4.648 3.572zm8.231-3.61c.982 0 2.025.055 2.946.194 1.625.244 3.51.682 4.892.998.31.072.599.139.854.194h.011c1.548.233 3.478.516 3.467 1.964-.011 1.398-4 3.75-6.7 4.287-1.215.244-2.275.866-3.295 1.47-1.198.71-2.335 1.381-3.434 1.165-1.176-.227-2.152-1.337-3.184-2.513-.865-.981-1.758-2.002-2.912-2.734-.538-.344-.754-.805-.637-1.365.288-1.353 2.568-3.09 4.454-3.378.538-.144 1.963-.282 3.538-.282z" fill="#C0BFBF"/>
    <path d="M55.043 46.327c.227.04.477.056.748.056 1.925 0 4.748-.916 5.919-1.992.383-.355.56-.698.532-1.031-.1-1.115-1.536-1.065-2.923-1.02-.632.021-1.287.043-1.803-.05-1.636-.3-4.686-.866-5.352 1.037l-.006.016c-.127.655-.027 1.226.294 1.692.444.649 1.315 1.082 2.59 1.292zM52.39 43.4c.605-1.692 3.511-1.16 5.098-.866.521.095 1.187.072 1.836.05 1.331-.044 2.59-.088 2.668.793.022.25-.128.533-.455.832-1.287 1.193-4.665 2.175-6.456 1.875-1.204-.2-2.025-.599-2.435-1.187-.278-.405-.367-.91-.256-1.497z" fill="#C0BFBF"/>
</svg>
