<svg width="120" height="120" fill="none" xmlns="http://www.w3.org/2000/svg">
    <path fill="#332F2C" d="M0 0h120v120H0z"/>
    <path d="m52.535 34.345.88.4c.27.122.58-.037.656-.335l.133-.533c.087-.344-.185-.669-.52-.624l-1.015.134c-.486.064-.582.756-.134.958zM56.322 51.887a.91.91 0 0 0-.912.906c0 .5.408.905.912.905a.909.909 0 0 0 .912-.905c0-.5-.408-.906-.912-.906zM48.085 48.6a.909.909 0 0 0-.913.905c0 .5.409.905.913.905a.909.909 0 0 0 .912-.905.908.908 0 0 0-.912-.906zM48.645 35.835l2.061.985a.594.594 0 0 0 .789-.273.585.585 0 0 0-.276-.783l-2.062-.985a.592.592 0 0 0-.789.274.585.585 0 0 0 .277.782zM47.27 37.475l2.063.985a.596.596 0 0 0 .789-.273.585.585 0 0 0-.276-.783l-2.06-.985a.593.593 0 0 0-.79.274c-.143.291-.02.64.274.782zM44.85 42.156a.588.588 0 0 0-.59.586v2.03c0 .324.263.587.59.587.327 0 .59-.263.59-.586V42.74a.588.588 0 0 0-.59-.585zM63.228 50.466a.588.588 0 0 0-.59.586v2.6c0 .324.263.586.59.586.327 0 .591-.262.591-.586v-2.6a.589.589 0 0 0-.59-.586zM64.445 34.222h3.052v2.023c0 .324.264.587.591.587.327 0 .59-.263.59-.587v-2.61a.588.588 0 0 0-.59-.587h-3.643a.588.588 0 1 0 0 1.174zM53.493 39.728a.59.59 0 0 0-1.172.15c.12.933.925 1.888 2.207 1.975.55.673 1.28.883 1.93.883.46 0 .88-.105 1.165-.227a.586.586 0 0 0 .31-.77.593.593 0 0 0-.776-.309c-.046.02-1.082.448-1.716-.323.06-.493.244-1.413.645-1.879a.977.977 0 0 0 .144-.034l.943-.364c.892-.293.88-1.551-.019-1.826l-.96-.326a.963.963 0 0 0-1.249.94l.018.69c.003.126.03.243.077.35-.434.614-.634 1.422-.725 1.973-.482-.14-.772-.517-.822-.903zM60.604 37.308l.826.443c.419.226.925-.26.702-.672l-.468-.865c-.155-.287-.574-.304-.804-.034l-.357.42c-.2.238-.15.572.101.708z" fill="#BFBFBF"/>
    <path d="m52.553 34.294.88.4c.27.123.581-.036.656-.335l.134-.535c.086-.344-.185-.669-.521-.625l-1.015.135c-.484.064-.58.756-.134.96zM56.34 51.869a.91.91 0 0 0-.912.907.91.91 0 0 0 .912.906.91.91 0 0 0 .913-.906.908.908 0 0 0-.913-.907zM48.103 48.575a.91.91 0 0 0-.913.906.91.91 0 0 0 .913.907.91.91 0 0 0 .912-.907.908.908 0 0 0-.912-.906zM63.992 40.76l-2.062-.988a.593.593 0 0 0-.79.274.586.586 0 0 0 .276.784l2.063.988a.593.593 0 0 0 .789-.274.586.586 0 0 0-.276-.784zM60.466 42.675l2.061.988a.593.593 0 0 0 .789-.274.586.586 0 0 0-.276-.784l-2.06-.988a.592.592 0 0 0-.79.274.585.585 0 0 0 .276.784zM48.663 35.786l2.063.988a.593.593 0 0 0 .789-.274.586.586 0 0 0-.276-.784l-2.062-.988a.592.592 0 0 0-.79.274.586.586 0 0 0 .276.784zM72.637 49.039a2.48 2.48 0 0 0-2.442-.073 5.163 5.163 0 0 0-2.79 4.588v4.818l.003.036-.002.023v1.964a.586.586 0 0 0 .59.587.598.598 0 0 0 .279-.07l5.25-2.79a.588.588 0 0 0 .313-.518V55.63c0-.008-.003-.016-.003-.023l.003-.036v-4.417a2.454 2.454 0 0 0-1.201-2.115zm-4.051 4.515c0-1.253.584-2.412 1.558-3.162v3.118l-1.558.719v-.675zm0 1.97 1.558-.72v1.756l-1.558.831v-1.868zm4.07 1.728-4.07 2.163v-.692l4.07-2.17v.699zm0-2.032-1.33.71v-1.67l1.33-.613v1.573zm0-2.87-1.33.613v-3.106l.024-.001a1.307 1.307 0 0 1 1.305 1.298v1.196zM44.868 42.12a.588.588 0 0 0-.59.586v2.034c0 .325.263.587.59.587.327 0 .591-.262.591-.587v-2.034a.589.589 0 0 0-.59-.587zM63.247 50.446a.588.588 0 0 0-.591.587v2.605c0 .325.264.587.59.587.327 0 .591-.262.591-.587v-2.605a.588.588 0 0 0-.59-.587zM47.289 37.429l2.062.988a.593.593 0 0 0 .789-.274.585.585 0 0 0-.276-.784l-2.062-.988a.592.592 0 0 0-.789.274.586.586 0 0 0 .276.784z" fill="#BFBFBF"/>
    <path d="M75.669 43.161a2.85 2.85 0 0 0-.314-.162 2.826 2.826 0 0 0 .679-3.397l-1.22-2.467c-3.725-7.524-12.08-11.514-20.318-9.701l-.222.053c-.012-.001-.024-.004-.035-.004h-5.32a.588.588 0 0 0-.59.587v3.682l-4.099 4.342a2.772 2.772 0 0 0-.719 2.426c.07.39.22.75.432 1.064a2.85 2.85 0 0 0-.61.284A2.792 2.792 0 0 0 42 42.254v13.399c0 2.67 1.558 5.156 3.971 6.331l.954.474-.673.358a2.302 2.302 0 0 0 .079 4.111l1.462.712a4.747 4.747 0 0 0 4.306-.08l2.532-1.35.582.283h.001l3.919 1.91a9.246 9.246 0 0 0 4.052.933c1.5 0 2.998-.363 4.352-1.084l7.176-3.826a4.422 4.422 0 0 0 2.352-3.904V45.609a2.823 2.823 0 0 0-1.396-2.448zm-30.577-6.264 5.778-6.12a7.547 7.547 0 0 1 3.882-2.197 17.255 17.255 0 0 1 3.718-.405 17.028 17.028 0 0 1 15.282 9.478l1.221 2.467c.403.815.088 1.79-.716 2.22l-1.417.754h-.001l-7.547 4.024a4.31 4.31 0 0 1-1.95.505 4.307 4.307 0 0 1-1.969-.434l-15.806-7.704a1.62 1.62 0 0 1-.894-1.175 1.614 1.614 0 0 1 .419-1.413zm6.449 29.587c-1 .535-2.207.557-3.227.062l-.102-.05 1.323-.7a.584.584 0 0 0 .243-.794.593.593 0 0 0-.8-.241l-2.075 1.098-.052-.026a1.123 1.123 0 0 1-.644-1.002 1.12 1.12 0 0 1 .603-1.024l1.42-.755 2.686 1.307 2.41 1.173-1.785.952zm24.343-5.967a3.247 3.247 0 0 1-1.727 2.87l-7.177 3.825a8.084 8.084 0 0 1-7.326.132l-7.806-3.804c-.3-1.184-.226-2.77-.12-3.85a.808.808 0 0 0 .23-.146l2.28-2.304a.823.823 0 0 0-.153-1.334l-4.197-2.02c-.692-.42-1.516.29-1.197 1.03l1.902 4.257c-.108.92-.22 2.39-.058 3.726l-4.044-1.971a5.91 5.91 0 0 1-3.31-5.276V42.253c0-.569.29-1.087.775-1.388a1.643 1.643 0 0 1 1.595-.081l15.301 7.459c.097.047.195.091.294.131.033.014.066.025.1.038.067.026.133.052.2.076.04.014.08.025.12.038.062.02.124.04.185.057l.13.034c.058.016.118.031.179.044l.135.028c.06.012.117.023.177.032a7.435 7.435 0 0 0 .314.042c.047.005.095.008.142.012.058.005.115.01.173.012l.143.004c.04 0 .08.004.121.004l.05-.002c.058 0 .115-.002.173-.005.051-.003.104-.004.155-.008.058-.004.116-.01.173-.016.051-.005.103-.009.154-.015l.173-.026.151-.025c.058-.01.116-.025.175-.038.05-.01.098-.02.147-.034.059-.014.117-.032.176-.05.047-.012.094-.026.141-.04l.182-.062c.043-.016.088-.03.132-.047.066-.025.132-.054.196-.083.037-.015.075-.03.11-.047.101-.045.2-.095.3-.147l7.548-4.023a1.684 1.684 0 0 1 1.664.039c.515.305.822.844.822 1.44v14.91h-.003z" fill="#BFBFBF"/>
    <path d="M63.866 33.749zM67.497 36.244v-2.022h-3.052a.592.592 0 0 1-.579-.467c.053.334.326 1.314 1.76 2.248 1.236.808 1.758.828 2.462.828a.589.589 0 0 1-.59-.587zM72.655 55.22l-1.33.709v-1.67l1.33-.613v1.575zM68.585 55.523l1.559-.719v1.755l-1.559.831v-1.867zM72.025 50.045c.394.237.63.652.63 1.11v1.197l-1.33.613v-3.107h.025c.234-.002.466.06.675.187zM70.144 50.392v3.118l-1.559.719v-.675c0-1.254.585-2.412 1.559-3.162zM68.585 59.414v-.69l4.07-2.171v.699l-4.07 2.162zM49.51 28.658h2.07a8.8 8.8 0 0 0-1.572 1.315l-.498.527v-1.842zM58.132 61.968a9.764 9.764 0 0 0-5.518-8.779c-3.123-1.514-6.762.745-6.762 4.199v3.178c.205.134.417.255.639.364l4.044 1.971c-.16-1.335-.05-2.806.058-3.726l-1.444-3.232-.458-1.025a.957.957 0 0 1-.047-.138c-.17-.687.596-1.287 1.243-.893l4.197 2.021a.82.82 0 0 1 .152 1.333l-2.28 2.304a.838.838 0 0 1-.229.147c-.106 1.081-.178 2.666.12 3.85l6.284 3.063v-4.637h.001zM51.541 66.485c-1 .535-2.207.557-3.227.061l-.102-.05 1.323-.7a.584.584 0 0 0 .243-.793.593.593 0 0 0-.8-.242l-2.075 1.099-.052-.026a1.123 1.123 0 0 1-.644-1.002 1.12 1.12 0 0 1 .603-1.024l1.42-.756 2.686 1.307 2.41 1.173-1.785.953z" fill="#5E5F5F"/>
    <path d="M51.805 79.139a3.075 3.075 0 0 0-.92-.518 2.849 2.849 0 0 1-.7-.342c-.21-.15-.277-.252-.298-.3a1.018 1.018 0 0 1-.081-.324.52.52 0 0 1 .057-.283.845.845 0 0 1 .212-.269.619.619 0 0 1 .321-.129c.097-.014.289-.002.649.128l.061.013a.702.702 0 0 0 .482-.121l.038-.029.14-.24.005-.05a.627.627 0 0 0-.197-.527l-.055-.039a2.007 2.007 0 0 0-.696-.202 2.864 2.864 0 0 0-.754.017c-.273.042-.52.153-.732.329-.201.165-.364.352-.485.553-.127.213-.2.458-.213.73-.014.268.031.529.135.775.105.251.288.484.547.695.247.2.533.365.852.491.285.114.549.246.782.392.188.117.29.253.31.415a.444.444 0 0 1-.156.407c-.148.14-.289.224-.415.252-.16.034-.363.062-.602.084a1.208 1.208 0 0 1-.621-.108l-.037-.017-.04-.002a.699.699 0 0 0-.483.12l-.04.03-.138.247-.005.046c-.02.184.04.351.177.483l.043.034c.226.133.487.206.779.218h.002l.188.002c.315 0 .621-.022.914-.066.371-.056.684-.171.93-.34.251-.174.413-.336.491-.494a1.862 1.862 0 0 0 .108-1.277c-.07-.277-.257-.542-.555-.784zM59.073 77.089a3.44 3.44 0 0 0-.399-.73 1.508 1.508 0 0 0-.676-.491 1.602 1.602 0 0 0-.83-.11c-.243.037-.463.1-.65.185-.193.09-.414.248-.676.49-.272.25-.474.598-.6 1.038-.12.418-.182.812-.182 1.17 0 .345.012.662.037.941.025.282.075.61.148.973.082.4.253.731.509.981.244.242.488.409.723.496.224.085.463.139.713.162l.02.001.019-.001c.54-.046.983-.254 1.315-.621a2.81 2.81 0 0 0 .644-1.1c.107-.368.168-.764.18-1.18a8.23 8.23 0 0 0-.047-1.177 3.697 3.697 0 0 0-.248-1.027zm-.901 2.063a6.61 6.61 0 0 1-.057.86c-.031.22-.109.429-.23.623-.11.176-.266.334-.466.467h-.006a.973.973 0 0 1-.634-.248c-.225-.185-.356-.391-.4-.627a6.854 6.854 0 0 1-.07-1.987c.04-.35.102-.616.19-.79.084-.168.194-.305.327-.41a.85.85 0 0 1 .408-.182.551.551 0 0 1 .37.065c.113.064.201.168.27.321.084.192.15.358.197.49.04.118.068.298.082.534.016.253.021.55.019.884zM65.928 76.369c-.066-.209-.18-.34-.337-.389-.167-.052-.354-.001-.556.153l-.033.025-.023.033c-.26.406-.505.828-.725 1.254-.144.278-.295.561-.45.846a13.478 13.478 0 0 0-.39-.795 57.41 57.41 0 0 0-.647-1.17l-.018-.034-.029-.025c-.165-.146-.332-.21-.492-.194a.53.53 0 0 0-.372.23l-.018.028c-.087.162-.14.34-.154.524-.007.103-.02.697-.036 4.658a.605.605 0 0 0 .15.514l.036.033c.105.074.227.12.364.134l.025.003.025-.003a.887.887 0 0 0 .367-.125l.034-.021.025-.03a.691.691 0 0 0 .16-.501v-2.471l.03.087c.127.394.266.784.412 1.159l.018.048.038.035c.276.259.59.256.843-.009l.036-.038.016-.05c.118-.363.256-.722.408-1.069.057-.127.119-.253.186-.38l.114 2.82.002.023c.019.13.076.247.172.345l.033.032.259.111.038.003a.69.69 0 0 0 .48-.122l.04-.028.148-.253-.165-5.329-.013-.062zM72.244 81.213l-.265-.114h-2.152l-.056-1.651 1.85.013.027-.002a.887.887 0 0 0 .368-.125l.05-.03.144-.246.005-.049a.603.603 0 0 0-.145-.47l-.035-.038-.273-.117H69.75l-.099-1.619 2.165.028.013-.002a.874.874 0 0 0 .37-.125l.05-.03.144-.246.005-.049a.548.548 0 0 0-.156-.464l-.032-.031-.264-.113-2.812-.062a.635.635 0 0 0-.476.131.577.577 0 0 0-.205.358l-.003.02.002.02c.19 5.477.218 5.6.23 5.657.035.15.158.333.55.353h.015c2.242-.028 2.745-.098 2.929-.148l.09-.025.163-.279.005-.048a.553.553 0 0 0-.156-.464l-.034-.033zM52.926 86.066c-.067-.209-.18-.34-.338-.389-.166-.052-.354-.001-.556.153l-.033.025-.022.032c-.262.406-.506.828-.726 1.254-.143.278-.294.561-.45.846a13.569 13.569 0 0 0-.39-.795c-.213-.395-.43-.79-.646-1.17l-.019-.034-.029-.025c-.165-.146-.33-.21-.492-.194a.53.53 0 0 0-.371.23l-.019.028c-.088.162-.139.34-.153.524-.008.103-.021.697-.037 4.658a.605.605 0 0 0 .15.514l.036.033c.105.074.227.12.364.134l.025.003.025-.003a.887.887 0 0 0 .367-.125l.035-.021.024-.03a.692.692 0 0 0 .16-.501v-2.471l.03.087c.127.394.266.784.412 1.159l.018.048.038.035c.276.259.59.256.843-.009l.037-.038.015-.05c.119-.363.256-.722.409-1.069.056-.127.118-.253.185-.38l.114 2.82.003.023c.018.13.076.247.171.345l.033.032.259.111.038.003a.69.69 0 0 0 .48-.122l.04-.028.148-.253-.165-5.329-.013-.06zM59.424 86.786a3.436 3.436 0 0 0-.4-.73 1.508 1.508 0 0 0-.675-.49 1.601 1.601 0 0 0-.83-.11c-.244.036-.463.099-.651.185-.193.089-.413.248-.676.49-.272.25-.474.598-.6 1.038-.12.417-.181.811-.181 1.17 0 .344.012.661.037.94.025.282.075.61.148.974.081.4.252.73.508.981.244.241.488.408.723.496.225.084.464.138.713.161l.02.002.02-.002c.54-.045.983-.254 1.315-.62a2.81 2.81 0 0 0 .643-1.1c.108-.368.168-.765.181-1.18a8.23 8.23 0 0 0-.047-1.178 3.743 3.743 0 0 0-.248-1.027zm-.902 2.063a6.61 6.61 0 0 1-.056.86c-.032.22-.11.43-.23.623-.11.177-.267.334-.466.468h-.007a.973.973 0 0 1-.634-.248c-.224-.186-.355-.392-.4-.628a6.854 6.854 0 0 1-.07-1.987c.04-.35.103-.616.19-.79.085-.168.195-.305.328-.41a.85.85 0 0 1 .408-.181.552.552 0 0 1 .37.065c.113.064.2.168.27.32.083.192.15.358.196.49.04.119.068.299.083.535.014.253.02.55.018.883zM64.578 89.247c.043-.017.087-.037.127-.055.168-.077.391-.244.684-.511.296-.27.486-.494.584-.684.095-.185.163-.395.202-.626a1.63 1.63 0 0 0-.042-.732c-.073-.255-.236-.492-.488-.707a2.873 2.873 0 0 0-.633-.43c-.128-.058-.39-.138-1.177-.144-.57-.006-.948.006-1.15.037-.147.023-.486.133-.473.706.16 3.257.29 5.1.403 5.639l.025.117.327.14.038.003c.025.002.05.002.074.002a.675.675 0 0 0 .407-.124l.038-.028.15-.257-.006-.07c-.023-.34-.042-.687-.054-1.03a21.095 21.095 0 0 0-.027-.543l1.954 1.75.08.006a.7.7 0 0 0 .48-.121l.039-.029.14-.241.004-.053a.646.646 0 0 0-.23-.56l-1.476-1.455zm-.336-1.041-.017.007c-.129.064-.27.117-.423.153-.094.024-.2.043-.318.059l-.043-1.975c.336-.032.61-.037.81-.017.216.022.395.091.547.212.14.112.216.234.233.372a.664.664 0 0 1-.041.37c-.063.129-.15.284-.261.461-.088.144-.25.262-.487.358zM72.595 90.91l-.266-.113h-2.151l-.056-1.652 1.85.013.027-.001a.887.887 0 0 0 .367-.125l.05-.03.145-.247.005-.048a.603.603 0 0 0-.146-.47l-.034-.039-.273-.116H70.1l-.098-1.62 2.165.028.013-.001a.874.874 0 0 0 .369-.125l.05-.03.144-.247.005-.048a.548.548 0 0 0-.156-.465l-.031-.03-.264-.113-2.812-.063a.634.634 0 0 0-.477.132.576.576 0 0 0-.204.358l-.003.02.001.02c.19 5.477.218 5.6.231 5.657.034.15.158.332.549.352h.016c2.242-.027 2.745-.098 2.928-.147l.091-.025.163-.28.005-.048a.552.552 0 0 0-.156-.464l-.034-.033z" fill="#BFBFBF"/>
</svg>
