<svg width="120" height="120" fill="none" xmlns="http://www.w3.org/2000/svg">
    <path fill="#332F2C" d="M0 0h120v120H0z"/>
    <path d="M55.586 52.96c.023-.024.046-.04.07-.07l.007-.008a17.474 17.474 0 0 0 4.13-6.826c.49-1.504.691-2.816.769-3.733.59.37 1.095.894 1.49 1.596 1.328 2.33 1.204 6.07-.279 8.531-.163.262-.318.525-.474.787-1.932 3.186-3.617 5.97-3.889 9.156h-2.018a.89.89 0 0 0-.893.887.89.89 0 0 0 .893.887h5.721a.89.89 0 0 0 .893-.887.89.89 0 0 0-.893-.887h-1.902c.287-2.73 1.84-5.307 3.626-8.238.155-.262.318-.525.48-.794 1.818-3.009 1.942-7.444.304-10.321-1.142-2.006-3.044-3.116-5.35-3.116-2.6 0-4.642 1.542-5.596 4.227-1.017 2.869-.552 6.224 1.024 8.16a17.748 17.748 0 0 1-1.956 1.55.888.888 0 0 0 .505 1.62c.17 0 .349-.053.504-.154a19.926 19.926 0 0 0 2.834-2.368zm-1.242-8.208c.403-1.134 1.451-3.047 3.912-3.047.194 0 .373.016.551.031-.085 1.574-.644 5.616-3.866 9.295-1.07-1.473-1.366-4.119-.597-6.279zM61.478 66.188a.89.89 0 0 0-.893-.887h-4.673a.89.89 0 0 0-.893.887.89.89 0 0 0 .893.887h4.673a.895.895 0 0 0 .893-.887zM59.708 68.201h-2.934a.89.89 0 0 0-.893.887.89.89 0 0 0 .893.887h2.934a.89.89 0 0 0 .893-.887.88.88 0 0 0-.893-.887zM43.778 83.752v.355h1.11v.64h-1.11v.98h-.691v-.98H42v-.64h1.087v-.355h-.916v-2.221h.916v-.34h-1.01v-.632h1.01v-.578h.698v.578h.979v.633h-.979v.339h.94v2.221h-.947zM42.73 82.04v.37h.434v-.37h-.434zm0 .84v.363h.434v-.362h-.434zm1.413-.47v-.37H43.7v.37h.443zm0 .833v-.362H43.7v.362h.443zm3.648-.825v.679h-1.118v2.638h-.722v-2.638h-1.125v-.679h1.118v-1.412h-.986v-.678h2.717v.678h-1.002v1.412h1.118zM51.06 81.129h5.612v.624H51.06v-.624zm.87 4.597v-1.983h3.88v1.967h-.76v-.2h-2.399v.216h-.722zm3.772-3.703v.579H52.03v-.579h3.672zM52.03 83.45v-.57h3.672v.57H52.03zm3.571-3.17v.57h-3.454v-.57H55.6zm-.551 4.073h-2.399v.555h2.399v-.555zM65.67 81.669h-.892a6.87 6.87 0 0 1-1.36 2.275c.653.501 1.445.856 2.36 1.057-.2.2-.38.447-.527.733-.955-.24-1.778-.648-2.453-1.22-.668.525-1.475.934-2.422 1.235a3.086 3.086 0 0 0-.458-.717c.94-.247 1.708-.602 2.32-1.065-.535-.61-.977-1.38-1.319-2.306h-.893v-.717h2.438v-.972h.745v.972h2.461v.725zm-1.762 0h-2.166a5.379 5.379 0 0 0 1.102 1.758 5.643 5.643 0 0 0 1.064-1.758zM71.554 81.669h-1.436v-.232c-.17.155-.357.309-.551.456h2.484v1.92h-2.003c-.023.131-.031.208-.039.247h2.135v1.65h-.636v-.177H70.46v.193h-.621v-1.018c-.125.37-.28.67-.474.902a1.58 1.58 0 0 0-.233-.239c-.109-.092-.186-.162-.256-.2.411-.533.613-1.327.613-2.392v-.84l-.1.07c-.047.03-.086.053-.102.069a2.676 2.676 0 0 0-.194-.278 1.165 1.165 0 0 0-.24-.24c.69-.4 1.21-.902 1.552-1.503h.652c.598.455 1.033.825 1.297 1.11l-.474.54c-.108-.123-.217-.239-.326-.354v.316zm-1.46 1.62h1.29v-.232h-1.282c.008.054 0 .131-.007.232zm1.29-.895H70.11v.224h1.273v-.224zm-.987-1.219h.979a7.834 7.834 0 0 0-.552-.494c-.17.216-.318.378-.427.494zm1.11 3.402H70.46v.432h1.048v-.432zm1.608-3.85v3.464h-.7v-3.463h.7zm.66-.624h.714v4.76c0 .207-.024.37-.07.477a.459.459 0 0 1-.256.24c-.194.1-.583.154-1.15.154a2.78 2.78 0 0 0-.24-.748c.248.007.528.015.846.015.109 0 .155-.046.155-.139v-4.76zM78.16 39.345a.907.907 0 0 0-1.156-.517l-2.375.895a.898.898 0 0 0-.52 1.15c.131.354.473.57.838.57a.78.78 0 0 0 .318-.062l2.376-.895a.874.874 0 0 0 .52-1.141zM74.031 32.773a.9.9 0 0 0-1.265-.07l-1.887 1.674a.886.886 0 0 0 .598 1.55c.21 0 .427-.076.598-.223l1.894-1.681a.877.877 0 0 0 .062-1.25zM65.833 31.917c.132.07.272.1.412.1a.89.89 0 0 0 .791-.478l1.165-2.245a.888.888 0 0 0-.38-1.195.897.897 0 0 0-1.204.378l-1.164 2.244a.875.875 0 0 0 .38 1.196z" fill="#BFBFBF"/>
    <path d="M58.24 34.061c-3.671 0-7.056 1.404-9.525 3.95-2.5 2.576-3.873 6.14-3.873 10.05 0 2.708.38 4.898 1.203 6.873a.894.894 0 0 0 1.164.486.884.884 0 0 0 .49-1.157c-.73-1.759-1.064-3.726-1.064-6.202 0-3.448 1.195-6.58 3.37-8.816 2.126-2.199 5.053-3.402 8.236-3.402 3.276 0 6.234 1.211 8.33 3.402 2.119 2.214 3.284 5.345 3.284 8.824 0 4.998-1.25 6.888-2.826 9.287-.73 1.103-1.553 2.353-2.29 4.011-.707 1.589-1.142 3.355-1.56 5.068-1.049 4.288-1.849 6.911-4.938 6.911-2.143 0-3.269-1.211-4.138-4.466a.899.899 0 0 0-1.095-.633.892.892 0 0 0-.636 1.088c.768 2.862 2.065 5.785 5.869 5.785 2.12 0 3.687-.902 4.79-2.754.908-1.52 1.381-3.455 1.878-5.515.396-1.635.816-3.324 1.46-4.767.683-1.527 1.428-2.66 2.158-3.764 1.6-2.43 3.113-4.736 3.113-10.259 0-3.934-1.343-7.505-3.773-10.05-2.438-2.546-5.853-3.95-9.626-3.95zM42.722 91.797c.023.162.07.285.14.37.124.146.341.224.644.224.179 0 .326-.024.443-.062.217-.077.326-.216.326-.417a.325.325 0 0 0-.156-.277 1.97 1.97 0 0 0-.504-.17l-.388-.085c-.389-.085-.652-.177-.792-.278-.24-.162-.365-.424-.365-.779 0-.324.116-.586.357-.802.24-.216.59-.316 1.048-.316.388 0 .714.1.986.3.272.201.411.494.427.872h-.73c-.015-.216-.108-.37-.295-.462a.996.996 0 0 0-.45-.093c-.202 0-.357.038-.474.116a.371.371 0 0 0-.178.324c0 .13.062.223.178.285.078.038.233.093.482.147l.636.146c.28.062.49.154.621.262.218.17.326.417.326.733 0 .332-.124.602-.38.818-.256.216-.613.324-1.08.324-.473 0-.845-.108-1.125-.324-.28-.185-.419-.479-.419-.856h.722zM48.07 92.583c-.224.278-.566.417-1.024.417-.458 0-.8-.139-1.025-.417a1.54 1.54 0 0 1-.341-1.002c0-.386.116-.718.341-.996.225-.277.567-.424 1.025-.424.458 0 .8.14 1.025.424.225.278.341.61.341.996 0 .393-.116.725-.341 1.002zm-.558-.385c.108-.147.163-.347.163-.617 0-.263-.055-.471-.163-.618-.109-.146-.264-.215-.474-.215-.202 0-.365.069-.473.215-.11.147-.163.348-.163.618 0 .262.054.47.163.617.108.146.264.216.473.216.21 0 .365-.07.474-.216zM49.98 90.254v1.597c0 .154.016.262.055.339.062.131.186.2.373.2.24 0 .403-.092.489-.285.046-.1.07-.239.07-.409v-1.442h.706v2.653h-.675v-.378a.485.485 0 0 0-.047.07.407.407 0 0 1-.093.108.983.983 0 0 1-.318.2.993.993 0 0 1-.357.054c-.396 0-.66-.138-.8-.424-.078-.154-.117-.386-.117-.686v-1.597h.715zM54.887 90.4c.179.147.264.386.264.718v1.79h-.714v-1.613a.74.74 0 0 0-.055-.324c-.07-.139-.194-.208-.388-.208-.233 0-.396.1-.481.3-.047.109-.07.24-.07.402V92.9h-.699v-2.646h.676v.386c.093-.14.17-.232.256-.293a.874.874 0 0 1 .543-.162c.264 0 .49.077.668.215zM57.589 90.293c.124.069.225.17.302.293V89.32h.707v3.586h-.676v-.37c-.1.154-.21.27-.341.347a.976.976 0 0 1-.474.108c-.31 0-.574-.123-.792-.378-.21-.254-.318-.57-.318-.964 0-.455.109-.81.318-1.072.21-.262.49-.394.839-.394.163 0 .31.039.434.109zm.17 1.89a.976.976 0 0 0 .156-.572c0-.324-.086-.555-.249-.694a.523.523 0 0 0-.35-.123c-.201 0-.356.077-.45.231-.093.154-.14.347-.14.571 0 .247.047.44.148.586.101.147.249.224.443.224a.506.506 0 0 0 .442-.224zM60.212 91.797c.023.162.07.285.14.37.124.146.342.224.644.224.179 0 .326-.024.443-.062.217-.077.326-.216.326-.417a.325.325 0 0 0-.155-.277 1.971 1.971 0 0 0-.505-.17l-.388-.085c-.388-.085-.652-.177-.792-.278-.24-.162-.365-.424-.365-.779 0-.324.116-.586.357-.802.24-.216.59-.316 1.048-.316.388 0 .714.1.986.3.272.201.412.494.427.872h-.722c-.015-.216-.108-.37-.295-.462a.996.996 0 0 0-.45-.093.888.888 0 0 0-.481.116.37.37 0 0 0-.179.324c0 .13.062.223.179.285.077.038.233.093.48.147l.638.146c.279.062.488.154.62.262.218.17.327.417.327.733 0 .332-.125.602-.38.818-.257.216-.614.324-1.08.324-.473 0-.846-.108-1.126-.324a1.067 1.067 0 0 1-.411-.88h.714v.024zM65.258 90.27a.792.792 0 0 1 .334.262c.07.1.117.2.132.308.016.108.023.278.023.517v1.558h-.714v-1.62a.746.746 0 0 0-.07-.347c-.062-.123-.186-.185-.357-.185-.186 0-.326.062-.419.185-.093.124-.14.301-.14.525v1.434h-.698V89.33h.698v1.265a.863.863 0 0 1 .35-.325.978.978 0 0 1 .419-.092c.163.008.31.03.442.092zM67.502 89.938h-.707v-.64h.707v.64zm-.707.316h.707v2.653h-.707v-2.653zM70.709 90.4c.178.147.263.386.263.718v1.79h-.714v-1.613a.74.74 0 0 0-.054-.324c-.07-.139-.194-.208-.388-.208-.233 0-.396.1-.481.3-.047.109-.07.24-.07.402V92.9h-.7v-2.646h.676v.386c.094-.14.171-.232.257-.293a.874.874 0 0 1 .543-.162c.272 0 .489.077.668.215zM73.735 90.308c.187.085.342.216.458.393.11.154.179.34.21.548.015.123.023.3.023.524h-1.948c.008.27.1.455.28.563.108.07.232.1.387.1a.585.585 0 0 0 .389-.123.74.74 0 0 0 .147-.185h.714c-.015.154-.108.316-.256.478-.24.255-.574.386-1.001.386-.358 0-.668-.108-.94-.324-.271-.216-.411-.57-.411-1.064 0-.463.124-.81.365-1.057.248-.247.566-.37.954-.37.233.007.443.046.63.13zm-1.04.594c-.1.1-.163.239-.186.409h1.203c-.016-.186-.078-.324-.186-.417a.622.622 0 0 0-.412-.147c-.186.008-.326.054-.419.155z" fill="#BFBFBF"/>
</svg>
