<svg width="120" height="120" fill="none" xmlns="http://www.w3.org/2000/svg">
    <path fill="#332F2C" d="M0 0h120v120H0z"/>
    <path d="M68.575 44.916c-1.215-1.39-3.543-2.782-4.58-3.401l-.005-.003-.004-.002-.006-.004c-1.208-.724-2.453-1.47-3.446-2.392 2.061.973 4.255 1.147 4.617 1.17.367.358 2.64 2.63 3.424 4.633zm-6.379-7.975a16.147 16.147 0 0 1-3.61-8.388 21.42 21.42 0 0 0-.417 3.852c-.027 1.636.149 2.992.509 3.92.438 1.13 1.816 1.893 2.895 2.333 1.04.424 2.104.664 2.745.726a65.774 65.774 0 0 1-2.122-2.443zm2.18-1.968c-1.516-1.44-2.797-3.014-3.808-4.678A18.449 18.449 0 0 1 59.377 28c.1 1.181.346 2.357.733 3.504a15.475 15.475 0 0 0 2.74 4.897c1.202 1.46 2.182 2.514 3.047 3.444l.004.004.008.01c1.502 1.618 2.544 2.74 3.262 4.415-.355-2.509-1.318-5.996-4.796-9.301zm-10.292 5.14c.029-.092.094-.269.203-.563.41-1.105 1.224-3.3 1.515-4.947-.566 1.03-1.599 2.285-3.08 3.738l-.011.011c-.107.104-.985 1.002-.852 2.292.137 1.343.804 2.324 1.378 2.801.098-1.374.804-3.222.847-3.332zm-.868 4.367c-1.562-1.05-2.071-2.6-2.21-3.802-.714 1.548-.393 3.488.82 4.802.82.887 1.712 1.538 2.23 1.883a6.152 6.152 0 0 1-.84-2.883zm2.57-2.12c1.407-3.024 1.213-6.515.892-8.63-.274 2.423-1.262 5.174-1.652 6.26l-.002.003c-.052.146-.11.305-.132.377l-.002.008-.004.008c-.02.046-.474 1.125-.702 2.487-.178 1.06-.251 2.535.342 3.727.028-1.116.423-2.441 1.26-4.24zm-9.664 13.244c.997-1.38 1.754-3.137 2.25-5.223a24.02 24.02 0 0 0 .584-3.915c-.55 1.396-1.422 2.888-2.499 4.727l-.045.078-.022.038c-.486.832-1.038 1.776-1.614 2.805-.792 1.415-1.237 2.804-1.322 4.126a6.551 6.551 0 0 0 .272 2.402c.172-1.443.905-2.976 2.396-5.038zm-.422-4.817.007-.01c.133-.21 1.82-2.894 2.581-4.966-.739 1.095-1.894 2.2-3.443 3.289-.858.602-1.284 1.177-1.63 2.196-.11.328-.235 1.004-.222 1.83.012.77.146 1.432.381 1.89.419-1.048 1.343-2.825 2.326-4.229zm-2.71 5.244c-1.245-1.564-.947-3.754-.6-5.06-.67.56-1.177 1.109-1.55 1.674-1.054 1.6-1.188 3.313-.398 5.091.613 1.384 1.668 2.538 2.513 3.31-.374-1.137-.623-2.86.035-5.015zm37.02 1.72c.621-1.858.427-3.563-.579-5.069-.615-.92-1.53-1.646-2.438-2.304.464 1.198 1.007 3.147.246 4.354 1.035 2.484.964 4.899.69 6.569.714-.851 1.596-2.105 2.08-3.55zm-3.475-6.136c-.31-1.149-.815-2.116-1.317-2.525l-.115-.093c-.671-.542-2.38-1.923-3.52-3.34.41 1.323 1.35 3.295 3.501 5.7.654.732 1.211 1.518 1.656 2.335.094-.465.019-1.25-.205-2.077zm-2.147.264c-2.315-2.595-3.3-4.718-3.716-6.131-.424 3.496 1.862 7.42 3.295 9.487.339.487.71.94 1.039 1.34.854 1.04 1.663 2.027 2.139 3.573.192-2.242-.178-5.379-2.757-8.269zm-13.7-2.948c.576-1.3 1.033-3.282-.06-5.337-.43-.81-1.112-1.8-1.684-2.583.346 1.189.578 2.393.69 3.587.218 2.316-.034 4.462-.749 6.377-.106.286-.212.584-.32.904.683-.602 1.545-1.643 2.123-2.948zm-2.596 1.749c1.257-3.365.703-6.917.156-9.002-.074 2.403-.762 5.947-2 8.305-1.965 3.745-.933 8.238 0 10.866-.181-2.896.466-6.48 1.844-10.17zm.75 5.895c1.134-2.052 2.417-4.378 2.793-6.966.032-.216.056-.436.072-.66-1.238 2.993-3.105 4.015-3.554 4.224-.733 2.49-1.109 4.966-1.07 7.032.395-1.158 1.06-2.363 1.76-3.63zm-9.98 3.394c.907-1.122 1.497-2.734 1.756-4.79.381-3.03 1.042-4.827 1.59-5.856a9.478 9.478 0 0 0-1.877 2.115 8.211 8.211 0 0 0-1.305 3.942c-.123 1.819-.707 3.429-1.738 4.785a8.67 8.67 0 0 1-1.838 1.79c1.445-.283 2.563-.935 3.412-1.986zm2.83-2.174c.473-.514 1.03-1.379.999-2.584a9.7 9.7 0 0 0-.03-.392v-.005c-.071-.855-.228-2.742-.083-4.28-.5 1.227-.876 2.822-1.118 4.752-.16 1.268-.446 2.398-.848 3.357a4.174 4.174 0 0 0 1.08-.848zm.237 3.124c.783-.947 1.172-2.228 1.081-3.543-.594.912-1.561 1.994-2.953 2.37-.923 1.53-2.21 2.493-3.926 2.934.523.059 1.024.081 1.493.067 1.87-.054 3.36-.687 4.305-1.828zm11.432 3.985c.27-1.262.066-2.618-.607-4.032-.424-.888-.949-2.177-1.158-3.469-.33 1.51-.554 3.775-.01 6.543.227 1.161.353 2.318.375 3.441a4.716 4.716 0 0 0 1.4-2.483zm-2.428 5.265c.311-1.783.25-3.879-.178-6.06-.589-2.99-.33-5.426.04-7.048-1.07 1.688-2.533 4.614-2.084 7.459.04.253.143.671.274 1.202l.001.007c.483 1.968 1.356 5.524.685 7.718.585-.796 1.027-1.941 1.262-3.278zm3.343-.526c.904-1.633.926-3.363.066-5.146-.251 1.726-1.056 3.064-2.393 3.98-.075 1.822-.454 3.467-1.073 4.678 1.656-1.196 2.74-2.318 3.4-3.512zm2.615-15.584c-.796-4.027-1.99-6.778-2.91-8.447.148 1.748-.267 3.905-.45 4.864-.038.196-.066.34-.079.422-.195 1.326-.2 2.226-.018 2.83.161.537.453.81.823 1.155l.126.118a10.062 10.062 0 0 0 3.72 2.21 9.61 9.61 0 0 1-1.212-3.152zm3.237-.223c-.77-2.627-2.178-6.371-5.526-8.875.986 1.73 2.269 4.62 3.12 8.931.411 2.081 1.468 3.815 3.14 5.156 1.12.896 2.483 1.599 4.053 2.09-1.417-1.124-3.646-3.414-4.787-7.302zm-1.238 4.477c-2.464-.586-4.1-1.728-5.084-2.654.626 1.846 2.505 4.083 4.755 4.83.896.3 2.944.724 4.868 1.016-1.895-.772-3.42-1.845-4.54-3.192zM50.927 66.2c1.275-.452 2.72-.963 4.46-1.013a9.76 9.76 0 0 1 1.048.026c-.938-.355-2.601-.712-6.039-.612-.836.025-1.772.076-2.782.154a6.621 6.621 0 0 1-.308.015c-1.408.04-2.969-.349-4.395-1.095-1.207-.632-2.22-1.472-2.958-2.447a8.63 8.63 0 0 0 1.624 2.721c1.066 1.222 2.98 2.729 6.05 2.967.13.01.267.013.411.01.916-.027 1.874-.367 2.889-.726zm-7.3.415c-1.658-.883-2.922-2.095-3.755-3.603A10.04 10.04 0 0 1 39 60.829c.126 2.881 1.104 5.16 2.913 6.781 1.418 1.272 3.06 1.884 4.31 2.18-.789-.516-2.214-1.633-2.595-3.177zm9.829 1.19c1.051-1.036 1.804-1.484 2.42-1.77l-.12.003c-1.825.053-3.565.63-4.228.875l-.009.004c-1.37.554-2.627.852-3.74.885-1.435.041-2.36-.346-3.04-.647.651 1.223 2.342 2.379 3.539 2.683h.004c.11.028.443.111.945.097.97-.03 2.493-.421 4.229-2.13zm22.174-.526a5.948 5.948 0 0 1-.288.015c-1.463.042-3-.452-4.834-1.556-1.594-.957-2.748-1.597-4.03-2.103.74.733 1.228 1.603 1.628 2.318.18.324.331.59.487.83.923 1.422 2.431 1.683 3.534 1.65 1.458-.042 2.88-.606 3.503-1.154zm2.788-2.12c1.006-.963 1.772-2.24 2.28-3.802a7.196 7.196 0 0 1-2.22 2.124c-1.322.804-2.547.953-3.16.971a4.165 4.165 0 0 1-.953-.073c-.981-.204-1.948-.47-2.883-.727l-.018-.005c-1.784-.49-3.477-.954-5.197-.996 1.527.544 2.767 1.22 4.662 2.359 1.638.984 3.144 1.462 4.478 1.424 1.147-.034 2.16-.463 3.011-1.276zm-.761 3.438a6.333 6.333 0 0 0 2.045-1.886c.859-1.216 1.43-2.837 1.6-4.518-.766 2.025-2.273 4.225-4.441 4.858-.975 1.65-3.124 2.05-4.5 2.13a9.673 9.673 0 0 0 2.27.221c1.124-.031 2.142-.302 3.026-.805zM51.272 77.49v3.26h7.008v.94h-7.008v5.199h-1.695v-5.2h-7.079v-.94h7.08v-3.258h1.694zM66.117 86.858h-1.641v-4.669a11.547 11.547 0 0 1-2.1 2.442l-.725-1.073c1.289-.95 2.224-2.033 2.807-3.238h-2.419v-.93h2.436v-1.91h1.642v1.91h1.977v.93h-1.977v.572c.811.41 1.64.868 2.47 1.369l-.953.827a26.88 26.88 0 0 0-1.517-1.195v4.965zm11.528-8.97v.94h-3.16c-.212.378-.424.736-.654 1.083v1.082a55.794 55.794 0 0 1 4.396 2.288l-1.006.86c-1.342-.88-2.472-1.574-3.39-2.074v4.822h-1.676v-5.077c-1.006.92-2.224 1.746-3.672 2.492l-1.042-.777c2.56-1.307 4.36-2.87 5.42-4.699h-4.537v-.94h9.32zM47.92 90.868h-.542v-.096a.383.383 0 0 0-.087-.252c-.058-.07-.157-.106-.294-.106a.416.416 0 0 0-.18.033.334.334 0 0 0-.112.083.316.316 0 0 0-.058.123.617.617 0 0 0-.016.143c0 .059.003.107.008.146a.235.235 0 0 0 .133.183.904.904 0 0 0 .167.066l.414.13c.12.036.217.078.291.126a.601.601 0 0 1 .175.168.648.648 0 0 1 .08.227c.014.084.02.18.02.29 0 .124-.015.24-.047.346a.67.67 0 0 1-.153.273.764.764 0 0 1-.292.183c-.12.044-.267.066-.44.066-.13 0-.253-.018-.365-.054a.906.906 0 0 1-.292-.15.743.743 0 0 1-.193-.222.553.553 0 0 1-.071-.276v-.158h.54v.132c0 .078.03.148.088.21.058.063.156.094.294.094a.59.59 0 0 0 .215-.031c.051-.02.09-.05.119-.09a.283.283 0 0 0 .05-.139 1.926 1.926 0 0 0-.002-.372.272.272 0 0 0-.043-.12.28.28 0 0 0-.098-.075c-.04-.02-.095-.04-.162-.063l-.387-.125c-.233-.075-.39-.173-.47-.297a.84.84 0 0 1-.118-.463.86.86 0 0 1 .058-.316.682.682 0 0 1 .175-.258.8.8 0 0 1 .284-.172c.114-.043.251-.064.41-.064.135 0 .258.02.37.058.11.04.207.09.288.154.163.132.244.285.244.457v.208h-.002zM49.71 92.975v-2.96h.812c.149 0 .28.015.392.046a.78.78 0 0 1 .308.162.613.613 0 0 1 .19.272c.036.104.054.245.054.422 0 .133-.01.245-.029.337a.62.62 0 0 1-.124.257.73.73 0 0 1-.298.227c-.124.054-.286.08-.487.08h-.276v1.157h-.541zm.542-2.56v1.006h.26c.109 0 .194-.013.254-.038a.28.28 0 0 0 .183-.257c.005-.06.008-.13.008-.204 0-.07-.002-.135-.005-.198a.36.36 0 0 0-.048-.164.274.274 0 0 0-.127-.109.618.618 0 0 0-.243-.037h-.282zM52.818 92.975l.843-2.96h.45l.843 2.96h-.54l-.16-.636h-.737l-.16.636h-.54zm1.336-1.035-.266-1.072h-.01l-.266 1.072h.542zM56.609 92.975v-2.96h.8c.31 0 .547.067.708.2.161.133.242.322.242.565v1.385c0 .277-.086.482-.258.613-.171.132-.418.197-.74.197h-.752zm.54-2.56v2.162h.25c.152 0 .26-.03.324-.09.063-.06.095-.153.095-.28V90.78a.382.382 0 0 0-.09-.27c-.06-.064-.17-.096-.33-.096h-.249zM60.257 92.975v-2.96h1.612v.399h-1.071v.869h.933v.399h-.933v.869h1.07v.424h-1.611zM66.338 92.975v-2.56h-.626v-.4h1.792v.4h-.626v2.56h-.54zM69.133 92.975v-2.96h1.612v.399h-1.071v.869h.933v.399h-.933v.869h1.07v.424h-1.611zM72.24 92.975l.842-2.96h.451l.843 2.96h-.54l-.16-.636h-.737l-.16.636h-.54zm1.336-1.035-.266-1.072h-.01l-.266 1.072h.542z" fill="#BFBFBF"/>
</svg>
