<svg width="120" height="120" fill="none" xmlns="http://www.w3.org/2000/svg">
    <path fill="#332F2C" d="M0 0h120v120H0z"/>
    <path d="m24.599 54.13-5.724 4.243a.14.14 0 0 1-.196-.03l-.652-.877a.14.14 0 0 1 .03-.195l5.724-4.244a.14.14 0 0 1 .195.03l.652.877a.14.14 0 0 1-.029.195zM30.035 66.922v-.001.001zM29.621 67.185l-2.07-2.628-.44.346a.21.21 0 0 1-.295-.035l-2.772-3.52a.21.21 0 0 1 .035-.295l1.29-1.014a.21.21 0 0 1 .296.035l2.771 3.52a.21.21 0 0 1-.035.295l-.44.346 2.07 2.63.003.005-.302-8.734c-2.144-1.259-5.453-3.157-5.453-3.157-2.714 2.015-4.58 3.395-4.58 3.395l1.526 5.964 8.276 2.98.152-.114a.052.052 0 0 1-.032-.019zM34.993 63.915V61.09c.479.652.995.978 1.551.978.21 0 .381-.055.513-.166a.521.521 0 0 0 .198-.416c0-.241-.144-.476-.431-.705l-.396-.309a5.368 5.368 0 0 1-.676-.591 3.055 3.055 0 0 1-.455-.606 2.548 2.548 0 0 1-.257-.643 2.919 2.919 0 0 1-.081-.7c0-.419.097-.858.291-1.316.098-.213.21-.408.339-.585.128-.177.276-.333.443-.47.458-.387 1.012-.581 1.66-.581.58 0 1.163.153 1.75.46v2.75a2.57 2.57 0 0 0-.676-.726c-.253-.177-.502-.265-.747-.265a.663.663 0 0 0-.46.163.48.48 0 0 0-.187.379c0 .24.165.48.495.716l.385.286c.513.369.88.747 1.102 1.136.226.388.338.842.338 1.363 0 .885-.27 1.615-.81 2.19-.54.574-1.224.862-2.052.862-.571 0-1.183-.127-1.837-.38zM45.477 64.136h-2.43v-6.838h-1.342v-2.156h5.166v2.156h-1.394v6.838zM55.476 64.136h-2.629l-1.2-3.204a2.311 2.311 0 0 0-.062-.215c-.03-.09-.065-.196-.108-.32l.018.593v3.146h-2.42v-8.993h2.49c1.095 0 1.915.215 2.46.646.691.551 1.037 1.336 1.037 2.353 0 1.088-.464 1.839-1.393 2.255l1.807 3.74zm-3.97-4.829h.164a.89.89 0 0 0 .699-.32c.187-.214.28-.486.28-.816 0-.671-.352-1.007-1.055-1.007h-.088v2.143zM59.41 55.143h1.132l1.207 3.588c.35 1.013.658 2.095.926 3.244a33.843 33.843 0 0 1-.215-1.887 19.242 19.242 0 0 1-.07-1.59v-3.355h1.218v8.993h-1.137l-1.358-4.048a26.271 26.271 0 0 1-.353-1.159c-.11-.396-.213-.812-.306-1.246a2.483 2.483 0 0 0-.038-.199 33.452 33.452 0 0 0-.06-.267 32.395 32.395 0 0 1 .046.442l.064.915.064 1.112a13.058 13.058 0 0 1 .012.53l.064 3.92H59.41v-8.993zM66.022 55.143h3.224v1.025h-2.011v2.849h1.784v1.025h-1.785v3.07h2.012v1.025h-3.224v-8.994zM70.67 55.143h3.946v1.06h-1.358v7.933h-1.19v-7.933H70.67v-1.06zM76.15 55.143h1.172l.612 4.176.099.617a17 17 0 0 1 .105.915l.064.763c.004.02.008.054.012.105l.017.192.03-.292c.046-.508.095-.976.148-1.403.052-.428.11-.822.171-1.183l.648-3.891h.933l.606 3.78c.089.56.164 1.078.224 1.555.06.478.11.934.148 1.37.04-.46.083-.902.132-1.329.048-.427.1-.846.154-1.258l.088-.6.518-3.518h1.16l-1.59 8.994h-.945l-.636-3.885a58.383 58.383 0 0 0-.099-.675l-.122-.898c-.008-.07-.02-.175-.038-.314a17.37 17.37 0 0 1-.055-.53l-.03-.373c-.007.09-.015.167-.023.233s-.014.12-.017.163a30.989 30.989 0 0 1-.076.856l-.123.862-.064.466a2.225 2.225 0 0 1-.035.21l-.659 3.885h-.974l-1.555-8.993zM89.448 59.86c0 1.589-.177 2.717-.53 3.385-.354.668-.947 1.002-1.779 1.002-.874 0-1.49-.36-1.848-1.078-.353-.703-.53-1.951-.53-3.745 0-1.6.175-2.732.524-3.396.354-.668.953-1.002 1.796-1.002.754 0 1.313.258 1.679.775.24.345.416.837.524 1.474.11.59.164 1.452.164 2.586zm-1.27.129c0-1.557-.071-2.59-.21-3.099-.14-.512-.426-.769-.858-.769-.43 0-.719.235-.862.705-.14.474-.21 1.425-.21 2.854 0 1.316.073 2.23.221 2.738.152.482.436.722.851.722.409 0 .688-.225.84-.676.151-.446.227-1.271.227-2.475zM91.675 55.143h1.597c.661 0 1.153.157 1.475.472.408.407.613 1.03.613 1.87 0 .644-.108 1.161-.324 1.552-.216.39-.524.632-.924.725l1.656 4.375h-1.23l-1.65-4.404v4.404h-1.213v-8.994zm1.213 3.984c.47 0 .802-.109.997-.326.194-.218.291-.585.291-1.101 0-.28-.02-.519-.061-.717a1.283 1.283 0 0 0-.192-.483.775.775 0 0 0-.338-.274 1.258 1.258 0 0 0-.493-.087h-.204v2.988zM97.733 55.143h1.212V59.5l1.691-4.357h1.224l-1.772 4.357L102 64.136h-1.364l-1.69-4.636v4.636h-1.213v-8.993z" fill="#BFBFBF"/>
</svg>
