<svg width="120" height="120" fill="none" xmlns="http://www.w3.org/2000/svg">
    <path fill="#332F2C" d="M0 0h120v120H0z"/>
    <g clip-path="url(#a)">
        <path d="m58.471 47.46 3.652 2.842V39.449l-3.652-2.841V47.46z" fill="#CDCECE"/>
        <path d="m58.471 70.703 3.652 2.841V50.302L58.47 47.46v23.242z" fill="#DADADA"/>
        <path d="M45.588 43.998c-.202.469-.387.927-.552 1.373-1.808 4.911-1.722 10.888-1.351 14.958l4.085 3.178c-.42-2.577-1.513-10.878.695-16.879.106-.284.215-.564.324-.838a8.974 8.974 0 0 0-1.986-1.36 5.09 5.09 0 0 0-1.215-.432zM47.25 40.68c.4.133.801.294 1.199.492.701.35 1.36.763 1.976 1.232 3.005-5.32 7.196-8.763 9.874-8.763-3.423 0-7.14 1.419-10.632 3.366a33.913 33.913 0 0 0-2.417 3.674zM71.825 45.85c.102.257.205.514.3.778 2.209 6.004 1.116 14.302.696 16.88l4.085-3.179c.37-4.066.456-10.044-1.35-14.958a28.137 28.137 0 0 0-.544-1.353 5.328 5.328 0 0 0-1.135.409 8.967 8.967 0 0 0-2.052 1.422z" fill="#838484"/>
        <path d="M73.357 40.707a34.195 34.195 0 0 0-2.499-3.789c-3.446-1.901-7.104-3.277-10.47-3.277-.016 0-.03.003-.046.003-.017 0-.03-.003-.047-.003 2.688 0 6.895 3.465 9.904 8.812a12.598 12.598 0 0 1 2.04-1.28c.37-.185.744-.337 1.118-.466zM52.934 56.537l3.69 2.871c.226-7.849-1.96-13.78-6.203-17.004a28.574 28.574 0 0 0-1.628 3.383c2.989 2.7 3.926 7.139 4.14 10.75zM44.619 40.242a76.296 76.296 0 0 0-8.716 7.373c.11-.099 5.263-4.617 9.686-3.617a33.697 33.697 0 0 1 1.662-3.317 9.137 9.137 0 0 0-2.632-.44z" fill="#838484"/>
        <path d="M47.25 40.68a33.326 33.326 0 0 0-1.662 3.318c.414.092.821.23 1.218.429a8.867 8.867 0 0 1 1.986 1.36 29.358 29.358 0 0 1 1.629-3.383 12.614 12.614 0 0 0-1.976-1.232 8.769 8.769 0 0 0-1.195-.491z" fill="#C1C2C2"/>
        <path d="m64.059 59.408 3.69-2.872c.212-3.58 1.136-7.984 4.075-10.687a28.738 28.738 0 0 0-1.625-3.393c-4.2 3.235-6.365 9.146-6.14 16.952zM73.358 40.707a34.3 34.3 0 0 1 1.655 3.31c4.442-1.075 9.658 3.5 9.771 3.598a76.132 76.132 0 0 0-8.719-7.373c-.9.02-1.81.165-2.707.465z" fill="#838484"/>
        <path d="M72.238 41.172c-.725.364-1.403.793-2.039 1.281a28.958 28.958 0 0 1 1.626 3.393 8.853 8.853 0 0 1 2.052-1.42c.37-.184.751-.316 1.135-.409a33.504 33.504 0 0 0-1.655-3.31c-.374.129-.748.28-1.119.465z" fill="#C1C2C2"/>
        <path d="M70.858 36.918c1.82 1.003 3.578 2.152 5.207 3.324 5.763-.126 11.241 4.779 11.619 5.122C87.078 44.734 72.744 30 60.388 30c-.016 0-.03 0-.046.003-.014-.003-.03-.003-.047-.003 3.88 0 7.64 3.083 10.563 6.918zM44.619 40.242a52.986 52.986 0 0 1 5.044-3.235C52.6 33.132 56.39 30 60.295 30 47.942 30 33.61 44.734 33 45.364c.377-.343 5.856-5.248 11.619-5.122z" fill="#DADADA"/>
        <path d="M60.388 33.64c3.37 0 7.028 1.377 10.47 3.278C67.935 33.083 64.175 30 60.296 30c-3.906 0-7.697 3.132-10.633 7.007 3.493-1.947 7.21-3.366 10.633-3.366.016 0 .03.003.046.003.017 0 .033-.003.046-.003zM33 45.364l2.886 2.248.01.006.004-.003a76.113 76.113 0 0 1 8.719-7.373C38.856 40.116 33.377 45.02 33 45.364zM76.065 40.242a76.734 76.734 0 0 1 8.719 7.373l.003.003.01-.006 2.887-2.248c-.378-.343-5.856-5.248-11.619-5.122z" fill="#BFBFBF"/>
    </g>
    <path d="M42.948 80.873V90h-1.536v-9.127h-2.335v-1.506h6.202v1.506h-2.33zM55.857 86.815h-4.593c.04.552.211.99.512 1.317.3.323.691.482 1.164.482.367 0 .672-.09.914-.274.238-.184.508-.523.808-1.018l1.25.732a5.127 5.127 0 0 1-.613.883 3.316 3.316 0 0 1-.691.605c-.246.16-.512.274-.797.348-.285.073-.594.11-.93.11-.957 0-1.722-.323-2.304-.965-.578-.646-.867-1.504-.867-2.575 0-1.059.28-1.917.843-2.576.567-.646 1.317-.973 2.25-.973.941 0 1.687.315 2.238.945.543.625.816 1.488.816 2.596v.363zm-1.519-1.267c-.207-.826-.703-1.239-1.492-1.239-.18 0-.348.03-.508.086a1.39 1.39 0 0 0-.43.25c-.128.11-.242.237-.331.388a1.765 1.765 0 0 0-.211.515h2.972zM67.179 81.094l-1.185.743c-.223-.41-.433-.672-.635-.797-.21-.142-.479-.213-.807-.213-.403 0-.74.12-1.008.365-.27.24-.404.538-.404.903 0 .499.349.904 1.055 1.206l.967.419c.785.338 1.361.748 1.722 1.233.366.485.547 1.077.547 1.78 0 .944-.299 1.722-.891 2.337-.597.618-1.34.93-2.223.93-.84 0-1.534-.263-2.08-.788-.538-.525-.874-1.268-1.009-2.225l1.48-.347c.067.6.184 1.019.348 1.246.303.44.74.663 1.316.663.453 0 .832-.16 1.134-.485.303-.325.45-.73.45-1.229 0-.2-.026-.382-.08-.547a1.405 1.405 0 0 0-.244-.459 1.929 1.929 0 0 0-.428-.391 4.446 4.446 0 0 0-.627-.347l-.932-.41c-1.324-.592-1.988-1.46-1.988-2.6 0-.77.277-1.414.832-1.93.559-.522 1.248-.784 2.076-.784 1.113 0 1.987.574 2.614 1.727zM78.902 87.57h-4.296L73.49 90h-1.63l4.963-10.633L81.608 90h-1.656l-1.05-2.43zm-.619-1.42-1.486-3.402-1.56 3.402h3.046z" fill="#BFBFBF"/>
    <defs>
        <clipPath id="a">
            <path fill="#fff" transform="translate(33 30)" d="M0 0h54.684v43.544H0z"/>
        </clipPath>
    </defs>
</svg>
