<svg width="120" height="120" fill="none" xmlns="http://www.w3.org/2000/svg">
    <path fill="#332F2C" d="M0 0h120v120H0z"/>
    <path d="M71.601 29.097c-.015-.05-.065-.077-.151-.082a18.21 18.21 0 0 0-3.369.179c-2.649.385-5.375 1.267-7.467 2.001l.26-1.396c.019-.161-.076-.2-.118-.208-.124-.024-.31.088-.35.205l-.254 1.567c-3.396 1.199-7.236 2.818-11.749 4.958-.091.056-.094.135-.065.191.039.077.145.144.231.115 4.309-2.037 8.178-3.677 11.509-4.87L57.1 48.377l-.036-.235a.266.266 0 0 0 .074-.1c.03-.07.003-.112-.011-.126-.069-.088-.149-.127-.226-.106-.086.023-.145.117-.16.256-.041.39.098.837.226 1.187.03.074.094.12.163.12h.005c.069-.002.125-.052.152-.14l.092-.577 3.155-17.067c2.868-1.023 6.57-2.204 9.831-2.29.208-.008.439-.017.652-.014a1.49 1.49 0 0 0-.168.147c-.087.115-.057.22.014.273.066.05.172.059.237-.02a.137.137 0 0 0 .039-.133l.216-.135c.282-.206.255-.29.246-.32z" fill="#BFBFBF"/>
    <path d="M66.336 35.145c-.047-.103-.038-.3-.03-.496-1.235 1.695-2.998 4.626-3.81 6.824-.42 1.138-.74 2.237-.9 3.318-.099.788-.099.623.272-.017.355-.576.83-1.376 1.158-1.82.33-.443.655-.393.827-.088.264.509-.098 1.91.7 1.49.447-.205 1.063-.734 1.72-1.293.155-.09.253.08.134.174-.409.34-1.555 1.302-1.955 1.446-1.203.429-.59-1.849-1.076-1.776-.282.05-1.825 2.904-2.074 3.286-.053.097-.255.086-.225-.044.03-1.584.483-3.15 1.043-4.796.732-2.149 3.218-6.193 4.498-7.842.059-.13.287-.082.219.077-.1.323-.199.617-.252.878-.02.262-.03.462.009.594.027.168-.225.253-.258.085z" fill="#BFBFBF"/>
    <path d="M67.462 43.822a9.037 9.037 0 0 1-1.76.828c-.172.818.436.818 1.117.623 1.257-.361 2.362-1.125 3.254-2.001a.111.111 0 0 1 .172.141c-1.014.967-2.078 1.702-3.28 2.13-.724.227-1.402.254-1.645-.352-.151-.57.16-1.246.492-1.69.43-.602 1.093-1.196 1.917-1.413.255-.086.88-.183 1.025.088.323.546-.945 1.434-1.292 1.646zm-.124-.203c.468-.306.844-.647 1.078-.964.095-.127.19-.418-.044-.432-.267-.015-.708.159-.975.311-.809.485-1.274 1.088-1.633 1.825.549-.202 1.103-.437 1.574-.74zM34.018 56.19a130.188 130.188 0 0 1 4.376-7.983c.098-.6.264-1.232.49-1.77.224-.537.518-1.11.986-1.463.213-.141.388-.215.522-.22.328.017.225.384.136.587-.128.27-.368.644-.69 1.185l-1.251 2.069c-.068.629-.036 1.255.113 1.742.237.88.927 1.247 1.863.873 1.147-.479 2.839-2.007 5.274-5.216.078-.103.27-.044.223.088-1.793 4.632-3.944 8.588-4.303 13.487.202-.009.122-.203.095-.267-.086-.13.068-.332.187-.206.26.35.056.723-.424.844-.1.005-.163-.027-.15-.127.301-4.664 2.112-8.244 3.875-12.611-1.04 1.334-1.974 2.298-2.744 2.992-.62.523-1.126.908-1.582 1.125-1.295.62-2.246.2-2.593-.908a5.03 5.03 0 0 1-.121-1.346 163.127 163.127 0 0 0-3.89 7.168c-1.361 2.766-2.508 5.423-3.008 7.295-.015.132-.45.185-.398-.015.504-1.898 1.657-4.59 3.014-7.324zm5.464-9.78c.317-.475.56-.88.652-1.116.225-.538-.303.047-.418.185-.5.65-.747 1.388-.954 2.09.275-.412.518-.82.72-1.158zM45.6 56.2l-.503 1.606c-.16.567-.255 1.134.503.57l.581-.456c.69-.558 1.5-1.287 2.125-1.843.148-.138.326.05.178.192-.658.558-1.467 1.287-2.158 1.845l-.616.491c-.655.523-.987.538-1.081.18-.072-.262.017-.794.183-1.394.063-.267.297-.905.391-1.172.045-.136.454-.253.397-.018zm.374-1.007c-.045.1-.279.111-.344.114-.062-.029-.089-.094-.05-.161l.186-.503c.048-.135.486-.188.395.047l-.187.503z" fill="#BFBFBF"/>
    <path d="M49.032 56.08c.459.044.87.227 1.07.547.287-.212.613-.455.968-.67.145-.106.252.12.11.226-.356.215-.679.459-1.005.706.125.687-.708 1.648-1.339 1.972-.14.073-.311.111-.432.02-.152-.126.056-.529.133-.632.237-.34.69-.855 1.277-1.375-.37-.576-1.117-.412-1.585-.688-.25-.153-.252-.45-.122-.72.228-.57.9-.964 1.413-1.12.827-.267 1.375.17.697.926-.157.238-.45.185-.468.02.006-.067.121-.202.394-.281.077-.103.201-.338.08-.432-.246-.188-.916.173-1.387.555-.18.141-.557.553-.38.744.12.123.344.179.576.202zm.776 1.12c-.477.418-.856.864-1.055 1.17-.121.203-.243.406.044.197.4-.318.96-.902 1.01-1.367z" fill="#BFBFBF"/>
    <path d="M52.03 56.275c.157-.239.205-.042.264.02.34.547.77.855 1.304.832.533-.024 1.209-.45 2.074-1.379.11-.102.296.021.18.156-.936 1-1.68 1.429-2.284 1.487-.601.027-1.064-.282-1.437-.825l-.344.411c-.417.48-.797.629-1.03.64-.433.021-.374-.543-.282-.778a3.764 3.764 0 0 1 1.795-1.896c.175-.073.27-.044.297.02.026.065-.018.165-.06.233-.035.035-.115.138-.18.141-.033.003-.101.006-.13-.026 0 0 .002-.033-.03-.033-.25.144-.54.388-.768.662-.077.102-.847 1.093-.58 1.378.213.223 1.048-.77 1.211-1.043z" fill="#BFBFBF"/>
    <path d="M55.456 57.441c.201-.338.708-1.022.972-1.331.115-.138.267-.309.409-.414.07-.036.175-.074.27-.044.032-.004.097.029.118.126.056.097.065.326-.012.726-.03.264-.086.5-.116.764-.017.164 0 .297.057.394.178.52.972.22 1.39.038 1.045-.476 2.346-1.458 3.19-2.222.146-.106.294.053.146.191-.845.764-2.184 1.781-3.263 2.257-.488.22-1.416.526-1.762.047-.119-.126-.166-.323-.166-.62-.015-.164.038-.364.056-.532l.127-.567c.018-.165 0-.297-.08-.194-.334.344-.72.823-.995 1.231-.243.406-.528.882-.705 1.32-.045.1-.457.218-.395-.05l1.144-3.547c.175-.403.717.132.368.908-.042.067-.14.073-.208.076-.062-.03-.053-.13-.044-.197.074-.07.092-.235.11-.4l-.611 2.04z" fill="#BFBFBF"/>
    <path d="M62.902 53.018c.249-.77.55-1.41.877-1.69.107-.07.352-.18.474-.088.06.064.083.161.038.261-.07.368-.18.768-.358 1.17.48-.153.86-.27 1.363-.323.133-.006.148.159.044.197-.077.103-.64.39-.619.194.003-.032.006-.068.042-.068-.341.083-.65.162-.96.273l-.003.033a9.108 9.108 0 0 1-1.008 1.66c-.305 1.3-.663 2.769-.738 4.092.015.164-.284.176-.266.011.053-1.122.293-2.421.548-3.553l-.486.517c-.145.106-.255-.088-.11-.226.332-.312.45-.482.711-.758.083-.465.199-.932.35-1.402-.59.223-1.17.382-1.591.303-.196-.024-.098-.327.065-.3.427.047 1.005-.077 1.627-.303zm.281.153-.222.834c.199-.305.364-.61.53-.913l-.308.079zm.439-.382c.175-.403.323-.84.397-1.238.038-.035.041-.067.003-.032-.329.28-.608 1.017-.747 1.387l.347-.117zM67.607 50.3c-.056-.097-.068-.294-.08-.491a22.01 22.01 0 0 0-1.636 4.097 15.238 15.238 0 0 0-.563 3.389c-.017.793-.035.628.27-.045.296-.608.688-1.449.969-1.925.284-.473.613-.455.815-.167.314.482.095 1.91.844 1.413.424-.25.987-.834 1.585-1.457.146-.106.261.056.149.158-.374.38-1.417 1.45-1.802 1.632-1.155.546-.77-1.782-1.25-1.661-.273.08-1.526 3.071-1.734 3.477-.044.1-.243.109-.23-.023-.131-1.579.08-3.204.556-4.877.513-1.672 1.263-3.42 2.217-5.178.047-.135.278-.112.225.056-.068.332-.133.632-.163.9.006.264.018.46.068.59.053.164-.19.276-.24.111z" fill="#BFBFBF"/>
    <path d="M70.834 54.875c.353-.179.667-.326.86-.27.224.056.269.285.008.858-.489 1.143-.865 1.887-.936 2.548-.039.365.533-.32.646-.458.418-.48 1.182-1.437 2.006-2.598.115-.138.335-.015.216.156-.812 1.058-1.624 2.15-2.041 2.63l-.377.412c-.409.414-.806.4-.746-.165.094-.896.554-1.772.906-2.58.356-.841-.616-.139-1.058-.053-.136.038-.34.082-.47.052-.421-.114-.164-.652.035-.958.273-.376.655-.855 1.02-1.134.432-.318.66.035.453.408-.166.303-.519.814-1.212 1.408.234-.038.48-.147.69-.256zm-.204-.881c-.27.34-.54.684-.634.952.403-.347 1.303-1.31 1.15-1.437-.06-.065-.288.208-.516.485z" fill="#BFBFBF"/>
    <path d="M73.702 55.043c-.456.846-.839 1.622-.773 2.575.07.887.906.223 1.256-.253.308-.409.59-.852.835-1.29-.397-.015-.734-.265-.939-.52-.175-.224-.237-.583-.175-.85.125-.532.759-.89 1.17-1.008 1.574-.432.558 1.625.3 2.163 1.004-.076 1.816-.544 2.474-1.1.11-.102.255.089.145.192-.841.732-1.78 1.134-2.75 1.178-.248.474-.82 1.455-1.436 1.946-.69.559-1.085.215-1.194-.309-.181-.784.358-2.095.8-2.806.115-.174.408-.12.287.082zm1.953-.879c-.06-.69-2.084.227-1.36 1.217.207.22.512.473.814.459.223-.506.57-1.282.546-1.676z" fill="#BFBFBF"/>
    <path d="M79.24 51.695c.009.23.166.62.166.62.121.095-.06.236-.154.206-.069.003-.122-.094-.19-.388-.548 1.411-.987 3.013-1.328 4.647-.305 1.3-.51 2.595-.675 3.824.45-1.737 1.01-3.542 1.778-4.797.847-1.39 1.478-2.013 1.964-2.233.314-.148.578-.124.756.064.266.285.284.747.175 1.146-.054.2-.11.4-.231.606.642-.13 1.294-.323 1.92-.879.148-.138.254.088.145.191-.735.659-1.517.826-2.264.99-.465.615-1.289 1.18-1.962 1.276-.373.082-.702-.264-.361-.644.193-.24.643-.426.886-.534.347-.147.723-.23 1.162-.315.201-.338.34-.708.34-1.005 0-.297-.112-.82-.495-.638-.414.15-1.046.773-1.813 2.06-.972 1.629-1.609 4.162-2.178 6.366l-.352 1.435c-.048.135-.282.144-.264-.02.19-1.758.483-3.883.874-5.979.394-2.128.951-4.232 1.707-6.016.127-.268.382-.18.394.017zm1.552 4.089-.856.235c-.447.153-.77.364-.788.529-.036.332.951-.209 1.167-.35.178-.106.359-.247.477-.414z" fill="#BFBFBF"/>
    <path d="M84.677 55.146a9.139 9.139 0 0 1-1.668 1c-.089.828.516.77 1.174.508 1.214-.483 4.66-3.498 5.46-4.456.116-.138.2-.012.122.091-.91 1.064-4.255 4.074-5.41 4.62-.697.294-1.37.391-1.672-.188-.207-.552.036-1.255.317-1.728.368-.644.97-1.296 1.766-1.596.243-.109.86-.27 1.031-.012.377.506-.794 1.517-1.12 1.76zm-.145-.191c.436-.35.777-.73.978-1.067.08-.135.145-.435-.086-.426-.267.011-.687.229-.94.405-.758.562-1.158 1.208-1.44 1.978.525-.252 1.053-.54 1.488-.89zM53.183 64.892c-.118.065-.252-.041-.157-.138.287-.291.868-.903 1.013-1.273-.175.027-.19-.144-.038-.206.213-.05.314.053.3.22-.075.242-.434.665-.632.886.762-.438 2.705-1.726 1.74-2.481-1.749-1.34-7.693.688-9.483 1.578-.885.417-1.594.894-2.077 1.405-.963 1-.717 1.831.392 2.557 1.051.685 2.714 1.105 3.617 1.4 2.315.672 4.833 1.433 5.855 2.88 1.076-.5 2.202-.932 3.458-1.373.151-.059.252.156.068.209a35.74 35.74 0 0 0-3.419 1.349c.43.667.51 1.498.14 2.512-.362.988-1.541 2.146-2.96 3.125-1.056.755-4.836 2.98-6.235 2.122-.305-.194-.406-.52-.317-.932.113-.376.403-.894.862-1.44 1.283-1.51 4.021-3.568 8.06-5.437-.827-1.214-2.504-1.808-3.92-2.272-1.408-.491-2.952-.864-4.306-1.432a6.42 6.42 0 0 1-1.209-.6c-1.185-.793-1.422-1.766-.364-2.862.486-.514 1.23-1.011 2.127-1.455 1.989-.996 4.7-1.757 6.818-1.969.954-.094 2.29-.126 3.073.459 1.351 1.028-1.464 2.677-2.406 3.168zM45.5 77.442c-.445.49-.688.96-.791 1.31-.074.356-.012.591.207.744.809.503 3.01-.54 3.668-.855.714-.391 1.467-.8 2.14-1.282 1.348-.96 2.51-2.069 2.856-3 .347-.932.273-1.681-.068-2.305-4.03 1.84-6.72 3.848-8.012 5.388z" fill="#BFBFBF"/>
    <path d="M57.343 70.538c-.427.867-.78 1.66-.688 2.621.098.894.904.2 1.236-.29.293-.424.557-.876.788-1.326-.394-.003-.735-.247-.945-.497-.18-.22-.252-.582-.199-.852.107-.541.727-.923 1.13-1.052 1.543-.482.598 1.625.361 2.175.993-.106 1.784-.6 2.418-1.182.106-.109.255.082.15.188-.811.761-1.73 1.196-2.684 1.267-.234.485-.767 1.493-1.363 2.004-.666.585-1.066.247-1.19-.279-.205-.785.29-2.125.705-2.857.103-.173.397-.129.28.08zm1.908-.944c-.08-.693-2.053.285-1.307 1.267.214.218.522.461.821.44.199-.516.522-1.31.486-1.707z" fill="#BFBFBF"/>
    <path d="M62.858 69.16c.024.132-.095.373-.163.446-.142.144-.326-.009-.187-.153 0 0 .036-.035.074-.106-.308.192-.663.55-.954.938-.367.529-.655 1.317-.178 1.517.957.361 2.978-1.223 3.686-1.943.175-.147.326.041.184.188-.782.794-2.204 1.866-3.268 2.046-.833.161-1.434-.127-1.168-1.05.086-.273.24-.585.424-.832.329-.458.759-.922 1.233-1.125.127-.047.263-.091.317.073z" fill="#BFBFBF"/>
    <path d="m65.527 69.826-.45 1.635c-.143.579-.217 1.152.515.561l.56-.476c.667-.585 1.446-1.343 2.045-1.922.142-.144.325.04.183.188-.634.582-1.413 1.34-2.08 1.922l-.595.511c-.632.547-.96.573-1.064.212-.08-.262-.006-.8.14-1.41.052-.271.266-.92.352-1.194.041-.132.444-.262.394-.026zm.34-1.025c-.04.103-.272.12-.337.126-.062-.03-.092-.094-.053-.162l.168-.514c.042-.138.475-.203.392.038l-.17.512z" fill="#BFBFBF"/>
    <path d="M69.465 70.235a8.984 8.984 0 0 1-1.62 1.055c-.063.838.533.761 1.176.48 1.185-.524 2.172-1.43 2.936-2.423.11-.14.26.015.187.12-.868 1.1-1.82 1.973-2.945 2.558-.679.317-1.346.435-1.663-.144-.222-.55-.003-1.267.264-1.755.344-.661.919-1.337 1.698-1.66.237-.118.841-.297 1.02-.041.39.502-.739 1.554-1.053 1.81zm-.15-.188c.42-.364.746-.755.936-1.105.076-.138.13-.444-.101-.426-.264.02-.676.25-.919.435-.732.587-1.111 1.252-1.366 2.036.513-.27 1.028-.576 1.45-.94z" fill="#BFBFBF"/>
    <path d="M73.03 66.835c.222-.785.5-1.44.817-1.731.104-.074.344-.192.465-.1a.24.24 0 0 1 .045.264c-.06.37-.157.779-.32 1.19.471-.167.841-.296 1.34-.367.133-.009.15.156.05.197-.075.106-.623.414-.608.212.003-.033.006-.068.039-.071a8.818 8.818 0 0 0-.943.303l-.003.032a9.091 9.091 0 0 1-.948 1.705c-.263 1.322-.572 2.812-.607 4.15.02.164-.276.188-.264.02.02-1.137.216-2.454.433-3.603l-.465.535c-.14.112-.255-.082-.116-.227.32-.323.43-.5.681-.784.069-.473.17-.947.303-1.426-.575.244-1.147.42-1.568.35-.195-.017-.107-.326.056-.306.436.044 1.005-.1 1.612-.343zm.284.144-.196.849c.187-.315.341-.626.498-.938l-.302.089zm.424-.4c.162-.412.293-.855.355-1.261.036-.035.039-.07.003-.032-.317.29-.569 1.043-.696 1.42l.338-.127z" fill="#BFBFBF"/>
    <path d="M76.994 70.376c-.03-.5-.086-1.029-.178-1.555-1.093 1.017-1.727 1.632-2.237 1.87-.34.158-.838.261-.972-.162a1.295 1.295 0 0 1 .006-.535c.047-.203.104-.508.222-.785.042-.135.513-.27.43-.064-.169.514-.273 1.022-.255 1.22.065.46.693-.05.868-.198.49-.402 1.123-.984 1.897-1.675.177-.18.275-.188.358.006.157.523.21 1.12.243 1.584.557-.44 1.18-.855 1.867-1.272.14-.112.255.114.115.19-.723.456-1.377.903-1.937 1.347.139 2.092-.22 4.256-.966 6.345-.617 1.681-1.405 2.575-2.086 2.892-.338.127-.635.147-.89.068-1.022-.359-1.11-1.787-.971-2.766.26-1.757 1.523-4.153 4.486-6.51zm-.928 6.243c.706-1.955 1.085-3.986.97-5.946-2.795 2.278-4.013 4.538-4.27 6.225-.134.911.008 1.634.302 2.08.415.603 1.037.592 1.606.016.71-.724 1.06-1.45 1.392-2.375zM81.928 85.072c.106-.25.21-.488.31-.72-.056-.045-.103-.039-.141-.006-.273.232-.59.4-.886.593-.21.138-.424.277-.64.409-.317.19-.626.39-.934.59-.077.05-.14.121-.213.174a.544.544 0 0 1-.151.07c-.015.006-.048-.008-.06-.023-.011-.015-.02-.047-.011-.062.091-.144.177-.294.35-.367.16-.07.301-.162.44-.268.137-.102.291-.188.442-.27.385-.212.726-.49 1.108-.702.05-.027.095-.065.143-.097.228-.156.459-.312.69-.465.027-.017.065-.023.098-.03.065-.01.15.054.145.115a.746.746 0 0 1-.038.2c-.03.074-.078.141-.116.212-.053.1-.119.197-.157.306-.065.182-.14.361-.252.54.071.091.169.174.198.274.04.12.087.232.13.346.04.1-.005.224.045.333.069-.02.116-.047.101-.12-.006-.024-.015-.045-.024-.066a.497.497 0 0 1 .054-.487c.08-.127.139-.268.219-.391a.608.608 0 0 1 .554-.297.192.192 0 0 1 .196.2c0 .09-.015.179-.063.264-.145.262-.272.526-.489.747a1.294 1.294 0 0 0-.322.485.136.136 0 0 1-.13.094c-.146.006-.155.009-.17.12-.02.136-.092.256-.092.4 0 .117-.08.232-.077.364.003.12-.088.21-.157.3-.015.02-.068.044-.083.035a.233.233 0 0 1-.085-.1c-.012-.026.002-.067.014-.1.104-.279.184-.567.237-.858.036-.202.045-.411.09-.61.002-.021-.013-.042-.021-.077-.027.014-.063.023-.078.047a.443.443 0 0 0-.062.123c-.098.297-.31.532-.444.811-.039.08-.104.15-.154.227-.006.008-.006.029 0 .032a.166.166 0 0 0 .053.02c.009.004.02-.005.033-.011.047-.02.094-.015.118.032.012.027.009.074-.009.097-.053.074-.106.156-.177.212-.175.129-.323.3-.534.35-.06.085.03.144.015.205-.042.165-.077.33-.068.503.009.17.006.344 0 .517 0 .02-.045.047-.074.059-.048.014-.098-.003-.116-.05-.018-.041-.018-.091-.018-.135a21.377 21.377 0 0 1-.009-.62c0-.086-.014-.16-.103-.224-.104.056-.21.118-.32.174-.092.047-.178.105-.288.111-.118.006-.186.088-.24.18-.068.105-.127.217-.186.326-.045.085-.063.17.011.255.054.062.045.127-.005.189-.06.073-.13.129-.235.114-.112-.017-.157-.082-.15-.19a.74.74 0 0 1 .112-.324c.092-.17.19-.341.282-.514.032-.062.056-.133.014-.197-.047-.077-.041-.138-.012-.227.16-.455.344-.9.534-1.343.095-.223.184-.447.305-.655.092-.159.178-.324.287-.47.137-.183.303-.344.486-.483.208-.161.466-.211.78-.197zM80.75 86.64l.433-.326c.018-.015.032-.033.047-.05.199-.276.394-.556.519-.89-.213-.068-.391-.039-.528.137-.056.07-.115.141-.163.218-.106.173-.213.347-.263.55-.021.088-.071.167-.101.252-.018.053.012.088.056.109zm-.918 1.537c.18-.238.332-.44.486-.64a.615.615 0 0 0 .127-.386c0-.194.012-.39.062-.579.006-.023-.011-.055-.02-.088-.027.024-.05.035-.06.056-.198.473-.4.95-.592 1.425-.021.048-.003.112-.003.212zm.88-.726c-.095.018-.101.088-.116.15-.018.07-.047.132-.112.162-.237.106-.317.335-.454.544.057.005.09.014.119.011a.3.3 0 0 0 .095-.04.56.56 0 0 0 .083-.063c.026-.023.05-.047.074-.07.023-.024.05-.047.074-.07.023-.024.044-.054.068-.077.024-.024.056-.041.074-.068.02-.026.03-.058.044-.09.015-.033.036-.063.039-.095.003-.032-.018-.065-.018-.097s.015-.064.02-.097l.01-.1zm.453-.679.045.041c.1-.05.21-.09.299-.158.092-.068.172-.153.24-.241a.195.195 0 0 0 .023-.162c-.032-.076-.097-.009-.145.003a.373.373 0 0 0-.237.185c-.074.112-.15.22-.225.332zm2.065-1.67a.375.375 0 0 0-.234.154c-.112.144-.115.314-.16.473-.003.006.012.023.021.023.02.003.053.006.062-.005a5.23 5.23 0 0 0 .25-.327.376.376 0 0 0 .061-.317zM80.9 87.577c.054-.02.092-.027.11-.047.083-.094.169-.188.24-.294.042-.06.142-.097.1-.197-.02-.05-.112-.015-.23.09-.027.024-.048.054-.074.071-.13.094-.13.227-.146.377zm.892-1.843c.098.062.175.032.243-.035.03-.03.027-.086-.006-.118-.038-.038-.086-.041-.118-.009-.048.047-.08.106-.119.162zM50.946 88.787c.154.22.376.37.61.49.065.033.169-.008.26-.02.01.012.036.032.04.056.05.37-.122.376-.371.24a3.191 3.191 0 0 1-.74-.525c-.25-.244-.475-.52-.81-.691a.6.6 0 0 0-.456.406c-.08.202-.172.4-.213.617-.024.126-.083.247-.14.364-.011.027-.077.041-.115.035-.036-.005-.086-.047-.09-.076a.581.581 0 0 1 .022-.259c.121-.279.163-.587.31-.858.042-.073.057-.164.075-.25.012-.056.003-.111.003-.19-.054.04-.098.061-.119.093-.112.2-.293.324-.477.447-.06.041-.127.074-.18.12a.502.502 0 0 0-.158.306c-.044.244-.106.482-.163.723a.698.698 0 0 1-.041.127c-.047.12-.151.167-.282.114-.05-.02-.085-.073-.121-.108.009-.027.009-.045.018-.053.18-.153.249-.35.252-.58 0-.055.03-.111.035-.167 0-.012-.041-.035-.068-.044-.027-.006-.062-.009-.086.003-.136.07-.264.23-.43.076-.136-.123-.053-.264 0-.402.045-.112-.02-.256-.13-.332-.024-.018-.053-.024-.077-.042-.092-.064-.11-.144-.053-.22.062-.082.136-.094.23-.05.155.073.27.17.282.359.006.1.042.194.066.3.053-.012.094-.021.133-.033.136-.032.204-.13.195-.256-.017-.317-.047-.637-.145-.943-.035-.118-.169-.165-.287-.112-.43.188-.685.532-.862.947a1.438 1.438 0 0 0-.128.637c.003.086-.009.177-.026.259-.01.032-.054.07-.09.08-.035.008-.082-.007-.12-.021-.025-.009-.045-.038-.057-.065-.178-.344-.282-.702-.202-1.09.015-.077.05-.135.151-.13l.14.435c.145-.326.255-.626.462-.87.047-.055.086-.12.145-.158.134-.088.273-.168.418-.241a.525.525 0 0 1 .747.297c.044.138.059.285.086.426.026.156.05.314.08.473.008.053.094.076.142.038.148-.12.293-.244.438-.367.09-.077.172-.156.261-.235.039.047.065.079.104.132.225-.726.444-1.443.592-2.175.015-.068-.006-.141-.011-.238-.252.085-.454.18-.566.406-.027.052-.05.108-.092.143-.021.018-.101.012-.11-.005-.05-.103-.086-.212-.124-.315.225-.297.554-.4.856-.54.05-.024.115-.018.175-.018a.258.258 0 0 1 .258.25.765.765 0 0 1-.018.217c-.092.35-.19.7-.29 1.046-.116.406-.235.809-.36 1.238.131.02.24.047.354.056.115.008.183.085.26.15.09.07.178.144.282.229.1.085.326.344.326.344zM46.19 85.715c-.216.12-.373.23-.545.3-.18.073-.326.188-.486.285-.54.32-1.031.717-1.603.988a.398.398 0 0 0-.077.044 4.66 4.66 0 0 1-1.055.614c-.118.05-.21.156-.32.23-.184.12-.37.231-.557.349-.344.22-.684.447-1.031.661-.25.153-.516.28-.765.435-.293.185-.583.376-.814.647-.092.106-.235.173-.353.255-.314.22-.655.383-1.031.468a.763.763 0 0 1-.216.003c-.05-.003-.09-.103-.057-.141.027-.033.053-.07.09-.094.058-.041.127-.077.192-.103.376-.159.714-.388 1.081-.562.172-.079.326-.197.477-.308.32-.235.661-.43 1.017-.603.103-.05.186-.14.29-.2.281-.155.527-.364.827-.49.13-.056.24-.168.361-.244.634-.391 1.283-.762 1.9-1.179.302-.203.625-.373.918-.588.234-.167.483-.317.74-.447.33-.164.611-.402.928-.584a.25.25 0 0 0 .13-.215c.003-.117.01-.235.01-.35 0-.108.047-.2.112-.279.024-.03.074-.056.11-.053.035.003.077.044.091.077.021.053.018.114.027.17.01.053.015.103.03.185.083-.067.14-.114.195-.161.125-.103.237-.22.37-.309.273-.182.558-.332.904-.253a.449.449 0 0 0 .374-.097c.13-.094.249-.203.364-.317.092-.091.178-.194.25-.303.07-.109.133-.226.168-.35.036-.117-.012-.232-.121-.305-.122-.083-.25-.165-.4-.174-.412-.023-.824-.073-1.236-.053a9.996 9.996 0 0 0-1.176.127c-.347.056-.697.097-1.037.188-.17.044-.347.065-.498.165-.036.023-.08.055-.119.052-.305-.023-.572.124-.85.206-.557.162-1.17.291-1.816.63-.258.134-.534.237-.795.372-.26.133-.51.282-.764.43-.19.108-.38.22-.56.34-.169.115-.332.241-.495.365-.068.053-.133.109-.207.17-.095-.126-.074-.238.012-.323.115-.112.237-.223.373-.306.551-.335 1.093-.681 1.665-.975.442-.227.895-.444 1.38-.57.057-.015.108-.048.164-.068a15.12 15.12 0 0 1 1.671-.535c.495-.132.996-.235 1.5-.341.183-.038.376-.044.562-.065.365-.04.73-.094 1.09-.108.51-.018 1.029-.021 1.515.202.403.185.495.447.358.762-.083.194-.121.429-.364.517-.024.009-.047.041-.053.064-.06.206-.229.291-.406.37a.398.398 0 0 0-.113.068c-.062.062-.115.133-.098.23a1.547 1.547 0 0 1-.356 1.26c-.035.045-.056.103-.085.153.053.068.1.033.148-.003.071-.052.136-.114.21-.158.063-.036.134-.053.199-.077.14.147.136.268-.012.291-.148.024-.216.136-.326.2-.276.162-.54.356-.86.438-.076-.073-.061-.153-.002-.223.056-.065.124-.12.183-.18.042-.04.086-.079.119-.126a.086.086 0 0 0 0-.076c-.012-.018-.056-.033-.074-.027-.053.024-.095.068-.148.088a.749.749 0 0 1-.208.056.202.202 0 0 1-.222-.212c.009-.596.507-1.034.978-1.055a.987.987 0 0 0 .13-.017c.048-.009.083-.091.066-.144-.021-.059-.063-.112-.125-.103a.565.565 0 0 0-.204.07c-.32.18-.64.356-.952.547a.613.613 0 0 0-.29.418 2.698 2.698 0 0 0-.02.999c.017.123.005.235-.131.297a.35.35 0 0 1-.202-.268c-.053-.27-.112-.544-.056-.823.02-.053.012-.112.012-.24zm1.769-.379c-.036-.018-.047-.03-.06-.026-.334.047-.568.255-.63.573-.006.023.009.07.023.076.036.012.09.02.119.003.246-.144.462-.314.548-.626zM51.148 84.146c.002-.174.035-.22.16-.268.08-.029.16-.002.18.068.11.376.282.723.501 1.05.065.096.107.21.068.331a.352.352 0 0 1-.098.133c-.014.014-.062.017-.077.006a.384.384 0 0 1-.112-.127c-.143-.27-.276-.546-.415-.817a.687.687 0 0 0-.148-.212c-.045-.044-.048-.132-.06-.164z" fill="#BFBFBF"/>
    <path d="m79.441 85.847-.012-.014-.009-.015-.017.006c-.069.023-.09.076-.107.135-.089.288-.293.456-.622.512l-.012.003c-.05.008-.1.017-.151.029a3.465 3.465 0 0 1-.836.118c-.717.008-1.446.023-2.148.038l-.22.006c-.31.005-.633.011-.95.026l-.255.009a5.644 5.644 0 0 0-.73.053c-.165.026-.34.032-.506.04-.186.01-.38.019-.569.05-.166.03-.338.03-.506.027h-.113c-.207 0-.418.027-.62.05-.171.02-.346.041-.52.047a1.258 1.258 0 0 0-.184.027.868.868 0 0 1-.172.023c-.392.018-.789.03-1.17.041l-.176.006h-.02c-.045.003-.083.003-.113-.03a3.205 3.205 0 0 1 .012-.734c.009-.094.018-.188.024-.282a.211.211 0 0 1 .065-.123c.035-.033.07-.065.11-.097.21-.192.43-.388.577-.647.015-.026.039-.047.062-.07a2.78 2.78 0 0 0 .311-.376l.116-.154c.1-.132.157-.282.21-.429a1.01 1.01 0 0 1 .039-.1c.062-.161.015-.297-.033-.429a1.343 1.343 0 0 1-.044-.144l-.003-.009c-.198-.235-.385-.434-.678-.502a.378.378 0 0 1-.205-.103c-.009-.094-.003-.165.06-.223a.341.341 0 0 0 .059-.086.087.087 0 0 0-.015-.079.09.09 0 0 0-.077-.023c-.137.023-.226.111-.234.232-.015.167-.101.276-.288.37a.384.384 0 0 0-.11.08c-.02.017-.023.058-.011.082.012.023.053.032.07.03.022-.004.042-.01.063-.013a.231.231 0 0 1 .065-.011c.018 0 .03.002.039.014.012.012.015.027.015.044a1.359 1.359 0 0 1-.03.188 4.74 4.74 0 0 0-.142.8.68.68 0 0 1-.024.156 2.002 2.002 0 0 0-.095.679c.006.173-.098.264-.21.358-.006.006-.015.006-.027.009-.009.003-.02.006-.03.012-.334.167-.699.338-1.146.538l-1.271.567-.039.017c-.026.012-.038.012-.047.012-.012-.003-.03-.014-.033-.014-.003-.036-.009-.083.006-.115.083-.197.151-.412.208-.653a.205.205 0 0 0-.078-.22c-.053-.041-.11-.082-.19-.082-.073.003-.147.003-.221.003-.175 0-.356 0-.534.02h-.009c-.118.015-.27.03-.346.168l-.006.012.012.014c.127.147.136.159.31.1.238-.082.487-.085.673-.08.027 0 .054.01.08.018l.01.003c.038.012.07.068.058.103-.005.018-.008.038-.014.056a.688.688 0 0 1-.05.156 1.962 1.962 0 0 0-.167.632c-.056.03-.112.058-.168.09-.158.086-.32.174-.484.256-.035.018-.082.024-.127.03l-.024.003a.572.572 0 0 1-.281-.03c-.036-.011-.089.015-.104.024-.065.038-.13.08-.198.123l-.113.074.246.223-.009.035c-.009.033-.018.068-.035.097-.08.121-.012.236.026.297.083.141.187.22.314.244.024.003.05.012.074.018.048.012.092.026.14.026.017 0 .032-.003.05-.005.044-.012.092-.021.14-.033.112-.023.23-.044.328-.12a.294.294 0 0 0 .074-.074c.027-.041.057-.082.086-.123.154-.215.311-.435.237-.744v-.009c0-.005.003-.014 0-.02-.015-.109.03-.182.143-.235.222-.1.441-.197.654-.297l.193-.091c.352-.165.717-.335 1.072-.509.17-.082.33-.17.501-.264l.222-.12a.092.092 0 0 1 .042.09c-.012.083-.024.165-.039.247a1.205 1.205 0 0 0-.014.094c-.104.124-.21.238-.35.33a2.37 2.37 0 0 0-.332.27 1.234 1.234 0 0 0-.186.232c-.063.094-.027.253.07.32.066.044.137.077.205.103.14.056.287.065.427.065.112 0 .133.094.136.15.012.217.009.426-.145.602-.02.02-.024.038-.018.05a.965.965 0 0 1 .009.018c.012.026.024.056.05.065.08.029.17-.003.196-.071l.006-.015c.03-.076.062-.153.077-.235.023-.12.038-.238.056-.364.006-.047.012-.097.02-.147.137-.038.276-.047.416-.059.065-.006.133-.009.201-.018.184-.02.373-.026.557-.032.234-.006.477-.015.717-.056.184-.032.377-.04.563-.053.125-.006.255-.014.38-.026.174-.018.352-.027.524-.038.225-.012.456-.024.684-.056.154-.02.312-.024.466-.027l.19-.003.144-.005c.178-.006.362-.012.546-.015.083 0 .166-.006.246-.015a1.65 1.65 0 0 1 .4-.003c.139.02.278.015.4-.011a.722.722 0 0 1 .21-.004c.068.006.136.012.207-.002.012-.003.024 0 .039 0 .02.002.044.002.065-.006.095-.047.193-.044.3-.044.047 0 .097 0 .145-.003.068-.006.139 0 .207.003.068.005.14.008.21.003.143-.012.288-.015.424-.018.086 0 .175-.003.255.015.098.02.193.014.302-.015a.797.797 0 0 1 .19-.024 5.967 5.967 0 0 0 1.1-.155 1.24 1.24 0 0 0 .387-.18c.143-.09.282-.45.27-.623 0-.032-.012-.047-.02-.062zM69.32 83.165c.353.091.563.253.676.52.083.191.027.359-.047.509a4.97 4.97 0 0 1-.412.664l-.015.02a7.57 7.57 0 0 1-.415.536 2.495 2.495 0 0 1-.249.252.064.064 0 0 1-.083.01c.006-.204.036-.406.062-.603.018-.133.039-.268.05-.4.03-.32.099-.638.164-.947.026-.126.056-.255.08-.384.003-.01.003-.018.003-.027 0-.012.003-.023.006-.035.038-.094.1-.135.18-.115zm-.826 3.421a.636.636 0 0 0 .003.259c.008.044-.003.091-.015.141a.444.444 0 0 0-.012.062.677.677 0 0 1-.483-.056.157.157 0 0 1-.089-.106.111.111 0 0 1 .03-.103c.163-.18.332-.352.489-.511.003-.003.017-.006.035-.006.01 0 .02 0 .033.003.006.003.015.023.015.035 0 .024 0 .047.003.07 0 .071.002.145-.01.212zm-3.067.48c-.012.038-.02.076-.033.114a1.936 1.936 0 0 0-.074.323c-.02.168-.112.28-.299.365a.89.89 0 0 1-.08.03.419.419 0 0 0-.1.037c-.069.036-.128.012-.19-.011-.015-.006-.027-.012-.042-.015-.012-.006-.038-.059-.03-.082a.695.695 0 0 1 .323-.406c.125-.076.25-.162.38-.25.044-.035.095-.07.145-.106z" fill="#BFBFBF"/>
    <path d="m64.867 84.787.053.026.012.006.009-.006c.296-.18.566-.264.856-.273.065-.003.136-.003.196-.033.095-.044.172-.02.258.024a.092.092 0 0 0 .03.015c.029.017.061.038.097.038h.006c.053 0 .104-.041.118-.056a.047.047 0 0 0 .012-.032c0-.024-.009-.062-.026-.08a.38.38 0 0 0-.234-.126 1.268 1.268 0 0 0-.21-.003c-.034 0-.066.003-.102.003h-.023c-.166 0-.326.026-.486.053-.113.017-.228.038-.341.047a1.277 1.277 0 0 0-.317.076.162.162 0 0 0-.095.106.158.158 0 0 0 .047.132c.045.036.092.06.14.083zM51.059 87.984c-.057-.07-.066-.14-.018-.2.05-.061.127-.126.207-.1.17.06.317-.008.474-.044l.605-.14c.19-.045.38-.092.584-.142.05-.147.115-.297.15-.45.078-.323.167-.64.264-.955.024-.076.036-.153.057-.229.003-.006.018-.015.026-.015.021.003.05.01.054.021.068.241.017.47-.054.702a29.17 29.17 0 0 0-.201.726c-.006.02.009.044.018.08.19-.01.367-.08.55-.12.164-.039.28-.112.267-.3l.374-1.247c.032-.108.056-.22.086-.329.03-.109.07-.212.136-.312.03.03.056.042.056.056.003.056.015.118-.003.17-.103.315-.121.65-.243.959-.074.191-.13.39-.186.588-.018.064-.018.135-.024.2.104.082.22.035.3 0 .192-.086.39-.139.592-.186.133-.032.19-.1.201-.235.033-.435.214-.814.477-1.155.072-.09.246-.058.279.05a.167.167 0 0 1-.024.13c-.222.302-.296.667-.435 1.002-.018.044.03.094.077.08.308-.086.625-.145.927-.262.288-.112.58-.218.877-.309.216-.065.394-.185.581-.3.068-.04.065-.112.003-.173a1.4 1.4 0 0 0-.557-.332c-.074-.024-.157-.012-.237-.015-.116-.003-.231-.003-.344-.012-.024-.003-.06-.047-.062-.073 0-.027.03-.074.053-.08.077-.017.157-.026.237-.029.397-.009.744.118 1.026.4a.608.608 0 0 1 .115.206c.015.038.009.1-.015.129-.062.08-.127.176-.213.22-.287.144-.575.294-.88.391-.296.094-.584.203-.886.28-.222.055-.436.146-.667.17a.18.18 0 0 0-.166.153c-.026.135-.065.264-.014.405.02.062.02.135.008.2a.353.353 0 0 0 .03.2c.033.08.086.109.163.08.095-.036.18-.098.293-.086.077.006.122.05.122.135 0 .144-.06.206-.208.215-.148.009-.296.003-.438.07-.122.056-.279.01-.4.094-.326.065-.637.188-.96.262-.234.053-.474.091-.717.056-.056-.009-.116-.015-.17-.035-.251-.1-.384-.23-.375-.547.003-.115.003-.23.047-.338.018-.044-.036-.088-.083-.074-.145.039-.29.077-.433.118-.364.106-.731.203-1.11.232-.072.006-.134.03-.193.044zm2.9.338c-.041-.094-.103-.167-.1-.235.012-.214-.033-.435.047-.647.033-.085-.023-.14-.103-.12-.178.047-.353.1-.528.15-.074.02-.107.073-.136.141-.068.156-.03.317-.03.476 0 .159.092.262.246.28.193.017.388.029.605-.045zm.086-.294c.042.015.072.038.104.036a.244.244 0 0 0 .13-.03.968.968 0 0 0 .338-.288c.166-.235.323-.47.483-.708.015-.024.015-.059.021-.094l-.836.214a.212.212 0 0 0-.162.162 2.6 2.6 0 0 0-.054.303c-.009.067.006.138 0 .206-.003.067-.015.132-.024.2zm1.153-.71c-.184.246-.364.49-.54.737-.008.014 0 .04.004.076.219-.056.441-.076.672-.176-.086-.206.033-.435-.136-.638zM61.942 84.604c-.303.056-.522.259-.762.418-.243.158-.477.34-.675.546-.184.191-.398.35-.581.538-.071.07-.151.132-.237.182-.033.018-.101 0-.142-.02-.027-.012-.048-.068-.042-.097a.453.453 0 0 1 .086-.2c.163-.174.332-.344.516-.5.337-.288.717-.523 1.057-.808.27-.226.566-.43.794-.7.006-.008.024-.02.033-.017.033.006.071.011.098.026.009.006.009.053-.003.065-.045.044-.098.08-.145.12-.03.027-.05.056-.077.083-.027.03-.03.09-.003.1.023.005.05.017.07.011.208-.061.416-.126.623-.19.222-.071.43-.03.625.088.14.085.214.238.163.382a.786.786 0 0 1-.163.29 3.142 3.142 0 0 1-1.007.73c-.225.1-.445.182-.697.19-.1.003-.18.056-.257.139-.148.161-.246.35-.341.534-.19.368-.311.759-.409 1.159-.012.046-.009.096-.015.17.048-.023.086-.032.1-.053a6.51 6.51 0 0 1 .733-.855c.198-.2.42-.362.687-.462.083-.029.17-.064.258-.073.412-.038.607.091.687.482.075.364.128.735-.035 1.1-.045.099-.047.217-.071.334.068.041.13.08.19.118-.007.026-.007.062-.021.067-.172.07-.294.174-.353.362a.92.92 0 0 1-.329.447c-.035.026-.115.014-.136-.027a.203.203 0 0 1-.018-.103c0-.02.018-.05.036-.062.118-.085.166-.211.213-.34-.074-.074-.145-.01-.207.014a.77.77 0 0 1-.495.003.6.6 0 0 1-.222-.138c-.024-.023-.024-.103-.004-.135.033-.05.092-.082.146-.118a2.36 2.36 0 0 0 .495-.405c.03-.035.044-.085.062-.13.012-.026-.042-.076-.071-.07-.036.009-.077.015-.104.035-.092.068-.175.144-.264.215-.056.044-.077.155-.172.114a.442.442 0 0 1-.154-.158c-.03-.041-.026-.094.021-.136.196-.17.424-.279.679-.338a.282.282 0 0 1 .148.012c.18.065.24.206.13.347-.157.206-.264.453-.504.59-.017.01-.032.057-.023.063.023.023.065.055.092.052.139-.023.278-.05.408-.09a.278.278 0 0 0 .137-.118.86.86 0 0 0 .097-.241c.05-.191.095-.388.14-.582a.207.207 0 0 0 .003-.074c-.039-.267-.01-.55-.175-.796-.24-.156-.474-.059-.682.061-.263.15-.468.377-.696.574-.086.214-.27.355-.42.52-.172.19-.25.432-.374.647a.357.357 0 0 0-.03.217c.024.241-.009.47-.112.69-.027.056-.036.121-.053.18-.007.023-.01.05-.015.073a.31.31 0 0 1-.232.227c-.065.017-.15-.144-.142-.277.027-.296.077-.593.22-.86a.902.902 0 0 0 .091-.318c.024-.182.054-.365.078-.547.068-.538.254-1.037.488-1.52.083-.173.184-.35.29-.514.09-.135.184-.264.244-.42.035-.1.124-.185.204-.265.142-.14.3-.27.442-.41.041-.042.059-.107.086-.16.035.012.074.02.11.036.118.05.16.138.094.232-.05.07-.107.138-.166.203-.148.153-.302.3-.447.452-.033.035-.066.08-.012.132a2.637 2.637 0 0 0 1.588-1.055c-.047-.132-.11-.229-.249-.223-.332.012-.646.059-.918.235z" fill="#BFBFBF"/>
    <path d="M61.029 83.408c.207-.062.418-.106.625-.156.296-.073.584-.179.883-.244a.787.787 0 0 1 .38.006c.076.02.115.074.1.136-.02.1-.1.146-.193.102-.059-.029-.112-.055-.18-.038-.137.032-.276.059-.41.097-.221.062-.438.141-.663.191-.278.062-.515.212-.78.303-.058.02-.1.073-.156.106-.062.038-.116.088-.208.047-.035-.015-.115.038-.163.076-.332.25-.663.503-.99.758a8.198 8.198 0 0 0-.453.394 3.736 3.736 0 0 1-.51.376c-.05-.073-.005-.111.027-.147.16-.158.318-.323.492-.467.516-.429 1.05-.837 1.553-1.275.486-.424.936-.882 1.36-1.364.074-.082.124-.185.18-.285.048-.088.12-.124.22-.12.42.014.844-.015 1.265-.012.205 0 .993.082 1.248.161.091.03.171.082.263.162.33.238.077.626-.062.532-.092-.07.092-.259-.151-.359-.293-.161-.927-.238-1.277-.253-.243-.011-.486.01-.729 0a.87.87 0 0 0-.151.01c-.376.035-.37.04-.613.3-.276.293-.557.581-.836.872-.027.032-.047.062-.071.091z" fill="#BFBFBF"/>
</svg>
