<svg width="120" height="120" fill="none" xmlns="http://www.w3.org/2000/svg">
    <path fill="#332F2C" d="M0 0h120v120H0z"/>
    <path d="M63.442 67.306a98.698 98.698 0 0 1 5.377-6.746l.062-.072.095.008a95.255 95.255 0 0 1 7.102.923c3.216.544 5.605 1.128 6.922 1.482-.402-.88-1.337-2.83-2.864-5.484a92.077 92.077 0 0 0-3.1-4.997 97.91 97.91 0 0 0-7.083-9.372c-.88-1.027-1.8-2.055-2.733-3.059a95.754 95.754 0 0 0-4.283 3.956 98.139 98.139 0 0 0-5.793 6.202 97.064 97.064 0 0 0-4.298 5.401l-.05.068-.087.007c-1.743.13-3.497.31-5.208.532l-.41.053.231-.343A97.803 97.803 0 0 1 64.163 36.85 97.183 97.183 0 0 0 59.999 33a95.837 95.837 0 0 0-7.097 6.858 97.48 97.48 0 0 0-6.443 7.644 96.966 96.966 0 0 0-3.497 4.92 92.055 92.055 0 0 0-3.1 4.998c-1.525 2.652-2.46 4.602-2.862 5.483 1.317-.355 3.706-.94 6.922-1.483 1.63-.276 3.31-.513 4.994-.705.694-.08 1.404-.153 2.108-.218l.095-.008.062.072a96.348 96.348 0 0 1 2.69 3.222 96.593 96.593 0 0 1 3.452-4.889 97.209 97.209 0 0 1 2.532-3.22l.522-.63a98.493 98.493 0 0 1 6.29-6.84l.145-.143.13.157a97.115 97.115 0 0 1 5.735 7.648l.231.343-.41-.053a96.511 96.511 0 0 0-6.748-.635 93.815 93.815 0 0 0-3.08 3.605 97.672 97.672 0 0 0-6.039 8.288 97.398 97.398 0 0 1 3.367 4.955 97.036 97.036 0 0 1 3.444-5.063zM57.638 84.386c0 .852-.105 1.203-.194 1.347-.11.183-.358.275-.736.275-.382 0-.627-.106-.747-.32-.09-.164-.197-.56-.197-1.517V77.59h-1.733v6.582c0 1.243.145 2.066.444 2.516.429.657 1.171.99 2.206.99.935 0 1.644-.257 2.109-.769.393-.453.583-1.278.583-2.523V77.59H57.64v6.797h-.002zM65.291 78.348c-.453-.503-1.178-.76-2.157-.76h-2.095v9.954h1.763v-3.549c.767-.011 1.37-.113 1.798-.306.908-.451 1.368-1.449 1.368-2.963.001-1.071-.226-1.87-.677-2.376zm-1.46 3.77c-.187.2-.533.31-1.028.325v-3.328h.067c.448 0 .764.131.965.401.21.278.315.735.315 1.357 0 .603-.107 1.022-.319 1.246z" fill="#BFBFBF"/>
</svg>
