<svg width="120" height="120" fill="none" xmlns="http://www.w3.org/2000/svg">
    <path fill="#332F2C" d="M0 0h120v120H0z"/>
    <path d="M73.004 48.712a1.358 1.358 0 0 0-1.37 0l-10.113 5.895-.001-.002-5.963 3.476a.684.684 0 0 1-1.027-.599V45.534c0-.531.57-.864 1.027-.598l4.676 2.726c.423.246.945.246 1.369 0l3.764-2.195a.694.694 0 0 0 0-1.196L54.53 37.954v-.01l-4.892-2.85a.684.684 0 0 0-1.026.598v32.155c0 .532.57.864 1.026.598l27.585-16.077a.694.694 0 0 0 0-1.197l-4.22-2.459zM46.04 76.54a.852.852 0 0 1-.635-.271.885.885 0 0 1-.26-.632c0-.241.088-.454.26-.632a.845.845 0 0 1 .628-.27c.252 0 .467.088.64.263.172.173.26.388.26.639 0 .25-.088.466-.261.64a.856.856 0 0 1-.632.263zM45.399 78.267l.001 6.424c0 .11.088.198.197.198h.885a.198.198 0 0 0 .197-.198v-6.923a.197.197 0 0 0-.277-.181l-.887.499a.199.199 0 0 0-.116.181zM40.81 77.57c-2.003 0-3.627 1.639-3.627 3.66 0 2.022 1.624 3.66 3.626 3.66 2.003 0 3.626-1.638 3.626-3.66 0-2.022-1.623-3.66-3.626-3.66zm0 6.096c-1.333 0-2.414-1.09-2.414-2.436 0-1.345 1.08-2.435 2.413-2.435 1.333 0 2.413 1.09 2.413 2.435 0 1.346-1.08 2.436-2.413 2.436zM68.353 75.482h-5.368a.197.197 0 0 0-.18.117l-.493.895a.198.198 0 0 0 .18.28h2.25l.001 7.918c0 .11.088.199.197.199h.885a.198.198 0 0 0 .197-.199v-7.918h1.838a.196.196 0 0 0 .179-.117l.494-.895a.199.199 0 0 0-.18-.28zM74.561 81.867v-4.63a.197.197 0 0 0-.277-.181l-.887.498a.198.198 0 0 0-.116.181v4.178c0 1.008-.726 1.78-1.724 1.78s-1.727-.634-1.727-2.015V77.775a.197.197 0 0 0-.277-.181l-.887.499a.198.198 0 0 0-.116.18l.002 3.595.003.017c.009 1.667 1.349 3.016 3.002 3.016.644 0 1.236-.208 1.725-.556v.347c0 .11.088.199.197.199h.885a.198.198 0 0 0 .197-.199V81.867zM79.479 77.584c-.87 0-1.657.322-2.281.838v-2.72a.197.197 0 0 0-.277-.182l-.887.499a.198.198 0 0 0-.116.181v4.456l.001 1.162v2.875c0 .11.088.199.197.199h.885a.198.198 0 0 0 .197-.199v-.643a3.564 3.564 0 0 0 2.28.838c1.999 0 3.618-1.635 3.618-3.652 0-2.017-1.62-3.652-3.617-3.652zm0 6.082c-1.14 0-2.088-.8-2.338-1.873l-.023-.087a2.46 2.46 0 0 1-.046-.47c0-.152.017-.3.044-.445.014-.067.033-.133.052-.2.28-1.026 1.204-1.785 2.31-1.785 1.33 0 2.408 1.088 2.408 2.43s-1.078 2.43-2.407 2.43zM53.157 82.754a2.404 2.404 0 0 1-2.39.866c-.938-.192-1.696-.976-1.867-1.926-.279-1.547.89-2.894 2.371-2.894.763 0 1.443.358 1.885.916.071.09.191.119.29.062l.66-.385a.231.231 0 0 0 .073-.332 3.598 3.598 0 0 0-3.573-1.426 3.633 3.633 0 0 0-2.879 2.81c-.49 2.367 1.286 4.451 3.544 4.451a3.6 3.6 0 0 0 2.908-1.485.232.232 0 0 0-.075-.333l-.66-.385a.22.22 0 0 0-.287.061zM60.905 82.711a.223.223 0 0 0-.283.057c-.476.57-1.025.846-1.656.91a2.076 2.076 0 0 1-1.564-.475c-.429-.348-.707-.839-.83-1.46l5.508-.555a.234.234 0 0 0 .206-.262c-.154-1.089-.612-1.99-1.292-2.558-.73-.609-1.602-.867-2.588-.768-.987.098-1.791.543-2.39 1.323-.598.777-.851 1.675-.753 2.67.097.994.518 1.822 1.25 2.462.734.643 1.623.917 2.643.815.736-.074 1.362-.315 1.86-.717.184-.148.424-.418.645-.722.118-.163-.026-.29-.057-.312-.061-.044-.699-.408-.699-.408zm-2.378-3.876a2.286 2.286 0 0 1 1.434.31c.382.228.663.569.836 1.013l-4.176.417c.267-1.069.892-1.638 1.906-1.74zM89.525 82.713a.223.223 0 0 0-.282.057c-.477.57-1.026.846-1.657.909a2.076 2.076 0 0 1-1.564-.474c-.428-.348-.707-.84-.829-1.461l5.507-.554a.234.234 0 0 0 .207-.262c-.154-1.09-.613-1.991-1.293-2.558-.73-.61-1.601-.868-2.588-.769-.987.099-1.79.544-2.39 1.323-.597.778-.85 1.676-.753 2.67.097.994.518 1.823 1.25 2.463.734.642 1.623.916 2.643.814.737-.074 1.362-.315 1.86-.717.184-.148.425-.417.645-.721.118-.164-.026-.291-.057-.313a33.5 33.5 0 0 0-.699-.407zm-2.378-3.876a2.286 2.286 0 0 1 1.434.309c.382.229.663.57.836 1.013l-4.175.417c.267-1.068.892-1.638 1.905-1.739zM31.467 75.5l2.364 5.979a.132.132 0 0 0 .246 0l2.398-5.98a.199.199 0 0 1 .184-.126h1.082a.2.2 0 0 1 .184.278l-3.815 9.226a.198.198 0 0 1-.368-.002l-3.727-9.226a.2.2 0 0 1 .184-.276h1.084c.081 0 .154.05.184.126z" fill="#BFBFBF"/>
</svg>
