<svg width="120" height="120" fill="none" xmlns="http://www.w3.org/2000/svg">
    <path fill="#332F2C" d="M0 0h120v120H0z"/>
    <g clip-path="url(#a)" fill="#C0BFBF">
        <path d="M40.968 69.45a.544.544 0 0 1-.002-.288c.019-.096.052-.184.076-.265a.751.751 0 0 0 .025-.112c0-.016.002-.032 0-.045 0-.008 0-.014-.002-.019l-.006-.025a1.33 1.33 0 0 0-.095-.232.843.843 0 0 0-.06-.1c-.015-.02-.056-.057-.085-.092-.061-.068-.116-.135-.177-.196a1.083 1.083 0 0 0-.209-.148.23.23 0 0 0-.048-.018.143.143 0 0 0-.042-.001 1.625 1.625 0 0 1 .296.661c.046.223.094.437.135.657.036.108.1.21.177.306l.017-.082zM70.983 84.913c-.16.198-.315.393-.396.61a.774.774 0 0 0-.043.164 1.512 1.512 0 0 0 .016.535c.025.117.07.229.131.328.016.026.032.047.052.074.02.026.04.054.058.083.02.033.054.044.072.05.077-.035.126-.099.175-.155a.643.643 0 0 0 .103-.177.332.332 0 0 0 .02-.086.154.154 0 0 0-.016-.064c-.025-.06-.065-.128-.105-.198-.02-.036-.04-.073-.06-.114a.582.582 0 0 1-.047-.13 1.165 1.165 0 0 1-.044-.257 1.002 1.002 0 0 1 .07-.438c.004-.086.012-.168.027-.243l-.013.018zM44.158 77.683c.097.097.22.145.325.192.045.02.115.029.193.047l.046.014a1.194 1.194 0 0 1-.126-.216c-.046-.105-.066-.217-.103-.305a.55.55 0 0 0-.169-.22.85.85 0 0 0-.252-.14 1.732 1.732 0 0 0-.277-.073c-.013-.003-.027-.004-.04-.006.052.126.101.252.164.37.065.126.143.244.24.337zM39.547 74.134a.748.748 0 0 0 .379.743c.144.081.315.143.409-.014a.426.426 0 0 0 .048-.126c.007-.045.012-.09.017-.131.01-.187-.027-.399-.007-.556.022-.17.068-.336.117-.5-.1-.067-.439-.015-.517.004-.3.073-.41.285-.446.58zM71.44 70.161a.865.865 0 0 1 .02.382.791.791 0 0 0-.163-.674 1.137 1.137 0 0 0-.542-.388c.045.017.088.035.13.056.255.128.476.347.555.624zM45.068 72.924l.015.01-.015-.01zM40.239 72.244v.002l.008.012-.008-.014z"/>
        <path d="M46.713 74.022c-.569-.319-.96-.646-1.223-.797l-.006-.003a4.98 4.98 0 0 1-.194-.089c-.092-.046-.181-.098-.272-.147-.09-.051-.177-.106-.265-.16a17.63 17.63 0 0 1-1.011-.7l-.49-.368-.487-.37c-.324-.248-.648-.494-.982-.735.104.044.206.092.307.143a.721.721 0 0 0-.12-.174 1.894 1.894 0 0 0-.195-.183c-.138-.114-.288-.214-.438-.315a3.044 3.044 0 0 1-.442-.347 1.243 1.243 0 0 1-.331-.488l-.002-.005-.001-.008c-.048-.22-.09-.446-.133-.663a2.086 2.086 0 0 0-.232-.594.646.646 0 0 0-.49-.329c-.107-.022-.215-.048-.28.025a.326.326 0 0 0-.075.137.504.504 0 0 0-.02.14l.005.001c.158.05.305.136.425.245.119.113.216.236.291.379.152.281.187.619.093.907a1.44 1.44 0 0 0-.241-.818c-.163-.23-.376-.425-.634-.499-.121-.035-.285-.066-.384-.048-.026.005-.028.007-.053.026a.41.41 0 0 0-.062.066 1.2 1.2 0 0 0-.106.174.805.805 0 0 0-.069.188.38.38 0 0 0 .02.19c.035.112.108.217.18.323a.232.232 0 0 0 .02.018c.059.002.116.01.17.024a.991.991 0 0 1 .328.17c.048.037.093.075.136.115l.063.061a.424.424 0 0 1 .061.075c.068.109.096.223.125.333.014.056.028.11.046.164.017.053.04.106.079.148-.093-.072-.136-.19-.182-.292-.045-.105-.087-.212-.153-.29a.368.368 0 0 0-.054-.052l-.066-.052a1.478 1.478 0 0 0-.136-.092.935.935 0 0 0-.288-.122.524.524 0 0 0-.145-.009.188.188 0 0 0-.052.012.073.073 0 0 0-.028.025.354.354 0 0 0-.046.12 1.03 1.03 0 0 0-.025.155c-.022.21.004.43.04.653.008.057.014.113.026.158a.253.253 0 0 0 .05.108c.051.062.157.126.247.194.183.137.37.27.55.409.364.276.723.559 1.07.86a17.143 17.143 0 0 1-.41-.24c-.004.03-.012.063-.018.1a.475.475 0 0 0 .058.19c.038.065.09.123.148.172.058.048.123.089.19.122.067.031.14.049.214.067.075.015.154.026.234.043.04.008.081.02.122.03.04.009.08.021.12.034.159.054.31.118.458.19.293.147.569.323.828.519.26.196.504.412.715.66.33.315.457.476.55.524.194-.019.384-.08.57-.155.205-.084.406-.184.616-.27.21-.085.43-.155.66-.178.228-.022.46.002.679.068.119.037.234.08.347.127zm-6.324-4.026a.558.558 0 0 1-.043-.21c.055.05.1.1.143.15l.124.146c.041.047.082.092.127.134a.932.932 0 0 0 .156.12.31.31 0 0 1-.22-.021.532.532 0 0 1-.176-.135.722.722 0 0 1-.11-.184zm-.084.58a.311.311 0 0 1-.206-.187.198.198 0 0 1-.003-.147l.1.081a2.344 2.344 0 0 1 .165.149c.027.027.053.055.091.091a.196.196 0 0 1-.147.013zm1.532 1.463a1.483 1.483 0 0 1-.269-.131 1.179 1.179 0 0 1-.235-.19.622.622 0 0 1-.158-.261c.079.066.155.12.233.173.078.052.159.101.24.152.08.05.16.1.242.154.08.052.162.108.239.175a1.155 1.155 0 0 1-.291-.072zM59.944 72.15c-.147.01-.292.02-.439.034-.139.01-.27.043-.395.102a2.105 2.105 0 0 0-.188.102.91.91 0 0 1-.107.055.28.28 0 0 1-.073.02.179.179 0 0 1-.086-.013.558.558 0 0 1-.069-.031l-.005.014c-.01.102-.04.2-.022.29.017.099.05.204.112.262a.204.204 0 0 0 .05.034l.029.01.038.01c.051.015.101.026.151.033a.465.465 0 0 0 .14.005.122.122 0 0 0 .048-.016.172.172 0 0 0 .04-.039c.057-.067.085-.179.172-.28.082-.083.167-.154.26-.217.178-.121.37-.211.566-.288l.237-.111a53.03 53.03 0 0 0-.46.025zM43.631 92.077zM78.478 76.024a4.634 4.634 0 0 0-.466.628c-.143.223-.28.451-.417.68-.544.92-1.108 1.845-1.8 2.675a9.69 9.69 0 0 1-1.01 1.054c.139.07.472.236.825.379a3.4 3.4 0 0 0 1.827.098c.194-.044.388-.108.577-.178.189-.071.37-.155.54-.257.17-.102.326-.222.458-.365a1.93 1.93 0 0 0 .324-.483c.083-.176.147-.367.182-.559.035-.193.047-.392.044-.593-.007-.402-.074-.807-.138-1.212-.068-.406-.137-.816-.162-1.232a3.056 3.056 0 0 1 .087-1l.003-.014c.047-.218.119-.518.226-.765-.385.36-.742.75-1.1 1.144z"/>
        <path d="M38.641 75.403a2.883 2.883 0 0 0 .025.335c.018.107.055.212.1.315.093.205.222.397.366.578.29.36.633.684.996.976.37.29.753.573 1.115.886.18.157.357.32.52.503.16.187.3.38.428.588.126.207.236.427.315.66.08.233.129.48.127.73 0 .25-.05.503-.147.734a2.434 2.434 0 0 1-.372.639 2.636 2.636 0 0 1-.555.489c-.129.086-.263.162-.4.233.14.032.29.04.438.037.238-.007.477-.046.715-.098.238-.052.473-.12.707-.194.234-.074.464-.159.7-.241l.317-.111-.198.271a4.507 4.507 0 0 1-.587.662 3.755 3.755 0 0 1-.445.348 4.03 4.03 0 0 0 1.37-.229l.22-.084a3.52 3.52 0 0 0 .503-.257l.173-.107-.026.2a3.871 3.871 0 0 1-.118.56 3.45 3.45 0 0 1-.203.534 2.27 2.27 0 0 1-.314.487c-.051.057-.107.112-.164.163a3.25 3.25 0 0 0 .603-.188 5.836 5.836 0 0 0 1.66-1.067 3.53 3.53 0 0 0 .632-.753l.054-.088.056.085c.177.267.302.577.322.901.017.264-.04.53-.155.765.13-.076.253-.167.362-.273.153-.146.282-.316.392-.5.22-.365.369-.773.503-1.182.134-.41.246-.828.404-1.232.157-.402.368-.791.67-1.102-.294.319-.494.71-.64 1.114-.148.405-.253.824-.38 1.238-.094.306-.123.622-.259.916.09.014.531.322.594.375.146.124.27.27.39.415.233.295.45.595.682.883a13.024 13.024 0 0 0 .536.633c.031.037.061.063.091.094.032.03.065.058.1.085.282.218.615.397.925.614.155.109.307.224.448.356.07.067.137.135.2.21.063.073.118.148.177.222.229.303.416.636.578.973.163.335.329.665.535.973.205.308.441.597.69.875a6.645 6.645 0 0 1-.753-.83 6.068 6.068 0 0 1-.41-.63.276.276 0 0 1-.096.187c-.054.046-.13.097-.221.149-.171.117-.367.2-.566.256a3.846 3.846 0 0 1-.79.13c-.534.036-1.072-.014-1.596-.097-.524-.08-1.047-.16-1.57-.22-.26-.029-.523-.05-.784-.061-.13-.005-.262-.007-.392-.007a3.333 3.333 0 0 0-.383.029c-.517.069-1.035.194-1.566.262-.53.07-1.078.098-1.617-.005a3.033 3.033 0 0 1-.775-.263 4.683 4.683 0 0 1-.696-.414 3.394 3.394 0 0 1-.596-.552 3.765 3.765 0 0 1-.45-.672l-.019-.034.019-.031c.108-.181.246-.344.207-.527a.682.682 0 0 0-.122-.26 1.9 1.9 0 0 0-.194-.233c-.141-.144-.317-.261-.518-.287a.595.595 0 0 0-.298.035.337.337 0 0 0-.183.161.519.519 0 0 1 .114.085l.16.158c.105.108.217.215.309.345.094.126.17.279.19.44a.815.815 0 0 1-.006.236.252.252 0 0 0 .008.103c.01.035.026.07.039.106-.024-.03-.048-.058-.07-.093a.296.296 0 0 1-.038-.116.824.824 0 0 0-.13-.399 1.09 1.09 0 0 0-.13-.165 4.436 4.436 0 0 0-.317-.302l-.167-.153a.32.32 0 0 0-.147-.08.44.44 0 0 0-.345.046.376.376 0 0 0-.124.122c-.03.051-.05.11-.058.175a.783.783 0 0 0 .074.398c.027.063.06.123.095.184l.028.016c.033.022.069.042.102.065a1.891 1.891 0 0 1 .51.502c.09.13.164.274.214.423.024.075.044.152.057.228a.817.817 0 0 0 .027.11c.012.034.026.07.062.088-.04-.008-.067-.045-.086-.077-.021-.034-.035-.07-.05-.107a2.222 2.222 0 0 0-.1-.201 2.285 2.285 0 0 0-.754-.783c-.03-.02-.062-.037-.093-.056l-.047-.025-.024-.013c-.01-.007-.008-.004-.012-.006-.082-.025-.272-.005-.38.02a.211.211 0 0 0-.116.095.763.763 0 0 0-.075.184c-.02.069-.034.141-.047.216a.706.706 0 0 0-.013.209.506.506 0 0 0 .136.325.436.436 0 0 1 .19-.044c.101-.002.193.023.278.053.086.03.166.064.248.096a1.088 1.088 0 0 1 .578.54 1.134 1.134 0 0 0-.607-.459c-.083-.024-.169-.052-.25-.073a.723.723 0 0 0-.24-.03.343.343 0 0 0-.201.086.873.873 0 0 0-.248.404.536.536 0 0 0 .067.434.67.67 0 0 0 .35.284c.15.056.322.082.502.134.09.027.181.062.267.115.086.052.156.113.222.164.067.05.13.094.192.113a.5.5 0 0 0 .215.007c.082-.011.183-.025.28-.02.098.005.193.023.284.048.181.052.345.133.503.212l.47.235c.157.079.315.154.474.228.158.074.318.146.48.21.161.065.325.125.493.17.084.023.17.043.255.054a.924.924 0 0 0 .261.005.944.944 0 0 1-.27.03.928.928 0 0 0-.025.172.522.522 0 0 0 .025.16.243.243 0 0 0 .213.172c.094-.01.177-.062.258-.11.08-.05.159-.108.235-.166l.115-.089.112-.092.055-.048a.832.832 0 0 1 .2-.134c.097-.044.199-.07.299-.085l.15-.018a1.52 1.52 0 0 0 .144-.03.541.541 0 0 0 .078-.038 68.248 68.248 0 0 1-.56-.07l.001-.022c.731.023 1.46.06 2.19.099l1.093.061.546.03.27.011c.082.003.18 0 .271 0 .368 0 .732.016 1.097.024.182.006.363.01.546.014a13.333 13.333 0 0 1 1.65.126c.183.026.365.057.546.094.182.042.36.078.547.165l.137.064-.128.085c-.05.034-.1.07-.15.107a4.045 4.045 0 0 1 .462-.016c.213.005.425.02.636.041h.001l.104.01.241.026-.227.075c-.208.068-.401.177-.576.313-.134.105-.26.22-.387.336a8.063 8.063 0 0 1 1.051-.265c.151-.027.305-.045.46-.05l.008-.002h.008a2.597 2.597 0 0 1 .463.027c.1.017.202.032.303.044.203.023.407.033.608.024.1-.004.201-.013.3-.027l.074-.012a.967.967 0 0 0 .203-.064c.177-.077.34-.194.475-.332.134-.138.238-.305.279-.482l.07-.31.12.295c.024.061.062.125.103.186.04.062.085.123.132.183.033.043.068.084.102.126a5.556 5.556 0 0 1 .282-1.945c.12-.36.28-.706.483-1.025.206-.317.455-.61.758-.833l.014.017a3.337 3.337 0 0 0-.688.867c-.078.138-.148.28-.21.426.056-.09.118-.186.201-.307l.024-.034c.004-.008.01-.014.014-.021l.018-.027a.286.286 0 0 1 .077-.07 1.44 1.44 0 0 1 .178-.097c.06-.03.126-.053.189-.073l.192-.06.77-.228a25.59 25.59 0 0 0 1.519-.508c.5-.187.993-.391 1.468-.63.237-.12.47-.25.694-.392a7.29 7.29 0 0 0 .642-.468c.415-.333.814-.689 1.197-1.058.191-.186.38-.375.559-.57.09-.099.174-.197.264-.3.089-.103.184-.2.28-.296.391-.377.836-.694 1.306-.962.469-.268.962-.49 1.464-.685a22.976 22.976 0 0 1 1.524-.523 7.138 7.138 0 0 0 1.454-.62c.921-.517 1.714-1.242 2.388-2.057.68-.816 1.234-1.726 1.777-2.647.137-.23.274-.46.42-.689.146-.226.3-.454.489-.66.359-.395.721-.794 1.117-1.164.394-.37.821-.71 1.282-.998a7.427 7.427 0 0 1 1.466-.705 9.04 9.04 0 0 1 1.573-.4c.133-.024.267-.039.401-.059a4.304 4.304 0 0 1 1.231.034 5.98 5.98 0 0 1 1.547.513c.49.233.954.514 1.398.819.223.151.44.315.654.464a7.022 7.022 0 0 0 1.403.722 7.081 7.081 0 0 0 3.9.317 6.178 6.178 0 0 0 2.824-1.367c.798-.696 1.471-1.552 1.89-2.53.21-.489.358-1.004.454-1.527.09-.478.131-.963.174-1.449a6.32 6.32 0 0 1-.871 1.085c-.183.18-.379.347-.59.495-.058.04-.118.078-.178.115-.09.059-.174.106-.248.135-.072.036-.147.07-.222.1a.861.861 0 0 1-.343.49.45.45 0 0 1-.287.092l-.006-.014a.84.84 0 0 0 .21-.161 2.306 2.306 0 0 0 .388-.583c.206-.59.319-1.213.315-1.837a4.937 4.937 0 0 0-.41-1.954 5.815 5.815 0 0 0-1.114-1.661 8.403 8.403 0 0 0-1.354-1.147 6.89 6.89 0 0 1 .452 1.8 5.182 5.182 0 0 1-.195 2.088l-.099.318-.086-.322c-.121-.457-.397-.865-.73-1.208-.26-.267-.556-.5-.87-.705.295.677.476 1.408.477 2.152-.002.426-.059.861-.238 1.263-.045.1-.1.197-.164.287-.064.09-.13.17-.2.253-.141.163-.303.312-.486.432a2.101 2.101 0 0 1-.836.317.952.952 0 0 1-.206.027c-.065.006-.13.01-.195.012a4.857 4.857 0 0 1-1.266-.15 9.359 9.359 0 0 1-1.197-.406c-.39-.155-.773-.322-1.161-.471a7.845 7.845 0 0 0-1.184-.373 3.73 3.73 0 0 0-.61-.082 7.526 7.526 0 0 0-.62-.005 6.507 6.507 0 0 0-1.23.159 6.423 6.423 0 0 0-1.176.397c-.76.337-1.452.813-2.09 1.347a20.478 20.478 0 0 0-1.803 1.737s-.1.053-.218.047a.744.744 0 0 1-.342-.196 2.137 2.137 0 0 1-.258-.304 8.145 8.145 0 0 1-.418-.675c-.257-.46-.505-.924-.798-1.353a5.161 5.161 0 0 0-.483-.605 1.755 1.755 0 0 0-.615-.414 2.747 2.747 0 0 0-1.49-.155c-.498.082-.984.297-1.323.663-.043.044-.08.095-.12.142l-.11.16c-.08.113-.172.217-.27.313a2.812 2.812 0 0 1-.662.471c-.478.252-.997.398-1.518.493a8.489 8.489 0 0 1-.788.096c-.263.02-.528.03-.791.02a9.09 9.09 0 0 0 1.556-.225c.255-.059.506-.13.75-.219l.052-.02a.68.68 0 0 0 .076-.224.848.848 0 0 0-.035-.4c-.088-.255-.303-.449-.546-.555a1.624 1.624 0 0 0-.785-.116c-.269.02-.535.086-.799.158-.527.146-1.036.356-1.549.562-.256.104-.513.208-.773.306-.261.098-.525.186-.791.268-.267.082-.54.155-.82.2-.28.046-.567.061-.854.035-.071-.008-.143-.017-.214-.028-.07-.016-.141-.025-.21-.046-.07-.019-.14-.035-.207-.06a7.515 7.515 0 0 0-1.183-.33 1.79 1.79 0 0 0-.194-.025c-.132-.01-.267-.007-.405-.003s-.28.007-.423-.001a1.82 1.82 0 0 1-.428-.078 2.68 2.68 0 0 1-.757-.395 4.47 4.47 0 0 1-.617-.544.665.665 0 0 0-.247-.016.549.549 0 0 0-.243.099.78.78 0 0 0-.287.457.588.588 0 0 0-.013.274.278.278 0 0 0 .083.14c.007.004.013.01.021.014l-.001.004c.02.016.042.032.066.044.085.044.177.08.264.124.086.045.175.09.242.161-.071-.066-.162-.105-.25-.144-.09-.039-.18-.069-.272-.108a.392.392 0 0 1-.068-.039.173.173 0 0 1-.017.028.116.116 0 0 1-.027.054.192.192 0 0 1-.072.045c-.052.02-.107.026-.16.033l-.156.017c-.052.006-.101.011-.138.028a.221.221 0 0 0-.052.033.37.37 0 0 0-.042.045.205.205 0 0 0-.036.112.372.372 0 0 0 .044.19.92.92 0 0 0 .037.064c.051.083.107.15.188.177a.67.67 0 0 0 .282.02c.11-.004.218.004.324.025a.84.84 0 0 1 .3.115 1.602 1.602 0 0 0-.612-.018.728.728 0 0 1-.341-.007.414.414 0 0 1-.16-.097.554.554 0 0 0-.143.063.312.312 0 0 0-.078.072.366.366 0 0 0-.071.192c-.005.07.01.131.044.192.032.06.075.116.123.168.094.101.21.197.33.233.02.006.012.003.022.003a.136.136 0 0 0 .032-.013c.026-.014.056-.033.086-.053.06-.04.126-.083.195-.12.136-.074.294-.126.45-.143a12.83 12.83 0 0 1 1.332-.1c.297-.004.594.004.891.02.149.013.297.022.445.04l.222.025.22.032a7.58 7.58 0 0 1 1.696.457c.093.031.172.063.234.094a1.427 1.427 0 0 1 .387-.487c.103-.08.211-.148.323-.211a6.992 6.992 0 0 1 1.406-.565c-.239.082-.471.18-.7.283a5.887 5.887 0 0 0-.666.35 2.516 2.516 0 0 0-.3.217 1.228 1.228 0 0 0-.232.278 1.234 1.234 0 0 0-.193.678c.004.236.087.466.215.667a.852.852 0 0 0 .221.263c.09.074.194.136.3.192.435.22.92.357 1.406.455.488.099.985.16 1.484.185a11.013 11.013 0 0 0 2.242-.104 8.4 8.4 0 0 0 .737-.144 7.652 7.652 0 0 0 1.426-.482c-.437.253-.912.44-1.397.59a8.63 8.63 0 0 1-1.494.3c-.87.096-1.752.08-2.62-.053-.021.035-.021.035-.05.072-.484.483-1.1.831-1.751 1.054a7.126 7.126 0 0 1-2.028.358 10.095 10.095 0 0 1-2.049-.141 9.9 9.9 0 0 1-1.972-.541c.138.033.275.064.413.094a.94.94 0 0 0 .388-.107c.093-.05.182-.11.272-.17-.28.02-.56.027-.843.014a3.999 3.999 0 0 1-.977-.16l-.204-.064.207-.064.46-.141.145-.047a7.06 7.06 0 0 0-2.324.012 4.63 4.63 0 0 0-1.253.397c-.368.182-.709.424-1 .726.104.056.211.103.324.143.2.07.408.124.62.158a4.887 4.887 0 0 0 .967.065c.108-.006.218-.012.323-.04-.207.075-.428.095-.647.111-.22.01-.44.008-.66-.016a3.38 3.38 0 0 1-.653-.126 2.269 2.269 0 0 1-.614-.284c-.372-.232-.71-.508-1.092-.66a2.584 2.584 0 0 0-1.215-.162c-.186.06-.376.145-.57.258a1.452 1.452 0 0 1-.532.316.702.702 0 0 1 .178.095c.11.082.189.185.258.275.07.092.136.172.219.232.084.061.184.112.288.155.21.086.437.148.664.219a2.513 2.513 0 0 1-.714-.066 1.274 1.274 0 0 1-.35-.14 1.057 1.057 0 0 1-.28-.26c-.076-.094-.14-.181-.216-.245a.567.567 0 0 0-.126-.08c-.049-.025-.1-.047-.151-.067-.206-.077-.43-.124-.662-.062a.681.681 0 0 1 .34-.134 1.232 1.232 0 0 1 .515.066c.103-.08.204-.158.3-.24a2.086 2.086 0 0 0 .524-.678c.063-.13.116-.27.176-.41a1.439 1.439 0 0 1-.095.522c.013-.008.027-.019.042-.03-.01.006-.02.012-.03.02.085-.085.188-.154.294-.21.054-.03.108-.056.164-.08.056-.025.112-.045.163-.07.103-.05.205-.112.305-.174a8.46 8.46 0 0 0 .19-.123 3.054 3.054 0 0 0-.666-.238 4.38 4.38 0 0 0-.82-.125 3.888 3.888 0 0 0-.823.048c-.272.045-.54.12-.804.209l-.314.103.196-.257c.038-.05.075-.087.113-.125l.113-.107.08-.07c-.059.002-.118.008-.177.019-.125.023-.248.07-.364.13-.117.06-.226.136-.328.223-.09.078-.174.165-.248.26a.65.65 0 0 0-.071.132.963.963 0 0 0 .255-.054.963.963 0 0 1-.259.061h-.004c-.134.013-.27.004-.402-.02a3.261 3.261 0 0 1-.647-.194c-.418-.169-.814-.387-1.243-.507a1.694 1.694 0 0 0-.654-.054c-.218.025-.429.096-.633.183-.205.087-.403.19-.613.28-.208.09-.43.163-.664.178a1.72 1.72 0 0 1-.684-.106 4.574 4.574 0 0 1-.621-.283c-.2-.105-.395-.215-.595-.31a4.19 4.19 0 0 0-.305-.132l-.311-.126a2.993 2.993 0 0 0-.629-.183l-.016-.002.014.03c.009.027.01.055.005.08 0 .011 0 .022-.003.03-.086.28-.137.536-.136.831.002.197-.014.401-.072.592-.123.404-.67-.022-.824-.224-.211-.277-.251-.81-.08-1.15-.046.02-.091.041-.136.063a1.006 1.006 0 0 0-.245.148.193.193 0 0 0-.062.104.392.392 0 0 0 .007.16c-.195.14-.295.36-.354.581a2.251 2.251 0 0 0-.091.682zm2.734 13.245-.071-.042a.953.953 0 0 1-.14-.101.557.557 0 0 1-.115-.14c-.03-.056-.053-.129-.026-.19.036.052.076.082.116.116.04.033.083.066.125.103a.943.943 0 0 1 .119.126.422.422 0 0 1 .048.081c.011.03.023.066.012.098-.021-.025-.044-.037-.068-.051zm5.098 1.604a1.956 1.956 0 0 0-.601-.053 1.987 1.987 0 0 0-.586.117c-.2.066-.405.1-.616.106a1.264 1.264 0 0 1-.316-.032.492.492 0 0 1-.276-.153.679.679 0 0 0 .289.062c.098.003.196-.004.295-.013.197-.02.394-.054.59-.093l.151-.035c.052-.01.104-.02.155-.026.104-.013.21-.016.313-.012.207.01.415.045.602.132zm-5.224-.672c.112.083.213.178.31.268.097.088.193.173.306.23.112.06.24.095.375.126a.764.764 0 0 1-.42-.019 1.002 1.002 0 0 1-.362-.228c-.102-.094-.191-.195-.285-.29a7.581 7.581 0 0 0-.292-.282c.133.042.256.112.368.195zm9.155-8.954c-.11-.03-.22-.067-.324-.115a1.032 1.032 0 0 1-.286-.186c.096.06.2.1.307.133.106.032.215.056.324.075a4.4 4.4 0 0 0 .492.055l-.075-.09a1.655 1.655 0 0 1-.153-.248l-.13-.25.234.156c.127.085.256.163.398.211.141.05.294.069.454.077a1.023 1.023 0 0 1-.687-.04l.003.005a1.9 1.9 0 0 0 .173.205l.124.13-.175-.01a3.26 3.26 0 0 1-.68-.108zm12.378 3.42c.429-.113.85-.247 1.257-.419a6.942 6.942 0 0 0 1.167-.62 6.812 6.812 0 0 0 1.029-.84c-.274.353-.6.67-.963.936a5.7 5.7 0 0 1-1.176.661 7.053 7.053 0 0 1-1.287.395c-.44.093-.885.145-1.331.165.44-.077.876-.167 1.304-.278zm-6.623.308c.114.125.252.225.395.31.148.084.307.169.459.267.152.098.301.21.426.357a.969.969 0 0 1 .158.251c.018.046.031.09.047.135l.032.136c.039.183.044.367.042.546-.007.358-.068.698-.004 1.047a1.416 1.416 0 0 1-.148-.516c-.022-.177-.027-.355-.04-.527a3.313 3.313 0 0 0-.063-.503l-.032-.12-.04-.115a.733.733 0 0 0-.119-.195 1.938 1.938 0 0 0-.373-.327c-.14-.1-.29-.185-.44-.288a1.495 1.495 0 0 1-.388-.389 1.213 1.213 0 0 1-.192-.503c.073.162.163.311.28.434zm9.64.04a8.796 8.796 0 0 0-.45.819c.08-.304.201-.599.35-.877a4.803 4.803 0 0 1 1.2-1.457c.246-.2.511-.375.795-.511-.25.19-.491.386-.718.598a7.117 7.117 0 0 0-1.176 1.428zm3.163-1.912a6.51 6.51 0 0 0-1.205.71c-.189.14-.37.29-.55.446.135-.198.297-.376.476-.537a3.643 3.643 0 0 1 1.236-.727c.227-.079.462-.134.7-.156a9.361 9.361 0 0 0-.656.264zm-17.916-3.836c.182.117.35.256.508.403.159.148.302.311.443.46.14.15.288.28.475.37l.217.105-.231.005c-.1.002-.202.017-.309.023a.908.908 0 0 1-.123-.005c.115.07.235.133.358.186.183.08.372.14.562.19l.164.043-.136.113a3.307 3.307 0 0 1-.772.478 3.113 3.113 0 0 1-1.785.23 2.737 2.737 0 0 1-.85-.286l.009-.02a3.875 3.875 0 0 0 1.715.096c.281-.05.556-.126.822-.23.215-.085.42-.194.615-.319a3.749 3.749 0 0 1-.393-.197 5.528 5.528 0 0 1-.512-.335l-.22-.16.252.1a.61.61 0 0 0 .287.04c.035-.005.07-.011.105-.019a1.532 1.532 0 0 1-.125-.064 1.452 1.452 0 0 1-.266-.204 3.914 3.914 0 0 1-.22-.237 5.373 5.373 0 0 0-.667-.662 2.167 2.167 0 0 0-.527-.336l.007-.022c.215.035.415.139.597.254zm1.308-.743.39.127c.128.04.258.078.391.111.14.032.266.082.408.09-.137.054-.288.032-.424.035a1.595 1.595 0 0 1-.426-.061 1.928 1.928 0 0 1-.395-.164 2.737 2.737 0 0 1-.358-.231c.144.012.281.051.414.093zm-8.193-1.05c.105.055.201.126.284.21a.728.728 0 0 1 .188.304c.032.115.037.217.068.314.056.196.174.377.334.516l-.013.018a1.02 1.02 0 0 1-.183-.144c-.06-.013-.11 0-.17.009-.07.012-.148.03-.246.01-.177-.036-.302-.166-.398-.29-.1-.125-.165-.27-.21-.413a3.318 3.318 0 0 1-.091-.416 1.5 1.5 0 0 0-.533.026l-.01-.02c.16-.16.404-.232.638-.219a.88.88 0 0 1 .342.095zm7.849.566c.152.039.305.07.458.097.077.013.154.026.232.035l.237.028c.158.02.315.03.477.029-.155.05-.32.066-.482.07h-.24a2.056 2.056 0 0 1-.72-.14 1.608 1.608 0 0 1-.425-.243c.158.042.31.087.463.124zm34.855-6.226a5.012 5.012 0 0 0-1.504-.298 6.145 6.145 0 0 0-.778.02c.25-.083.513-.126.778-.136a3.373 3.373 0 0 1 1.548.308c.24.11.468.25.667.422a5.932 5.932 0 0 0-.711-.316zm5.155 1.562a4.343 4.343 0 0 0 3.519-1.36 2.97 2.97 0 0 1-.679.727 3.496 3.496 0 0 1-1.85.716c-.333.025-.67.002-.99-.083zm1.625.474c.12-.04.234-.077.346-.118a4.407 4.407 0 0 0 .645-.295c.105-.059.207-.122.315-.186a1.106 1.106 0 0 1-.25.281 1.445 1.445 0 0 1-.68.313c-.125.02-.252.026-.376.005zm-33.087-1.857c.075.024.144.06.206.114-.081.017-.157.015-.228.013l-.104-.003c-.017 0-.032-.002-.047 0a1.691 1.691 0 0 0-.352.072.23.23 0 0 0-.091.055.176.176 0 0 1 .054-.109.46.46 0 0 1 .096-.075.68.68 0 0 1 .286-.092.505.505 0 0 1 .18.025zm-.09-.513c.048.023.105.054.126.111-.057-.005-.1.003-.148.004a1.621 1.621 0 0 1-.28-.016l-.07-.013c-.023-.004-.046-.013-.074-.006.002-.006.004-.016.009-.022l.015-.018a.329.329 0 0 1 .112-.058.466.466 0 0 1 .31.018zm14.2 2.192a1.415 1.415 0 0 1-.697.41c-.132.032-.27.045-.403.027.127-.044.25-.088.367-.138a3.006 3.006 0 0 0 .654-.384c.101-.078.198-.163.299-.253a1.12 1.12 0 0 1-.22.338zm-2.137.156a8.266 8.266 0 0 0 1.8-.775c.283-.165.557-.347.827-.54-.23.24-.49.452-.767.638a5.472 5.472 0 0 1-1.83.79 4.641 4.641 0 0 1-.99.119c.325-.064.645-.139.96-.232zM43.616 92.012z"/>
        <path d="M71.836 82.728c-.495.15-.987.309-1.47.49-.206.324-.417.644-.634.96-.118.175-.24.347-.36.52-.12.175-.245.342-.338.52-.095.178-.15.365-.177.565a3.164 3.164 0 0 0-.012.61c.023.392.1.786.116 1.199.147.055.3.099.433.075a.274.274 0 0 0 .18-.115c.043-.059.06-.14.06-.225a1.133 1.133 0 0 0-.041-.262c-.023-.086-.056-.177-.077-.27a.933.933 0 0 1-.026-.287.405.405 0 0 1 .113-.258.397.397 0 0 0-.072.26.91.91 0 0 0 .057.265c.029.087.069.169.103.26.034.09.06.185.07.286a.522.522 0 0 1-.06.313.414.414 0 0 1-.189.167c-.002.03-.003.096-.003.092.037.118.072.242.153.31.082.076.16.066.263.017.107-.051.217-.101.294-.166a.292.292 0 0 0 .117-.235.418.418 0 0 0-.031-.176l-.018-.042c-.013-.03-.026-.057-.036-.088a2.071 2.071 0 0 1-.106-.367c-.05-.253-.042-.496-.063-.745.11.227.153.478.23.7.04.112.084.222.133.33l.038.08.02.043a.51.51 0 0 1 .021.052l.008.026.128-.119a.942.942 0 0 0 .136-.238.457.457 0 0 0-.006-.344.693.693 0 0 0-.09-.15.931.931 0 0 0-.058-.07c-.02-.022-.046-.05-.066-.076a1.076 1.076 0 0 1-.18-.367 1.5 1.5 0 0 1-.06-.401c-.001-.068 0-.133.008-.203.009-.071.024-.141.046-.207.09-.268.263-.478.417-.68l.478-.597c.163-.196.322-.396.489-.59.294-.35.595-.696.909-1.032l.158-.205a7.979 7.979 0 0 1-1.005.375zm-1.912 2.974c-.06.113-.11.23-.161.353a.762.762 0 0 1 .096-.388.82.82 0 0 1 .266-.299c-.071.115-.141.22-.2.334zM59.75 47.656c.147-.009.293-.02.44-.033.138-.01.269-.043.394-.102.063-.029.124-.064.188-.102a.926.926 0 0 1 .108-.055.28.28 0 0 1 .072-.02.18.18 0 0 1 .086.013c.025.009.047.02.068.031l.006-.015c.01-.101.04-.2.022-.29-.017-.098-.05-.203-.113-.26a.201.201 0 0 0-.05-.035l-.029-.01-.038-.01a1.324 1.324 0 0 0-.151-.033.459.459 0 0 0-.14-.005.121.121 0 0 0-.048.017.17.17 0 0 0-.04.038c-.057.067-.085.179-.172.28a1.68 1.68 0 0 1-.26.217c-.178.121-.37.212-.566.288l-.236.111.46-.025zM79.352 51.816a1.978 1.978 0 0 1-.173-.312 1.625 1.625 0 0 1-.116-.34c-.046-.222-.094-.436-.135-.656-.035-.108-.1-.21-.177-.307-.005.029-.012.056-.017.081.03.092.025.197.003.29-.02.095-.053.183-.077.264a.738.738 0 0 0-.024.112c-.001.017-.002.033 0 .046 0 .007 0 .013.002.018l.006.026c.022.075.056.158.094.231.02.037.04.072.061.1.014.02.055.057.084.092.062.069.116.135.177.196.062.055.138.111.21.148a.235.235 0 0 0 .047.019.14.14 0 0 0 .042 0l-.007-.008zM74.61 46.874l.015.01-.02-.015a.038.038 0 0 1 .006.005zM80.147 45.674a.748.748 0 0 0-.38-.743c-.144-.081-.314-.143-.408.013a.425.425 0 0 0-.048.127c-.007.044-.013.09-.017.132-.01.187.026.398.006.554a3.035 3.035 0 0 1-.117.5c.1.068.44.016.517-.004.301-.073.409-.285.447-.579zM48.324 49.013h-.001zM60.576 49.257a.227.227 0 0 1 .051-.056.162.162 0 0 1 .033-.016c-.037.01-.07.033-.084.072zM79.454 47.563l-.001-.002-.007-.013.008.015zM48.253 49.645a.865.865 0 0 1-.02-.382.791.791 0 0 0 .163.675c.174.22.373.333.542.388a1.473 1.473 0 0 1-.13-.057c-.255-.127-.475-.346-.555-.623zM47.857 37.08c.496-.15.988-.31 1.47-.491a32 32 0 0 1 .634-.959c.118-.175.24-.348.36-.52.121-.175.245-.342.338-.52.095-.178.15-.366.178-.566.027-.198.023-.403.011-.61-.022-.392-.1-.785-.116-1.198-.147-.056-.299-.1-.433-.075a.274.274 0 0 0-.18.114.379.379 0 0 0-.06.225c.002.086.019.174.042.262.022.087.055.177.076.27.021.094.034.191.026.287a.405.405 0 0 1-.113.258.397.397 0 0 0 .072-.259.906.906 0 0 0-.056-.265c-.03-.087-.07-.17-.104-.26a1.152 1.152 0 0 1-.07-.287.522.522 0 0 1 .06-.312.413.413 0 0 1 .19-.168c.001-.029.003-.064.003-.103v.011c-.038-.118-.073-.242-.154-.31-.081-.075-.16-.065-.263-.016-.107.05-.216.1-.294.165a.292.292 0 0 0-.117.235.42.42 0 0 0 .032.176l.018.042c.012.03.025.058.035.088.046.119.084.242.106.368.051.253.043.496.063.745-.11-.227-.153-.479-.23-.7a3.82 3.82 0 0 0-.133-.33l-.038-.08-.02-.043a.503.503 0 0 1-.021-.053l-.008-.025a5.259 5.259 0 0 0-.127.118.942.942 0 0 0-.136.239.457.457 0 0 0 .006.343.693.693 0 0 0 .09.151.953.953 0 0 0 .057.069c.02.023.046.05.066.077.086.108.143.236.181.367a1.5 1.5 0 0 1 .06.4c0 .069-.002.134-.009.204-.008.07-.023.14-.045.207-.09.268-.264.478-.418.679l-.478.597c-.163.197-.322.396-.488.59-.295.35-.596.696-.91 1.032l-.158.205a7.78 7.78 0 0 1 1.005-.374zm1.911-2.975c.061-.113.11-.23.162-.353a.762.762 0 0 1-.096.388.82.82 0 0 1-.266.299c.07-.115.141-.22.2-.334zM49.428 36.492c-.024.029-.047.058-.072.086l.01-.004.062-.082zM40.11 44.932c.387-.36.745-.754 1.105-1.15a4.64 4.64 0 0 0 .466-.628c.143-.222.28-.451.417-.68.545-.92 1.109-1.844 1.801-2.674a9.68 9.68 0 0 1 1.01-1.054c-.14-.071-.472-.237-.826-.38a3.397 3.397 0 0 0-1.826-.098 4.783 4.783 0 0 0-.577.178c-.188.072-.37.155-.54.258a1.93 1.93 0 0 0-.782.847 2.312 2.312 0 0 0-.182.56 3.096 3.096 0 0 0-.044.592c.007.402.074.807.139 1.212.067.406.136.816.161 1.232.023.406-.003.827-.157 1.205a4.503 4.503 0 0 1-.176.59l.01-.01z"/>
        <path d="M48.71 34.894c.16-.198.315-.393.396-.61a.765.765 0 0 0 .043-.164 1.512 1.512 0 0 0-.017-.535 1.025 1.025 0 0 0-.13-.328c-.016-.026-.032-.047-.051-.074a.977.977 0 0 1-.091-.139.327.327 0 0 0-.058 0c.006.003.012.003.017.006-.077.035-.125.099-.174.155a.642.642 0 0 0-.104.177.332.332 0 0 0-.02.086.151.151 0 0 0 .017.064c.024.06.064.128.105.198.02.036.04.072.06.114.01.02.02.046.028.067l.019.063c.024.083.038.17.043.257.008.15-.014.302-.07.438a1.638 1.638 0 0 1-.026.242l.014-.017zM72.626 45.598c.275.207.943.628 1.376.894.164.046.322.115.475.19.093.046.181.098.273.147.09.051.176.106.264.16.35.219.681.46 1.012.7l.49.368.486.37c.325.248.649.494.982.735a5.227 5.227 0 0 1-.307-.142.72.72 0 0 0 .12.173c.06.066.126.127.195.183.138.114.288.214.438.316.153.102.305.212.442.346.137.132.264.29.332.488l.001.005.002.008c.047.22.09.446.132.663.044.201.126.413.232.594.1.18.271.298.49.329.107.022.215.048.28-.025a.327.327 0 0 0 .075-.137.5.5 0 0 0 .021-.14l-.006-.001a1.137 1.137 0 0 1-.425-.245 1.463 1.463 0 0 1-.291-.379 1.176 1.176 0 0 1-.092-.907 1.44 1.44 0 0 0 .24.818c.163.23.376.425.634.499.121.035.286.065.385.048.025-.005.027-.007.053-.026a.412.412 0 0 0 .061-.066c.039-.052.075-.112.106-.174a.804.804 0 0 0 .069-.188.38.38 0 0 0-.02-.19c-.035-.111-.108-.217-.18-.323a.218.218 0 0 0-.02-.018.731.731 0 0 1-.17-.024.991.991 0 0 1-.327-.17 1.857 1.857 0 0 1-.136-.115l-.064-.061a.428.428 0 0 1-.06-.075c-.069-.108-.096-.223-.125-.333-.015-.056-.028-.11-.046-.164a.404.404 0 0 0-.08-.148c.094.072.137.19.182.293.046.104.087.211.153.29.017.02.033.035.054.051l.066.052c.044.033.09.064.136.092.093.056.19.102.288.122.049.01.098.012.146.009a.184.184 0 0 0 .051-.012.072.072 0 0 0 .028-.025.354.354 0 0 0 .046-.12c.013-.05.02-.102.026-.155a2.59 2.59 0 0 0-.04-.653c-.01-.057-.015-.113-.026-.158a.253.253 0 0 0-.051-.108c-.05-.062-.157-.126-.247-.194-.182-.137-.369-.27-.55-.409a20.654 20.654 0 0 1-1.07-.86c.139.078.275.158.41.24.004-.03.012-.063.018-.1a.475.475 0 0 0-.058-.19.659.659 0 0 0-.147-.172.977.977 0 0 0-.19-.122c-.067-.032-.14-.049-.215-.066-.075-.016-.153-.027-.234-.044-.04-.008-.08-.019-.121-.03a1.41 1.41 0 0 1-.121-.034 3.724 3.724 0 0 1-.457-.19 5.34 5.34 0 0 1-.829-.519 4.487 4.487 0 0 1-.715-.66c-.33-.315-.457-.476-.55-.524a2.025 2.025 0 0 0-.569.155c-.205.084-.407.184-.617.27-.21.085-.43.155-.659.178a1.745 1.745 0 0 1-.68-.068 5.57 5.57 0 0 1-.775-.322zm6.752 4.221a.558.558 0 0 1 .043.21c-.055-.049-.1-.1-.143-.15l-.125-.146a1.938 1.938 0 0 0-.126-.134.923.923 0 0 0-.157-.12.31.31 0 0 1 .22.022c.069.032.128.08.176.135a.693.693 0 0 1 .112.183zm.084-.579a.311.311 0 0 1 .206.187.198.198 0 0 1 .003.147l-.1-.082a2.247 2.247 0 0 1-.165-.148l-.091-.092a.194.194 0 0 1 .147-.012zm-1.532-1.464c.094.035.185.078.27.132.085.053.165.116.236.19.069.074.13.162.157.261a2.691 2.691 0 0 0-.233-.173c-.078-.052-.159-.102-.24-.152-.08-.05-.16-.1-.242-.154a2.105 2.105 0 0 1-.239-.176c.102.01.198.037.291.072zM20.005 51.263l-.005.055c.003-.018.004-.037.005-.055zM76.078 27.794a.308.308 0 0 0-.012-.05c.006.016.008.033.012.05zM75.535 42.124c-.096-.096-.22-.145-.325-.192-.045-.02-.115-.029-.192-.047a.425.425 0 0 1-.046-.014c.048.066.09.14.125.216.046.105.067.217.103.305a.55.55 0 0 0 .17.22c.076.061.16.109.252.14.09.032.182.056.276.073l.04.006c-.052-.126-.1-.252-.163-.37a1.307 1.307 0 0 0-.24-.337zM76.062 27.731z"/>
        <path d="M81.052 44.404a2.797 2.797 0 0 0-.025-.335 1.361 1.361 0 0 0-.1-.315 2.774 2.774 0 0 0-.366-.578 6.495 6.495 0 0 0-.996-.976c-.37-.29-.753-.573-1.115-.886a5.611 5.611 0 0 1-.52-.503c-.16-.187-.3-.38-.428-.588a3.296 3.296 0 0 1-.315-.66 2.247 2.247 0 0 1-.127-.731c0-.25.05-.503.147-.734.092-.223.212-.447.372-.639.162-.19.351-.353.555-.488.129-.087.263-.163.4-.234-.14-.031-.29-.04-.438-.036a3.871 3.871 0 0 0-.715.097c-.238.053-.473.12-.707.194-.234.074-.464.159-.7.241l-.317.112.198-.272c.174-.237.369-.462.587-.662.139-.127.288-.243.445-.348a4.036 4.036 0 0 0-1.37.229l-.22.084a3.483 3.483 0 0 0-.503.257l-.173.107.026-.2c.025-.193.066-.376.118-.56a3.45 3.45 0 0 1 .203-.534 2.27 2.27 0 0 1 .314-.486c.051-.058.107-.112.165-.164a3.23 3.23 0 0 0-.604.188 5.828 5.828 0 0 0-1.66 1.068 3.53 3.53 0 0 0-.632.753l-.053.088-.056-.085a1.851 1.851 0 0 1-.322-.901c-.017-.264.04-.53.155-.765-.13.076-.253.167-.362.272a2.409 2.409 0 0 0-.392.5c-.22.366-.37.774-.503 1.183-.134.41-.247.828-.404 1.232-.157.402-.368.791-.67 1.102.294-.32.494-.71.64-1.114.148-.405.252-.824.38-1.238.094-.306.197-.613.333-.907a.974.974 0 0 1-.468-.24 1.524 1.524 0 0 1-.2-.144 3.128 3.128 0 0 1-.39-.415c-.233-.295-.45-.595-.682-.883a13.024 13.024 0 0 0-.537-.633c-.03-.037-.06-.063-.09-.094a2.434 2.434 0 0 0-.1-.086c-.282-.217-.615-.396-.925-.613a4.013 4.013 0 0 1-.448-.356 2.743 2.743 0 0 1-.2-.21c-.064-.072-.118-.148-.178-.222a5.737 5.737 0 0 1-.577-.973 8.194 8.194 0 0 0-.535-.973 7.784 7.784 0 0 0-.69-.875c.27.256.527.53.753.83.145.192.273.397.393.605a.371.371 0 0 1 .06-.088.922.922 0 0 1 .154-.133 1.82 1.82 0 0 1 .685-.346c.257-.074.523-.111.79-.13.533-.036 1.071.014 1.596.097.524.08 1.046.16 1.569.22.261.029.523.05.785.06.13.006.261.008.391.008a3.33 3.33 0 0 0 .384-.03c.516-.068 1.035-.193 1.566-.26.53-.07 1.077-.1 1.616.004.267.054.532.139.776.263.24.12.477.253.696.414.218.16.422.344.595.552.178.206.323.436.45.672l.019.033-.019.032c-.108.18-.246.343-.206.526a.68.68 0 0 0 .121.26c.059.082.124.162.195.234.14.143.317.26.518.287.1.013.203.003.297-.035a.337.337 0 0 0 .183-.162.516.516 0 0 1-.114-.085l-.16-.157c-.105-.109-.217-.216-.309-.346a.937.937 0 0 1-.19-.44.814.814 0 0 1 .006-.236.251.251 0 0 0-.008-.103c-.009-.034-.026-.07-.038-.106.023.03.048.058.069.093.02.034.034.073.038.116a.828.828 0 0 0 .13.4c.037.058.08.113.13.165.097.104.205.203.318.301l.167.153a.32.32 0 0 0 .147.081.44.44 0 0 0 .345-.047.377.377 0 0 0 .123-.122c.03-.05.051-.11.059-.175a.785.785 0 0 0-.075-.398 1.742 1.742 0 0 0-.095-.184l-.028-.015c-.033-.022-.068-.042-.101-.066a1.881 1.881 0 0 1-.51-.502 1.69 1.69 0 0 1-.215-.422 1.79 1.79 0 0 1-.057-.229.817.817 0 0 0-.026-.109c-.013-.034-.027-.07-.062-.09.039.009.066.046.086.078.02.034.035.071.05.107.029.07.064.136.1.201a2.289 2.289 0 0 0 .753.783c.03.02.062.037.093.056l.047.026.025.013c.01.006.008.003.011.005.082.026.272.005.38-.019a.211.211 0 0 0 .116-.095.765.765 0 0 0 .075-.185c.02-.068.034-.141.048-.215a.71.71 0 0 0 .012-.21.505.505 0 0 0-.135-.325.438.438 0 0 1-.191.045.806.806 0 0 1-.278-.053c-.086-.03-.166-.065-.248-.096a1.087 1.087 0 0 1-.578-.54 1.134 1.134 0 0 0 .607.458c.084.024.169.052.25.073a.723.723 0 0 0 .241.03.343.343 0 0 0 .2-.085.872.872 0 0 0 .248-.404.536.536 0 0 0-.066-.435.67.67 0 0 0-.35-.284c-.151-.056-.323-.081-.502-.134a1.143 1.143 0 0 1-.268-.114c-.086-.052-.155-.114-.222-.164a.658.658 0 0 0-.191-.114.5.5 0 0 0-.216-.007c-.081.011-.182.025-.28.02a1.25 1.25 0 0 1-.284-.048 2.95 2.95 0 0 1-.503-.212l-.47-.235a17.56 17.56 0 0 0-.474-.228 8.426 8.426 0 0 0-.48-.21 4.387 4.387 0 0 0-.493-.17 2.04 2.04 0 0 0-.255-.054.928.928 0 0 0-.26-.005.945.945 0 0 1 .27-.03.92.92 0 0 0 .025-.172.525.525 0 0 0-.026-.16.244.244 0 0 0-.213-.172c-.094.01-.176.062-.257.11-.08.051-.16.108-.236.166l-.115.09-.112.091-.055.049a.828.828 0 0 1-.2.134c-.097.043-.198.069-.299.084-.05.008-.1.014-.15.018-.048.008-.1.007-.144.03-.019.007-.022.007-.037.015.175.021.35.043.524.066l-.002.022c-.73-.023-1.46-.062-2.19-.099l-1.093-.061-.545-.03a12.95 12.95 0 0 0-.27-.011c-.083-.003-.181 0-.272 0-.367 0-.732-.017-1.096-.024-.183-.006-.364-.01-.547-.014a13.338 13.338 0 0 1-1.65-.126c-.039-.005-.077-.012-.115-.018a1.747 1.747 0 0 1-.209-.024 2.5 2.5 0 0 1-.144-.037l-.078-.015c-.182-.041-.36-.078-.547-.165l.008.004c-.342-.152-.683-.309-1.034-.443a5.106 5.106 0 0 0-1.075-.3A5.43 5.43 0 0 0 62.798 27c-.18.012-.364.032-.505.113a2.311 2.311 0 0 0-.438.312 3.1 3.1 0 0 0-.65.867c-.171.325-.31.671-.445 1.02-.138.348-.27.702-.446 1.04a3.321 3.321 0 0 1-.303.483 1.95 1.95 0 0 1-.4.402l-.014-.017c.25-.226.429-.512.57-.813l-.01.007a1.446 1.446 0 0 1-.177.096c-.06.03-.126.053-.19.073l-.191.06-.77.228c-.51.155-1.02.321-1.52.508-.499.188-.992.392-1.468.63-.237.121-.47.25-.693.392a7.303 7.303 0 0 0-.642.468 17.421 17.421 0 0 0-1.756 1.629c-.09.098-.174.196-.265.3-.088.102-.184.2-.28.295-.39.378-.835.695-1.305.962-.47.269-.962.49-1.464.686-.502.195-1.012.364-1.524.523a7.144 7.144 0 0 0-1.454.62c-.922.517-1.715 1.241-2.389 2.056-.678.816-1.233 1.727-1.777 2.647-.136.23-.274.46-.42.689-.146.226-.299.455-.488.66-.36.395-.721.795-1.117 1.164a8.4 8.4 0 0 1-1.282.999 7.421 7.421 0 0 1-1.467.705 9.038 9.038 0 0 1-1.572.399c-.134.024-.268.039-.402.059a4.25 4.25 0 0 1-1.231-.034 5.98 5.98 0 0 1-1.547-.512c-.49-.233-.953-.514-1.397-.82-.223-.151-.44-.315-.654-.464a7.03 7.03 0 0 0-1.403-.722 7.081 7.081 0 0 0-3.9-.318 6.178 6.178 0 0 0-2.824 1.368c-.794.7-1.467 1.556-1.887 2.534a7.112 7.112 0 0 0-.453 1.527c-.09.477-.131.962-.174 1.448a6.336 6.336 0 0 1 .87-1.084 4.55 4.55 0 0 1 .59-.494c.058-.04.118-.08.18-.116.088-.059.173-.106.246-.135.073-.036.148-.07.223-.1a.859.859 0 0 1 .343-.49c.08-.055.18-.1.287-.092l.006.014a.835.835 0 0 0-.21.162 2.33 2.33 0 0 0-.388.583 5.506 5.506 0 0 0-.316 1.836c.003.67.142 1.34.41 1.954a5.815 5.815 0 0 0 1.115 1.662c.406.431.866.81 1.354 1.147a6.893 6.893 0 0 1-.452-1.8 5.18 5.18 0 0 1 .195-2.089l.099-.318.086.322c.121.457.397.865.73 1.209.26.267.556.5.87.704-.295-.677-.476-1.408-.478-2.152.003-.426.06-.86.239-1.263.045-.1.1-.196.164-.288.064-.088.13-.17.2-.252.14-.163.302-.313.486-.432a2.102 2.102 0 0 1 .836-.317.95.95 0 0 1 .206-.027c.065-.006.13-.01.195-.013.43-.011.852.052 1.265.15a9.38 9.38 0 0 1 1.198.407c.39.155.773.321 1.161.471.388.15.78.287 1.184.373.2.042.404.073.609.082.207.008.414.014.621.004a6.497 6.497 0 0 0 1.23-.158 6.414 6.414 0 0 0 1.176-.397c.76-.337 1.452-.813 2.09-1.347.634-.53 1.22-1.115 1.785-1.718a.086.086 0 0 1 .044-.024c.056-.014.125-.044.192-.042.13.027.244.106.342.196.097.092.18.196.258.304.154.216.286.446.418.675.257.46.505.923.798 1.353.148.213.306.418.482.605a1.76 1.76 0 0 0 .616.414 2.75 2.75 0 0 0 1.49.154c.498-.08.984-.297 1.322-.663.044-.044.081-.094.12-.142l.111-.16c.08-.113.171-.216.27-.313.196-.191.424-.346.662-.471.478-.252.997-.398 1.518-.493.262-.044.524-.076.788-.096.263-.02.528-.03.79-.02a9.091 9.091 0 0 0-1.555.226c-.257.059-.511.13-.757.22l-.067.06a.64.64 0 0 0-.054.183.848.848 0 0 0 .035.4c.087.256.303.449.546.555.244.109.517.137.785.117.269-.02.535-.086.799-.158.527-.146 1.036-.356 1.548-.563.257-.103.514-.208.774-.305.261-.099.524-.187.79-.269.268-.081.54-.155.82-.2.28-.045.568-.061.855-.035.071.009.143.017.213.029.07.015.142.025.211.045.07.02.14.036.207.06.069.024.136.047.197.07a7.352 7.352 0 0 0 .986.261c.064.011.128.02.194.025.132.01.267.006.405.003.138-.004.28-.008.423 0 .144.01.29.035.428.079.277.087.528.23.757.394.224.16.427.346.617.544.081.02.165.027.247.016a.55.55 0 0 0 .243-.098.781.781 0 0 0 .286-.458.59.59 0 0 0 .014-.273.278.278 0 0 0-.083-.14l-.021-.015.002-.003a.36.36 0 0 0-.067-.045c-.084-.043-.177-.08-.263-.124-.086-.044-.175-.09-.243-.161.072.066.163.106.25.145.09.038.181.068.273.108a.4.4 0 0 1 .072.041l.009-.013a.12.12 0 0 1 .03-.072.193.193 0 0 1 .072-.045c.052-.02.107-.027.16-.033l.157-.017c.052-.006.1-.012.138-.028a.22.22 0 0 0 .051-.033.205.205 0 0 0 .078-.157.375.375 0 0 0-.044-.19 1.413 1.413 0 0 0-.036-.064c-.052-.083-.108-.15-.188-.177a.685.685 0 0 0-.282-.021 1.343 1.343 0 0 1-.325-.025.84.84 0 0 1-.3-.114c.205.052.414.045.613.018a.727.727 0 0 1 .34.006c.052.017.101.046.142.081a.527.527 0 0 0 .074-.013l-.014.002a.274.274 0 0 0 .102-.036.323.323 0 0 0 .078-.072.367.367 0 0 0 .072-.192.328.328 0 0 0-.044-.192.831.831 0 0 0-.123-.168.823.823 0 0 0-.33-.233c-.02-.006-.013-.003-.023-.003a.13.13 0 0 0-.032.013 1.082 1.082 0 0 0-.086.053c-.06.04-.126.083-.195.12a1.248 1.248 0 0 1-.449.143 12.766 12.766 0 0 1-1.332.1 13.33 13.33 0 0 1-.892-.02c-.148-.013-.297-.022-.445-.04l-.222-.024-.22-.033a7.566 7.566 0 0 1-1.695-.457 1.793 1.793 0 0 1-.235-.094 1.381 1.381 0 0 1-.388.488c-.101.08-.21.147-.321.21a5.845 5.845 0 0 1-.689.323 7.01 7.01 0 0 1-.717.242c.238-.082.47-.18.7-.283.229-.104.453-.218.666-.35.105-.066.208-.137.3-.217.092-.079.167-.176.232-.277.128-.205.198-.444.193-.679a1.305 1.305 0 0 0-.215-.667.852.852 0 0 0-.221-.263 1.824 1.824 0 0 0-.301-.192c-.435-.22-.92-.357-1.406-.455-.488-.099-.984-.16-1.483-.185a10.999 10.999 0 0 0-2.243.104 8.423 8.423 0 0 0-.737.144 7.684 7.684 0 0 0-1.426.482 6.83 6.83 0 0 1 1.397-.59 8.62 8.62 0 0 1 1.494-.3 9.987 9.987 0 0 1 2.573.047l.121-.111c.412-.387.91-.68 1.437-.892a6.584 6.584 0 0 1 1.682-.403 9.89 9.89 0 0 1 1.73-.033 14.344 14.344 0 0 1 2.557.41c.14.034.278.07.418.108.144.04.283.094.416.154.267.119.517.253.778.354.26.101.53.175.806.215.555.079 1.127.044 1.689-.039.534-.072 1.06-.198 1.584-.33.114-.044.209-.09.278-.136-.04-.025-.08-.05-.118-.076-.092-.062-.181-.126-.27-.19l-.26-.197a2.046 2.046 0 0 0-.555-.288c-.2-.07-.407-.124-.62-.158a4.906 4.906 0 0 0-.967-.065 1.541 1.541 0 0 0-.322.04c.206-.076.428-.096.646-.111.22-.01.44-.008.66.015.22.023.44.06.653.127.214.064.426.157.614.284.372.232.71.508 1.093.66.385.156.813.207 1.25.16h-.005c.147-.019.292-.052.43-.107.088-.277.18-.553.28-.828a1.51 1.51 0 0 1-.36-.171 1.71 1.71 0 0 1-.36-.314 1.39 1.39 0 0 1-.249-.405c.13.093.248.188.368.278.12.09.239.175.361.254a4.036 4.036 0 0 0 .797.402 1.06 1.06 0 0 1-.477-.019l-.055-.016c-.038.23-.08.457-.127.685-.028.136-.057.272-.088.409-.03.137-.057.268-.094.41-.04.14-.085.27-.123.4a1.94 1.94 0 0 0-.081.385c-.01.124.004.243.065.318.06.077.165.109.288.106.123-.002.254-.03.383-.066a4.36 4.36 0 0 0 .386-.132c.257-.099.512-.209.769-.317.258-.105.516-.211.783-.3a4.27 4.27 0 0 1 .737-.184l.015-.005-.058-.014c-.218-.044-.45-.052-.662.024.21-.083.445-.08.665-.042a3.569 3.569 0 0 1 .647.195c.418.168.814.387 1.243.507.212.06.435.08.653.054.219-.026.43-.096.634-.183.205-.087.403-.191.613-.28.208-.09.43-.163.664-.178.235-.017.467.031.684.106.217.076.421.178.621.283.2.105.395.215.594.31.1.049.2.09.306.132l.31.126c.208.082.416.15.63.183l.016.002-.014-.03a.166.166 0 0 1-.005-.08c0-.011 0-.022.003-.03.086-.28.137-.536.136-.831a1.978 1.978 0 0 1 .072-.592c.123-.405.67.022.824.224.211.276.251.81.08 1.15.046-.02.091-.041.135-.063a1.01 1.01 0 0 0 .246-.148.193.193 0 0 0 .062-.104.392.392 0 0 0-.007-.16c.195-.14.294-.36.353-.581.062-.226.088-.459.085-.688zm-2.734-13.245.071.042a.96.96 0 0 1 .14.101c.043.04.084.085.115.14.03.056.053.129.026.19-.036-.052-.076-.082-.116-.116-.04-.033-.084-.066-.125-.103a.95.95 0 0 1-.119-.126.425.425 0 0 1-.048-.081c-.011-.03-.023-.066-.012-.098.022.025.044.037.068.051zm-5.097-1.604c.198.052.401.063.601.053a2 2 0 0 0 .586-.117c.2-.066.406-.1.617-.106.105-.001.211.006.316.032.102.024.21.07.275.153a.68.68 0 0 0-.288-.062 2.364 2.364 0 0 0-.295.013c-.197.02-.395.054-.59.093l-.152.035a1.901 1.901 0 0 1-.468.038 1.58 1.58 0 0 1-.602-.132zm5.223.672c-.112-.083-.212-.178-.309-.268a1.456 1.456 0 0 0-.306-.23 1.494 1.494 0 0 0-.375-.125.763.763 0 0 1 .42.018c.14.045.26.134.362.228.103.094.191.195.285.29.092.096.19.187.292.282a1.248 1.248 0 0 1-.369-.195zm-9.343 8.702c.16.043.31.11.447.198.135.089.261.194.356.327-.151-.059-.292-.118-.435-.171a4.663 4.663 0 0 0-.426-.139 2.429 2.429 0 0 0-.431-.077 2.1 2.1 0 0 0-.457.013.862.862 0 0 1 .451-.19c.166-.02.335-.003.495.04zm-12.19-3.168c-.428.113-.85.248-1.257.42-.407.169-.798.376-1.166.619a6.819 6.819 0 0 0-1.029.84c.273-.352.6-.669.963-.935.362-.269.76-.486 1.175-.662a7.078 7.078 0 0 1 1.288-.395 8.215 8.215 0 0 1 1.331-.165c-.44.078-.876.167-1.305.279zm6.623-.308a1.726 1.726 0 0 0-.395-.31c-.147-.084-.306-.169-.458-.267a1.848 1.848 0 0 1-.427-.357.968.968 0 0 1-.157-.251c-.019-.046-.032-.09-.047-.135a4.799 4.799 0 0 1-.033-.136 2.461 2.461 0 0 1-.041-.546c.007-.358.068-.698.004-1.047.087.156.126.338.148.515.022.178.027.356.039.528.01.173.029.342.064.503l.032.12.04.114a.733.733 0 0 0 .118.196c.102.123.235.228.373.327.14.1.29.185.44.287.152.105.286.236.389.389.101.154.168.326.192.503a1.556 1.556 0 0 0-.28-.433zm-9.64-.04c.164-.262.311-.536.45-.819-.08.304-.201.599-.35.877a4.803 4.803 0 0 1-1.2 1.457c-.246.2-.511.375-.795.512.25-.19.491-.387.718-.599a7.118 7.118 0 0 0 1.176-1.428zm-3.163 1.912a6.489 6.489 0 0 0 1.206-.71c.188-.14.37-.29.55-.446a2.997 2.997 0 0 1-.476.537 3.643 3.643 0 0 1-1.237.727 2.993 2.993 0 0 1-.7.156c.224-.081.444-.167.657-.264zm17.156 2.43a5.363 5.363 0 0 0-.377-.229c-.128-.073-.26-.133-.397-.2a2.01 2.01 0 0 1-.403-.25.95.95 0 0 1-.172-.185.774.774 0 0 1-.066-.113l-.025-.061c-.008-.023-.021-.055-.016-.107a.174.174 0 0 1 .078-.123c.03-.02.054-.029.07-.035l.107-.042a5.338 5.338 0 0 1 .651-.217c.295-.076.595-.135.898-.164a5.358 5.358 0 0 1 1.804.112 7.487 7.487 0 0 0-1.781.06 6.83 6.83 0 0 0-1.49.413l-.102.042-.004.001.011.027a.53.53 0 0 0 .046.08c.036.053.08.101.132.145.102.089.228.158.358.228.263.136.538.289.778.475.489.366.904.828 1.198 1.354a5.616 5.616 0 0 0-1.298-1.21zm7.645 3.2a1.17 1.17 0 0 1-.284-.21.728.728 0 0 1-.188-.305c-.032-.115-.038-.217-.068-.314a1.096 1.096 0 0 0-.334-.516l.013-.018c.066.04.127.09.183.144.06.013.11 0 .17-.009.07-.012.148-.03.246-.01.177.036.302.166.398.29.1.125.165.27.21.413.041.139.069.277.091.416.17.023.345.016.533-.026l.01.02c-.16.16-.404.232-.638.218a.885.885 0 0 1-.342-.094zM32.704 48.46a4.996 4.996 0 0 0 1.504.298c.257.01.516.003.778-.02a2.84 2.84 0 0 1-.778.136 3.374 3.374 0 0 1-1.548-.308c-.24-.11-.468-.25-.667-.422.233.121.469.228.71.316zm-5.155-1.562a4.345 4.345 0 0 0-3.519 1.36c.18-.278.414-.523.678-.727a3.496 3.496 0 0 1 1.85-.716c.333-.026.67-.002.99.083zm-1.625-.474c-.12.04-.234.077-.346.118a4.468 4.468 0 0 0-.646.295c-.104.059-.207.122-.314.186.065-.108.151-.202.249-.281a1.447 1.447 0 0 1 .68-.313c.125-.021.252-.026.377-.005zm33.192 2.009a.569.569 0 0 1-.205-.114c.08-.017.156-.015.227-.013l.104.003c.018 0 .033.002.047 0a1.684 1.684 0 0 0 .353-.071.23.23 0 0 0 .09-.056.175.175 0 0 1-.054.109.456.456 0 0 1-.095.075.681.681 0 0 1-.286.092.52.52 0 0 1-.18-.025zm.09.512c-.047-.022-.104-.053-.125-.11.057.005.1-.003.149-.004a1.542 1.542 0 0 1 .279.015l.07.014c.024.003.046.012.074.006-.002.005-.004.015-.008.022l-.016.018a.269.269 0 0 1-.111.058.469.469 0 0 1-.312-.019zm-14.18-2.189a1.415 1.415 0 0 1 .697-.41c.132-.032.269-.045.403-.027-.128.044-.25.087-.367.138a3.023 3.023 0 0 0-.655.384 5.499 5.499 0 0 0-.298.253c.05-.125.128-.238.22-.338zm2.136-.156a8.266 8.266 0 0 0-1.8.776 10.34 10.34 0 0 0-.827.54c.23-.24.49-.452.767-.638a5.47 5.47 0 0 1 1.831-.79c.325-.074.658-.117.99-.12-.325.065-.646.139-.96.232zM53.767 63.268a.827.827 0 0 1-.34.06c-.363 0-.635-.229-.635-.651 0-.404.273-.676.672-.676.16 0 .262.034.306.057l-.042.135a.616.616 0 0 0-.259-.053c-.302 0-.502.193-.502.531 0 .315.181.516.493.516.103 0 .206-.02.273-.053l.034.134zM55.035 62.652c0 .442-.27.678-.597.678-.342 0-.579-.265-.579-.654 0-.407.253-.676.596-.676.352 0 .58.27.58.652zm-1 .02c0 .276.15.522.412.522.264 0 .412-.243.412-.535 0-.256-.134-.523-.41-.523-.276 0-.414.255-.414.536zM55.25 62.022h.694v.138h-.527v.43h.486v.136h-.486v.583h-.166v-1.287zM56.181 62.022h.693v.138h-.526v.43h.486v.136h-.486v.583h-.167v-1.287zM57.777 62.705h-.499v.465h.558v.139h-.725v-1.287h.696v.138h-.528v.408h.499v.137h-.001zM58.716 62.705h-.499v.465h.558v.139h-.725v-1.287h.697v.138h-.529v.408h.499v.137zM59.8 62.04c.084-.018.205-.028.319-.028.176 0 .293.034.373.106a.321.321 0 0 1 .101.244.34.34 0 0 1-.243.328v.005c.099.034.158.127.19.26.042.18.072.303.098.354h-.172A1.708 1.708 0 0 1 60.38 63c-.038-.176-.108-.245-.258-.25h-.157v.558h-.167v-1.27zm.166.585h.17c.177 0 .29-.097.29-.245 0-.167-.12-.24-.296-.24a.752.752 0 0 0-.164.015v.47zM61.933 62.652c0 .442-.269.678-.597.678-.341 0-.578-.265-.578-.654 0-.407.252-.676.595-.676.352 0 .58.27.58.652zm-1 .02c0 .276.15.522.412.522.264 0 .413-.243.413-.535 0-.256-.135-.523-.41-.523-.277 0-.414.255-.414.536zM62.33 62.904l-.133.404h-.172l.437-1.286h.2l.44 1.287h-.178l-.138-.405h-.456zm.423-.13-.127-.37a3.07 3.07 0 0 1-.066-.236h-.005a3.313 3.313 0 0 1-.064.233l-.127.372h.389zM63.268 63.106a.577.577 0 0 0 .297.083c.17 0 .27-.089.27-.22 0-.119-.07-.189-.243-.254-.21-.074-.34-.185-.34-.365 0-.2.166-.349.417-.349.13 0 .228.03.284.063l-.046.136a.484.484 0 0 0-.243-.062c-.177 0-.244.105-.244.193 0 .12.079.178.256.247.218.086.328.19.328.38 0 .197-.145.37-.45.37a.665.665 0 0 1-.329-.083l.043-.14zM64.477 62.162h-.392v-.14h.953v.14h-.394v1.147h-.167v-1.147zM65.846 62.705h-.499v.465h.558v.139h-.725v-1.287h.697v.138h-.529v.408h.499v.137zM66.12 62.04c.085-.018.206-.028.32-.028.177 0 .293.034.373.106a.324.324 0 0 1 .101.244.34.34 0 0 1-.242.328v.005c.098.034.157.127.189.26.042.18.073.303.099.354h-.173a1.726 1.726 0 0 1-.084-.308c-.039-.176-.108-.245-.259-.25h-.157v.558h-.166v-1.27zm.166.585h.17c.178 0 .29-.097.29-.245 0-.167-.12-.24-.295-.24a.752.752 0 0 0-.165.015v.47zM67.126 63.106a.577.577 0 0 0 .297.083c.17 0 .27-.089.27-.22 0-.119-.07-.189-.243-.254-.21-.074-.34-.185-.34-.365 0-.2.166-.349.417-.349.13 0 .228.03.283.063l-.046.136a.485.485 0 0 0-.243-.062c-.177 0-.243.105-.243.193 0 .12.078.178.255.247.219.086.329.19.329.38 0 .197-.146.37-.45.37a.665.665 0 0 1-.33-.083l.044-.14zM47.72 56.69c.538.05.596.152.506.52a41.181 41.181 0 0 1-.67 2.227c-.351-.968-.706-1.922-1.053-2.92h-.287c-.3.993-.627 1.99-.956 2.914-.224-.753-.455-1.522-.675-2.288-.088-.322-.076-.407.393-.453v-.213h-1.774v.213c.392.04.477.133.636.62.347 1.106.733 2.361 1.006 3.313h.31c.305-.929.638-1.9.978-2.893.346.937.726 1.964 1.047 2.893h.303c.378-1.224.86-2.748 1.038-3.282.173-.515.248-.593.695-.651v-.213H47.72v.213zM51.868 56.39c-1.393 0-2.17 1.053-2.17 2.144 0 1.2.9 2.115 2.136 2.115 1.174 0 2.115-.84 2.115-2.18 0-1.242-.952-2.08-2.081-2.08zm-1.297 2.006c0-1.132.53-1.746 1.192-1.746l.07.002c-.219.25-.344.586-.372.93-.027.345.047.706.218 1.016.127.254.216.554.24.851a3.28 3.28 0 0 1-.083.933c-.804-.062-1.265-.928-1.265-1.986zm1.36 1.99c-.032 0-.062-.002-.091-.004.197-.264.325-.586.354-.93a1.894 1.894 0 0 0-.103-.775 2.59 2.59 0 0 0-.104-.247 2.117 2.117 0 0 1-.25-.847 2.584 2.584 0 0 1 .1-.93c.723.044 1.25.763 1.25 1.99-.002 1.17-.504 1.743-1.157 1.743zM57.481 60.056c-.148.165-.242.227-.587.227-.03 0-.375-.002-.385-.006-.35-.006-.375-.139-.375-.497v-2.475c0-.532.064-.569.558-.615v-.213h-1.86v.213c.481.041.544.086.544.615v2.425c0 .529-.05.568-.61.612v.213h3.044c.059-.178.239-.84.285-1.083l-.224-.066c-.105.249-.257.512-.39.65zM60.818 56.477H58.74v.213c.485.041.544.083.544.637v2.37c0 .564-.057.604-.544.645v.213h1.915v-.213c-.567-.042-.613-.079-.613-.645v-1.03h.708c.38 0 .456.105.53.536h.222v-1.364h-.216c-.094.44-.137.526-.537.526h-.708V56.97c0-.202.023-.217.225-.217h.541c.319 0 .405.034.532.198.1.126.183.329.247.545l.227-.032c-.032-.347-.06-.85-.067-.999-.102.007-.38.013-.928.013zM65.259 60.056c-.149.165-.243.227-.587.227-.03 0-.375-.002-.386-.006-.349-.006-.375-.139-.375-.497v-2.475c0-.532.065-.569.559-.615v-.213h-1.86v.213c.48.041.543.086.543.615v2.425c0 .529-.05.568-.608.612v.213h3.043c.058-.178.238-.84.284-1.083l-.223-.066c-.106.249-.258.512-.39.65zM68.76 56.39c-1.393 0-2.17 1.053-2.17 2.144 0 1.2.9 2.115 2.136 2.115 1.174 0 2.115-.84 2.115-2.18 0-1.242-.952-2.08-2.081-2.08zm-1.297 2.006c0-1.132.53-1.746 1.191-1.746l.067.002c-.22.25-.345.586-.372.93-.028.345.046.706.218 1.016.127.254.216.554.24.851.025.299-.017.611-.083.932-.801-.065-1.261-.93-1.261-1.985zm1.36 1.99a1.05 1.05 0 0 1-.096-.005c.197-.263.325-.586.354-.93a1.89 1.89 0 0 0-.103-.774 2.547 2.547 0 0 0-.105-.247 2.116 2.116 0 0 1-.249-.848 2.583 2.583 0 0 1 .1-.93c.725.042 1.253.76 1.253 1.991 0 1.17-.501 1.743-1.155 1.743zM75.952 56.477v.213c.537.05.596.152.506.52a41.09 41.09 0 0 1-.67 2.227c-.351-.968-.707-1.922-1.054-2.92h-.286c-.3.993-.627 1.99-.956 2.914-.225-.753-.455-1.522-.675-2.288-.088-.322-.076-.407.393-.453v-.213h-1.774v.213c.392.04.477.133.636.62.347 1.106.733 2.361 1.006 3.313h.309c.306-.929.639-1.9.978-2.893.347.937.727 1.964 1.048 2.893h.303c.378-1.224.86-2.748 1.038-3.282.173-.515.249-.593.695-.651v-.213h-1.497z"/>
    </g>
    <defs>
        <clipPath id="a">
            <path fill="#fff" transform="translate(20 27)" d="M0 0h79.62v66H0z"/>
        </clipPath>
    </defs>
</svg>
