<svg width="120" height="120" fill="none" xmlns="http://www.w3.org/2000/svg">
    <path fill="#332F2C" d="M0 0h120v120H0z"/>
    <path d="m32.357 77.473-1.955 2.204 1.402 2.244h-.856L29.9 80.247l-1.49 1.674h-.974l2.067-2.322-1.322-2.128h.841l.988 1.56 1.382-1.56h.965v.002zM34.09 78.978l-.422 2.942h-.706l.414-2.942h.714zm.132-.873a.363.363 0 0 1-.051.186.399.399 0 0 1-.34.194.368.368 0 0 1-.192-.053.366.366 0 0 1-.139-.14.363.363 0 0 1-.05-.187.38.38 0 0 1 .05-.19.387.387 0 0 1 .531-.143c.062.036.11.082.142.142a.397.397 0 0 1 .049.191zM39.53 81.92h-.704l.256-1.824c.01-.092.017-.162.017-.213 0-.14-.027-.246-.078-.314a.248.248 0 0 0-.21-.106.706.706 0 0 0-.383.14c-.14.095-.292.24-.453.44l-.27 1.88h-.71l.251-1.78c.012-.083.02-.168.02-.252 0-.148-.027-.254-.078-.324-.054-.07-.132-.104-.239-.104a.512.512 0 0 0-.249.075c-.09.05-.185.12-.285.213-.1.091-.19.188-.273.292l-.266 1.88h-.706l.421-2.943h.707l-.068.452.012.012c.324-.343.653-.517.98-.517.195 0 .356.053.478.162a.721.721 0 0 1 .234.444c.212-.222.404-.38.577-.469.173-.089.347-.135.52-.135.239 0 .426.078.565.232.14.155.21.367.21.643 0 .082-.008.166-.02.249l-.256 1.867zM42.563 78.903c.222 0 .421.05.597.154.173.104.31.25.405.438.095.188.144.403.144.64 0 .106-.01.22-.032.338h-1.89c-.011.075-.019.143-.019.203 0 .157.032.295.095.413a.65.65 0 0 0 .266.27.78.78 0 0 0 .383.095 1.4 1.4 0 0 0 .458-.087c.168-.058.356-.147.568-.266l-.12.621c-.343.186-.68.28-1.009.28a1.39 1.39 0 0 1-.709-.176 1.198 1.198 0 0 1-.473-.502 1.618 1.618 0 0 1-.166-.752 1.8 1.8 0 0 1 .2-.843c.132-.259.315-.462.544-.606.231-.148.482-.22.758-.22zm.458 1.133v-.051a.599.599 0 0 0-.127-.403.45.45 0 0 0-.36-.15c-.31 0-.532.2-.666.604h1.153zM47.38 81.92h-.705l.229-1.638c.017-.12.03-.208.034-.26.005-.054.007-.112.007-.175a.415.415 0 0 0-.082-.268.266.266 0 0 0-.22-.106c-.095 0-.214.043-.356.133-.143.089-.302.232-.475.427l-.266 1.885h-.707l.415-2.943h.707l-.069.471c.173-.171.344-.302.507-.391.166-.087.334-.133.505-.133.163 0 .302.036.417.109a.689.689 0 0 1 .26.297c.06.125.088.268.088.43 0 .038 0 .075-.002.109 0 .033-.003.07-.007.108-.005.039-.008.082-.015.13a3.787 3.787 0 0 0-.022.182l-.244 1.633zM54.307 81.92h-.741l-.212-1.208h-1.402l-.519 1.208h-.804l2.076-4.489h.768l.834 4.49zm-1.038-1.747-.295-1.891h-.017l-.776 1.891h1.088zM56.637 78.978l-.421 2.942h-.707l.414-2.942h.714zm.132-.873a.362.362 0 0 1-.051.186.397.397 0 0 1-.339.194.368.368 0 0 1-.192-.053.366.366 0 0 1-.14-.14.36.36 0 0 1-.048-.187c0-.067.017-.13.048-.19a.387.387 0 0 1 .721.19zM59.665 79.768a.55.55 0 0 0-.14-.119.326.326 0 0 0-.167-.038c-.217 0-.43.203-.637.606l-.243 1.703h-.705l.415-2.942h.709l-.088.529c.151-.2.285-.348.402-.443a.606.606 0 0 1 .376-.137.56.56 0 0 1 .402.169l-.324.672zM62.129 77.472l-.629 4.45h-.714l.634-4.45h.709zM64.133 78.978l-.422 2.942h-.707l.415-2.942h.714zm.131-.873a.363.363 0 0 1-.05.186.398.398 0 0 1-.34.194.368.368 0 0 1-.192-.053.366.366 0 0 1-.14-.14.36.36 0 0 1-.048-.187c0-.067.017-.13.049-.19a.387.387 0 0 1 .722.19zM67.757 81.92h-.704l.229-1.638c.017-.12.03-.208.034-.26.005-.054.007-.112.007-.175a.415.415 0 0 0-.082-.268.266.266 0 0 0-.22-.106c-.095 0-.214.043-.356.133-.144.089-.302.232-.475.427l-.268 1.885h-.707l.414-2.943h.707l-.068.471c.173-.171.344-.302.507-.391.166-.087.334-.133.504-.133.164 0 .303.036.417.109a.689.689 0 0 1 .261.297c.059.125.088.268.088.43 0 .038 0 .075-.003.109-.002.033-.002.07-.007.108a1.512 1.512 0 0 1-.014.13 3.787 3.787 0 0 0-.022.182l-.242 1.633zM70.792 78.903c.222 0 .422.05.597.154.176.104.31.25.405.438.095.188.144.403.144.64 0 .106-.01.22-.032.338h-1.89c-.011.075-.019.143-.019.203 0 .157.032.295.096.413a.65.65 0 0 0 .265.27.774.774 0 0 0 .383.095c.139 0 .292-.029.46-.087.169-.058.357-.147.569-.266l-.12.621c-.344.186-.68.28-1.01.28a1.39 1.39 0 0 1-.708-.176 1.17 1.17 0 0 1-.473-.502 1.656 1.656 0 0 1-.166-.752 1.8 1.8 0 0 1 .2-.843c.132-.259.314-.462.543-.606.23-.148.483-.22.756-.22zm.46 1.133v-.051a.599.599 0 0 0-.126-.403.45.45 0 0 0-.36-.15c-.31 0-.53.2-.666.604h1.153zM80.328 77.472l-.634 4.45h-.768l.27-1.898h-2.364l-.27 1.899h-.768l.629-4.45h.765l-.256 1.852h2.362l.264-1.853h.77zM84.191 80.239c0 .323-.066.623-.2.894a1.56 1.56 0 0 1-.553.638 1.398 1.398 0 0 1-.78.231c-.251 0-.475-.057-.673-.171a1.145 1.145 0 0 1-.456-.486 1.527 1.527 0 0 1-.16-.705c0-.317.068-.61.207-.88.139-.27.326-.48.568-.63.238-.15.5-.227.777-.227.246 0 .466.055.658.166.193.111.344.269.451.474.108.203.161.435.161.696zm-.729-.034a.881.881 0 0 0-.15-.532.477.477 0 0 0-.408-.205.6.6 0 0 0-.414.167c-.122.11-.22.263-.29.459-.071.193-.108.391-.108.594 0 .138.025.263.073.375a.623.623 0 0 0 .2.258c.086.06.178.092.278.092.151 0 .29-.053.417-.16.127-.106.224-.25.295-.437.07-.188.107-.391.107-.611zM87.238 78.978l-.083.529h-.626l-.222 1.268c-.03.145-.042.259-.042.343 0 .068.027.126.078.174.052.049.12.073.205.073a.82.82 0 0 0 .268-.044c.086-.029.178-.072.278-.13l-.02.65c-.092.048-.2.087-.323.116a1.74 1.74 0 0 1-.398.043.995.995 0 0 1-.426-.087.678.678 0 0 1-.288-.244.623.623 0 0 1-.102-.346c0-.127.029-.345.087-.652l.21-1.162h-.558l.088-.53h.572l.108-.61h.709l-.112.61h.597v-.001zM89.725 78.903c.221 0 .421.05.597.154.175.104.31.25.404.438.095.188.144.403.144.64 0 .106-.01.22-.032.338H88.95c-.012.075-.02.143-.02.203 0 .157.032.295.096.413a.65.65 0 0 0 .266.27.774.774 0 0 0 .382.095c.14 0 .293-.029.461-.087.168-.058.356-.147.568-.266l-.12.621c-.343.186-.68.28-1.009.28-.268 0-.504-.057-.709-.176a1.17 1.17 0 0 1-.473-.502 1.656 1.656 0 0 1-.166-.752 1.8 1.8 0 0 1 .2-.843c.132-.259.315-.462.544-.606.229-.148.48-.22.756-.22zm.458 1.133v-.051a.599.599 0 0 0-.127-.403.45.45 0 0 0-.36-.15c-.31 0-.53.2-.666.604h1.153zM93.349 77.472l-.629 4.45h-.714l.634-4.45h.709z" fill="#BFBFBF"/>
    <path d="M26 54.599c3.976 3.822 8.112 3.936 8.585 3.936h4.639c2.744 0 5.058.72 9.42 4.515 4.237 3.687 10.421 4.115 18.896 1.3-2.654.307-5.484.116-8.577-.57-5.238-1.165-9.148-6.731-9.677-7.516-2.075-1.665-2.094-1.665-6.57-1.665H26z" fill="#595959"/>
    <path d="M51.021 56.754c1.472 1.85 4.53 5.146 8.183 5.96 5.765 1.284 10.676.76 15.018-1.596 4.538-3.045 7.561-7.041 9.767-9.96.295-.389.575-.76.846-1.111 2.428-3.153 7.161-7.594 9.165-9.428h-5.684c-.273 0-.944.78-1.146.96-.48.434-.943.886-1.397 1.345a68.478 68.478 0 0 0-3.251 3.566c-2.399 2.798-4.668 5.717-6.889 8.655-1.043 1.382-2.218 2.653-3.395 3.924l-.517-1.117s1.718-1.944 1.862-2.116a660.25 660.25 0 0 0 2.66-3.206c2.293-2.786 4.504-5.635 6.907-8.329 1.616-1.812 3.291-3.718 5.287-5.136h-5.954c-1.431.961-5.478 6.086-7.442 8.695l-.144.191c-1.546 2.281-2.579 3.73-3.062 4.298-2.103 2.477-6.186 6.778-9.884 7.749l-.246.065-.283-1.058.246-.065c3.403-.894 7.3-5.016 9.322-7.396.443-.522 1.406-1.875 2.864-4.02l-.008-.008.132-.174c2.464-3.633 5.653-8.521 6.9-10.442H74.89C74.024 38.802 68.784 49.455 64 53.29c-4.994 4.003-7.31 4.67-12.98 3.464z" fill="#BFBFBF"/>
</svg>
