<svg width="120" height="120" fill="none" xmlns="http://www.w3.org/2000/svg">
    <path fill="#332F2C" d="M0 0h120v120H0z"/>
    <path d="M27 64.15c0-.283.047-.967.675-.967 2.677 0 3.376-.87 3.376-1.176 0-.989-4.05-2.66-4.05-9.204 0-1.06-.024-1.106.884-1.106h1.909c.302 0 .814-.071.814.423 0 .33-.209 1.06-.209 1.765 0 2.755 2.281 5.344 2.747 5.344.932 0 1.56-2.825 1.56-4.637 0-1.177-.256-2.166-.256-2.543 0-.424.582-.353.838-.353h2.072c.442.071.373.824.373 1.836.209 6.897-5.052 13.583-10.174 13.583-.536 0-.559-.353-.559-.895v-2.07zM38.171 59.385c0-3.823 1.84-7.932 5.999-7.932 4.158 0 5.998 4.109 5.998 7.932 0 5.581-3.25 7.98-5.998 7.98-2.749 0-5.999-2.398-5.999-7.98zm9.034-.594c0-1.876-.67-4.536-3.035-4.536-2.366 0-3.035 2.66-3.035 4.536 0 1.9.62 4.608 3.035 4.608 2.414 0 3.035-2.708 3.035-4.608zM64.386 67.009c-1.17 0-1.266.498-1.266-7.861 0-8.123.382-7.339 1.17-7.339h1.315c1.004 0 1.028.071 1.028.356 0 .88-.287 1.758-.287 4.346 0 5.985.932 9.666.932 9.88 0 .76-.717.618-1.267.618h-1.624zm-1.003-18.12c0-1.021.884-1.639 1.84-1.639.956 0 1.84.618 1.84 1.64 0 1.02-.884 1.567-1.84 1.567-.956 0-1.84-.547-1.84-1.568zM71.821 47c.277 0 .832 0 .832.516 0 .188-.693 2.534-.693 3.917 0 .376.07.75.508.75.254 0 .577-.117.947-.257.392-.117.854-.282 1.34-.282 1.962 0 4.71 1.783 4.71 6.732 0 2.698-.67 4.856-2.356 6.803-.669.798-1.893 1.83-3.648 1.83h-4.087c-.808 0-.716-7.858-.716-8.398 0-1.102-.092-11.611.947-11.611h2.216zm4.526 11.658c0-3.847-1.64-4.785-2.609-4.785-1.64 0-1.963.82-1.963 4.245 0 5.066 1.178 4.973 1.778 4.973 2.263 0 2.794-2.697 2.794-4.433zM80.003 59.385c0-3.823 1.84-7.932 5.999-7.932 4.158 0 5.998 4.109 5.998 7.932 0 5.581-3.25 7.98-5.998 7.98-2.749 0-5.999-2.398-5.999-7.98zm9.034-.594c0-1.876-.67-4.536-3.035-4.536-2.366 0-3.035 2.66-3.035 4.536 0 1.9.62 4.608 3.035 4.608 2.413 0 3.035-2.708 3.035-4.608zM55.873 51.453c3.032 0 4.864 1.776 4.864 4.72 0 2.43-1.629 3.419-1.629 3.958 0 .63 2.58.877 2.58 3.508 0 1.843-1.471 2.878-3.258 2.878-.86 0-1.629-.293-2.353-.563-.747-.292-1.449-.561-2.127-.561-1.267 0-1.29 1.124-1.854 1.124-.68 0-1.584-2.518-1.584-3.103 0-.81 1.877-1.304 2.398-1.304 2.126 0 4.004 1.124 4.954 1.124a.775.775 0 0 0 .77-.765c0-.652-1.517-1.416-2.76-1.416-3.371 0-4.864-2.473-4.864-4.811 0-2.429 1.71-4.007 1.51-3.61-.017.034.318-.585 1.95-1 .066-.016.227-.044.453-.09.249-.045.566-.09.95-.09zm0 6.722c1.335 0 2.195-.967 2.195-2.293 0-1.439-.973-2.293-2.195-2.293-1.221 0-2.194.854-2.194 2.293s.973 2.293 2.194 2.293zM61.722 70.123C61.777 71.856 60.25 73 58.464 73c-.86 0-1.63-.293-2.353-.562-.747-.292-1.448-.562-2.127-.562-1.267 0-1.29 1.124-1.855 1.124-.679 0-1.584-2.518-1.584-3.102 0-.81 1.878-1.304 2.398-1.304 2.127 0 4.005 1.123 4.955 1.123a.775.775 0 0 0 .769-.764c0-.652 3.011-.197 3.055 1.17z" fill="#BFBFBF"/>
</svg>
