<svg width="18" height="17" viewBox="0 0 18 17" fill="none" xmlns="http://www.w3.org/2000/svg">
<mask id="mask0_347_209" style="mask-type:alpha" maskUnits="userSpaceOnUse" x="0" y="0" width="18" height="17">
<rect x="1.17602" y="0.22973" width="15.6216" height="15.6216" stroke="white" stroke-width="0.459459"/>
</mask>
<g mask="url(#mask0_347_209)">
<rect x="0.946289" y="8.27026" width="16.0811" height="7.81081" fill="white"/>
</g>
<mask id="mask1_347_209" style="mask-type:alpha" maskUnits="userSpaceOnUse" x="0" y="0" width="17" height="17">
<rect x="15.8796" y="15.8514" width="15.6216" height="15.6216" transform="rotate(-180 15.8796 15.8514)" stroke="white" stroke-width="0.459459"/>
</mask>
<g mask="url(#mask1_347_209)">
<rect x="16.1094" y="7.81082" width="16.0811" height="7.81081" transform="rotate(-180 16.1094 7.81082)" fill="white"/>
</g>
<path d="M8.92026 4.89162C8.83054 4.80191 8.68508 4.80191 8.59537 4.89162L7.13338 6.35361C7.04366 6.44333 7.04366 6.58879 7.13338 6.6785C7.22309 6.76822 7.36855 6.76822 7.45826 6.6785L8.75781 5.37895L10.0574 6.6785C10.1471 6.76822 10.2925 6.76822 10.3822 6.6785C10.472 6.58879 10.472 6.44333 10.3822 6.35361L8.92026 4.89162ZM8.98754 11.027L8.98754 5.05407L8.52808 5.05407L8.52808 11.027L8.98754 11.027Z" fill="white"/>
</svg>
