<svg width="86" height="49" viewBox="0 0 86 49" fill="none" xmlns="http://www.w3.org/2000/svg">
    <path d="M46.508 37.884c21.627-5.794 37.516-16.62 35.49-24.18-2.025-7.56-21.199-8.99-42.825-3.197-21.626 5.795-37.515 16.62-35.49 24.18 2.026 7.56 21.2 8.992 42.825 3.197z" stroke="#FAEAE2" stroke-width=".572" stroke-miterlimit="10" stroke-linecap="round" stroke-linejoin="round"/>
    <path d="M81.983 34.672c2.025-7.56-13.864-18.386-35.49-24.18-21.626-5.795-40.8-4.364-42.825 3.196-2.026 7.56 13.864 18.386 35.49 24.18 21.626 5.795 40.8 4.364 42.825-3.196z" stroke="#FAEAE2" stroke-width=".572" stroke-miterlimit="10" stroke-linecap="round" stroke-linejoin="round"/>
    <path d="M42.854 30.816a6.621 6.621 0 1 0 0-13.242 6.621 6.621 0 0 0 0 13.242z" stroke="#FAEAE2" stroke-width=".622" stroke-miterlimit="10" stroke-linecap="round" stroke-linejoin="round"/>
</svg>
