<svg width="127" height="39" viewBox="0 0 127 39" fill="none" xmlns="http://www.w3.org/2000/svg">
    <path d="M64.01 37.822c17.177 0 31.103-4.25 31.103-9.491 0-5.242-13.925-9.492-31.104-9.492-17.178 0-31.104 4.25-31.104 9.492 0 5.241 13.926 9.491 31.104 9.491z" stroke="#FAEAE2" stroke-width=".572" stroke-miterlimit="10" stroke-linecap="round" stroke-linejoin="round"/>
    <path d="M103.69 35.078c12.189 0 22.07-3.021 22.07-6.747 0-3.727-9.881-6.747-22.07-6.747-12.19 0-22.07 3.02-22.07 6.747 0 3.726 9.88 6.747 22.07 6.747zM23.07 35.078c12.19 0 22.07-3.021 22.07-6.747 0-3.727-9.88-6.747-22.07-6.747C10.881 21.584 1 24.604 1 28.33c0 3.726 9.881 6.747 22.07 6.747z" stroke="#FAEAE2" stroke-width=".572" stroke-linecap="round" stroke-linejoin="round"/>
    <path d="M32.905 28.674C32.905 13.464 53.717 1 79.332 1c25.616 0 46.428 12.35 46.428 27.674" stroke="#FAEAE2" stroke-width=".57" stroke-miterlimit="10" stroke-linecap="round" stroke-linejoin="round"/>
    <path d="M1 28.674C1 13.464 22.041 1 48 1c25.958 0 46.999 12.35 46.999 27.674" stroke="#FAEAE2" stroke-width=".572" stroke-miterlimit="10" stroke-linecap="round" stroke-linejoin="round"/>
</svg>
