<svg width="82" height="42" viewBox="0 0 82 42" fill="none" xmlns="http://www.w3.org/2000/svg">
    <path d="M41.346 29.646a8.607 8.607 0 1 0 0-17.215 8.607 8.607 0 0 0 0 17.215z" stroke="#FAEAE2" stroke-width=".643" stroke-miterlimit="10" stroke-linecap="round" stroke-linejoin="round"/>
    <path d="M41.346 39.598c10.25 0 18.56-8.31 18.56-18.56 0-10.25-8.31-18.559-18.56-18.559-10.25 0-18.559 8.31-18.559 18.56 0 10.25 8.31 18.56 18.56 18.56z" stroke="#FAEAE2" stroke-width=".633" stroke-miterlimit="10" stroke-linecap="round" stroke-linejoin="round"/>
    <path d="m4.766 1 23.67 6.993M28.436 34.084l-23.67 6.993M77.793 1 54.257 7.993M54.258 34.084l23.535 6.993" stroke="#FAEAE2" stroke-width=".575" stroke-miterlimit="10" stroke-linecap="round" stroke-linejoin="round"/>
    <path d="M73.624 8.128c1.48.941 2.555 6.859 2.555 12.91 0 6.053-1.076 11.97-2.555 12.912M76.448 10.01c1.345 1.211 2.42 6.187 2.42 11.029 0 4.841-1.075 9.952-2.42 11.028M79.272 12.162c1.345 1.345 2.286 5.38 2.286 8.877 0 3.362-.94 7.397-2.286 8.876M9.07 8.128c-1.48.941-2.556 6.859-2.556 12.91 0 6.053 1.076 11.97 2.555 12.912M6.11 10.01c-1.344 1.211-2.42 6.187-2.42 11.029 0 4.841 1.076 9.952 2.42 11.028M3.286 12.162C1.941 13.508 1 17.543 1 21.04c0 3.362.941 7.397 2.286 8.876" stroke="#FAEAE2" stroke-width=".403" stroke-miterlimit="10" stroke-linecap="round" stroke-linejoin="round"/>
</svg>
