<svg width="22" height="21" viewBox="0 0 22 21" fill="none" xmlns="http://www.w3.org/2000/svg">
<path fill-rule="evenodd" clip-rule="evenodd" d="M22 8.94355C22 4.01129 17.0657 0 11 0C4.93429 0 0 4.01129 0 8.94355C0 13.3642 3.91286 17.0653 9.19914 17.7659C9.55743 17.843 10.0446 18.002 10.1687 18.309C10.2803 18.5877 10.241 19.0237 10.2033 19.3055L10.0477 20.2485C9.999 20.5272 9.82614 21.3379 11 20.8436C12.1739 20.3477 17.3344 17.1062 19.6429 14.4457C21.2363 12.6935 22 10.9161 22 8.94355ZM6.90486 11.7899H3.82329L3.674 11.73L3.67243 11.7285L3.66771 11.7237L3.608 11.5758V6.77417C3.608 6.6561 3.70386 6.56007 3.82329 6.56007H4.59486C4.71271 6.56007 4.80857 6.6561 4.80857 6.77417V10.5871H6.90486C7.02271 10.5887 7.11857 10.6847 7.11857 10.8028V11.5758C7.11857 11.6938 7.02271 11.7899 6.90486 11.7899ZM18.337 11.7899H15.2539L15.1061 11.73L15.0999 11.7237L15.0401 11.5758V6.77417L15.0999 6.62619L15.1061 6.61989L15.2539 6.56007H18.337C18.4549 6.56007 18.5507 6.6561 18.5507 6.77417V7.54715C18.5507 7.6668 18.4549 7.76283 18.337 7.76283H16.2407V8.57359H18.337C18.4549 8.57359 18.5507 8.66962 18.5507 8.78927V9.56224C18.5507 9.68032 18.4549 9.77635 18.337 9.77635H16.2407V10.5871H18.337C18.4549 10.5887 18.5507 10.6847 18.5507 10.8028V11.5758C18.5507 11.6938 18.4549 11.7899 18.337 11.7899ZM8.76543 11.7899H7.99386C7.87443 11.7899 7.77857 11.6938 7.77857 11.5758V6.77417C7.77857 6.6561 7.87443 6.56007 7.99386 6.56007H8.76543C8.88329 6.56007 8.97914 6.6561 8.97914 6.77417V11.5758C8.97914 11.6938 8.88329 11.7899 8.76543 11.7899ZM10.7156 11.7899H9.944C9.82614 11.7899 9.72872 11.6938 9.72872 11.5758V6.77417C9.72872 6.6561 9.82614 6.56007 9.944 6.56007H10.7156L10.7344 6.56165L10.7549 6.56322L10.7659 6.56637L10.7863 6.57266L10.7941 6.57424L10.813 6.58368L10.8303 6.59313L10.8413 6.601L10.8633 6.61832L10.8774 6.63406L10.8931 6.65453L13.09 9.62679V6.77417C13.09 6.6561 13.1859 6.56007 13.3037 6.56007H14.0753C14.1947 6.56007 14.2906 6.6561 14.2906 6.77417V11.5758C14.2906 11.6938 14.1947 11.7899 14.0753 11.7899H13.3037L13.2487 11.7836L13.2456 11.782L13.2251 11.7757L13.2141 11.771L13.1984 11.7631L13.1859 11.7537L13.1827 11.7521L13.1293 11.7001L10.9293 8.72472V11.5758C10.9293 11.6938 10.8334 11.7899 10.7156 11.7899Z" fill="white"/>
</svg>
