<svg width="19" height="19" viewBox="0 0 19 19" fill="none" xmlns="http://www.w3.org/2000/svg">
<path d="M10.4837 14.2507L7.72581 17.0078C5.9565 18.7763 3.09399 18.7763 1.32545 17.0078C0.469828 16.1537 0 15.0169 0 13.8084C0 12.5998 0.469828 11.463 1.32469 10.6082L5.04206 6.89158C6.84116 5.09248 9.71284 5.16353 11.4417 6.89158C11.7877 7.23764 12.0604 7.6349 12.2736 8.05813L11.0566 9.27433C10.9191 8.80603 10.6746 8.366 10.3202 8.01229C9.21398 6.90609 7.31786 6.85873 6.16506 8.01152L6.1643 8.01305L2.44616 11.7297C1.30024 12.8748 1.30024 14.7404 2.44616 15.8855C3.60507 17.0444 5.46987 17.0223 6.60357 15.8855L8.45614 14.0337C9.21474 14.2507 9.82437 14.2896 10.4837 14.2507ZM10.6067 1.32621L7.87631 4.05809C8.52337 4.0199 9.14064 4.05809 9.90306 4.27429L11.7312 2.44922C12.8756 1.30177 14.7411 1.3033 15.8871 2.44845C17.046 3.60813 17.0223 5.47293 15.8871 6.60586L12.1964 10.2965L12.1941 10.298C11.0956 11.3958 9.22544 11.4837 8.03903 10.2965C7.67768 9.93438 7.43933 9.50046 7.30869 9.04133L7.24452 9.09328L6.08561 10.2507C6.29952 10.6754 6.57072 11.0719 6.91679 11.418C8.63185 13.133 11.5035 13.2316 13.3171 11.418L17.0085 7.72734C18.7763 5.95803 18.7778 3.09628 17.0078 1.32774C15.2377 -0.445381 12.3729 -0.43927 10.6067 1.32621Z" fill="white"/>
</svg>
