<svg id="Layer_1" data-name="Layer 1" xmlns="http://www.w3.org/2000/svg" viewBox="0 0 28 29"><title>logo</title><path d="M11.75,28.5A10.109,10.109,0,0,1,3.8,25.05Q.75,21.551.75,14.7q0-6.8,3-10.4A10.331,10.331,0,0,1,12.15.7a10.254,10.254,0,0,1,4.9,1.05,8.258,8.258,0,0,1,3.3,3.05h.3q.251-.851.65-1.85a7.908,7.908,0,0,1,.95-1.75H25.7a21.661,21.661,0,0,0-.65,2.9q-.3,1.8-.45,3.8t-.15,3.8V22.1a3.217,3.217,0,0,0,.6,2.2,1.975,1.975,0,0,0,1.45.6,3.9,3.9,0,0,0,.85-.1q.45-.1.65-.15v3.2a4.881,4.881,0,0,1-1.15.4,5.486,5.486,0,0,1-1.65.25,4.945,4.945,0,0,1-3.05-.9,5.591,5.591,0,0,1-1.7-3.2H20.1a10.182,10.182,0,0,1-3.05,2.9A9.906,9.906,0,0,1,11.75,28.5Zm.75-3.65q4.151,0,5.85-2.35,1.75-2.4,1.75-7.55v-.3q0-5-1.65-7.6-1.6-2.65-6-2.65a6.018,6.018,0,0,0-5.4,2.65Q5.3,9.7,5.3,14.75q0,5,1.7,7.55A6.2,6.2,0,0,0,12.5,24.85Z" fill="#faeae2"/></svg>