<?xml version="1.0" encoding="utf-8"?>
<!-- Generator: Adobe Illustrator 23.0.1, SVG Export Plug-In . SVG Version: 6.00 Build 0)  -->
<svg version="1.1" id="Layer_1" xmlns="http://www.w3.org/2000/svg" xmlns:xlink="http://www.w3.org/1999/xlink" x="0px" y="0px"
	 viewBox="0 0 1135 370" style="enable-background:new 0 0 1135 370;" xml:space="preserve">
<style type="text/css">
	.st0{fill:#FAEAE2;}
	.st1{fill:none;stroke:#ACA59B;stroke-width:0.366;stroke-miterlimit:10;}
	.st2{fill:none;stroke:#ACA59B;stroke-width:0.5;stroke-miterlimit:10;}
	.st3{fill:none;stroke:#FAEAE2;stroke-width:0.5;stroke-miterlimit:10;}
	.st4{fill:none;stroke:#ACA59B;stroke-width:0.75;stroke-miterlimit:10;}
</style>
<path class="st0" d="M780.1,169.7c-2.8,1.6-5.3,3.3-7.3,5.1c-3,2.4-3.3,4.9-2,7.3c0.9,1.6,1.4,3.5,1.4,5.3c0,3-1.4,5.7-3.7,8.5
	c-15.3,17.5-76.7,31.1-154.2,34.2c-11.2,0.4-22.4,0.6-33.6,0.6c-4.9,0-9.8,0-14.6-0.2c-18.9-0.4-37.8,0.2-55.7,1.6
	c-2.2,0.2-4.1,0.4-6.3,0.6c23.8,2.2,49.6,3.1,76.5,3.1c26.9,0,52.7-1.2,76.5-3.1c56.1-4.9,100.7-15,122.7-27.5
	c9.6-5.5,14.8-11.6,14.8-17.9C795.1,181.2,789.8,175.3,780.1,169.7L780.1,169.7z M354.7,199.3c2.8-1.6,5.3-3.3,7.3-5.1
	c3-2.4,3.3-4.9,2-7.3c-0.9-1.6-1.4-3.5-1.4-5.3c0-3,1.4-5.7,3.7-8.5c15.3-17.5,76.7-31.1,154.2-34.2c10.8-0.4,22-0.6,33.6-0.6
	c4.9,0,9.8,0,14.6,0.2c18.9,0.4,37.8-0.2,55.7-1.6c2.2-0.2,4.1-0.4,6.3-0.6c-23.8-2.2-49.6-3.1-76.5-3.1s-52.7,1.2-76.5,3.1
	c-56.1,4.9-100.7,15-122.7,27.5c-9.6,5.5-14.8,11.6-14.8,17.9C339.9,187.7,345,193.8,354.7,199.3L354.7,199.3z"/>
<path class="st1" d="M567.9,235.1c121.9-1,220.5-24.4,220.3-52.4s-99.2-49.8-221.1-48.8s-220.5,24.4-220.3,52.4
	C347.1,214.2,446.1,236.1,567.9,235.1L567.9,235.1z"/>
<path class="st1" d="M567.5,236.1c119.8,0,217-23.1,217-51.5s-97.1-51.5-217-51.5c-119.8,0-217,23.1-217,51.5
	S447.7,236.1,567.5,236.1z"/>
<path class="st1" d="M788.2,186.2c0.2-27.9-98.4-51.4-220.3-52.4S347,154.6,346.8,182.6s98.4,51.4,220.3,52.4S788,214.1,788.2,186.2
	L788.2,186.2z"/>
<path class="st2" d="M566.9,84.8v49.4 M456.2,88.1l54.9,47.8 M352.9,98.1l106,42.7 M264.2,113.9l149.9,35 M196.1,134.5l183.7,24.8
	 M153.5,158.7l204.8,12.8 M138.9,184.5h212 M153.5,210.3l205-12.8 M196.3,234.5l183.7-24.8 M264.6,255.1l149.9-35 M353.3,270.9
	l106-42.7 M456.6,280.9l54.9-47.8 M567.5,284.3v-49.4 M678.3,280.7l-54.9-47.6 M781.5,270.9l-106-42.9 M870.2,254.9l-149.9-34.8
	 M938.3,234.3l-183.7-24.8 M981,210.3l-204.8-12.8 M995.5,184.3h-212 M981,158.5l-205,12.8 M938.1,134.5l-183.7,24.8 M869.8,113.9
	l-149.9,35 M781.1,97.9l-106,42.9 M677.9,88.1L623,135.7 M608.6,162.2c13.8,0.8,24.6,11,24.6,22.6s-10.8,21.8-24.6,22.6
	 M637.2,163.8c13.4,1,24,10.6,24,21.1c0,10.4-10.6,19.9-24,21.1 M664.9,165.9c13,1.4,23.2,10,23.2,18.9c0,8.9-10.2,17.5-23.2,18.9
	 M691.8,168.7c12.6,1.8,22.4,9.1,22.4,16.1s-9.8,14.6-22.4,16.1 M717.8,171.8c12,2,21.2,7.9,21.2,13c0,4.9-9.2,10.8-21.2,13
	 M526,207.3c-13.8-0.8-24.6-11-24.6-22.6s10.8-21.8,24.6-22.6 M497.5,205.7c-13.4-1-24-10.6-24-21.1c0-10.4,10.6-19.9,24-21.1
	 M469.6,203.7c-13-1.4-23.2-10-23.2-18.9c0-8.9,10.2-17.5,23.2-18.9 M442.6,201c-12.6-1.8-22.4-9.1-22.4-16.1
	c0-7.1,9.8-14.6,22.4-16.1 M416.7,197.6c-12-2-21.2-7.9-21.2-13c0-4.9,9.2-10.8,21.2-13"/>
<path class="st0" d="M571.4,63.6c-0.2-0.2-0.5-0.2-0.7,0l-3.2,3.2c-0.2,0.2-0.2,0.5,0,0.7c0.2,0.2,0.5,0.2,0.7,0l2.8-2.8l2.8,2.8
	c0.2,0.2,0.5,0.2,0.7,0c0.2-0.2,0.2-0.5,0-0.7C574.5,66.8,571.4,63.6,571.4,63.6z M571.5,78V64h-1v14H571.5z M539.3,63.6
	c-0.2-0.2-0.5-0.1-0.7,0.1l-2.9,3.4c-0.2,0.2-0.2,0.5,0.1,0.7c0.2,0.2,0.5,0.2,0.7-0.1l2.6-3.1l3.1,2.6c0.2,0.2,0.5,0.2,0.7-0.1
	c0.2-0.2,0.2-0.5-0.1-0.7l0,0L539.3,63.6L539.3,63.6z M540.7,77.9L539.5,64l-1,0.1l1.2,13.9L540.7,77.9z M507.3,63.6
	c-0.2-0.2-0.5-0.1-0.7,0.1c0,0,0,0,0,0l-2.6,3.7c-0.2,0.2-0.1,0.5,0.1,0.7c0.2,0.2,0.5,0.1,0.7-0.1l2.3-3.3l3.3,2.3
	c0.2,0.2,0.5,0.1,0.7-0.1c0.2-0.2,0.1-0.5-0.1-0.7l0,0L507.3,63.6L507.3,63.6z M509.9,77.7l-2.4-13.8l-1,0.2l2.4,13.8L509.9,77.7
	L509.9,77.7z M476.2,65.6c-0.2-0.1-0.5-0.1-0.7,0.2l-2.2,3.9c-0.1,0.2-0.1,0.5,0.2,0.7c0.2,0.1,0.5,0.1,0.7-0.2l2-3.5l3.5,2
	c0.2,0.1,0.5,0.1,0.7-0.2c0.1-0.2,0.1-0.5-0.2-0.7L476.2,65.6L476.2,65.6z M480.1,79.4l-3.6-13.5l-1,0.3l3.6,13.5L480.1,79.4z
	 M445.2,67.5c-0.3-0.1-0.5,0-0.7,0.2l-1.9,4.1c-0.1,0.3,0,0.5,0.3,0.7c0.2,0.1,0.5,0,0.7-0.2l1.7-3.6l3.6,1.7c0.2,0.1,0.5,0,0.7-0.2
	c0.1-0.2,0-0.5-0.2-0.7c0,0,0,0,0,0L445.2,67.5z M450.3,81l-4.8-13.2l-0.9,0.3l4.8,13.2L450.3,81z M413.2,70.5
	c-0.3-0.1-0.5,0-0.6,0.3c0,0,0,0,0,0l-1.5,4.2c-0.1,0.3,0,0.5,0.3,0.6c0.3,0.1,0.5,0,0.6-0.3l1.4-3.8l3.8,1.4c0.3,0.1,0.5,0,0.6-0.3
	c0.1-0.3,0-0.5-0.3-0.6L413.2,70.5L413.2,70.5z M419.4,83.5l-5.9-12.7l-0.9,0.4l5.9,12.7C418.5,83.9,419.4,83.5,419.4,83.5z
	 M382.1,74.5c-0.3-0.1-0.5,0.1-0.6,0.4l-1.2,4.3c-0.1,0.3,0.1,0.5,0.4,0.6c0.3,0.1,0.5-0.1,0.6-0.4l1-3.9l3.9,1
	c0.3,0.1,0.5-0.1,0.6-0.4c0.1-0.3-0.1-0.5-0.4-0.6l0,0L382.1,74.5L382.1,74.5z M389.4,86.9l-7-12.1l-0.9,0.5l7,12.1L389.4,86.9z
	 M351.1,78.5c-0.3,0-0.5,0.1-0.6,0.4l-0.8,4.4c0,0.3,0.1,0.5,0.4,0.6c0.3,0,0.5-0.1,0.6-0.4l0.7-3.9l3.9,0.7c0.3,0,0.5-0.1,0.6-0.4
	c0-0.3-0.1-0.5-0.4-0.6L351.1,78.5L351.1,78.5z M359.4,90.2l-8-11.5l-0.8,0.6l8,11.5L359.4,90.2z M320,83.5c-0.3,0-0.5,0.2-0.5,0.5
	l-0.4,4.5c0,0.3,0.2,0.5,0.4,0.6c0.3,0,0.5-0.2,0.6-0.4c0,0,0,0,0,0l0.3-4l4,0.3c0.3,0,0.5-0.2,0.6-0.4c0-0.3-0.2-0.5-0.4-0.6
	c0,0,0,0,0,0L320,83.5z M329.4,94.4l-9-10.7l-0.8,0.6l9,10.7L329.4,94.4z M290,89.5c-0.3,0-0.5,0.2-0.5,0.5v4.5
	c0,0.3,0.2,0.5,0.5,0.5s0.5-0.2,0.5-0.5v-4h4c0.3,0,0.5-0.2,0.5-0.5s-0.2-0.5-0.5-0.5H290z M300.3,99.5l-9.9-9.9l-0.7,0.7l9.9,9.9
	L300.3,99.5z M259,96.5c-0.3,0-0.5,0.3-0.5,0.5l0.4,4.5c0,0.3,0.3,0.5,0.5,0.5c0.3,0,0.5-0.3,0.5-0.5c0,0,0,0,0,0l-0.3-4l4-0.3
	c0.3,0,0.5-0.2,0.5-0.5s-0.2-0.5-0.5-0.5c0,0,0,0,0,0L259,96.5z M270,105.6l-10.7-9l-0.6,0.8l10.7,9L270,105.6z M227.9,104.5
	c-0.3,0-0.5,0.3-0.4,0.6l0.8,4.4c0,0.3,0.3,0.5,0.6,0.4c0.3,0,0.5-0.3,0.4-0.6l-0.7-3.9l3.9-0.7c0.3,0,0.5-0.3,0.4-0.6
	c0-0.3-0.3-0.5-0.6-0.4L227.9,104.5L227.9,104.5z M239.8,112.6l-11.5-8l-0.6,0.8l11.5,8L239.8,112.6z M198.9,115.5
	c-0.3,0.1-0.4,0.3-0.4,0.6l1.2,4.3c0.1,0.3,0.3,0.4,0.6,0.4s0.4-0.3,0.4-0.6l-1-3.9l3.9-1c0.3-0.1,0.4-0.3,0.4-0.6s-0.3-0.4-0.6-0.4
	C203.2,114.4,198.9,115.5,198.9,115.5z M211.4,122.6l-12.1-7l-0.5,0.9l12.1,7L211.4,122.6z M169.8,127.5c-0.3,0.1-0.4,0.4-0.3,0.6
	c0,0,0,0,0,0l1.5,4.2c0.1,0.3,0.4,0.4,0.6,0.3c0.3-0.1,0.4-0.4,0.3-0.6l-1.4-3.8l3.8-1.4c0.3-0.1,0.4-0.4,0.3-0.6
	c-0.1-0.3-0.4-0.4-0.6-0.3L169.8,127.5L169.8,127.5z M182.9,133.5l-12.7-5.9l-0.4,0.9l12.7,5.9L182.9,133.5L182.9,133.5z
	 M142.8,143.5c-0.2,0.1-0.4,0.4-0.2,0.7c0,0,0,0,0,0l1.9,4.1c0.1,0.2,0.4,0.4,0.7,0.2c0.2-0.1,0.3-0.4,0.2-0.7l-1.7-3.6l3.6-1.7
	c0.2-0.1,0.4-0.4,0.2-0.7c-0.1-0.2-0.4-0.3-0.7-0.2L142.8,143.5L142.8,143.5z M156.3,148.3l-13.2-4.8l-0.3,0.9l13.2,4.8L156.3,148.3
	z M123.8,162.6c-0.2,0.1-0.3,0.4-0.2,0.7l2.2,3.9c0.1,0.2,0.4,0.3,0.7,0.2c0.2-0.1,0.3-0.4,0.2-0.7l-2-3.5l3.5-2
	c0.2-0.1,0.3-0.4,0.2-0.7c-0.1-0.2-0.4-0.3-0.7-0.2L123.8,162.6z M137.7,166.1l-13.5-3.6l-0.3,1l13.5,3.6L137.7,166.1L137.7,166.1z
	 M117.6,184.6c-0.2,0.2-0.2,0.5,0,0.7l3.2,3.2c0.2,0.2,0.5,0.2,0.7-0.1c0.2-0.2,0.2-0.5,0-0.7l-2.8-2.8l2.8-2.8
	c0.2-0.2,0.2-0.5-0.1-0.7c-0.2-0.2-0.5-0.2-0.7,0L117.6,184.6L117.6,184.6z M132,184.5h-14v1h14V184.5z M602.7,63.6
	c0.2-0.2,0.5-0.1,0.7,0.1l2.9,3.4c0.2,0.2,0.1,0.5-0.1,0.7c-0.2,0.2-0.5,0.1-0.7-0.1l-2.6-3.1l-3.1,2.6c-0.2,0.2-0.5,0.2-0.7-0.1
	c-0.2-0.2-0.2-0.5,0.1-0.7L602.7,63.6L602.7,63.6z M601.3,77.9l1.2-13.9l1,0.1L602.3,78L601.3,77.9z M634.7,63.6
	c0.2-0.2,0.5-0.1,0.7,0.1c0,0,0,0,0,0l2.6,3.7c0.2,0.2,0.1,0.5-0.1,0.7c-0.2,0.2-0.5,0.1-0.7-0.1l-2.3-3.3l-3.3,2.3
	c-0.2,0.2-0.5,0.1-0.7-0.1c-0.2-0.2-0.1-0.5,0.1-0.7l0,0L634.7,63.6L634.7,63.6z M632.1,77.7l2.4-13.8l1,0.2l-2.4,13.8L632.1,77.7
	L632.1,77.7z M665.8,65.6c0.2-0.1,0.5-0.1,0.7,0.2l2.2,3.9c0.1,0.2,0.1,0.5-0.2,0.7c-0.2,0.1-0.5,0.1-0.7-0.2l0,0l-2-3.5l-3.5,2
	c-0.2,0.1-0.5,0.1-0.7-0.2c-0.1-0.2-0.1-0.5,0.2-0.7L665.8,65.6L665.8,65.6z M661.9,79.4l3.6-13.5l1,0.3l-3.6,13.5L661.9,79.4
	L661.9,79.4z M696.8,67.5c0.3-0.1,0.5,0,0.7,0.2l1.9,4.1c0.1,0.3,0,0.5-0.3,0.7c-0.2,0.1-0.5,0-0.7-0.2l-1.7-3.6l-3.6,1.7
	c-0.3,0.1-0.5,0-0.7-0.3c-0.1-0.2,0-0.5,0.2-0.7L696.8,67.5z M691.7,81l4.8-13.2l0.9,0.3l-4.8,13.2L691.7,81z M728.8,70.5
	c0.3-0.1,0.5,0,0.6,0.3c0,0,0,0,0,0l1.5,4.2c0.1,0.3,0,0.5-0.3,0.6c-0.3,0.1-0.5,0-0.6-0.3l-1.4-3.8l-3.8,1.4
	c-0.3,0.1-0.5,0-0.6-0.3s0-0.5,0.3-0.6L728.8,70.5L728.8,70.5z M722.6,83.5l5.9-12.7l0.9,0.4l-5.9,12.7
	C723.5,83.9,722.6,83.5,722.6,83.5z M759.9,74.5c0.3-0.1,0.5,0.1,0.6,0.4l1.2,4.3c0.1,0.3-0.1,0.5-0.4,0.6c-0.3,0.1-0.5-0.1-0.6-0.4
	l-1-3.9l-3.9,1c-0.3,0.1-0.5-0.1-0.6-0.4s0.1-0.5,0.4-0.6l0,0L759.9,74.5z M752.6,86.9l7-12.1l0.9,0.5l-7,12.1L752.6,86.9z
	 M790.9,78.5c0.3,0,0.5,0.1,0.6,0.4l0.8,4.4c0,0.3-0.1,0.5-0.4,0.6c-0.3,0-0.5-0.1-0.6-0.4l-0.7-3.9l-3.9,0.7
	c-0.3,0-0.5-0.1-0.6-0.4c0-0.3,0.1-0.5,0.4-0.6L790.9,78.5L790.9,78.5z M782.6,90.2l8-11.5l0.8,0.6l-8,11.5L782.6,90.2L782.6,90.2z
	 M822,83.5c0.3,0,0.5,0.2,0.5,0.5l0.4,4.5c0,0.3-0.2,0.5-0.4,0.6c-0.3,0-0.5-0.2-0.6-0.4c0,0,0,0,0,0l-0.3-4l-4,0.3
	c-0.3,0-0.5-0.2-0.6-0.4c0-0.3,0.2-0.5,0.4-0.6c0,0,0,0,0,0L822,83.5L822,83.5z M812.6,94.4l9-10.7l0.8,0.6l-9,10.7L812.6,94.4z
	 M852,89.5c0.3,0,0.5,0.2,0.5,0.5v4.5c0,0.3-0.2,0.5-0.5,0.5s-0.5-0.2-0.5-0.5v-4h-4c-0.3,0-0.5-0.2-0.5-0.5s0.2-0.5,0.5-0.5H852z
	 M841.7,99.5l9.9-9.9l0.7,0.7l-9.9,9.9L841.7,99.5z M883,96.5c0.3,0,0.5,0.3,0.5,0.5l-0.4,4.5c0,0.3-0.3,0.5-0.5,0.5
	c-0.3,0-0.5-0.3-0.5-0.5c0,0,0,0,0,0l0.3-4l-4-0.3c-0.3,0-0.5-0.2-0.5-0.5c0-0.3,0.2-0.5,0.5-0.5c0,0,0,0,0,0L883,96.5L883,96.5z
	 M872,105.6l10.7-9l0.6,0.8l-10.7,9L872,105.6z M914.1,104.5c0.3,0,0.5,0.3,0.4,0.6l-0.8,4.4c0,0.3-0.3,0.5-0.6,0.4
	c-0.3,0-0.5-0.3-0.4-0.6l0.7-3.9l-3.9-0.7c-0.3,0-0.5-0.3-0.4-0.6c0-0.3,0.3-0.5,0.6-0.4L914.1,104.5L914.1,104.5z M902.2,112.6
	l11.5-8l0.6,0.8l-11.5,8L902.2,112.6z M943.1,115.5c0.3,0.1,0.4,0.3,0.4,0.6l-1.2,4.3c-0.1,0.3-0.3,0.4-0.6,0.4
	c-0.3-0.1-0.4-0.3-0.4-0.6l1-3.9l-3.9-1c-0.3-0.1-0.4-0.3-0.4-0.6s0.3-0.4,0.6-0.4l0,0C938.8,114.4,943.1,115.5,943.1,115.5z
	 M930.6,122.6l12.1-7l0.5,0.9l-12.1,7L930.6,122.6z M972.2,127.5c0.3,0.1,0.4,0.4,0.3,0.6l-1.5,4.2c-0.1,0.3-0.4,0.4-0.6,0.3
	c-0.3-0.1-0.4-0.4-0.3-0.6l1.4-3.8l-3.8-1.4c-0.3-0.1-0.4-0.4-0.3-0.6s0.4-0.4,0.6-0.3L972.2,127.5L972.2,127.5z M959.1,133.5
	l12.7-5.9l0.4,0.9l-12.7,5.9L959.1,133.5L959.1,133.5z M999.2,143.5c0.2,0.1,0.4,0.4,0.2,0.7c0,0,0,0,0,0l-1.9,4.1
	c-0.1,0.2-0.4,0.4-0.7,0.2c-0.2-0.1-0.3-0.4-0.2-0.7l1.7-3.6l-3.6-1.7c-0.2-0.1-0.4-0.4-0.2-0.7c0.1-0.2,0.4-0.3,0.7-0.2
	L999.2,143.5L999.2,143.5z M985.7,148.3l13.2-4.8l0.3,0.9l-13.2,4.8L985.7,148.3z M1018.2,162.6c0.2,0.1,0.3,0.4,0.2,0.7l-2.2,3.9
	c-0.1,0.2-0.4,0.3-0.7,0.2s-0.3-0.4-0.2-0.7l2-3.5l-3.5-2c-0.2-0.1-0.3-0.4-0.2-0.7c0,0,0,0,0,0c0.1-0.2,0.4-0.3,0.7-0.2
	c0,0,0,0,0,0L1018.2,162.6L1018.2,162.6z M1004.3,166.1l13.5-3.6l0.3,1l-13.5,3.6L1004.3,166.1L1004.3,166.1z M1024.3,184.6
	c0.2,0.2,0.2,0.5,0,0.7l-3.2,3.2c-0.2,0.2-0.5,0.2-0.7,0c-0.2-0.2-0.2-0.5,0-0.7l2.8-2.8l-2.8-2.8c-0.2-0.2-0.2-0.5,0-0.7
	c0.2-0.2,0.5-0.2,0.7,0L1024.3,184.6L1024.3,184.6z M1010,184.5h14v1h-14V184.5z M570.6,305.4c0.2,0.2,0.5,0.2,0.7,0c0,0,0,0,0,0
	l3.2-3.2c0.2-0.2,0.2-0.5-0.1-0.7c-0.2-0.2-0.5-0.2-0.7,0l-2.8,2.8l-2.8-2.8c-0.2-0.2-0.5-0.2-0.7,0.1c-0.2,0.2-0.2,0.5,0,0.7
	L570.6,305.4z M570.5,291v14h1v-14H570.5z M602.7,305.4c0.2,0.2,0.5,0.1,0.7-0.1l2.9-3.4c0.2-0.2,0.2-0.5-0.1-0.7
	c-0.2-0.2-0.5-0.2-0.7,0.1l0,0l-2.6,3.1l-3.1-2.6c-0.2-0.2-0.5-0.2-0.7,0.1c-0.2,0.2-0.2,0.5,0.1,0.7l0,0L602.7,305.4L602.7,305.4z
	 M601.3,291.1l1.2,13.9l1-0.1l-1.2-13.9L601.3,291.1z M634.7,305.4c0.2,0.2,0.5,0.1,0.7-0.1c0,0,0,0,0,0l2.6-3.7
	c0.2-0.2,0.1-0.5-0.1-0.7c-0.2-0.2-0.5-0.1-0.7,0.1l-2.3,3.3l-3.3-2.3c-0.2-0.1-0.5-0.1-0.7,0.2c-0.1,0.2-0.1,0.5,0.1,0.7
	L634.7,305.4L634.7,305.4z M632.1,291.3l2.4,13.8l1-0.2l-2.4-13.8L632.1,291.3z M665.8,303.4c0.2,0.1,0.5,0.1,0.7-0.2l2.2-3.9
	c0.1-0.2,0.1-0.5-0.2-0.7c-0.2-0.1-0.5-0.1-0.7,0.2l-2,3.5l-3.5-2c-0.2-0.1-0.5-0.1-0.7,0.2c-0.1,0.2-0.1,0.5,0.2,0.7L665.8,303.4
	L665.8,303.4z M661.9,289.6l3.6,13.5l1-0.3l-3.6-13.5L661.9,289.6L661.9,289.6z M696.8,301.5c0.2,0.1,0.5,0,0.7-0.2l1.9-4.1
	c0.1-0.3,0-0.5-0.3-0.7c-0.2-0.1-0.5,0-0.7,0.2l-1.7,3.6l-3.6-1.7c-0.3-0.1-0.5,0-0.7,0.3c-0.1,0.2,0,0.5,0.2,0.7L696.8,301.5z
	 M691.7,288l4.8,13.2l0.9-0.3l-4.8-13.2L691.7,288z M728.8,298.5c0.3,0.1,0.5,0,0.6-0.3c0,0,0,0,0,0l1.5-4.2c0.1-0.3,0-0.5-0.3-0.6
	c-0.3-0.1-0.5,0-0.6,0.3l-1.4,3.8l-3.8-1.4c-0.3-0.1-0.5,0-0.6,0.3s0,0.5,0.3,0.6L728.8,298.5L728.8,298.5z M722.6,285.5l5.9,12.7
	l0.9-0.4l-5.9-12.7L722.6,285.5z M759.9,294.5c0.3,0.1,0.5-0.1,0.6-0.4l1.2-4.3c0.1-0.3-0.1-0.5-0.4-0.6c-0.2-0.1-0.5,0.1-0.6,0.3
	l-1,3.9l-3.9-1c-0.3-0.1-0.5,0.1-0.6,0.4c-0.1,0.2,0.1,0.5,0.3,0.6L759.9,294.5z M752.6,282.1l7,12.1l0.9-0.5l-7-12.1L752.6,282.1z
	 M790.9,290.5c0.3,0,0.5-0.1,0.6-0.4l0.8-4.4c0-0.3-0.1-0.5-0.4-0.6c-0.3,0-0.5,0.1-0.6,0.4l-0.7,3.9l-3.9-0.7
	c-0.3,0-0.5,0.1-0.6,0.4c0,0.3,0.1,0.5,0.4,0.6L790.9,290.5L790.9,290.5z M782.6,278.8l8,11.5l0.8-0.6l-8-11.5L782.6,278.8
	L782.6,278.8z M822,285.5c0.3,0,0.5-0.2,0.5-0.5l0.4-4.5c0-0.3-0.2-0.5-0.4-0.6c-0.3,0-0.5,0.2-0.6,0.4c0,0,0,0,0,0l-0.3,4l-4-0.3
	c-0.3,0-0.5,0.2-0.6,0.4c0,0.3,0.2,0.5,0.4,0.6c0,0,0,0,0,0L822,285.5L822,285.5z M812.6,274.6l9,10.7l0.8-0.6l-9-10.7L812.6,274.6z
	 M852,279.5c0.3,0,0.5-0.2,0.5-0.5v-4.5c0-0.3-0.2-0.5-0.5-0.5s-0.5,0.2-0.5,0.5v4h-4c-0.3,0-0.5,0.2-0.5,0.5s0.2,0.5,0.5,0.5H852z
	 M841.7,269.5l9.9,9.9l0.7-0.7l-9.9-9.9L841.7,269.5z M883,272.5c0.3,0,0.5-0.3,0.5-0.5l-0.4-4.5c0-0.3-0.3-0.5-0.5-0.5
	c-0.3,0-0.5,0.3-0.5,0.5c0,0,0,0,0,0l0.3,4l-4,0.3c-0.3,0-0.5,0.3-0.5,0.5c0,0.3,0.3,0.5,0.5,0.5c0,0,0,0,0,0L883,272.5L883,272.5z
	 M872,263.4l10.7,9l0.6-0.8l-10.7-9L872,263.4z M914.1,264.5c0.3,0,0.5-0.3,0.4-0.6l-0.8-4.4c0-0.3-0.3-0.5-0.6-0.4
	c-0.3,0-0.5,0.3-0.4,0.6l0.7,3.9l-3.9,0.7c-0.3,0-0.5,0.3-0.4,0.6c0,0.3,0.3,0.5,0.6,0.4l0,0L914.1,264.5L914.1,264.5z M902.2,256.4
	l11.5,8l0.6-0.8l-11.5-8L902.2,256.4z M943.1,253.5c0.3-0.1,0.4-0.3,0.4-0.6l-1.2-4.3c-0.1-0.3-0.3-0.4-0.6-0.4
	c-0.3,0.1-0.4,0.3-0.4,0.6l1,3.9l-3.9,1c-0.3,0.1-0.4,0.3-0.4,0.6s0.3,0.4,0.6,0.4L943.1,253.5L943.1,253.5z M930.6,246.4l12.1,7
	l0.5-0.9l-12.1-7L930.6,246.4z M972.2,241.5c0.3-0.1,0.4-0.4,0.3-0.6l-1.5-4.2c-0.1-0.3-0.4-0.4-0.6-0.3c-0.3,0.1-0.4,0.4-0.3,0.6
	l0,0l1.4,3.8l-3.8,1.4c-0.3,0.1-0.4,0.4-0.3,0.6s0.4,0.4,0.6,0.3L972.2,241.5L972.2,241.5z M959.1,235.5l12.7,5.9l0.4-0.9l-12.7-5.9
	L959.1,235.5L959.1,235.5z M999.2,225.5c0.2-0.1,0.4-0.4,0.2-0.7c0,0,0,0,0,0l-1.9-4.1c-0.1-0.2-0.4-0.4-0.7-0.2
	c-0.2,0.1-0.3,0.4-0.2,0.7l1.7,3.6l-3.6,1.7c-0.2,0.1-0.4,0.4-0.2,0.7c0.1,0.2,0.4,0.3,0.7,0.2L999.2,225.5L999.2,225.5z
	 M985.7,220.7l13.2,4.8l0.3-0.9l-13.2-4.8L985.7,220.7z M1018.2,206.4c0.2-0.1,0.3-0.4,0.2-0.7c0,0,0,0,0,0l-2.2-3.9
	c-0.1-0.2-0.4-0.3-0.7-0.2s-0.3,0.4-0.2,0.7l2,3.5l-3.5,2c-0.2,0.1-0.3,0.4-0.2,0.7c0,0,0,0,0,0c0.1,0.2,0.4,0.3,0.7,0.2
	L1018.2,206.4L1018.2,206.4z M1004.3,202.9l13.5,3.6l0.3-1l-13.5-3.6L1004.3,202.9L1004.3,202.9z M539.3,305.4
	c-0.2,0.2-0.5,0.1-0.7-0.1l-2.9-3.4c-0.2-0.2-0.2-0.5,0.1-0.7c0.2-0.2,0.5-0.2,0.7,0.1l2.6,3.1l3.1-2.6c0.2-0.2,0.5-0.2,0.7,0.1
	c0.2,0.2,0.2,0.5-0.1,0.7l0,0L539.3,305.4L539.3,305.4z M540.7,291.1l-1.2,13.9l-1-0.1l1.2-13.9L540.7,291.1z M507.3,305.4
	c-0.2,0.2-0.5,0.1-0.7-0.1c0,0,0,0,0,0l-2.6-3.7c-0.2-0.2-0.1-0.5,0.1-0.7c0.2-0.1,0.5-0.1,0.7,0.1l2.3,3.3l3.3-2.3
	c0.2-0.1,0.5-0.1,0.7,0.2c0.1,0.2,0.1,0.5-0.1,0.7L507.3,305.4L507.3,305.4z M509.9,291.3l-2.4,13.8l-1-0.2l2.4-13.8L509.9,291.3z
	 M476.2,303.4c-0.2,0.1-0.5,0.1-0.7-0.2l0,0l-2.2-3.9c-0.1-0.2-0.1-0.5,0.2-0.7c0.2-0.1,0.5-0.1,0.7,0.2l2,3.5l3.5-2
	c0.2-0.1,0.5-0.1,0.7,0.2c0.1,0.2,0.1,0.5-0.2,0.7L476.2,303.4L476.2,303.4z M480.1,289.6l-3.6,13.5l-1-0.3l3.6-13.5L480.1,289.6z
	 M445.2,301.5c-0.3,0.1-0.5,0-0.7-0.2l-1.9-4.1c-0.1-0.3,0-0.5,0.3-0.7c0.2-0.1,0.5,0,0.7,0.2l1.7,3.6l3.6-1.7
	c0.3-0.1,0.5,0,0.7,0.3c0.1,0.2,0,0.5-0.2,0.7L445.2,301.5z M450.3,288l-4.8,13.2l-0.9-0.3l4.8-13.2L450.3,288z M413.2,298.5
	c-0.3,0.1-0.5,0-0.6-0.3c0,0,0,0,0,0l-1.5-4.2c-0.1-0.3,0-0.5,0.3-0.6c0.3-0.1,0.5,0,0.6,0.3l0,0l1.4,3.8l3.8-1.4
	c0.3-0.1,0.5,0,0.6,0.3c0.1,0.3,0,0.5-0.3,0.6L413.2,298.5L413.2,298.5z M419.4,285.5l-5.9,12.7l-0.9-0.4l5.9-12.7L419.4,285.5z
	 M382.1,294.5c-0.3,0.1-0.5-0.1-0.6-0.4l-1.2-4.3c-0.1-0.3,0.1-0.5,0.4-0.6c0.2-0.1,0.5,0.1,0.6,0.3l1,3.9l3.9-1
	c0.3-0.1,0.5,0.1,0.6,0.4c0.1,0.2-0.1,0.5-0.3,0.6L382.1,294.5L382.1,294.5z M389.4,282.1l-7,12.1l-0.9-0.5l7-12.1L389.4,282.1z
	 M351.1,290.5c-0.3,0-0.5-0.1-0.6-0.4l-0.8-4.4c0-0.3,0.1-0.5,0.4-0.6s0.5,0.1,0.6,0.4l0,0l0.7,3.9l3.9-0.7c0.3,0,0.5,0.1,0.6,0.4
	c0,0.3-0.1,0.5-0.4,0.6L351.1,290.5L351.1,290.5z M359.4,278.8l-8,11.5l-0.8-0.6l8-11.5L359.4,278.8z M320,285.5
	c-0.3,0-0.5-0.2-0.5-0.5l-0.4-4.5c0-0.3,0.2-0.5,0.5-0.5c0.3,0,0.5,0.2,0.5,0.4l0.3,4l4-0.3c0.3,0,0.5,0.2,0.6,0.4
	c0,0.3-0.2,0.5-0.4,0.6c0,0,0,0,0,0L320,285.5L320,285.5z M329.4,274.6l-9,10.7l-0.8-0.6l9-10.7L329.4,274.6z M290,279.5
	c-0.3,0-0.5-0.2-0.5-0.5v-4.5c0-0.3,0.2-0.5,0.5-0.5s0.5,0.2,0.5,0.5v4h4c0.3,0,0.5,0.2,0.5,0.5s-0.2,0.5-0.5,0.5H290z M300.3,269.5
	l-9.9,9.9l-0.7-0.7l9.9-9.9L300.3,269.5z M259,272.5c-0.3,0-0.5-0.3-0.5-0.5l0.4-4.5c0-0.3,0.3-0.5,0.5-0.4c0.3,0,0.5,0.3,0.4,0.5
	l-0.3,4l4,0.3c0.3,0,0.5,0.3,0.5,0.5c0,0.3-0.3,0.5-0.5,0.5c0,0,0,0,0,0L259,272.5L259,272.5z M270,263.4l-10.7,9l-0.6-0.8l10.7-9
	L270,263.4z M227.9,264.5c-0.3,0-0.5-0.3-0.4-0.6l0.8-4.4c0-0.3,0.3-0.5,0.6-0.4c0.3,0,0.5,0.3,0.4,0.6l-0.7,3.9l3.9,0.7
	c0.3,0,0.5,0.3,0.4,0.6c0,0.3-0.3,0.5-0.6,0.4L227.9,264.5L227.9,264.5z M239.8,256.4l-11.5,8l-0.6-0.8l11.5-8L239.8,256.4z
	 M198.9,253.5c-0.3-0.1-0.4-0.3-0.4-0.6l1.2-4.3c0.1-0.3,0.3-0.4,0.6-0.4s0.4,0.3,0.4,0.6l-1,3.9l3.9,1c0.3,0.1,0.4,0.3,0.4,0.6
	s-0.3,0.4-0.6,0.4L198.9,253.5L198.9,253.5z M211.4,246.4l-12.1,7l-0.5-0.9l12.1-7L211.4,246.4z M169.8,241.5
	c-0.3-0.1-0.4-0.4-0.3-0.6l1.5-4.2c0.1-0.3,0.4-0.4,0.6-0.3c0.3,0.1,0.4,0.4,0.3,0.6l-1.4,3.8l3.8,1.4c0.3,0.1,0.4,0.4,0.3,0.6
	c-0.1,0.3-0.4,0.4-0.6,0.3l0,0L169.8,241.5L169.8,241.5z M182.9,235.5l-12.7,5.9l-0.4-0.9l12.7-5.9L182.9,235.5L182.9,235.5z
	 M142.8,225.5c-0.2-0.1-0.4-0.4-0.2-0.7c0,0,0,0,0,0l1.9-4.1c0.1-0.2,0.4-0.4,0.7-0.2c0.2,0.1,0.3,0.4,0.2,0.7l-1.7,3.6l3.6,1.7
	c0.2,0.1,0.4,0.4,0.2,0.7c-0.1,0.2-0.4,0.3-0.7,0.2L142.8,225.5L142.8,225.5z M156.3,220.7l-13.2,4.8l-0.3-0.9l13.2-4.8L156.3,220.7
	z M123.8,206.4c-0.2-0.1-0.3-0.4-0.2-0.7l2.2-3.9c0.1-0.2,0.4-0.3,0.7-0.2c0.2,0.1,0.3,0.4,0.2,0.7l-2,3.5l3.5,2
	c0.2,0.1,0.3,0.4,0.2,0.7c-0.1,0.2-0.4,0.3-0.7,0.2L123.8,206.4z M137.7,202.9l-13.5,3.6l-0.3-1l13.5-3.6L137.7,202.9L137.7,202.9z"
	/>
<path class="st0" d="M570.6,78.4c0.2,0.2,0.5,0.2,0.7,0l3.2-3.2c0.2-0.2,0.2-0.5,0-0.7c-0.2-0.2-0.5-0.2-0.7,0l-2.8,2.8l-2.8-2.8
	c-0.2-0.2-0.5-0.2-0.7,0c-0.2,0.2-0.2,0.5,0,0.7L570.6,78.4z M571.4,63.6c-0.2-0.2-0.5-0.2-0.7,0l-3.2,3.2c-0.2,0.2-0.2,0.5,0,0.7
	c0.2,0.2,0.5,0.2,0.7,0l2.8-2.8l2.8,2.8c0.2,0.2,0.5,0.2,0.7,0c0.2-0.2,0.2-0.5,0-0.7C574.5,66.8,571.4,63.6,571.4,63.6z M571.5,78
	V64h-1v14H571.5z M539.9,78.3c0.2,0.2,0.5,0.1,0.7-0.1l2.9-3.4c0.2-0.2,0.2-0.5-0.1-0.7c-0.2-0.2-0.5-0.2-0.7,0.1l0,0l-2.6,3.1
	l-3.1-2.6c-0.2-0.2-0.5-0.2-0.7,0c-0.2,0.2-0.2,0.5,0,0.7c0,0,0,0,0,0L539.9,78.3L539.9,78.3z M539.3,63.6c-0.2-0.2-0.5-0.1-0.7,0.1
	l-2.9,3.4c-0.2,0.2-0.2,0.5,0.1,0.7c0.2,0.2,0.5,0.2,0.7-0.1l2.6-3.1l3.1,2.6c0.2,0.2,0.5,0.2,0.7-0.1c0.2-0.2,0.2-0.5-0.1-0.7l0,0
	L539.3,63.6L539.3,63.6z M540.7,77.9L539.5,64l-1,0.1l1.2,13.9L540.7,77.9z M509.1,78.2c0.2,0.2,0.5,0.1,0.7-0.1c0,0,0,0,0,0
	l2.6-3.7c0.2-0.2,0.1-0.5-0.1-0.7c-0.2-0.2-0.5-0.1-0.7,0.1l0,0l-2.3,3.3l-3.3-2.3c-0.2-0.2-0.5-0.1-0.7,0.1s-0.1,0.5,0.1,0.7
	L509.1,78.2L509.1,78.2z M507.3,63.6c-0.2-0.2-0.5-0.1-0.7,0.1c0,0,0,0,0,0l-2.6,3.7c-0.2,0.2-0.1,0.5,0.1,0.7
	c0.2,0.2,0.5,0.1,0.7-0.1l2.3-3.3l3.3,2.3c0.2,0.2,0.5,0.1,0.7-0.1c0.2-0.2,0.1-0.5-0.1-0.7L507.3,63.6L507.3,63.6z M509.9,77.7
	l-2.4-13.8l-1,0.2l2.4,13.8L509.9,77.7L509.9,77.7z M479.4,80c0.2,0.1,0.5,0.1,0.7-0.2l2.2-3.9c0.1-0.2,0.1-0.5-0.2-0.7
	c-0.2-0.1-0.5-0.1-0.7,0.2l-2,3.5l-3.5-2c-0.2-0.1-0.5-0.1-0.7,0.2c-0.1,0.2-0.1,0.5,0.2,0.7L479.4,80L479.4,80z M476.2,65.6
	c-0.2-0.1-0.5-0.1-0.7,0.2l-2.2,3.9c-0.1,0.2-0.1,0.5,0.2,0.7c0.2,0.1,0.5,0.1,0.7-0.2l2-3.5l3.5,2c0.2,0.1,0.5,0.1,0.7-0.2
	c0.1-0.2,0.1-0.5-0.2-0.7L476.2,65.6L476.2,65.6z M480.1,79.4l-3.6-13.5l-1,0.3l3.6,13.5L480.1,79.4z M449.6,81.6
	c0.3,0.1,0.5,0,0.7-0.2l1.9-4.1c0.1-0.2,0-0.5-0.2-0.7c-0.2-0.1-0.5,0-0.7,0.2c0,0,0,0,0,0l-1.7,3.6l-3.6-1.7
	c-0.2-0.1-0.5,0-0.7,0.2c-0.1,0.2,0,0.5,0.2,0.7c0,0,0,0,0,0L449.6,81.6z M445.2,67.5c-0.3-0.1-0.5,0-0.7,0.2l-1.9,4.1
	c-0.1,0.3,0,0.5,0.3,0.7c0.2,0.1,0.5,0,0.7-0.2l1.7-3.6l3.6,1.7c0.2,0.1,0.5,0,0.7-0.2c0.1-0.2,0-0.5-0.2-0.7c0,0,0,0,0,0
	L445.2,67.5z M450.3,81l-4.8-13.2l-0.9,0.3l4.8,13.2L450.3,81z M418.7,84.2c0.3,0.1,0.5,0,0.6-0.3l1.5-4.2c0.1-0.3,0-0.5-0.3-0.6
	c-0.3-0.1-0.5,0-0.6,0.3l-1.4,3.8l-3.8-1.4c-0.3-0.1-0.5,0-0.6,0.3c-0.1,0.3,0,0.5,0.3,0.6L418.7,84.2L418.7,84.2z M413.2,70.5
	c-0.3-0.1-0.5,0-0.6,0.3c0,0,0,0,0,0l-1.5,4.2c-0.1,0.3,0,0.5,0.3,0.6c0.3,0.1,0.5,0,0.6-0.3l1.4-3.8l3.8,1.4c0.3,0.1,0.5,0,0.6-0.3
	c0.1-0.3,0-0.5-0.3-0.6L413.2,70.5L413.2,70.5z M419.4,83.5l-5.9-12.7l-0.9,0.4l5.9,12.7C418.5,83.9,419.4,83.5,419.4,83.5z
	 M388.9,87.6c0.3,0.1,0.5-0.1,0.6-0.4l1.2-4.3c0.1-0.3-0.1-0.5-0.4-0.6c-0.3-0.1-0.5,0.1-0.6,0.4l-1,3.9l-3.9-1
	c-0.3-0.1-0.5,0.1-0.6,0.4c-0.1,0.3,0.1,0.5,0.3,0.6L388.9,87.6L388.9,87.6z M382.1,74.5c-0.3-0.1-0.5,0.1-0.6,0.4l-1.2,4.3
	c-0.1,0.3,0.1,0.5,0.4,0.6c0.3,0.1,0.5-0.1,0.6-0.4l1-3.9l3.9,1c0.3,0.1,0.5-0.1,0.6-0.4c0.1-0.3-0.1-0.5-0.4-0.6l0,0L382.1,74.5
	L382.1,74.5z M389.4,86.9l-7-12.1l-0.9,0.5l7,12.1L389.4,86.9z M358.9,91c0.3,0,0.5-0.1,0.6-0.4l0.8-4.4c0-0.3-0.1-0.5-0.4-0.6
	c-0.3,0-0.5,0.1-0.6,0.4l0,0l-0.7,3.9l-3.9-0.7c-0.3,0-0.5,0.1-0.6,0.4c0,0.3,0.1,0.5,0.4,0.6L358.9,91L358.9,91z M351.1,78.5
	c-0.3,0-0.5,0.1-0.6,0.4l-0.8,4.4c0,0.3,0.1,0.5,0.4,0.6c0.3,0,0.5-0.1,0.6-0.4l0.7-3.9l3.9,0.7c0.3,0,0.5-0.1,0.6-0.4
	c0-0.3-0.1-0.5-0.4-0.6L351.1,78.5L351.1,78.5z M359.4,90.2l-8-11.5l-0.8,0.6l8,11.5L359.4,90.2z M329,95.2c0.3,0,0.5-0.2,0.5-0.5
	c0,0,0,0,0,0l0.4-4.5c0-0.3-0.2-0.5-0.4-0.6c-0.3,0-0.5,0.2-0.6,0.4c0,0,0,0,0,0l-0.3,4l-4-0.3c-0.3,0-0.5,0.2-0.6,0.4
	c0,0.3,0.2,0.5,0.4,0.6c0,0,0,0,0,0L329,95.2L329,95.2z M320,83.5c-0.3,0-0.5,0.2-0.5,0.5l-0.4,4.5c0,0.3,0.2,0.5,0.4,0.6
	c0.3,0,0.5-0.2,0.6-0.4c0,0,0,0,0,0l0.3-4l4,0.3c0.3,0,0.5-0.2,0.6-0.4c0-0.3-0.2-0.5-0.4-0.6c0,0,0,0,0,0L320,83.5z M329.4,94.4
	l-9-10.7l-0.8,0.6l9,10.7L329.4,94.4z M299.9,100.4c0.3,0,0.5-0.2,0.5-0.5v-4.5c0-0.3-0.2-0.5-0.5-0.5s-0.5,0.2-0.5,0.5v4h-4
	c-0.3,0-0.5,0.2-0.5,0.5s0.2,0.5,0.5,0.5H299.9z M290,89.5c-0.3,0-0.5,0.2-0.5,0.5v4.5c0,0.3,0.2,0.5,0.5,0.5s0.5-0.2,0.5-0.5v-4h4
	c0.3,0,0.5-0.2,0.5-0.5s-0.2-0.5-0.5-0.5H290z M300.3,99.5l-9.9-9.9l-0.7,0.7l9.9,9.9L300.3,99.5z M269.8,106.5
	c0.3,0,0.5-0.3,0.5-0.5c0,0,0,0,0,0l-0.4-4.5c0-0.3-0.3-0.5-0.5-0.5c-0.3,0-0.5,0.3-0.5,0.5c0,0,0,0,0,0l0.3,4l-4,0.3
	c-0.3,0-0.5,0.3-0.4,0.6c0,0.3,0.3,0.5,0.5,0.4L269.8,106.5z M259,96.5c-0.3,0-0.5,0.3-0.5,0.5l0.4,4.5c0,0.3,0.3,0.5,0.5,0.5
	c0.3,0,0.5-0.3,0.5-0.5c0,0,0,0,0,0l-0.3-4l4-0.3c0.3,0,0.5-0.2,0.5-0.5s-0.2-0.5-0.5-0.5c0,0,0,0,0,0L259,96.5z M270,105.6l-10.7-9
	l-0.6,0.8l10.7,9L270,105.6z M239.6,113.5c0.3,0,0.5-0.3,0.4-0.6c0,0,0,0,0,0l-0.8-4.4c0-0.3-0.3-0.5-0.6-0.4
	c-0.3,0-0.5,0.3-0.4,0.6l0.7,3.9l-3.9,0.7c-0.3,0-0.5,0.3-0.4,0.6c0,0.3,0.3,0.5,0.6,0.4L239.6,113.5L239.6,113.5z M227.9,104.5
	c-0.3,0-0.5,0.3-0.4,0.6l0.8,4.4c0,0.3,0.3,0.5,0.6,0.4c0.3,0,0.5-0.3,0.4-0.6l-0.7-3.9l3.9-0.7c0.3,0,0.5-0.3,0.4-0.6
	c0-0.3-0.3-0.5-0.6-0.4L227.9,104.5L227.9,104.5z M239.8,112.6l-11.5-8l-0.6,0.8l11.5,8L239.8,112.6z M211.3,123.5
	c0.3-0.1,0.4-0.3,0.4-0.6l-1.2-4.3c-0.1-0.3-0.4-0.4-0.6-0.3c-0.2,0.1-0.4,0.3-0.3,0.6l1,3.9l-3.9,1c-0.3,0.1-0.4,0.3-0.4,0.6
	s0.3,0.4,0.6,0.4l0,0C206.9,124.6,211.3,123.5,211.3,123.5z M198.9,115.5c-0.3,0.1-0.4,0.3-0.4,0.6l1.2,4.3c0.1,0.3,0.3,0.4,0.6,0.4
	s0.4-0.3,0.4-0.6l-1-3.9l3.9-1c0.3-0.1,0.4-0.3,0.4-0.6s-0.3-0.4-0.6-0.4C203.2,114.4,198.9,115.5,198.9,115.5z M211.4,122.6
	l-12.1-7l-0.5,0.9l12.1,7L211.4,122.6z M182.9,134.4c0.3-0.1,0.4-0.4,0.3-0.6c0,0,0,0,0,0l-1.5-4.2c-0.1-0.3-0.4-0.4-0.6-0.3
	c-0.3,0.1-0.4,0.4-0.3,0.6l1.4,3.8l-3.8,1.4c-0.3,0.1-0.4,0.4-0.3,0.6c0.1,0.3,0.4,0.4,0.6,0.3L182.9,134.4L182.9,134.4z
	 M169.8,127.5c-0.3,0.1-0.4,0.4-0.3,0.6c0,0,0,0,0,0l1.5,4.2c0.1,0.3,0.4,0.4,0.6,0.3c0.3-0.1,0.4-0.4,0.3-0.6l-1.4-3.8l3.8-1.4
	c0.3-0.1,0.4-0.4,0.3-0.6c-0.1-0.3-0.4-0.4-0.6-0.3L169.8,127.5L169.8,127.5z M182.9,133.5l-12.7-5.9l-0.4,0.9l12.7,5.9L182.9,133.5
	L182.9,133.5z M156.4,149.2c0.3-0.1,0.4-0.4,0.2-0.7l-1.9-4.1c-0.1-0.3-0.4-0.4-0.7-0.2s-0.4,0.4-0.2,0.7l0,0l1.7,3.6l-3.6,1.7
	c-0.3,0.1-0.4,0.4-0.3,0.7c0.1,0.3,0.4,0.4,0.7,0.3c0,0,0,0,0,0L156.4,149.2L156.4,149.2z M142.8,143.5c-0.2,0.1-0.4,0.4-0.2,0.7
	c0,0,0,0,0,0l1.9,4.1c0.1,0.2,0.4,0.4,0.7,0.2c0.2-0.1,0.3-0.4,0.2-0.7l-1.7-3.6l3.6-1.7c0.2-0.1,0.4-0.4,0.2-0.7
	c-0.1-0.2-0.4-0.3-0.7-0.2L142.8,143.5L142.8,143.5z M156.3,148.3l-13.2-4.8l-0.3,0.9l13.2,4.8L156.3,148.3z M137.8,167.1
	c0.2-0.1,0.3-0.4,0.2-0.7l-2.2-3.9c-0.1-0.2-0.4-0.3-0.7-0.2c-0.2,0.1-0.3,0.4-0.2,0.7l2,3.5l-3.5,2c-0.2,0.1-0.3,0.4-0.2,0.7
	c0.1,0.2,0.4,0.3,0.7,0.2c0,0,0,0,0,0L137.8,167.1z M123.7,162.6c-0.2,0.1-0.3,0.4-0.2,0.7l2.2,3.9c0.1,0.2,0.4,0.3,0.7,0.2
	c0.2-0.1,0.3-0.4,0.2-0.7l-2-3.5l3.5-2c0.2-0.1,0.3-0.4,0.2-0.7c-0.1-0.2-0.4-0.3-0.7-0.2C127.6,160.3,123.7,162.6,123.7,162.6z
	 M137.7,166.1l-13.5-3.6l-0.3,1l13.5,3.6L137.7,166.1L137.7,166.1z M132.4,185.4c0.2-0.2,0.2-0.5,0-0.7l-3.2-3.2
	c-0.2-0.2-0.5-0.2-0.7,0.1c-0.2,0.2-0.2,0.5,0,0.7l2.8,2.8l-2.8,2.8c-0.2,0.2-0.2,0.5,0.1,0.7c0.2,0.2,0.5,0.2,0.7,0L132.4,185.4
	L132.4,185.4z M117.6,184.6c-0.2,0.2-0.2,0.5,0,0.7l3.2,3.2c0.2,0.2,0.5,0.2,0.7-0.1c0.2-0.2,0.2-0.5,0-0.7l-2.8-2.8l2.8-2.8
	c0.2-0.2,0.2-0.5-0.1-0.7c-0.2-0.2-0.5-0.2-0.7,0L117.6,184.6z M132,184.5h-14v1h14V184.5z M602.1,78.3c-0.2,0.2-0.5,0.1-0.7-0.1
	l-2.9-3.4c-0.2-0.2-0.2-0.5,0.1-0.7c0.2-0.2,0.5-0.2,0.7,0.1l0,0l2.6,3.1l3.1-2.6c0.2-0.2,0.5-0.2,0.7,0c0.2,0.2,0.2,0.5,0,0.7
	c0,0,0,0,0,0C605.5,75.4,602.1,78.3,602.1,78.3z M602.7,63.6c0.2-0.2,0.5-0.1,0.7,0.1l2.9,3.4c0.2,0.2,0.1,0.5-0.1,0.7
	c-0.2,0.2-0.5,0.1-0.7-0.1l-2.6-3.1l-3.1,2.6c-0.2,0.2-0.5,0.2-0.7-0.1c-0.2-0.2-0.2-0.5,0.1-0.7L602.7,63.6L602.7,63.6z
	 M601.3,77.9l1.2-13.9l1,0.1L602.3,78L601.3,77.9z M632.9,78.2c-0.2,0.2-0.5,0.1-0.7-0.1c0,0,0,0,0,0l-2.6-3.7
	c-0.2-0.2-0.1-0.5,0.1-0.7c0.2-0.2,0.5-0.1,0.7,0.1l2.3,3.3l3.3-2.3c0.2-0.2,0.5-0.1,0.7,0.1s0.1,0.5-0.1,0.7L632.9,78.2L632.9,78.2
	z M634.7,63.6c0.2-0.2,0.5-0.1,0.7,0.1c0,0,0,0,0,0l2.6,3.7c0.2,0.2,0.1,0.5-0.1,0.7c-0.2,0.2-0.5,0.1-0.7-0.1l0,0l-2.3-3.3
	l-3.3,2.3c-0.2,0.2-0.5,0.1-0.7-0.1c-0.2-0.2-0.1-0.5,0.1-0.7l0,0L634.7,63.6L634.7,63.6z M632.1,77.7l2.4-13.8l1,0.2l-2.4,13.8
	L632.1,77.7L632.1,77.7z M662.6,80c-0.2,0.1-0.5,0.1-0.7-0.2l-2.2-3.9c-0.1-0.2-0.1-0.5,0.2-0.7c0.2-0.1,0.5-0.1,0.7,0.2l2,3.5
	l3.5-2c0.2-0.1,0.5-0.1,0.7,0.2c0.1,0.2,0.1,0.5-0.2,0.7C666.5,77.7,662.6,80,662.6,80z M665.8,65.6c0.2-0.1,0.5-0.1,0.7,0.2
	l2.2,3.9c0.1,0.2,0.1,0.5-0.2,0.7c-0.2,0.1-0.5,0.1-0.7-0.2l0,0l-2-3.5l-3.5,2c-0.2,0.1-0.5,0.1-0.7-0.2c-0.1-0.2-0.1-0.5,0.2-0.7
	L665.8,65.6L665.8,65.6z M661.9,79.4l3.6-13.5l1,0.3l-3.6,13.5L661.9,79.4L661.9,79.4z M692.4,81.6c-0.3,0.1-0.5,0-0.7-0.2l-1.9-4.1
	c-0.1-0.2,0-0.5,0.2-0.7c0.2-0.1,0.5,0,0.7,0.2c0,0,0,0,0,0l1.7,3.6l3.6-1.7c0.2-0.1,0.5,0,0.7,0.2c0.1,0.2,0,0.5-0.2,0.7
	c0,0,0,0,0,0L692.4,81.6z M696.8,67.5c0.3-0.1,0.5,0,0.7,0.2l1.9,4.1c0.1,0.3,0,0.5-0.3,0.7c-0.2,0.1-0.5,0-0.7-0.2l-1.7-3.6
	l-3.6,1.7c-0.3,0.1-0.5,0-0.7-0.3c-0.1-0.2,0-0.5,0.2-0.7L696.8,67.5z M691.7,81l4.8-13.2l0.9,0.3l-4.8,13.2L691.7,81z M723.3,84.2
	c-0.3,0.1-0.5,0-0.6-0.3c0,0,0,0,0,0l-1.5-4.2c-0.1-0.3,0-0.5,0.3-0.6c0.3-0.1,0.5,0,0.6,0.3l0,0l1.4,3.8l3.8-1.4
	c0.3-0.1,0.5,0,0.6,0.3s0,0.5-0.3,0.6l0,0L723.3,84.2L723.3,84.2z M728.8,70.5c0.3-0.1,0.5,0,0.6,0.3c0,0,0,0,0,0l1.5,4.2
	c0.1,0.3,0,0.5-0.3,0.6c-0.3,0.1-0.5,0-0.6-0.3l-1.4-3.8l-3.8,1.4c-0.3,0.1-0.5,0-0.6-0.3s0-0.5,0.3-0.6L728.8,70.5L728.8,70.5z
	 M722.6,83.5l5.9-12.7l0.9,0.4l-5.9,12.7C723.5,83.9,722.6,83.5,722.6,83.5z M753.1,87.6c-0.3,0.1-0.5-0.1-0.6-0.4l-1.2-4.3
	c-0.1-0.3,0.1-0.5,0.4-0.6c0.3-0.1,0.5,0.1,0.6,0.4l0,0l1,3.9l3.9-1c0.3-0.1,0.5,0.1,0.6,0.4c0.1,0.3-0.1,0.5-0.3,0.6
	C757.5,86.4,753.1,87.6,753.1,87.6z M759.9,74.5c0.3-0.1,0.5,0.1,0.6,0.4l1.2,4.3c0.1,0.3-0.1,0.5-0.4,0.6c-0.3,0.1-0.5-0.1-0.6-0.4
	l-1-3.9l-3.9,1c-0.3,0.1-0.5-0.1-0.6-0.4s0.1-0.5,0.4-0.6l0,0L759.9,74.5z M752.6,86.9l7-12.1l0.9,0.5l-7,12.1L752.6,86.9z
	 M783.1,91c-0.3,0-0.5-0.1-0.6-0.4c0,0,0,0,0,0l-0.8-4.4c0-0.3,0.1-0.5,0.4-0.6c0.3,0,0.5,0.1,0.6,0.4l0.7,3.9l3.9-0.7
	c0.3,0,0.5,0.1,0.6,0.4c0,0.3-0.1,0.5-0.4,0.6L783.1,91L783.1,91z M790.9,78.5c0.3,0,0.5,0.1,0.6,0.4l0.8,4.4c0,0.3-0.1,0.5-0.4,0.6
	c-0.3,0-0.5-0.1-0.6-0.4l-0.7-3.9l-3.9,0.7c-0.3,0-0.5-0.1-0.6-0.4c0-0.3,0.1-0.5,0.4-0.6l0,0L790.9,78.5L790.9,78.5z M782.6,90.2
	l8-11.5l0.8,0.6l-8,11.5L782.6,90.2L782.6,90.2z M813,95.2c-0.3,0-0.5-0.2-0.5-0.5c0,0,0,0,0,0l-0.4-4.5c0-0.3,0.2-0.5,0.4-0.6
	c0.3,0,0.5,0.2,0.6,0.4c0,0,0,0,0,0l0.3,4l4-0.3c0.3,0,0.5,0.2,0.6,0.4c0,0.3-0.2,0.5-0.4,0.6c0,0,0,0,0,0L813,95.2L813,95.2z
	 M822,83.5c0.3,0,0.5,0.2,0.5,0.5l0.4,4.5c0,0.3-0.2,0.5-0.4,0.6c-0.3,0-0.5-0.2-0.6-0.4c0,0,0,0,0,0l-0.3-4l-4,0.3
	c-0.3,0-0.5-0.2-0.6-0.4c0-0.3,0.2-0.5,0.4-0.6c0,0,0,0,0,0L822,83.5L822,83.5z M812.6,94.4l9-10.7l0.8,0.6l-9,10.7L812.6,94.4z
	 M842.1,100.4c-0.3,0-0.5-0.2-0.5-0.5v-4.5c0-0.3,0.2-0.5,0.5-0.5s0.5,0.2,0.5,0.5v4h4c0.3,0,0.5,0.2,0.5,0.5s-0.2,0.5-0.5,0.5
	H842.1z M852,89.5c0.3,0,0.5,0.2,0.5,0.5v4.5c0,0.3-0.2,0.5-0.5,0.5s-0.5-0.2-0.5-0.5v-4h-4c-0.3,0-0.5-0.2-0.5-0.5s0.2-0.5,0.5-0.5
	H852z M841.7,99.5l9.9-9.9l0.7,0.7l-9.9,9.9L841.7,99.5z M872.2,106.5c-0.3,0-0.5-0.3-0.5-0.5c0,0,0,0,0,0l0.4-4.5
	c0-0.3,0.3-0.5,0.5-0.5c0.3,0,0.5,0.3,0.5,0.5l-0.3,4l4,0.3c0.3,0,0.5,0.3,0.4,0.6c0,0.3-0.3,0.5-0.5,0.4L872.2,106.5L872.2,106.5z
	 M883,96.5c0.3,0,0.5,0.3,0.5,0.5l-0.4,4.5c0,0.3-0.3,0.5-0.5,0.5c-0.3,0-0.5-0.3-0.5-0.5c0,0,0,0,0,0l0.3-4l-4-0.3
	c-0.3,0-0.5-0.2-0.5-0.5c0-0.3,0.2-0.5,0.5-0.5c0,0,0,0,0,0L883,96.5L883,96.5z M872,105.6l10.7-9l0.6,0.8l-10.7,9L872,105.6z
	 M902.4,113.5c-0.3,0-0.5-0.3-0.4-0.6c0,0,0,0,0,0l0.8-4.4c0-0.3,0.3-0.5,0.6-0.4c0.3,0,0.5,0.3,0.4,0.6l-0.7,3.9l3.9,0.7
	c0.3,0,0.5,0.3,0.4,0.6c0,0.3-0.3,0.5-0.6,0.4L902.4,113.5z M914.1,104.5c0.3,0,0.5,0.3,0.4,0.6l-0.8,4.4c0,0.3-0.3,0.5-0.6,0.4
	c-0.3,0-0.5-0.3-0.4-0.6l0.7-3.9l-3.9-0.7c-0.3,0-0.5-0.3-0.4-0.6c0-0.3,0.3-0.5,0.6-0.4L914.1,104.5L914.1,104.5z M902.2,112.6
	l11.5-8l0.6,0.8l-11.5,8L902.2,112.6z M930.7,123.5c-0.3-0.1-0.4-0.3-0.4-0.6l1.2-4.3c0.1-0.3,0.4-0.4,0.6-0.3
	c0.2,0.1,0.4,0.3,0.3,0.6l-1,3.9l3.9,1c0.3,0.1,0.4,0.3,0.4,0.6s-0.3,0.4-0.6,0.4L930.7,123.5L930.7,123.5z M943.1,115.5
	c0.3,0.1,0.4,0.3,0.4,0.6l-1.2,4.3c-0.1,0.3-0.3,0.4-0.6,0.4c-0.3-0.1-0.4-0.3-0.4-0.6l1-3.9l-3.9-1c-0.3-0.1-0.4-0.3-0.4-0.6
	s0.3-0.4,0.6-0.4l0,0C938.8,114.4,943.1,115.5,943.1,115.5z M930.6,122.6l12.1-7l0.5,0.9l-12.1,7L930.6,122.6z M959.1,134.4
	c-0.3-0.1-0.4-0.4-0.3-0.6c0,0,0,0,0,0l1.5-4.2c0.1-0.3,0.4-0.4,0.6-0.3c0.3,0.1,0.4,0.4,0.3,0.6l-1.4,3.8l3.8,1.4
	c0.3,0.1,0.4,0.4,0.3,0.6s-0.4,0.4-0.6,0.3L959.1,134.4z M972.2,127.5c0.3,0.1,0.4,0.4,0.3,0.6l-1.5,4.2c-0.1,0.3-0.4,0.4-0.6,0.3
	c-0.3-0.1-0.4-0.4-0.3-0.6l1.4-3.8l-3.8-1.4c-0.3-0.1-0.4-0.4-0.3-0.6s0.4-0.4,0.6-0.3L972.2,127.5L972.2,127.5z M959.1,133.5
	l12.7-5.9l0.4,0.9l-12.7,5.9L959.1,133.5L959.1,133.5z M985.6,149.2c-0.3-0.1-0.4-0.4-0.2-0.7l1.9-4.1c0.1-0.3,0.4-0.4,0.7-0.2
	s0.4,0.4,0.2,0.7l-1.7,3.6l3.6,1.7c0.3,0.1,0.4,0.4,0.3,0.7c-0.1,0.3-0.4,0.4-0.7,0.3c0,0,0,0,0,0L985.6,149.2z M999.2,143.5
	c0.2,0.1,0.4,0.4,0.2,0.7c0,0,0,0,0,0l-1.9,4.1c-0.1,0.2-0.4,0.4-0.7,0.2c-0.2-0.1-0.3-0.4-0.2-0.7l1.7-3.6l-3.6-1.7
	c-0.2-0.1-0.4-0.4-0.2-0.7c0.1-0.2,0.4-0.3,0.7-0.2L999.2,143.5L999.2,143.5z M985.7,148.3l13.2-4.8l0.3,0.9l-13.2,4.8L985.7,148.3z
	 M1004.2,167.1c-0.2-0.1-0.3-0.4-0.2-0.7l2.2-3.9c0.1-0.2,0.4-0.3,0.7-0.2c0.2,0.1,0.3,0.4,0.2,0.7l-2,3.5l3.5,2
	c0.2,0.1,0.3,0.4,0.2,0.7c0,0,0,0,0,0c-0.1,0.2-0.4,0.3-0.7,0.2L1004.2,167.1z M1018.2,162.6c0.2,0.1,0.3,0.4,0.2,0.7l-2.2,3.9
	c-0.1,0.2-0.4,0.3-0.7,0.2s-0.3-0.4-0.2-0.7l2-3.5l-3.5-2c-0.2-0.1-0.3-0.4-0.2-0.7c0,0,0,0,0,0c0.1-0.2,0.4-0.3,0.7-0.2
	c0,0,0,0,0,0L1018.2,162.6L1018.2,162.6z M1004.3,166.1l13.5-3.6l0.3,1l-13.5,3.6L1004.3,166.1L1004.3,166.1z M1009.7,185.4
	c-0.2-0.2-0.2-0.5,0-0.7c0,0,0,0,0,0l3.2-3.2c0.2-0.2,0.5-0.2,0.7,0c0.2,0.2,0.2,0.5,0,0.7l-2.8,2.8l2.8,2.8c0.2,0.2,0.2,0.5,0,0.7
	c-0.2,0.2-0.5,0.2-0.7,0L1009.7,185.4L1009.7,185.4z M1024.3,184.6c0.2,0.2,0.2,0.5,0,0.7l-3.2,3.2c-0.2,0.2-0.5,0.2-0.7,0
	c-0.2-0.2-0.2-0.5,0-0.7l2.8-2.8l-2.8-2.8c-0.2-0.2-0.2-0.5,0-0.7c0.2-0.2,0.5-0.2,0.7,0L1024.3,184.6L1024.3,184.6z M1010,184.5h14
	v1h-14V184.5z M571.4,290.6c-0.2-0.2-0.5-0.2-0.7,0l-3.2,3.2c-0.2,0.2-0.2,0.5,0,0.7c0.2,0.2,0.5,0.2,0.7,0l2.8-2.8l2.8,2.8
	c0.2,0.2,0.5,0.2,0.7,0c0.2-0.2,0.2-0.5,0-0.7L571.4,290.6z M570.6,305.4c0.2,0.2,0.5,0.2,0.7,0c0,0,0,0,0,0l3.2-3.2
	c0.2-0.2,0.2-0.5-0.1-0.7c-0.2-0.2-0.5-0.2-0.7,0l-2.8,2.8l-2.8-2.8c-0.2-0.2-0.5-0.2-0.7,0.1c-0.2,0.2-0.2,0.5,0,0.7L570.6,305.4z
	 M570.5,291v14h1v-14H570.5z M602.1,290.7c-0.2-0.2-0.5-0.1-0.7,0.1l-2.9,3.4c-0.2,0.2-0.2,0.5,0.1,0.7c0.2,0.2,0.5,0.2,0.7-0.1
	l2.6-3.1l3.1,2.6c0.2,0.2,0.5,0.2,0.7,0c0.2-0.2,0.2-0.5,0-0.7c0,0,0,0,0,0L602.1,290.7L602.1,290.7z M602.7,305.4
	c0.2,0.2,0.5,0.1,0.7-0.1l2.9-3.4c0.2-0.2,0.2-0.5-0.1-0.7c-0.2-0.2-0.5-0.2-0.7,0.1l-2.6,3.1l-3.1-2.6c-0.2-0.2-0.5-0.2-0.7,0.1
	c-0.2,0.2-0.2,0.5,0.1,0.7L602.7,305.4L602.7,305.4z M601.3,291.1l1.2,13.9l1-0.1l-1.2-13.9L601.3,291.1z M632.9,290.8
	c-0.2-0.2-0.5-0.1-0.7,0.1l-2.6,3.7c-0.2,0.2-0.1,0.5,0.1,0.7c0.2,0.2,0.5,0.1,0.7-0.1l0,0l2.3-3.3l3.3,2.3c0.2,0.2,0.5,0.1,0.7-0.1
	c0.2-0.2,0.1-0.5-0.1-0.7L632.9,290.8L632.9,290.8z M634.7,305.4c0.2,0.2,0.5,0.1,0.7-0.1c0,0,0,0,0,0l2.6-3.7
	c0.2-0.2,0.1-0.5-0.1-0.7c-0.2-0.1-0.5-0.1-0.7,0.1l-2.3,3.3l-3.3-2.3c-0.2-0.1-0.5-0.1-0.7,0.2c-0.1,0.2-0.1,0.5,0.1,0.7
	L634.7,305.4L634.7,305.4z M632.1,291.3l2.4,13.8l1-0.2l-2.4-13.8L632.1,291.3z M662.6,289c-0.2-0.1-0.5-0.1-0.7,0.2l-2.2,3.9
	c-0.1,0.2-0.1,0.5,0.2,0.7c0.2,0.1,0.5,0.1,0.7-0.2l2-3.5l3.5,2c0.2,0.1,0.5,0.1,0.7-0.2c0.1-0.2,0.1-0.5-0.2-0.7L662.6,289
	L662.6,289z M665.8,303.4c0.2,0.1,0.5,0.1,0.7-0.2l2.2-3.9c0.1-0.2,0.1-0.5-0.2-0.7c-0.2-0.1-0.5-0.1-0.7,0.2l-2,3.5l-3.5-2
	c-0.2-0.1-0.5-0.1-0.7,0.2c-0.1,0.2-0.1,0.5,0.2,0.7L665.8,303.4L665.8,303.4z M661.9,289.6l3.6,13.5l1-0.3l-3.6-13.5L661.9,289.6
	L661.9,289.6z M692.4,287.4c-0.3-0.1-0.5,0-0.7,0.2l-1.9,4.1c-0.1,0.2,0,0.5,0.2,0.7c0.2,0.1,0.5,0,0.7-0.2c0,0,0,0,0,0l1.7-3.6
	l3.6,1.7c0.3,0.1,0.5,0,0.7-0.2s0-0.5-0.2-0.7L692.4,287.4z M696.8,301.5c0.2,0.1,0.5,0,0.7-0.2l1.9-4.1c0.1-0.3,0-0.5-0.3-0.7
	c-0.2-0.1-0.5,0-0.7,0.2l-1.7,3.6l-3.6-1.7c-0.3-0.1-0.5,0-0.7,0.3c-0.1,0.2,0,0.5,0.2,0.7L696.8,301.5z M691.7,288l4.8,13.2
	l0.9-0.3l-4.8-13.2L691.7,288z M723.3,284.8c-0.3-0.1-0.5,0-0.6,0.3c0,0,0,0,0,0l-1.5,4.2c-0.1,0.3,0,0.5,0.3,0.6
	c0.3,0.1,0.5,0,0.6-0.3l1.4-3.8l3.8,1.4c0.3,0.1,0.5,0,0.6-0.3s0-0.5-0.3-0.6L723.3,284.8L723.3,284.8z M728.8,298.5
	c0.3,0.1,0.5,0,0.6-0.3c0,0,0,0,0,0l1.5-4.2c0.1-0.3,0-0.5-0.3-0.6c-0.3-0.1-0.5,0-0.6,0.3l-1.4,3.8l-3.8-1.4
	c-0.3-0.1-0.5,0-0.6,0.3s0,0.5,0.3,0.6L728.8,298.5L728.8,298.5z M722.6,285.5l5.9,12.7l0.9-0.4l-5.9-12.7L722.6,285.5z
	 M753.1,281.4c-0.3-0.1-0.5,0.1-0.6,0.4l-1.2,4.3c-0.1,0.3,0.1,0.5,0.4,0.6c0.3,0.1,0.5-0.1,0.6-0.4l1-3.9l3.9,1
	c0.3,0.1,0.5-0.1,0.6-0.4s-0.1-0.5-0.4-0.6L753.1,281.4z M759.9,294.5c0.3,0.1,0.5-0.1,0.6-0.4l1.2-4.3c0.1-0.3-0.1-0.5-0.4-0.6
	c-0.2-0.1-0.5,0.1-0.6,0.3l-1,3.9l-3.9-1c-0.3-0.1-0.5,0.1-0.6,0.4c-0.1,0.2,0.1,0.5,0.3,0.6L759.9,294.5z M752.6,282.1l7,12.1
	l0.9-0.5l-7-12.1L752.6,282.1z M783.1,278c-0.3,0-0.5,0.1-0.6,0.4l-0.8,4.4c0,0.3,0.1,0.5,0.4,0.6c0.3,0,0.5-0.1,0.6-0.4l0.7-3.9
	l3.9,0.7c0.3,0,0.5-0.1,0.6-0.4s-0.1-0.5-0.4-0.6L783.1,278L783.1,278z M790.9,290.5c0.3,0,0.5-0.1,0.6-0.4l0.8-4.4
	c0-0.3-0.1-0.5-0.4-0.6c-0.3,0-0.5,0.1-0.6,0.4l-0.7,3.9l-3.9-0.7c-0.3,0-0.5,0.1-0.6,0.4s0.1,0.5,0.4,0.6l0,0L790.9,290.5
	L790.9,290.5z M782.6,278.8l8,11.5l0.8-0.6l-8-11.5L782.6,278.8L782.6,278.8z M813,273.8c-0.3,0-0.5,0.2-0.5,0.5c0,0,0,0,0,0
	l-0.4,4.5c0,0.3,0.2,0.5,0.4,0.6c0.3,0,0.5-0.2,0.6-0.4c0,0,0,0,0,0l0.3-4l4,0.3c0.3,0,0.5-0.2,0.5-0.5s-0.2-0.5-0.5-0.5L813,273.8
	L813,273.8z M822,285.5c0.3,0,0.5-0.2,0.5-0.5l0.4-4.5c0-0.3-0.2-0.5-0.4-0.6c-0.3,0-0.5,0.2-0.6,0.4c0,0,0,0,0,0l-0.3,4l-4-0.3
	c-0.3,0-0.5,0.2-0.6,0.4c0,0.3,0.2,0.5,0.4,0.6c0,0,0,0,0,0L822,285.5L822,285.5z M812.6,274.6l9,10.7l0.8-0.6l-9-10.7L812.6,274.6z
	 M842.1,268.6c-0.3,0-0.5,0.2-0.5,0.5v4.5c0,0.3,0.2,0.5,0.5,0.5s0.5-0.2,0.5-0.5v-4h4c0.3,0,0.5-0.2,0.5-0.5s-0.2-0.5-0.5-0.5
	H842.1z M852,279.5c0.3,0,0.5-0.2,0.5-0.5v-4.5c0-0.3-0.2-0.5-0.5-0.5s-0.5,0.2-0.5,0.5v4h-4c-0.3,0-0.5,0.2-0.5,0.5
	s0.2,0.5,0.5,0.5H852z M841.7,269.5l9.9,9.9l0.7-0.7l-9.9-9.9L841.7,269.5z M872.2,262.5c-0.3,0-0.5,0.3-0.5,0.5c0,0,0,0,0,0
	l0.4,4.5c0,0.3,0.3,0.5,0.5,0.5c0.3,0,0.5-0.3,0.5-0.5l-0.3-4l4-0.3c0.3,0,0.5-0.3,0.4-0.6c0-0.3-0.3-0.5-0.5-0.4L872.2,262.5
	L872.2,262.5z M883,272.5c0.3,0,0.5-0.3,0.5-0.5l-0.4-4.5c0-0.3-0.3-0.5-0.5-0.5c-0.3,0-0.5,0.3-0.5,0.5c0,0,0,0,0,0l0.3,4l-4,0.3
	c-0.3,0-0.5,0.3-0.5,0.5c0,0.3,0.3,0.5,0.5,0.5c0,0,0,0,0,0L883,272.5L883,272.5z M872,263.4l10.7,9l0.6-0.8l-10.7-9L872,263.4z
	 M902.4,255.5c-0.3,0-0.5,0.3-0.4,0.6c0,0,0,0,0,0l0.8,4.4c0,0.3,0.3,0.5,0.6,0.4c0.3,0,0.5-0.3,0.4-0.6l-0.7-3.9l3.9-0.7
	c0.3,0,0.5-0.3,0.4-0.6c0-0.3-0.3-0.5-0.6-0.4L902.4,255.5z M914.1,264.5c0.3,0,0.5-0.3,0.4-0.6l-0.8-4.4c0-0.3-0.3-0.5-0.6-0.4
	c-0.3,0-0.5,0.3-0.4,0.6l0.7,3.9l-3.9,0.7c-0.3,0-0.5,0.3-0.4,0.6s0.3,0.5,0.6,0.4l0,0L914.1,264.5L914.1,264.5z M902.2,256.4
	l11.5,8l0.6-0.8l-11.5-8L902.2,256.4z M930.7,245.5c-0.3,0.1-0.4,0.3-0.4,0.6l1.2,4.3c0.1,0.3,0.4,0.4,0.6,0.3
	c0.2-0.1,0.4-0.3,0.3-0.6l-1-3.9l3.9-1c0.3-0.1,0.4-0.3,0.4-0.6s-0.3-0.4-0.6-0.4L930.7,245.5L930.7,245.5z M943.1,253.5
	c0.3-0.1,0.4-0.3,0.4-0.6l-1.2-4.3c-0.1-0.3-0.3-0.4-0.6-0.4c-0.3,0.1-0.4,0.3-0.4,0.6l1,3.9l-3.9,1c-0.3,0.1-0.4,0.3-0.4,0.6
	s0.3,0.4,0.6,0.4L943.1,253.5L943.1,253.5z M930.6,246.4l12.1,7l0.5-0.9l-12.1-7L930.6,246.4z M959.1,234.6
	c-0.3,0.1-0.4,0.4-0.3,0.6c0,0,0,0,0,0l1.5,4.2c0.1,0.3,0.4,0.4,0.6,0.3c0.3-0.1,0.4-0.4,0.3-0.6l0,0l-1.4-3.8l3.8-1.4
	c0.3-0.1,0.4-0.4,0.3-0.6s-0.4-0.4-0.6-0.3l0,0L959.1,234.6z M972.2,241.5c0.3-0.1,0.4-0.4,0.3-0.6l-1.5-4.2
	c-0.1-0.3-0.4-0.4-0.6-0.3c-0.3,0.1-0.4,0.4-0.3,0.6l0,0l1.4,3.8l-3.8,1.4c-0.3,0.1-0.4,0.4-0.3,0.6s0.4,0.4,0.6,0.3L972.2,241.5
	L972.2,241.5z M959.1,235.5l12.7,5.9l0.4-0.9l-12.7-5.9L959.1,235.5L959.1,235.5z M985.6,219.8c-0.3,0.1-0.4,0.4-0.2,0.7l1.9,4.1
	c0.1,0.3,0.4,0.4,0.7,0.2s0.4-0.4,0.2-0.7l-1.7-3.6l3.6-1.7c0.3-0.1,0.4-0.4,0.3-0.7c-0.1-0.3-0.4-0.4-0.7-0.3c0,0,0,0,0,0
	L985.6,219.8z M999.2,225.5c0.2-0.1,0.4-0.4,0.2-0.7c0,0,0,0,0,0l-1.9-4.1c-0.1-0.2-0.4-0.4-0.7-0.2c-0.2,0.1-0.3,0.4-0.2,0.7
	l1.7,3.6l-3.6,1.7c-0.2,0.1-0.4,0.4-0.2,0.7c0.1,0.2,0.4,0.3,0.7,0.2L999.2,225.5L999.2,225.5z M985.7,220.7l13.2,4.8l0.3-0.9
	l-13.2-4.8L985.7,220.7z M1004.2,201.9c-0.2,0.1-0.3,0.4-0.2,0.7l2.2,3.9c0.1,0.2,0.5,0.3,0.7,0.2c0.2-0.1,0.3-0.4,0.2-0.7
	c0,0,0,0,0,0l-2-3.5l3.5-2c0.2-0.1,0.3-0.4,0.2-0.7c0,0,0,0,0,0c-0.1-0.2-0.4-0.3-0.7-0.2L1004.2,201.9z M1018.2,206.4
	c0.2-0.1,0.3-0.4,0.2-0.7c0,0,0,0,0,0l-2.2-3.9c-0.1-0.2-0.4-0.3-0.7-0.2s-0.3,0.4-0.2,0.7l2,3.5l-3.5,2c-0.2,0.1-0.3,0.4-0.2,0.7
	c0,0,0,0,0,0c0.1,0.2,0.4,0.3,0.7,0.2L1018.2,206.4L1018.2,206.4z M1004.3,202.9l13.5,3.6l0.3-1l-13.5-3.6L1004.3,202.9
	L1004.3,202.9z M539.9,290.7c0.2-0.2,0.5-0.1,0.7,0.1l2.9,3.4c0.2,0.2,0.2,0.5-0.1,0.7c-0.2,0.2-0.5,0.2-0.7-0.1l-2.6-3.1l-3.1,2.6
	c-0.2,0.2-0.5,0.2-0.7,0c-0.2-0.2-0.2-0.5,0-0.7c0,0,0,0,0,0L539.9,290.7L539.9,290.7z M539.3,305.4c-0.2,0.2-0.5,0.1-0.7-0.1
	l-2.9-3.4c-0.2-0.2-0.2-0.5,0.1-0.7c0.2-0.2,0.5-0.2,0.7,0.1l2.6,3.1l3.1-2.6c0.2-0.2,0.5-0.2,0.7,0.1c0.2,0.2,0.2,0.5-0.1,0.7l0,0
	L539.3,305.4L539.3,305.4z M540.7,291.1l-1.2,13.9l-1-0.1l1.2-13.9L540.7,291.1z M509.1,290.8c0.2-0.2,0.5-0.1,0.7,0.1l2.6,3.7
	c0.2,0.2,0.1,0.5-0.1,0.7s-0.5,0.1-0.7-0.1l-2.3-3.3l-3.3,2.3c-0.2,0.2-0.5,0.1-0.7-0.1s-0.1-0.5,0.1-0.7L509.1,290.8L509.1,290.8z
	 M507.3,305.4c-0.2,0.2-0.5,0.1-0.7-0.1c0,0,0,0,0,0l-2.6-3.7c-0.2-0.2-0.1-0.5,0.1-0.7c0.2-0.1,0.5-0.1,0.7,0.1l2.3,3.3l3.3-2.3
	c0.2-0.1,0.5-0.1,0.7,0.2c0.1,0.2,0.1,0.5-0.1,0.7L507.3,305.4L507.3,305.4z M509.9,291.3l-2.4,13.8l-1-0.2l2.4-13.8L509.9,291.3z
	 M479.4,289c0.2-0.1,0.5-0.1,0.7,0.2l0,0l2.2,3.9c0.1,0.2,0.1,0.5-0.2,0.7c-0.2,0.1-0.5,0.1-0.7-0.2l-2-3.5l-3.5,2
	c-0.2,0.1-0.5,0.1-0.7-0.2c-0.1-0.2-0.1-0.5,0.2-0.7L479.4,289L479.4,289z M476.2,303.4c-0.2,0.1-0.5,0.1-0.7-0.2l0,0l-2.2-3.9
	c-0.1-0.2-0.1-0.5,0.2-0.7c0.2-0.1,0.5-0.1,0.7,0.2l2,3.5l3.5-2c0.2-0.1,0.5-0.1,0.7,0.2c0.1,0.2,0.1,0.5-0.2,0.7L476.2,303.4
	L476.2,303.4z M480.1,289.6l-3.6,13.5l-1-0.3l3.6-13.5L480.1,289.6z M449.6,287.4c0.3-0.1,0.5,0,0.7,0.2l1.9,4.1
	c0.1,0.2,0,0.5-0.2,0.7c-0.2,0.1-0.5,0-0.7-0.2c0,0,0,0,0,0l-1.7-3.6l-3.6,1.7c-0.3,0.1-0.5,0-0.7-0.2s0-0.5,0.2-0.7L449.6,287.4z
	 M445.2,301.5c-0.3,0.1-0.5,0-0.7-0.2l-1.9-4.1c-0.1-0.3,0-0.5,0.3-0.7c0.2-0.1,0.5,0,0.7,0.2l1.7,3.6l3.6-1.7
	c0.3-0.1,0.5,0,0.7,0.3c0.1,0.2,0,0.5-0.2,0.7L445.2,301.5z M450.3,288l-4.8,13.2l-0.9-0.3l4.8-13.2L450.3,288z M418.7,284.8
	c0.3-0.1,0.5,0,0.6,0.3c0,0,0,0,0,0l1.5,4.2c0.1,0.3,0,0.5-0.3,0.6c-0.3,0.1-0.5,0-0.6-0.3l-1.4-3.8l-3.8,1.4
	c-0.3,0.1-0.5,0-0.6-0.3c-0.1-0.3,0-0.5,0.3-0.6L418.7,284.8L418.7,284.8z M413.2,298.5c-0.3,0.1-0.5,0-0.6-0.3c0,0,0,0,0,0
	l-1.5-4.2c-0.1-0.3,0-0.5,0.3-0.6c0.3-0.1,0.5,0,0.6,0.3l0,0l1.4,3.8l3.8-1.4c0.3-0.1,0.5,0,0.6,0.3c0.1,0.3,0,0.5-0.3,0.6
	L413.2,298.5L413.2,298.5z M419.4,285.5l-5.9,12.7l-0.9-0.4l5.9-12.7L419.4,285.5z M388.9,281.4c0.3-0.1,0.5,0.1,0.6,0.4l1.2,4.3
	c0.1,0.3-0.1,0.5-0.4,0.6c-0.3,0.1-0.5-0.1-0.6-0.4l-1-3.9l-3.9,1c-0.3,0.1-0.5-0.1-0.6-0.4c-0.1-0.3,0.1-0.5,0.4-0.6l0,0
	L388.9,281.4L388.9,281.4z M382.1,294.5c-0.3,0.1-0.5-0.1-0.6-0.4l-1.2-4.3c-0.1-0.3,0.1-0.5,0.4-0.6c0.2-0.1,0.5,0.1,0.6,0.3l1,3.9
	l3.9-1c0.3-0.1,0.5,0.1,0.6,0.4c0.1,0.2-0.1,0.5-0.3,0.6L382.1,294.5L382.1,294.5z M389.4,282.1l-7,12.1l-0.9-0.5l7-12.1
	L389.4,282.1z M358.9,278c0.3,0,0.5,0.1,0.6,0.4l0.8,4.4c0,0.3-0.1,0.5-0.4,0.6c-0.3,0-0.5-0.1-0.6-0.4l-0.7-3.9l-3.9,0.7
	c-0.3,0-0.5-0.1-0.6-0.4c0-0.3,0.1-0.5,0.4-0.6L358.9,278L358.9,278z M351.1,290.5c-0.3,0-0.5-0.1-0.6-0.4l-0.8-4.4
	c0-0.3,0.1-0.5,0.4-0.6s0.5,0.1,0.6,0.4l0,0l0.7,3.9l3.9-0.7c0.3,0,0.5,0.1,0.6,0.4c0,0.3-0.1,0.5-0.4,0.6L351.1,290.5L351.1,290.5z
	 M359.4,278.8l-8,11.5l-0.8-0.6l8-11.5L359.4,278.8z M329,273.8c0.3,0,0.5,0.2,0.5,0.5c0,0,0,0,0,0l0.4,4.5c0,0.3-0.2,0.5-0.4,0.6
	c-0.3,0-0.5-0.2-0.6-0.4c0,0,0,0,0,0l-0.3-4l-4,0.3c-0.3,0-0.5-0.2-0.5-0.5c0-0.3,0.2-0.5,0.5-0.5L329,273.8z M320,285.5
	c-0.3,0-0.5-0.2-0.5-0.5l-0.4-4.5c0-0.3,0.2-0.5,0.5-0.5c0.3,0,0.5,0.2,0.5,0.4l0.3,4l4-0.3c0.3,0,0.5,0.2,0.6,0.4
	c0,0.3-0.2,0.5-0.4,0.6c0,0,0,0,0,0L320,285.5L320,285.5z M329.4,274.6l-9,10.7l-0.8-0.6l9-10.7L329.4,274.6z M299.9,268.6
	c0.3,0,0.5,0.2,0.5,0.5v4.5c0,0.3-0.2,0.5-0.5,0.5s-0.5-0.2-0.5-0.5v-4h-4c-0.3,0-0.5-0.2-0.5-0.5s0.2-0.5,0.5-0.5H299.9z
	 M290,279.5c-0.3,0-0.5-0.2-0.5-0.5v-4.5c0-0.3,0.2-0.5,0.5-0.5s0.5,0.2,0.5,0.5v4h4c0.3,0,0.5,0.2,0.5,0.5s-0.2,0.5-0.5,0.5H290z
	 M300.3,269.5l-9.9,9.9l-0.7-0.7l9.9-9.9L300.3,269.5z M269.8,262.5c0.3,0,0.5,0.3,0.5,0.5l-0.4,4.5c0,0.3-0.3,0.5-0.6,0.4
	c-0.3,0-0.4-0.3-0.4-0.5l0.3-4l-4-0.3c-0.3,0-0.5-0.3-0.4-0.6c0-0.3,0.3-0.5,0.5-0.4L269.8,262.5z M259,272.5
	c-0.3,0-0.5-0.3-0.5-0.5l0.4-4.5c0-0.3,0.3-0.5,0.5-0.4c0.3,0,0.5,0.3,0.4,0.5l-0.3,4l4,0.3c0.3,0,0.5,0.3,0.5,0.5
	c0,0.3-0.3,0.5-0.5,0.5c0,0,0,0,0,0L259,272.5L259,272.5z M270,263.4l-10.7,9l-0.6-0.8l10.7-9L270,263.4z M239.6,255.5
	c0.3,0,0.5,0.3,0.4,0.6c0,0,0,0,0,0l-0.8,4.4c0,0.3-0.3,0.5-0.6,0.4c-0.3,0-0.5-0.3-0.4-0.6l0,0l0.7-3.9l-3.9-0.7
	c-0.3,0-0.5-0.3-0.4-0.6c0-0.3,0.3-0.5,0.6-0.4L239.6,255.5L239.6,255.5z M227.9,264.5c-0.3,0-0.5-0.3-0.4-0.6l0.8-4.4
	c0-0.3,0.3-0.5,0.6-0.4c0.3,0,0.5,0.3,0.4,0.6l-0.7,3.9l3.9,0.7c0.3,0,0.5,0.3,0.4,0.6c0,0.3-0.3,0.5-0.6,0.4L227.9,264.5
	L227.9,264.5z M239.8,256.4l-11.5,8l-0.6-0.8l11.5-8L239.8,256.4z M211.3,245.5c0.3,0.1,0.4,0.3,0.4,0.6c0,0,0,0,0,0l-1.2,4.3
	c-0.1,0.3-0.4,0.4-0.6,0.3c-0.2-0.1-0.4-0.3-0.3-0.6l1-3.9l-3.9-1c-0.3-0.1-0.4-0.3-0.4-0.6s0.3-0.4,0.6-0.4L211.3,245.5
	L211.3,245.5z M198.9,253.5c-0.3-0.1-0.4-0.3-0.4-0.6l1.2-4.3c0.1-0.3,0.3-0.4,0.6-0.4s0.4,0.3,0.4,0.6l-1,3.9l3.9,1
	c0.3,0.1,0.4,0.3,0.4,0.6s-0.3,0.4-0.6,0.4L198.9,253.5L198.9,253.5z M211.4,246.4l-12.1,7l-0.5-0.9l12.1-7L211.4,246.4z
	 M182.9,234.6c0.3,0.1,0.4,0.4,0.3,0.6c0,0,0,0,0,0l-1.5,4.2c-0.1,0.3-0.4,0.4-0.6,0.3c-0.3-0.1-0.4-0.4-0.3-0.6l1.4-3.8l-3.8-1.4
	c-0.3-0.1-0.4-0.4-0.3-0.6c0.1-0.3,0.4-0.4,0.6-0.3L182.9,234.6L182.9,234.6z M169.8,241.5c-0.3-0.1-0.4-0.4-0.3-0.6l1.5-4.2
	c0.1-0.3,0.4-0.4,0.6-0.3c0.3,0.1,0.4,0.4,0.3,0.6l-1.4,3.8l3.8,1.4c0.3,0.1,0.4,0.4,0.3,0.6c-0.1,0.3-0.4,0.4-0.6,0.3l0,0
	L169.8,241.5L169.8,241.5z M182.9,235.5l-12.7,5.9l-0.4-0.9l12.7-5.9L182.9,235.5L182.9,235.5z M156.4,219.8
	c0.3,0.1,0.4,0.4,0.2,0.7c0,0,0,0,0,0l-1.9,4.1c-0.1,0.3-0.4,0.4-0.7,0.2s-0.4-0.4-0.2-0.7l0,0l1.7-3.6l-3.6-1.7
	c-0.3-0.1-0.4-0.4-0.3-0.7c0.1-0.3,0.4-0.4,0.7-0.3c0,0,0,0,0,0L156.4,219.8L156.4,219.8z M142.8,225.5c-0.2-0.1-0.4-0.4-0.2-0.7
	c0,0,0,0,0,0l1.9-4.1c0.1-0.2,0.4-0.4,0.7-0.2c0.2,0.1,0.3,0.4,0.2,0.7l-1.7,3.6l3.6,1.7c0.2,0.1,0.4,0.4,0.2,0.7
	c-0.1,0.2-0.4,0.3-0.7,0.2L142.8,225.5L142.8,225.5z M156.3,220.7l-13.2,4.8l-0.3-0.9l13.2-4.8L156.3,220.7z M137.8,201.9
	c0.2,0.1,0.3,0.4,0.2,0.7l-2.2,3.9c-0.1,0.2-0.4,0.3-0.7,0.2c-0.2-0.1-0.3-0.4-0.2-0.7l2-3.5l-3.5-2c-0.2-0.1-0.3-0.4-0.2-0.7
	c0.1-0.2,0.4-0.3,0.7-0.2c0,0,0,0,0,0L137.8,201.9z M123.7,206.4c-0.2-0.1-0.3-0.4-0.2-0.7l2.2-3.9c0.1-0.2,0.4-0.3,0.7-0.2
	c0.2,0.1,0.3,0.4,0.2,0.7l-2,3.5l3.5,2c0.2,0.1,0.3,0.4,0.2,0.7c-0.1,0.2-0.4,0.3-0.7,0.2C127.6,208.7,123.7,206.4,123.7,206.4z
	 M137.7,202.9l-13.5,3.6l-0.3-1l13.5-3.6L137.7,202.9L137.7,202.9z M560,359.8l8.5-4.9l8.5-4.9v19.5l-8.5-4.7L560,359.8L560,359.8z
	 M579.9,10.4l-8.5,4.9L563,20V0.5l8.5,4.9L579.9,10.4z"/>
<path class="st0" d="M567.8,10.6c307.2,0,556.3,77.9,556.3,174.1s-249,174.1-556.3,174.1S11.6,280.9,11.6,184.7
	S260.6,10.6,567.8,10.6z M567.8,9C419.1,9,279.3,27.1,174,60.2C68.2,93.2,10,137.5,10,184.7c0,47.2,58.2,91.5,164,124.5
	c105.2,32.9,245.1,51.2,393.8,51.2s288.6-18.1,393.8-51.2c105.8-33.1,164-77.3,164-124.5c0-47.2-58.4-91.5-164-124.5
	C856.4,27.1,716.5,9,567.8,9z"/>
<path class="st0" d="M567.5,84.8c236,0,427.4,44.7,427.4,99.8s-191.4,99.8-427.4,99.8c-236,0-427.4-44.7-427.4-99.8
	S331.3,84.8,567.5,84.8L567.5,84.8z M567.5,84.2c-114.3,0-221.7,10.4-302.3,29.3c-81,18.9-125.5,44.1-125.5,71s44.5,52.1,125.3,71
	s188.2,29.3,302.3,29.3s221.7-10.4,302.3-29.3c81-18.9,125.5-44.1,125.5-71s-44.3-52.1-125.3-71C789,94.6,681.6,84.2,567.5,84.2z"/>
<path class="st0" d="M567.5,88.7c226.6,0,410.1,42.9,410.1,95.6c0,52.7-183.5,95.6-410.1,95.6c-226.6,0-410.1-42.9-410.1-95.6
	C157.4,131.6,340.9,88.7,567.5,88.7z M567.5,88.3c-109.6,0-212.6,10-290.1,28.1c-77.7,17.9-120.6,42.3-120.6,68.1
	s42.9,50,120.6,68.1c77.5,18.1,180.6,28.1,290.1,28.1c109.6,0,212.6-10,290.1-28.1c77.7-18.1,120.6-42.3,120.6-68.1
	s-42.9-50.2-120.6-68.3C780.1,98.1,677.1,88.3,567.5,88.3L567.5,88.3z"/>
<path class="st0" d="M567.5,92.8c217,0,392.8,41.1,392.8,91.7s-175.8,91.7-392.8,91.7c-217,0-392.8-41.1-392.8-91.7
	C174.7,133.7,350.6,92.8,567.5,92.8L567.5,92.8z M567.5,92.2c-105,0-203.6,9.4-277.9,27c-74.4,17.3-115.5,40.5-115.5,65.3
	s40.9,48,115.5,65.3c74.2,17.3,172.9,27,277.9,27c105,0,203.6-9.4,277.9-27c74.4-17.3,115.5-40.5,115.5-65.3s-40.9-48-115.5-65.3
	C771.1,101.9,672.4,92.2,567.5,92.2L567.5,92.2z"/>
<path class="st0" d="M567.5,96.8c207.3,0,375.5,39.2,375.5,87.6s-168,87.6-375.5,87.6c-207.3,0-375.5-39.2-375.5-87.6
	C192,136.1,360.2,96.8,567.5,96.8L567.5,96.8z M567.5,96.4c-100.3,0-194.5,9.1-265.5,25.6c-71.2,16.5-110.3,38.8-110.3,62.4
	s39.1,45.8,110.3,62.4c71,16.5,165.2,25.6,265.5,25.6c100.3,0,194.5-9,265.5-25.6c71.2-16.5,110.3-38.8,110.3-62.4
	s-39.1-45.8-110.3-62.4C762,105.4,667.8,96.4,567.5,96.4L567.5,96.4z"/>
<path class="st0" d="M567.5,100.9c197.7,0,358,37.4,358,83.6s-160.3,83.6-358,83.6c-197.7,0-358-37.4-358-83.6
	S369.6,100.9,567.5,100.9L567.5,100.9z M567.5,100.5c-95.6,0-185.7,8.7-253.3,24.4c-67.9,15.9-105.2,37-105.2,59.6
	s37.4,43.7,105.2,59.6c67.7,15.7,157.6,24.4,253.3,24.4c95.6,0,185.7-8.7,253.3-24.4c67.9-15.9,105.2-37,105.2-59.6
	s-37.4-43.7-105.2-59.6C753,109.1,663.1,100.5,567.5,100.5z"/>
<path class="st0" d="M567.5,105c188.2,0,340.7,35.6,340.7,79.5S755.8,264,567.5,264c-188.2,0-340.7-35.6-340.7-79.5
	S379.3,105,567.5,105z M567.5,104.4c-91.1,0-176.6,8.3-241,23.2c-64.5,15.1-100.1,35.2-100.1,56.7c0,21.4,35.6,41.7,100.1,56.7
	c64.3,15,149.9,23.2,241,23.2c91.1,0,176.6-8.3,241-23.2c64.5-15.1,100.1-35.2,100.1-56.7c0-21.4-35.6-41.7-100.1-56.7
	C744.1,112.7,658.4,104.4,567.5,104.4z"/>
<path class="st0" d="M567.5,109c178.6,0,323.4,33.8,323.4,75.6s-144.8,75.6-323.4,75.6c-178.6,0-323.4-33.8-323.4-75.6
	S388.9,109,567.5,109z M567.5,108.6c-86.4,0-167.6,7.9-228.8,22c-61.4,14.4-95,33.4-95,53.9s33.8,39.5,95,53.9
	c61.2,14.2,142.4,22,228.8,22c86.4,0,167.6-7.9,228.8-22c61.4-14.4,95-33.4,95-53.9s-33.8-39.5-95-53.9
	C735.1,116.4,653.9,108.6,567.5,108.6L567.5,108.6z"/>
<path class="st0" d="M567.5,113.1c169,0,306.1,31.9,306.1,71.4s-136.9,71.4-306.1,71.4c-169,0-306.1-31.9-306.1-71.4
	S398.5,113.1,567.5,113.1z M567.5,112.5c-81.8,0-158.7,7.5-216.4,20.9c-58,13.6-90.1,31.7-90.1,51c0,19.3,31.9,37.4,90.1,51
	c57.8,13.6,134.7,20.9,216.4,20.9c81.8,0,158.7-7.5,216.4-20.9c58-13.6,90.1-31.7,90.1-51c0-19.3-31.9-37.4-90.1-51
	C726.1,120,649.1,112.5,567.5,112.5z"/>
<path class="st0" d="M567.5,117c159.3,0,288.6,30.1,288.6,67.3c0,37.2-129.2,67.3-288.6,67.3c-159.3,0-288.6-30.1-288.6-67.3
	C278.8,147.3,408,117,567.5,117z M567.5,116.6c-77.1,0-149.7,7.1-204.2,19.7c-54.7,12.8-85,29.9-85,48.2s30.1,35.4,85,48.2
	c54.5,12.8,127.1,19.7,204.2,19.7c77.1,0,149.7-7.1,204.2-19.7c54.7-12.8,85-29.9,85-48.2s-30.1-35.4-85-48.2
	C717,123.7,644.6,116.6,567.5,116.6z"/>
<path class="st0" d="M567.5,121.2c149.9,0,271.2,28.3,271.2,63.4s-121.4,63.4-271.2,63.4c-149.9,0-271.2-28.3-271.2-63.4
	S417.6,121.2,567.5,121.2z M567.5,120.6c-72.6,0-140.6,6.5-192,18.5c-51.5,12-79.9,28.1-79.9,45.3s28.3,33.3,79.9,45.3
	c51.3,12,119.4,18.5,192,18.5c72.6,0,140.6-6.5,192-18.5c51.5-12,79.9-28.1,79.9-45.3s-28.3-33.2-79.9-45.3
	C708.2,127.3,639.9,120.6,567.5,120.6L567.5,120.6z"/>
<path class="st3" d="M564.5,322.9c0-3.5,2.9-6.4,6.4-6.4c3.5,0,6.4,2.9,6.4,6.4c0,3.5-2.9,6.4-6.4,6.4
	C567.4,329.3,564.5,326.4,564.5,322.9z M532.6,322.5c0-3.5,2.9-6.2,6.4-6.2s6.2,2.9,6.2,6.4c0,3.5-2.9,6.2-6.4,6.2
	S532.4,326,532.6,322.5z M602.8,328.9c-3.5,0-6.4-2.7-6.4-6.2c0-3.5,2.7-6.4,6.2-6.4c3.5,0,6.4,2.7,6.4,6.2
	C609,326,606.3,328.9,602.8,328.9z M506.7,328.1c-3.5-0.2-6.2-3.1-6-6.6c0.2-3.5,3.1-6.2,6.6-6s6.2,3.1,6,6.6c-0.2,3.3-2.9,6-6.4,6
	H506.7z M628.2,321.9c-0.2-3.5,2.5-6.4,6-6.6c3.5-0.2,6.4,2.5,6.6,6c0.2,3.5-2.5,6.4-6,6.6h-0.2
	C631.1,328.1,628.5,325.4,628.2,321.9z M474.6,326.4c-3.5-0.2-6.2-3.3-6-6.6c0.2-3.5,3.1-6.2,6.6-6c3.5,0.2,6.2,3.3,6,6.6
	c-0.2,3.3-2.9,6-6.4,6L474.6,326.4L474.6,326.4z M660.1,320.4c-0.2-3.5,2.5-6.4,6-6.6s6.4,2.5,6.6,6c0.2,3.5-2.5,6.4-6,6.6h-0.4
	C663.2,326.4,660.3,323.7,660.1,320.4L660.1,320.4z M442.7,324.1c-3.5-0.2-6-3.3-5.8-6.8c0.2-3.5,3.3-6,6.8-5.8
	c3.5,0.2,6,3.3,5.8,6.8c-0.2,3.3-3.1,5.8-6.2,5.8L442.7,324.1L442.7,324.1z M692,318.3c-0.2-3.5,2.3-6.6,5.8-6.8s6.6,2.3,6.8,5.8
	s-2.3,6.6-5.8,6.8h-0.6C695.1,324.1,692.2,321.4,692,318.3L692,318.3z M410.8,321c-3.5-0.4-6-3.5-5.6-7c0.4-3.5,3.5-6,7-5.6
	c3.5,0.4,6,3.5,5.6,7c-0.4,3.3-3.1,5.6-6.2,5.6H410.8z M723.7,315.2c-0.4-3.5,2.1-6.6,5.6-7c3.5-0.4,6.6,2.1,7,5.6
	c0.4,3.5-2.1,6.6-5.6,7h-0.6C726.8,321,724.1,318.5,723.7,315.2z M379,317.1c-3.5-0.4-6-3.7-5.4-7c0.4-3.5,3.7-6,7-5.4
	c3.5,0.4,6,3.7,5.4,7c-0.4,3.1-3.1,5.6-6.2,5.6C379.6,317.3,379.2,317.3,379,317.1z M755.4,311.7c-0.4-3.5,2.1-6.6,5.4-7
	c3.5-0.4,6.6,2.1,7,5.4c0.4,3.5-1.9,6.6-5.4,7h-0.8C758.7,317.1,756,314.8,755.4,311.7z M347.3,312.5c-3.5-0.6-5.8-3.7-5.2-7.2
	c0.6-3.5,3.7-5.8,7.2-5.2c3.5,0.6,5.8,3.7,5.2,7.2c-0.4,3.1-3.1,5.4-6.2,5.4C347.9,312.5,347.5,312.5,347.3,312.5z M787.1,307.2
	c-0.6-3.5,1.9-6.6,5.2-7.2c3.5-0.6,6.6,1.9,7.2,5.2c0.6,3.5-1.9,6.6-5.2,7.2h-1C790.4,312.5,787.7,310.3,787.1,307.2z M315.6,307
	c-3.5-0.6-5.6-3.9-5-7.5c0.6-3.5,3.9-5.6,7.5-5c3.5,0.6,5.6,3.9,5,7.5c-0.6,3.1-3.3,5.2-6.2,5.2C316.4,307,316,307,315.6,307z
	 M818.5,301.8c-0.6-3.5,1.7-6.8,5-7.5c3.5-0.6,6.8,1.7,7.5,5c0.6,3.5-1.7,6.8-5,7.5c-0.4,0-0.8,0.2-1.2,0.2
	C821.8,307,819.1,304.9,818.5,301.8z M284.1,300.3c-3.3-0.8-5.6-4.1-4.8-7.7c0.8-3.5,4.1-5.6,7.7-4.8c3.5,0.8,5.6,4.1,4.8,7.7
	c-0.6,2.9-3.3,5-6.2,5C285.2,300.5,284.5,300.3,284.1,300.3z M849.8,295.6c-0.8-3.5,1.4-6.8,4.8-7.7c3.5-0.8,6.8,1.5,7.7,4.8
	c0.8,3.5-1.4,6.8-4.8,7.7c-0.4,0.2-1,0.2-1.4,0.2C853.1,300.3,850.4,298.5,849.8,295.6L849.8,295.6z M252.9,292.5
	c-3.3-0.8-5.4-4.3-4.3-7.9c0.8-3.3,4.3-5.4,7.9-4.3c3.3,0.8,5.4,4.3,4.3,7.9c-0.8,2.9-3.3,4.6-6,4.6
	C254.1,292.7,253.5,292.7,252.9,292.5L252.9,292.5z M880.8,287.9c-0.9-3.4,1.2-6.9,4.6-7.9c3.3-0.8,6.8,1,7.9,4.3
	c0.8,3.3-1,6.8-4.3,7.9c-0.6,0.2-1,0.2-1.7,0.2C884.2,292.7,881.7,290.8,880.8,287.9L880.8,287.9z M222,283.1
	c-3.3-1-5.2-4.8-3.9-8.1c1-3.3,4.8-5.2,8.1-3.9c3.3,1,5.2,4.8,3.9,8.1c-0.8,2.7-3.3,4.3-6,4.3C223.3,283.5,222.6,283.3,222,283.1
	L222,283.1z M911.5,279c-1-3.3,0.6-6.8,3.9-8.1c3.3-1,6.8,0.6,8.1,3.9c1,3.3-0.6,6.8-3.9,8.1c-0.6,0.2-1.2,0.4-2.1,0.4
	C914.8,283.3,912.3,281.7,911.5,279z M191.6,272.2c-3.3-1.2-4.8-5-3.5-8.3c1.2-3.3,5-4.8,8.3-3.5c3.3,1.2,4.8,5,3.5,8.3
	c-1,2.5-3.3,3.9-5.8,3.9C193.2,272.6,192.4,272.4,191.6,272.2z M941.7,268.4c-1.2-3.3,0.2-7,3.5-8.3c3.3-1.2,7,0.2,8.3,3.5
	c1.2,3.3-0.2,6.8-3.5,8.3c-0.8,0.4-1.7,0.4-2.5,0.4C945,272.6,942.5,270.9,941.7,268.4L941.7,268.4z M162.2,258.7
	c-3.1-1.7-4.3-5.4-2.7-8.5c1.7-3.1,5.4-4.3,8.5-2.7c3.1,1.7,4.3,5.4,2.7,8.5c-1.2,2.3-3.3,3.3-5.6,3.3
	C164,259.3,163,259.1,162.2,258.7z M970.9,255.8c-1.7-3.1-0.4-6.8,2.7-8.5c3.1-1.7,6.8-0.4,8.5,2.7c1.7,3.1,0.4,6.8-2.7,8.5
	c-0.8,0.4-1.9,0.6-2.9,0.6C974.2,259.1,971.9,257.9,970.9,255.8z M134,241.5c-2.9-2.1-3.5-6-1.4-8.9c2.1-2.9,6-3.5,8.9-1.2
	c2.9,2.1,3.5,6,1.4,8.9c-1.2,1.7-3.1,2.5-5.2,2.5C136.5,242.5,135.3,242.3,134,241.5L134,241.5z M998.4,239.9
	c-2.1-2.9-1.5-6.8,1.2-8.9c2.9-2.1,6.8-1.4,8.9,1.2c2.1,2.9,1.5,6.8-1.2,8.9c-1.2,0.8-2.5,1.2-3.7,1.2
	C1001.8,242.5,999.7,241.5,998.4,239.9z M109.8,218.1c-2.1-2.9-1.4-6.8,1.4-8.9c2.9-2.1,6.8-1.4,8.9,1.4c2.1,2.9,1.4,6.8-1.4,8.9
	c-1,0.8-2.5,1.2-3.7,1.2C113.1,220.6,111,219.8,109.8,218.1z M1022.7,219.1c-2.9-2.1-3.5-6-1.5-8.9c2.1-2.9,6-3.5,8.9-1.4
	c2.9,2.1,3.5,6,1.4,8.9c-1.2,1.7-3.1,2.7-5.2,2.7C1025.1,220.4,1023.7,220,1022.7,219.1L1022.7,219.1z M98,185.2
	c0-3.5,2.7-6.4,6.2-6.4c3.5,0,6.4,2.9,6.4,6.2c0,3.5-2.7,6.4-6.2,6.4C100.9,191.4,98,188.5,98,185.2z M1030.5,184.8v-0.4
	c0-3.5,2.7-6.4,6.2-6.4s6.4,2.7,6.4,6.2v0.8c0,3.5-2.9,6.4-6.4,6.4C1033.4,191,1030.5,188.3,1030.5,184.8L1030.5,184.8z
	 M110.8,160.7c-2.9-2.1-3.5-6-1.4-8.9c2.1-2.9,6-3.5,8.9-1.4c2.9,2.1,3.5,6,1.4,8.9c-1.2,1.7-3.1,2.7-5.2,2.7
	C113.3,162,112.1,161.6,110.8,160.7z M1021,158.7c-2.1-2.9-1.5-6.8,1.2-8.9c2.9-2.1,6.8-1.4,8.9,1.2c2.1,2.7,1.4,6.8-1.2,8.9
	c-1.2,0.8-2.5,1.2-3.7,1.2C1024.1,161.2,1022.3,160.3,1021,158.7L1021,158.7z M132.4,137.3c-2.1-2.9-1.4-6.8,1.2-8.9
	c2.9-2.1,6.8-1.4,8.9,1.2c2.1,2.9,1.4,6.8-1.2,8.9c-1,0.8-2.5,1.2-3.7,1.2C135.5,139.8,133.4,139,132.4,137.3L132.4,137.3z
	 M999.5,138c-2.9-2.1-3.5-6-1.5-8.9c2.1-2.9,6-3.5,8.9-1.4c2.9,2.1,3.5,6,1.5,8.9c-1.2,1.7-3.1,2.5-5.2,2.5
	C1001.8,139.2,1000.5,138.8,999.5,138z M158.9,119.7c-1.7-3.1-0.4-6.8,2.7-8.5c3.1-1.7,6.8-0.4,8.5,2.7c1.7,3.1,0.4,7-2.7,8.5
	c-1,0.4-1.9,0.8-2.9,0.8C162.2,123,159.9,121.8,158.9,119.7z M973,122c-3.1-1.7-4.3-5.4-2.7-8.5c1.7-3.1,5.4-4.3,8.5-2.7
	s4.3,5.4,2.7,8.5c-1,2.3-3.3,3.5-5.6,3.5C974.8,122.6,974,122.4,973,122z M187.7,105.9c-1.2-3.3,0.2-6.8,3.5-8.3
	c3.3-1.2,7,0.2,8.3,3.5c1.2,3.3-0.2,7-3.5,8.3c-0.8,0.4-1.7,0.4-2.5,0.4C191,109.8,188.7,108.3,187.7,105.9z M944.6,109
	c-3.3-1.2-4.8-5-3.5-8.3c1.2-3.3,5-4.8,8.3-3.5c3.3,1.2,4.8,5,3.5,8.3c-1,2.5-3.3,3.9-5.8,3.9C946.3,109.4,945.4,109.2,944.6,109z
	 M217.5,94.5c-1-3.3,0.6-6.8,3.9-8.1c3.3-1,6.8,0.6,8.1,3.9c1,3.3-0.6,6.8-3.9,8.1c-0.6,0.2-1.2,0.4-2.1,0.4
	C220.8,98.8,218.3,97.2,217.5,94.5z M915,98.2c-3.3-1-5.2-4.8-4.1-8.1c1-3.3,4.8-5.2,8.1-3.9c3.3,1,5.2,4.8,3.9,8.1
	c-0.8,2.7-3.3,4.3-6,4.3C916.2,98.4,915.6,98.4,915,98.2L915,98.2z M247.9,84.9c-0.8-3.3,1-6.8,4.3-7.9c3.3-0.8,6.8,1,7.9,4.3
	c0.8,3.3-1,6.8-4.3,7.9c-0.6,0.2-1.2,0.2-1.7,0.2C251.2,89.5,248.7,87.6,247.9,84.9z M884.8,89.1c-3.3-0.8-5.4-4.3-4.3-7.9
	c0.8-3.3,4.3-5.4,7.9-4.3c3.3,0.8,5.4,4.3,4.6,7.9c-0.8,2.9-3.3,4.8-6.2,4.8C885.8,89.3,885.2,89.3,884.8,89.1z M278.8,76.9
	c-0.8-3.5,1.4-6.8,4.8-7.7c3.5-0.8,6.8,1.4,7.7,4.8c0.8,3.3-1.4,6.8-4.8,7.7c-0.4,0.2-1,0.2-1.4,0.2
	C282.1,81.8,279.4,79.8,278.8,76.9L278.8,76.9z M853.9,81.4c-3.3-0.8-5.6-4.1-4.8-7.7c0.8-3.3,4.1-5.6,7.7-4.8
	c3.5,0.8,5.6,4.1,4.8,7.7c-0.6,2.9-3.3,5-6.2,5C855,81.6,854.3,81.4,853.9,81.4L853.9,81.4z M310,70c-0.6-3.5,1.7-6.8,5-7.5
	c3.5-0.6,6.8,1.7,7.5,5c0.6,3.5-1.7,6.8-5,7.5c-0.4,0-0.8,0.2-1.2,0.2C313.1,75.2,310.4,73.1,310,70L310,70z M822.9,74.8
	c-3.5-0.6-5.6-3.9-5-7.5c0.6-3.5,3.9-5.6,7.5-5c3.5,0.6,5.6,3.9,5,7.5c-0.6,3.1-3.3,5.2-6.2,5.2C823.7,75,823.3,75,822.9,74.8z
	 M341.3,64.2c-0.6-3.5,1.9-6.6,5.2-7.2c3.5-0.6,6.6,1.9,7.2,5.2c0.6,3.5-1.9,6.6-5.2,7.2h-1C344.6,69.6,341.9,67.3,341.3,64.2z
	 M791.6,69.4c-3.5-0.6-5.8-3.7-5.2-7.2c0.6-3.5,3.7-5.8,7.2-5.2c3.5,0.6,5.8,3.7,5.2,7.2c-0.4,3.1-3.1,5.4-6.2,5.4
	C792.4,69.4,792,69.4,791.6,69.4z M373,59.5c-0.4-3.5,1.9-6.6,5.4-7s6.6,2.1,7,5.4c0.4,3.5-1.9,6.6-5.4,7h-0.8
	C376.1,65.1,373.4,62.6,373,59.5L373,59.5z M760.3,64.9c-3.5-0.4-6-3.7-5.4-7c0.4-3.5,3.7-5.8,7-5.4c3.5,0.4,6,3.7,5.4,7
	c-0.4,3.1-3.1,5.6-6.2,5.6C760.8,64.9,760.5,64.9,760.3,64.9z M404.6,55.5c-0.4-3.5,2.1-6.6,5.6-7c3.5-0.4,6.6,2.1,7,5.6
	c0.4,3.5-2.1,6.6-5.6,7h-0.6C407.7,61.1,404.8,58.6,404.6,55.5z M728.7,60.9c-3.5-0.4-6-3.5-5.6-7c0.4-3.5,3.5-6,7-5.6s6,3.5,5.6,7
	c-0.4,3.3-3.1,5.6-6.2,5.6C729.3,61.1,729.1,60.9,728.7,60.9z M436.3,52.2c-0.2-3.5,2.3-6.6,5.8-6.8c3.5-0.2,6.6,2.3,6.8,5.8
	c0.2,3.5-2.3,6.6-5.8,6.8h-0.6C439.4,58,436.5,55.5,436.3,52.2L436.3,52.2z M697.2,58c-3.5-0.2-6-3.3-5.8-6.8c0.2-3.5,3.3-6,6.8-5.8
	s6,3.3,5.8,6.8c-0.2,3.3-3.1,5.8-6.2,5.8H697.2L697.2,58z M468.2,49.7c-0.2-3.5,2.5-6.4,6-6.6c3.5-0.2,6.4,2.5,6.6,6
	c0.2,3.5-2.5,6.4-6,6.6h-0.4C471.1,55.7,468.4,53.3,468.2,49.7z M665.5,55.7c-3.5-0.2-6.2-3.1-6-6.6c0.2-3.5,3.1-6.2,6.6-6
	c3.5,0.2,6.2,3.1,6,6.6c-0.2,3.3-2.9,6-6.2,6H665.5z M500.1,48.1c-0.2-3.5,2.5-6.4,6-6.6c3.5-0.2,6.4,2.5,6.6,6
	c0.2,3.5-2.5,6.4-6,6.6h-0.2C503,54.1,500.1,51.4,500.1,48.1L500.1,48.1z M633.6,54.1c-3.5-0.2-6.2-3.1-6-6.6c0.2-3.5,3.1-6.2,6.6-6
	c3.5,0.2,6.2,3.1,6,6.6c-0.2,3.5-2.9,6-6.2,6H633.6z M532,46.8c0-3.5,2.7-6.4,6.2-6.4s6.4,2.7,6.4,6.2c0,3.5-2.7,6.4-6.2,6.4h-0.2
	C534.9,53,532,50.4,532,46.8L532,46.8z M602,53c-3.5,0-6.2-2.9-6.2-6.4s2.9-6.2,6.4-6.2c3.5,0,6.2,2.9,6.2,6.4
	C608.4,50.4,605.5,53,602,53z M563.9,46.4c0-3.5,2.9-6.4,6.4-6.4s6.4,2.9,6.4,6.2c0,3.5-2.9,6.4-6.4,6.4
	C566.5,52.8,563.9,49.9,563.9,46.4z"/>
<path class="st4" d="M568.4,198.5c7.7,0,14-6.3,14-14s-6.3-14-14-14s-14,6.3-14,14S560.7,198.5,568.4,198.5z"/>
<path class="st0" d="M9.6,176l4.9,8.5l4.9,8.5H0l4.7-8.5L9.6,176L9.6,176z M1124.8,192.9l-4.9-8.5l-4.9-8.5h19.5l-4.7,8.5
	L1124.8,192.9L1124.8,192.9z M570.6,35.4c0.2,0.2,0.5,0.2,0.7,0l3.2-3.2c0.2-0.2,0.2-0.5,0-0.7c-0.2-0.2-0.5-0.2-0.7,0l-2.8,2.8
	l-2.8-2.8c-0.2-0.2-0.5-0.2-0.7,0c-0.2,0.2-0.2,0.5,0,0.7L570.6,35.4z M571.4,20.6c-0.2-0.2-0.5-0.2-0.7,0l-3.2,3.2
	c-0.2,0.2-0.2,0.5,0,0.7c0.2,0.2,0.5,0.2,0.7,0l0,0l2.8-2.8l2.8,2.8c0.2,0.2,0.5,0.2,0.7,0c0.2-0.2,0.2-0.5,0-0.7L571.4,20.6z
	 M571.5,35V21h-1v14H571.5z M537.9,36.3c0.2,0.2,0.5,0.1,0.7-0.1l2.9-3.4c0.2-0.2,0.2-0.5-0.1-0.7c-0.2-0.2-0.5-0.2-0.7,0.1l0,0
	l-2.6,3.1l-3.1-2.6c-0.2-0.2-0.5-0.2-0.7,0c-0.2,0.2-0.2,0.5,0,0.7c0,0,0,0,0,0L537.9,36.3z M537.3,21.6c-0.2-0.2-0.5-0.1-0.7,0.1
	l-2.9,3.4c-0.2,0.2-0.2,0.5,0.1,0.7c0.2,0.2,0.5,0.2,0.7-0.1l0,0l2.6-3.1l3.1,2.6c0.2,0.2,0.5,0.2,0.7,0s0.2-0.5,0-0.7c0,0,0,0,0,0
	L537.3,21.6L537.3,21.6z M538.7,35.9L537.5,22l-1,0.1l1.2,13.9L538.7,35.9z M504.1,37.2c0.2,0.2,0.5,0.1,0.7-0.1c0,0,0,0,0,0
	l2.6-3.7c0.2-0.2,0.1-0.5-0.1-0.7c-0.2-0.2-0.5-0.1-0.7,0.1l-2.3,3.3l-3.3-2.3c-0.2-0.2-0.5-0.1-0.7,0.1s-0.1,0.5,0.1,0.7l0,0
	L504.1,37.2L504.1,37.2z M502.3,22.6c-0.2-0.2-0.5-0.1-0.7,0.1c0,0,0,0,0,0l-2.6,3.7c-0.2,0.2-0.1,0.5,0.1,0.7
	c0.2,0.2,0.5,0.1,0.7-0.1l2.3-3.3l3.3,2.3c0.2,0.2,0.5,0.1,0.7-0.1s0.1-0.5-0.1-0.7l0,0L502.3,22.6L502.3,22.6z M504.9,36.7
	l-2.4-13.8l-1,0.2l2.4,13.8L504.9,36.7z M472.4,38c0.2,0.1,0.5,0.1,0.7-0.2l2.2-3.9c0.1-0.2,0.1-0.5-0.2-0.7
	c-0.2-0.1-0.5-0.1-0.7,0.2l-2,3.5l-3.5-2c-0.2-0.1-0.5-0.1-0.7,0.2c-0.1,0.2-0.1,0.5,0.2,0.7L472.4,38L472.4,38z M469.2,23.6
	c-0.2-0.1-0.5-0.1-0.7,0.2l-2.2,3.9c-0.1,0.2-0.1,0.5,0.2,0.7c0.2,0.1,0.5,0.1,0.7-0.2l2-3.5l3.5,2c0.2,0.1,0.5,0.1,0.7-0.2
	c0.1-0.2,0.1-0.5-0.2-0.7L469.2,23.6L469.2,23.6z M473.1,37.4l-3.6-13.5l-1,0.3l3.6,13.5L473.1,37.4z M440.6,40.6
	c0.3,0.1,0.5,0,0.7-0.2l1.9-4.1c0.1-0.2,0-0.5-0.2-0.7c-0.2-0.1-0.5,0-0.7,0.2c0,0,0,0,0,0l-1.7,3.6l-3.6-1.7
	c-0.2-0.1-0.5,0-0.7,0.2c-0.1,0.2,0,0.5,0.2,0.7c0,0,0,0,0,0L440.6,40.6z M436.2,26.5c-0.3-0.1-0.5,0-0.7,0.2l-1.9,4.1
	c-0.1,0.3,0,0.5,0.3,0.7c0.2,0.1,0.5,0,0.7-0.2l1.7-3.6l3.6,1.7c0.3,0.1,0.5,0,0.7-0.3c0.1-0.2,0-0.5-0.2-0.6L436.2,26.5z M441.3,40
	l-4.8-13.2l-0.9,0.3l4.8,13.2C440.3,40.3,441.3,40,441.3,40z M408.7,44.2c0.3,0.1,0.5,0,0.6-0.3l1.5-4.2c0.1-0.3,0-0.5-0.3-0.6
	c-0.3-0.1-0.5,0-0.6,0.3l0,0l-1.4,3.8l-3.8-1.4c-0.3-0.1-0.5,0-0.6,0.3c-0.1,0.3,0,0.5,0.3,0.6L408.7,44.2L408.7,44.2z M403.2,30.5
	c-0.3-0.1-0.5,0-0.6,0.3c0,0,0,0,0,0l-1.5,4.2c-0.1,0.3,0,0.5,0.3,0.6c0.3,0.1,0.5,0,0.6-0.3l1.4-3.8l3.8,1.4c0.3,0.1,0.5,0,0.6-0.3
	c0.1-0.3,0-0.5-0.3-0.6l0,0L403.2,30.5L403.2,30.5z M409.4,43.5l-5.9-12.7l-0.9,0.4l5.9,12.7L409.4,43.5z M376.9,47.6
	c0.3,0.1,0.5-0.1,0.6-0.4l1.2-4.3c0.1-0.3-0.1-0.5-0.4-0.6c-0.3-0.1-0.5,0.1-0.6,0.4l0,0l-1,3.9l-3.9-1c-0.3-0.1-0.5,0.1-0.6,0.4
	c-0.1,0.3,0.1,0.5,0.4,0.6L376.9,47.6L376.9,47.6z M370.1,34.5c-0.3-0.1-0.5,0.1-0.6,0.4l-1.2,4.3c-0.1,0.3,0.1,0.5,0.4,0.6
	c0.3,0.1,0.5-0.1,0.6-0.4l0,0l1-3.9l3.9,1c0.3,0.1,0.5-0.1,0.6-0.4c0.1-0.3-0.1-0.5-0.4-0.6L370.1,34.5L370.1,34.5z M377.4,46.9
	l-7-12.1l-0.9,0.5l7,12.1L377.4,46.9z M344.9,52c0.3,0,0.5-0.1,0.6-0.4l0.8-4.4c0-0.3-0.1-0.5-0.4-0.6c-0.3,0-0.5,0.1-0.6,0.4l0,0
	l-0.7,3.9l-3.9-0.7c-0.3,0-0.5,0.1-0.6,0.4c0,0.3,0.1,0.5,0.4,0.6l0,0L344.9,52L344.9,52z M337.1,39.5c-0.3,0-0.5,0.1-0.6,0.4
	l-0.8,4.4c0,0.3,0.1,0.5,0.4,0.6c0.3,0,0.5-0.1,0.6-0.4l0.7-3.9l3.9,0.7c0.3,0,0.5-0.1,0.6-0.4c0-0.3-0.1-0.5-0.4-0.6L337.1,39.5
	L337.1,39.5z M345.4,51.2l-8-11.5l-0.8,0.6l8,11.5C344.6,51.8,345.4,51.2,345.4,51.2z M313,57.2c0.3,0,0.5-0.2,0.5-0.5c0,0,0,0,0,0
	l0.4-4.5c0-0.3-0.2-0.5-0.4-0.6c-0.3,0-0.5,0.2-0.6,0.4c0,0,0,0,0,0l-0.3,4l-4-0.3c-0.3,0-0.5,0.2-0.6,0.4c0,0.3,0.2,0.5,0.4,0.6
	c0,0,0,0,0,0C308.5,56.8,313,57.2,313,57.2z M304,45.5c-0.3,0-0.5,0.2-0.5,0.5l-0.4,4.5c0,0.3,0.2,0.5,0.4,0.6
	c0.3,0,0.5-0.2,0.6-0.4c0,0,0,0,0,0l0.3-4l4,0.3c0.3,0,0.5-0.2,0.6-0.4c0-0.3-0.2-0.5-0.4-0.6c0,0,0,0,0,0L304,45.5L304,45.5z
	 M313.4,56.4l-9-10.7l-0.8,0.6l9,10.7C312.6,57,313.4,56.4,313.4,56.4z M281.9,62.4c0.3,0,0.5-0.2,0.5-0.5v-4.5
	c0-0.3-0.2-0.5-0.5-0.5s-0.5,0.2-0.5,0.5v4h-4c-0.3,0-0.5,0.2-0.5,0.5s0.2,0.5,0.5,0.5H281.9z M272,51.5c-0.3,0-0.5,0.2-0.5,0.5v4.5
	c0,0.3,0.2,0.5,0.5,0.5s0.5-0.2,0.5-0.5v-4h4c0.3,0,0.5-0.2,0.5-0.5s-0.2-0.5-0.5-0.5H272z M282.3,61.5l-9.9-9.9l-0.7,0.7l9.9,9.9
	L282.3,61.5z M249.8,70.5c0.3,0,0.5-0.3,0.5-0.5c0,0,0,0,0,0l-0.4-4.5c0-0.3-0.3-0.5-0.6-0.4c-0.3,0-0.4,0.3-0.4,0.5l0.3,4l-4,0.3
	c-0.3,0-0.5,0.3-0.4,0.6c0,0.3,0.3,0.4,0.5,0.4L249.8,70.5L249.8,70.5z M239,60.5c-0.3,0-0.5,0.3-0.5,0.5l0.4,4.5
	c0,0.3,0.3,0.5,0.5,0.4c0.3,0,0.5-0.3,0.4-0.5l-0.3-4l4-0.3c0.3,0,0.5-0.2,0.5-0.5c0-0.3-0.2-0.5-0.5-0.5c0,0,0,0,0,0L239,60.5
	L239,60.5z M250,69.6l-10.7-9l-0.6,0.8l10.7,9L250,69.6z M217.6,78.5c0.3,0,0.5-0.3,0.4-0.6c0,0,0,0,0,0l-0.8-4.4
	c0-0.3-0.3-0.5-0.6-0.4c-0.3,0-0.5,0.3-0.4,0.6l0.7,3.9l-3.9,0.7c-0.3,0-0.5,0.3-0.4,0.6c0,0.3,0.3,0.5,0.6,0.4L217.6,78.5
	L217.6,78.5z M205.9,69.5c-0.3,0-0.5,0.3-0.4,0.6l0.8,4.4c0,0.3,0.3,0.5,0.6,0.4c0.3,0,0.5-0.3,0.4-0.6l-0.7-3.9l3.9-0.7
	c0.3,0,0.5-0.3,0.4-0.6c0-0.3-0.3-0.5-0.6-0.4L205.9,69.5L205.9,69.5z M217.8,77.6l-11.5-8l-0.6,0.8l11.5,8L217.8,77.6L217.8,77.6z
	 M188.3,88.5c0.3-0.1,0.4-0.3,0.4-0.6l-1.2-4.3c-0.1-0.3-0.3-0.4-0.6-0.4s-0.4,0.3-0.4,0.6l1,3.9l-3.9,1c-0.3,0.1-0.4,0.3-0.4,0.6
	s0.3,0.4,0.6,0.4l0,0C183.9,89.6,188.3,88.5,188.3,88.5z M175.9,80.5c-0.3,0.1-0.4,0.3-0.4,0.6l1.2,4.3c0.1,0.3,0.3,0.4,0.6,0.4
	s0.4-0.3,0.4-0.6l-1-3.9l3.9-1c0.3-0.1,0.4-0.3,0.4-0.6s-0.3-0.4-0.6-0.4C180.2,79.4,175.9,80.5,175.9,80.5z M188.4,87.6l-12.1-7
	l-0.5,0.9l12.1,7L188.4,87.6z M155.9,101.4c0.3-0.1,0.4-0.4,0.3-0.6c0,0,0,0,0,0l-1.5-4.2c-0.1-0.3-0.4-0.4-0.6-0.3
	c-0.3,0.1-0.4,0.4-0.3,0.6l1.4,3.8l-3.8,1.4c-0.3,0.1-0.4,0.4-0.3,0.6c0.1,0.3,0.4,0.4,0.6,0.3l0,0L155.9,101.4L155.9,101.4z
	 M142.8,94.5c-0.3,0.1-0.4,0.4-0.3,0.6c0,0,0,0,0,0l1.5,4.2c0.1,0.3,0.4,0.4,0.6,0.3c0.3-0.1,0.4-0.4,0.3-0.6l0,0l-1.4-3.8l3.8-1.4
	c0.3-0.1,0.4-0.4,0.3-0.6c-0.1-0.3-0.4-0.4-0.6-0.3L142.8,94.5L142.8,94.5z M155.9,100.5l-12.7-5.9l-0.4,0.9l12.7,5.9L155.9,100.5
	L155.9,100.5z M121.4,119.2c0.3-0.1,0.4-0.4,0.2-0.7l-1.9-4.1c-0.1-0.3-0.4-0.4-0.7-0.2c-0.3,0.1-0.4,0.4-0.2,0.7l1.7,3.6l-3.6,1.7
	c-0.3,0.1-0.4,0.4-0.3,0.7s0.4,0.4,0.7,0.3c0,0,0,0,0,0C117.3,121.1,121.4,119.2,121.4,119.2z M107.8,113.5
	c-0.2,0.1-0.4,0.4-0.2,0.7c0,0,0,0,0,0l1.9,4.1c0.1,0.2,0.4,0.4,0.7,0.2c0.2-0.1,0.3-0.4,0.2-0.7l-1.7-3.6l3.6-1.7
	c0.2-0.1,0.4-0.4,0.2-0.7c-0.1-0.2-0.4-0.3-0.7-0.2C111.9,111.6,107.8,113.5,107.8,113.5z M121.3,118.3l-13.2-4.8l-0.3,0.9l13.2,4.8
	L121.3,118.3z M87.8,146.1c0.2-0.1,0.3-0.4,0.2-0.7l-2.2-3.9c-0.1-0.2-0.4-0.3-0.7-0.2c-0.2,0.1-0.3,0.4-0.2,0.7l2,3.5l-3.5,2
	c-0.2,0.1-0.3,0.4-0.2,0.7c0.1,0.2,0.4,0.3,0.7,0.2c0,0,0,0,0,0C83.9,148.3,87.8,146.1,87.8,146.1z M73.8,141.6
	c-0.2,0.1-0.3,0.4-0.2,0.7l2.2,3.9c0.1,0.2,0.4,0.3,0.7,0.2c0.2-0.1,0.3-0.4,0.2-0.7l-2-3.5l3.5-2c0.2-0.1,0.3-0.4,0.2-0.7
	c-0.1-0.2-0.4-0.3-0.7-0.2C77.6,139.3,73.7,141.6,73.8,141.6z M87.7,145.1l-13.5-3.6l-0.3,1l13.5,3.6L87.7,145.1L87.7,145.1z
	 M70.4,185.4c0.2-0.2,0.2-0.5,0-0.7l-3.2-3.2c-0.2-0.2-0.5-0.2-0.7,0c-0.2,0.2-0.2,0.5,0,0.7l0,0l2.8,2.8l-2.8,2.8
	c-0.2,0.2-0.2,0.5,0,0.7c0.2,0.2,0.5,0.2,0.7,0L70.4,185.4L70.4,185.4z M55.6,184.6c-0.2,0.2-0.2,0.5,0,0.7l3.2,3.2
	c0.2,0.2,0.5,0.2,0.7,0c0.2-0.2,0.2-0.5,0-0.7l0,0l-2.8-2.8l2.8-2.8c0.2-0.2,0.2-0.5,0-0.7c-0.2-0.2-0.5-0.2-0.7,0
	C58.8,181.5,55.6,184.6,55.6,184.6z M70,184.5H56v1h14V184.5z M604.1,36.3c-0.2,0.2-0.5,0.1-0.7-0.1l-2.9-3.4
	c-0.2-0.2-0.2-0.5,0.1-0.7c0.2-0.2,0.5-0.2,0.7,0.1l2.6,3.1l3.1-2.6c0.2-0.2,0.5-0.2,0.7,0c0.2,0.2,0.2,0.5,0,0.7c0,0,0,0,0,0
	L604.1,36.3z M604.7,21.6c0.2-0.2,0.5-0.1,0.7,0.1l2.9,3.4c0.2,0.2,0.2,0.5-0.1,0.7c-0.2,0.2-0.5,0.2-0.7-0.1l0,0l-2.6-3.1l-3.1,2.6
	c-0.2,0.2-0.5,0.2-0.7,0s-0.2-0.5,0-0.7c0,0,0,0,0,0L604.7,21.6L604.7,21.6z M603.3,35.9l1.2-13.9l1,0.1L604.3,36L603.3,35.9z
	 M637.9,37.2c-0.2,0.2-0.5,0.1-0.7-0.1c0,0,0,0,0,0l-2.6-3.7c-0.2-0.2-0.1-0.5,0.1-0.7c0.2-0.2,0.5-0.1,0.7,0.1l0,0l2.3,3.3l3.3-2.3
	c0.2-0.2,0.5-0.1,0.7,0.1s0.1,0.5-0.1,0.7L637.9,37.2L637.9,37.2z M639.7,22.6c0.2-0.2,0.5-0.1,0.7,0.1c0,0,0,0,0,0l2.6,3.7
	c0.2,0.2,0.1,0.5-0.1,0.7c-0.2,0.2-0.5,0.1-0.7-0.1l0,0l-2.3-3.3l-3.3,2.3c-0.2,0.2-0.5,0.1-0.7-0.1c-0.2-0.2-0.1-0.5,0.1-0.7l0,0
	L639.7,22.6L639.7,22.6z M637.1,36.7l2.4-13.8l1,0.2l-2.4,13.8L637.1,36.7z M669.6,38c-0.2,0.1-0.5,0.1-0.7-0.2l-2.2-3.9
	c-0.1-0.2-0.1-0.5,0.2-0.7c0.2-0.1,0.5-0.1,0.7,0.2l2,3.5l3.5-2c0.2-0.1,0.5-0.1,0.7,0.2c0.1,0.2,0.1,0.5-0.2,0.7L669.6,38L669.6,38
	z M672.8,23.6c0.2-0.1,0.5-0.1,0.7,0.2l2.2,3.9c0.1,0.2,0.1,0.5-0.2,0.7c-0.2,0.1-0.5,0.1-0.7-0.2l0,0l-2-3.5l-3.5,2
	c-0.2,0.1-0.5,0.1-0.7-0.2c-0.1-0.2-0.1-0.5,0.2-0.7L672.8,23.6L672.8,23.6z M668.9,37.4l3.6-13.5l1,0.3l-3.6,13.5L668.9,37.4
	L668.9,37.4z M701.4,40.6c-0.3,0.1-0.5,0-0.7-0.2l-1.9-4.1c-0.1-0.2,0-0.5,0.2-0.7c0.2-0.1,0.5,0,0.7,0.2c0,0,0,0,0,0l1.7,3.6
	l3.6-1.7c0.2-0.1,0.5,0,0.7,0.2c0.1,0.2,0,0.5-0.2,0.7c0,0,0,0,0,0L701.4,40.6z M705.8,26.5c0.3-0.1,0.5,0,0.7,0.2l1.9,4.1
	c0.1,0.3,0,0.5-0.3,0.7c-0.2,0.1-0.5,0-0.7-0.2l-1.7-3.6l-3.6,1.7c-0.3,0.1-0.5,0-0.7-0.3c-0.1-0.2,0-0.5,0.2-0.6L705.8,26.5z
	 M700.7,40l4.8-13.2l0.9,0.3l-4.8,13.2C701.7,40.3,700.7,40,700.7,40z M733.3,44.2c-0.3,0.1-0.5,0-0.6-0.3l-1.5-4.2
	c-0.1-0.3,0-0.5,0.3-0.6c0.3-0.1,0.5,0,0.6,0.3l1.4,3.8l3.8-1.4c0.3-0.1,0.5,0,0.6,0.3c0.1,0.3,0,0.5-0.3,0.6l0,0L733.3,44.2
	L733.3,44.2z M738.8,30.5c0.3-0.1,0.5,0,0.6,0.3c0,0,0,0,0,0l1.5,4.2c0.1,0.3,0,0.5-0.3,0.6c-0.3,0.1-0.5,0-0.6-0.3l-1.4-3.8
	l-3.8,1.4c-0.3,0.1-0.5,0-0.6-0.3c-0.1-0.3,0-0.5,0.3-0.6l0,0L738.8,30.5L738.8,30.5z M732.6,43.5l5.9-12.7l0.9,0.4l-5.9,12.7
	L732.6,43.5z M765.1,47.6c-0.3,0.1-0.5-0.1-0.6-0.4l-1.2-4.3c-0.1-0.3,0.1-0.5,0.4-0.6c0.3-0.1,0.5,0.1,0.6,0.4l1,3.9l3.9-1
	c0.3-0.1,0.5,0.1,0.6,0.4c0.1,0.3-0.1,0.5-0.4,0.6L765.1,47.6z M771.9,34.5c0.3-0.1,0.5,0.1,0.6,0.4l1.2,4.3
	c0.1,0.3-0.1,0.5-0.4,0.6c-0.3,0.1-0.5-0.1-0.6-0.4l0,0l-1-3.9l-3.9,1c-0.3,0.1-0.5-0.1-0.6-0.4c-0.1-0.3,0.1-0.5,0.4-0.6l0,0
	L771.9,34.5z M764.6,46.9l7-12.1l0.9,0.5l-7,12.1L764.6,46.9z M797.1,52c-0.3,0-0.5-0.1-0.6-0.4l-0.8-4.4c0-0.3,0.1-0.5,0.4-0.6
	c0.3,0,0.5,0.1,0.6,0.4l0.7,3.9l3.9-0.7c0.3,0,0.5,0.1,0.6,0.4c0,0.3-0.1,0.5-0.4,0.6l0,0L797.1,52L797.1,52z M804.9,39.5
	c0.3,0,0.5,0.1,0.6,0.4c0,0,0,0,0,0l0.8,4.4c0,0.3-0.1,0.5-0.4,0.6c-0.3,0-0.5-0.1-0.6-0.4l0,0l-0.7-3.9l-3.9,0.7
	c-0.3,0-0.5-0.1-0.6-0.4c0-0.3,0.1-0.5,0.4-0.6C800.5,40.3,804.9,39.5,804.9,39.5z M796.6,51.2l8-11.5l0.8,0.6l-8,11.5L796.6,51.2
	L796.6,51.2z M829,57.2c-0.3,0-0.5-0.2-0.5-0.5c0,0,0,0,0,0l-0.4-4.5c0-0.3,0.2-0.5,0.4-0.6c0.3,0,0.5,0.2,0.6,0.4c0,0,0,0,0,0
	l0.3,4l4-0.3c0.3,0,0.5,0.2,0.6,0.4s-0.2,0.5-0.4,0.6c0,0,0,0,0,0L829,57.2L829,57.2z M838,45.5c0.3,0,0.5,0.2,0.5,0.5l0.4,4.5
	c0,0.3-0.2,0.5-0.4,0.6c-0.3,0-0.5-0.2-0.6-0.4c0,0,0,0,0,0l-0.3-4l-4,0.3c-0.3,0-0.5-0.2-0.6-0.4s0.2-0.5,0.4-0.6c0,0,0,0,0,0
	L838,45.5L838,45.5z M828.6,56.4l9-10.7l0.8,0.6l-9,10.7C829.4,57,828.6,56.4,828.6,56.4z M860.1,62.4c-0.3,0-0.5-0.2-0.5-0.5v-4.5
	c0-0.3,0.2-0.5,0.5-0.5s0.5,0.2,0.5,0.5v4h4c0.3,0,0.5,0.2,0.5,0.5s-0.2,0.5-0.5,0.5H860.1z M870,51.5c0.3,0,0.5,0.2,0.5,0.5v4.5
	c0,0.3-0.2,0.5-0.5,0.5s-0.5-0.2-0.5-0.5v-4h-4c-0.3,0-0.5-0.2-0.5-0.5s0.2-0.5,0.5-0.5H870z M859.7,61.5l9.9-9.9l0.7,0.7l-9.9,9.9
	L859.7,61.5z M892.2,70.5c-0.3,0-0.5-0.3-0.5-0.5c0,0,0,0,0,0l0.4-4.5c0-0.3,0.3-0.5,0.5-0.5c0.3,0,0.5,0.3,0.5,0.5l-0.3,4l4,0.3
	c0.3,0,0.5,0.3,0.4,0.6c0,0.3-0.3,0.4-0.5,0.4L892.2,70.5L892.2,70.5z M903,60.5c0.3,0,0.5,0.3,0.5,0.5l-0.4,4.5
	c0,0.3-0.3,0.5-0.6,0.4c-0.3,0-0.5-0.3-0.4-0.5l0.3-4l-4-0.3c-0.3,0-0.5-0.2-0.5-0.5c0-0.3,0.2-0.5,0.5-0.5c0,0,0,0,0,0L903,60.5
	L903,60.5z M892,69.6l10.7-9l0.6,0.8l-10.7,9L892,69.6z M924.4,78.5c-0.3,0-0.5-0.3-0.4-0.6l0.8-4.4c0-0.3,0.3-0.5,0.6-0.4
	c0.3,0,0.5,0.3,0.4,0.6l-0.7,3.9l3.9,0.7c0.3,0,0.5,0.3,0.4,0.6c0,0.3-0.3,0.5-0.6,0.4L924.4,78.5z M936.1,69.5
	c0.3,0,0.5,0.3,0.4,0.6c0,0,0,0,0,0l-0.8,4.4c0,0.3-0.3,0.5-0.6,0.4c-0.3,0-0.5-0.3-0.4-0.6l0.7-3.9l-3.9-0.7
	c-0.3,0-0.5-0.3-0.4-0.6c0-0.3,0.3-0.5,0.6-0.4l0,0L936.1,69.5z M924.2,77.6l11.5-8l0.6,0.8l-11.5,8L924.2,77.6z M953.7,88.5
	c-0.3-0.1-0.4-0.3-0.4-0.6l1.2-4.3c0.1-0.3,0.3-0.4,0.6-0.4c0.3,0.1,0.4,0.3,0.4,0.6l-1,3.9l3.9,1c0.3,0.1,0.4,0.3,0.4,0.6
	s-0.3,0.4-0.6,0.4l0,0L953.7,88.5L953.7,88.5z M966.1,80.5c0.3,0.1,0.4,0.3,0.4,0.6l-1.2,4.3c-0.1,0.3-0.3,0.4-0.6,0.4
	c-0.3-0.1-0.4-0.3-0.4-0.6l1-3.9l-3.9-1c-0.3-0.1-0.4-0.3-0.4-0.6s0.3-0.4,0.6-0.4C961.8,79.4,966.1,80.5,966.1,80.5z M953.6,87.6
	l12.1-7l0.5,0.9l-12.1,7L953.6,87.6z M986.1,101.4c-0.3-0.1-0.4-0.4-0.3-0.6c0,0,0,0,0,0l1.5-4.2c0.1-0.3,0.4-0.4,0.6-0.3
	c0.3,0.1,0.4,0.4,0.3,0.6l-1.4,3.8l3.8,1.4c0.3,0.1,0.4,0.4,0.3,0.6s-0.4,0.4-0.6,0.3C990.4,102.9,986.1,101.4,986.1,101.4z
	 M999.2,94.5c0.3,0.1,0.4,0.4,0.3,0.6l-1.5,4.2c-0.1,0.3-0.4,0.4-0.6,0.3c-0.3-0.1-0.4-0.4-0.3-0.6l1.4-3.8l-3.8-1.4
	c-0.3-0.1-0.4-0.4-0.3-0.6s0.4-0.4,0.6-0.3L999.2,94.5L999.2,94.5z M986.1,100.5l12.7-5.9l0.4,0.9l-12.7,5.9L986.1,100.5
	L986.1,100.5z M1020.6,119.2c-0.2-0.1-0.4-0.4-0.2-0.7c0,0,0,0,0,0l1.9-4.1c0.1-0.3,0.4-0.4,0.7-0.2c0.2,0.1,0.4,0.4,0.2,0.7
	l-1.7,3.6l3.6,1.7c0.2,0.1,0.4,0.4,0.2,0.7c-0.1,0.3-0.4,0.4-0.7,0.2L1020.6,119.2L1020.6,119.2z M1034.2,113.5
	c0.2,0.1,0.4,0.4,0.2,0.7l-1.9,4.1c-0.1,0.2-0.4,0.4-0.7,0.2c-0.2-0.1-0.4-0.4-0.2-0.7l1.7-3.6l-3.6-1.7c-0.2-0.1-0.4-0.4-0.2-0.7
	c0,0,0,0,0,0c0.1-0.2,0.4-0.4,0.7-0.2L1034.2,113.5L1034.2,113.5z M1020.7,118.3l13.2-4.8l0.3,0.9l-13.2,4.8L1020.7,118.3
	L1020.7,118.3z M1054.2,146.1c-0.2-0.1-0.3-0.4-0.2-0.7l2.2-3.9c0.1-0.2,0.4-0.3,0.7-0.2c0.2,0.1,0.3,0.4,0.2,0.7l-2,3.5l3.5,2
	c0.2,0.1,0.3,0.4,0.2,0.7c0,0,0,0,0,0c-0.1,0.2-0.4,0.3-0.7,0.2L1054.2,146.1z M1068.2,141.6c0.2,0.1,0.3,0.4,0.2,0.7l-2.2,3.9
	c-0.1,0.2-0.4,0.3-0.7,0.2c-0.2-0.1-0.3-0.4-0.2-0.7l2-3.5l-3.5-2c-0.2-0.1-0.3-0.4-0.2-0.7c0,0,0,0,0,0c0.1-0.2,0.4-0.3,0.7-0.2
	c0,0,0,0,0,0L1068.2,141.6L1068.2,141.6z M1054.3,145.1l13.5-3.6l0.3,1l-13.5,3.6L1054.3,145.1L1054.3,145.1z M1071.7,185.4
	c-0.2-0.2-0.2-0.5,0-0.7c0,0,0,0,0,0l3.2-3.2c0.2-0.2,0.5-0.2,0.7,0c0.2,0.2,0.2,0.5,0,0.7l-2.8,2.8l2.8,2.8c0.2,0.2,0.2,0.5,0,0.7
	c-0.2,0.2-0.5,0.2-0.7,0c0,0,0,0,0,0L1071.7,185.4L1071.7,185.4z M1086.3,184.6c0.2,0.2,0.2,0.5,0,0.7l-3.2,3.2
	c-0.2,0.2-0.5,0.2-0.7,0c0,0,0,0,0,0c-0.2-0.2-0.2-0.5,0-0.7l2.8-2.8l-2.8-2.8c-0.2-0.2-0.2-0.5,0-0.7c0.2-0.2,0.5-0.2,0.7,0
	L1086.3,184.6L1086.3,184.6z M1072,184.5h14v1h-14V184.5z M571.4,334.6c-0.2-0.2-0.5-0.2-0.7,0l-3.2,3.2c-0.2,0.2-0.2,0.5,0,0.7
	c0.2,0.2,0.5,0.2,0.7,0l0,0l2.8-2.8l2.8,2.8c0.2,0.2,0.5,0.2,0.7,0c0.2-0.2,0.2-0.5,0-0.7L571.4,334.6z M570.6,349.4
	c0.2,0.2,0.5,0.2,0.7,0c0,0,0,0,0,0l3.2-3.2c0.2-0.2,0.2-0.5-0.1-0.7c-0.2-0.2-0.5-0.2-0.7,0l-2.8,2.8l-2.8-2.8
	c-0.2-0.2-0.5-0.2-0.7,0.1c-0.2,0.2-0.2,0.5,0,0.7L570.6,349.4z M570.5,335v14h1v-14H570.5z M604.1,333.7c-0.2-0.2-0.5-0.1-0.7,0.1
	l-2.9,3.4c-0.2,0.2-0.2,0.5,0.1,0.7c0.2,0.2,0.5,0.2,0.7-0.1l2.6-3.1l3.1,2.6c0.2,0.2,0.5,0.2,0.7,0c0.2-0.2,0.2-0.5,0-0.7
	c0,0,0,0,0,0L604.1,333.7L604.1,333.7z M604.7,348.4c0.2,0.2,0.5,0.1,0.7-0.1l2.9-3.4c0.2-0.2,0.2-0.5-0.1-0.7
	c-0.2-0.2-0.5-0.2-0.7,0.1l-2.6,3.1l-3.1-2.6c-0.2-0.2-0.5-0.2-0.7,0.1c-0.2,0.2-0.2,0.5,0.1,0.7L604.7,348.4L604.7,348.4z
	 M603.3,334.1l1.2,13.9l1-0.1l-1.2-13.9L603.3,334.1z M637.9,332.8c-0.2-0.2-0.5-0.1-0.7,0.1l-2.6,3.7c-0.2,0.2-0.1,0.5,0.1,0.7
	c0.2,0.2,0.5,0.1,0.7-0.1l2.3-3.3l3.3,2.3c0.2,0.2,0.5,0.1,0.7-0.1c0.2-0.2,0.1-0.5-0.1-0.7l0,0L637.9,332.8L637.9,332.8z
	 M639.7,347.4c0.2,0.2,0.5,0.1,0.7-0.1c0,0,0,0,0,0l2.6-3.7c0.2-0.2,0.1-0.5-0.1-0.7c-0.2-0.1-0.5-0.1-0.7,0.1l-2.3,3.3l-3.3-2.3
	c-0.2-0.1-0.5-0.1-0.7,0.2c-0.1,0.2-0.1,0.5,0.1,0.7L639.7,347.4L639.7,347.4z M637.1,333.3l2.4,13.8l1-0.2l-2.4-13.8L637.1,333.3z
	 M669.6,332c-0.2-0.1-0.5-0.1-0.7,0.2l-2.2,3.9c-0.1,0.2-0.1,0.5,0.2,0.7c0.2,0.1,0.5,0.1,0.7-0.2l2-3.5l3.5,2
	c0.2,0.1,0.5,0.1,0.7-0.2c0.1-0.2,0.1-0.5-0.2-0.7L669.6,332L669.6,332z M672.8,346.4c0.2,0.1,0.5,0.1,0.7-0.2l2.2-3.9
	c0.1-0.2,0.1-0.5-0.2-0.7c-0.2-0.1-0.5-0.1-0.7,0.2l-2,3.5l-3.5-2c-0.2-0.1-0.5-0.1-0.7,0.2c-0.1,0.2-0.1,0.5,0.2,0.7L672.8,346.4
	L672.8,346.4z M668.9,332.6l3.6,13.5l1-0.3l-3.6-13.5L668.9,332.6L668.9,332.6z M701.4,329.4c-0.3-0.1-0.5,0-0.7,0.2l-1.9,4.1
	c-0.1,0.2,0,0.5,0.2,0.7c0.2,0.1,0.5,0,0.7-0.2c0,0,0,0,0,0l1.7-3.6l3.6,1.7c0.3,0.1,0.5,0,0.7-0.2s0-0.5-0.2-0.7L701.4,329.4z
	 M705.8,343.5c0.2,0.1,0.5,0,0.7-0.2l1.9-4.1c0.1-0.3,0-0.5-0.3-0.7c-0.2-0.1-0.5,0-0.7,0.2l-1.7,3.6l-3.6-1.7
	c-0.3-0.1-0.5,0-0.7,0.3c-0.1,0.2,0,0.5,0.2,0.7L705.8,343.5z M700.7,330l4.8,13.2l0.9-0.3l-4.8-13.2L700.7,330z M733.3,325.8
	c-0.3-0.1-0.5,0-0.6,0.3c0,0,0,0,0,0l-1.5,4.2c-0.1,0.3,0,0.5,0.3,0.6c0.3,0.1,0.5,0,0.6-0.3l1.4-3.8l3.8,1.4c0.3,0.1,0.5,0,0.6-0.3
	s0-0.5-0.3-0.6L733.3,325.8L733.3,325.8z M738.8,339.5c0.3,0.1,0.5,0,0.6-0.3l1.5-4.2c0.1-0.3,0-0.5-0.3-0.6c-0.3-0.1-0.5,0-0.6,0.3
	l-1.4,3.8l-3.8-1.4c-0.3-0.1-0.5,0-0.6,0.3s0,0.5,0.3,0.6L738.8,339.5L738.8,339.5z M732.6,326.5l5.9,12.7l0.9-0.4l-5.9-12.7
	L732.6,326.5z M765.1,322.4c-0.3-0.1-0.5,0.1-0.6,0.4l-1.2,4.3c-0.1,0.3,0.1,0.5,0.4,0.6c0.3,0.1,0.5-0.1,0.6-0.4l1-3.9l3.9,1
	c0.3,0.1,0.5-0.1,0.6-0.4s-0.1-0.5-0.4-0.6L765.1,322.4z M771.9,335.5c0.3,0.1,0.5-0.1,0.6-0.4l1.2-4.3c0.1-0.3-0.1-0.5-0.4-0.6
	c-0.2-0.1-0.5,0.1-0.6,0.3l-1,3.9l-3.9-1c-0.3-0.1-0.5,0.1-0.6,0.4c-0.1,0.2,0.1,0.5,0.3,0.6L771.9,335.5z M764.6,323.1l7,12.1
	l0.9-0.5l-7-12.1L764.6,323.1z M797.1,318c-0.3,0-0.5,0.1-0.6,0.4c0,0,0,0,0,0l-0.8,4.4c0,0.3,0.1,0.5,0.4,0.6
	c0.3,0,0.5-0.1,0.6-0.4l0.7-3.9l3.9,0.7c0.3,0,0.5-0.1,0.6-0.4s-0.1-0.5-0.4-0.6L797.1,318L797.1,318z M804.9,330.5
	c0.3,0,0.5-0.1,0.6-0.4l0.8-4.4c0-0.3-0.1-0.5-0.4-0.6c-0.3,0-0.5,0.1-0.6,0.4l-0.7,3.9l-3.9-0.7c-0.3,0-0.5,0.1-0.6,0.4
	s0.1,0.5,0.4,0.6L804.9,330.5L804.9,330.5z M796.6,318.8l8,11.5l0.8-0.6l-8-11.5L796.6,318.8L796.6,318.8z M829,312.8
	c-0.3,0-0.5,0.2-0.5,0.5c0,0,0,0,0,0l-0.4,4.5c0,0.3,0.2,0.5,0.4,0.6c0.3,0,0.5-0.2,0.6-0.4c0,0,0,0,0,0l0.3-4l4,0.3
	c0.3,0,0.5-0.2,0.5-0.5s-0.2-0.5-0.5-0.5L829,312.8L829,312.8z M838,324.5c0.3,0,0.5-0.2,0.5-0.5l0.4-4.5c0-0.3-0.2-0.5-0.4-0.6
	c-0.3,0-0.5,0.2-0.6,0.4c0,0,0,0,0,0l-0.3,4l-4-0.3c-0.3,0-0.5,0.2-0.6,0.4c0,0.3,0.2,0.5,0.4,0.6c0,0,0,0,0,0L838,324.5L838,324.5z
	 M828.6,313.6l9,10.7l0.8-0.6l-9-10.7L828.6,313.6z M860.1,307.6c-0.3,0-0.5,0.2-0.5,0.5v4.5c0,0.3,0.2,0.5,0.5,0.5s0.5-0.2,0.5-0.5
	v-4h4c0.3,0,0.5-0.2,0.5-0.5s-0.2-0.5-0.5-0.5H860.1z M870,318.5c0.3,0,0.5-0.2,0.5-0.5v-4.5c0-0.3-0.2-0.5-0.5-0.5
	s-0.5,0.2-0.5,0.5v4h-4c-0.3,0-0.5,0.2-0.5,0.5s0.2,0.5,0.5,0.5H870z M859.7,308.5l9.9,9.9l0.7-0.7l-9.9-9.9L859.7,308.5z
	 M892.2,299.5c-0.3,0-0.5,0.3-0.5,0.5c0,0,0,0,0,0l0.4,4.5c0,0.3,0.3,0.5,0.5,0.5c0.3,0,0.5-0.3,0.5-0.5l-0.3-4l4-0.3
	c0.3,0,0.5-0.3,0.4-0.6c0-0.3-0.3-0.5-0.5-0.4L892.2,299.5L892.2,299.5z M903,309.5c0.3,0,0.5-0.3,0.5-0.5l-0.4-4.5
	c0-0.3-0.3-0.5-0.5-0.5c-0.3,0-0.5,0.3-0.5,0.5c0,0,0,0,0,0l0.3,4l-4,0.3c-0.3,0-0.5,0.3-0.5,0.5c0,0.3,0.3,0.5,0.5,0.5c0,0,0,0,0,0
	L903,309.5L903,309.5z M892,300.4l10.7,9l0.6-0.8l-10.7-9L892,300.4z M924.4,291.5c-0.3,0-0.5,0.3-0.4,0.6c0,0,0,0,0,0l0.8,4.4
	c0,0.3,0.3,0.5,0.6,0.4c0.3,0,0.5-0.3,0.4-0.6l-0.7-3.9l3.9-0.7c0.3,0,0.5-0.3,0.4-0.6s-0.3-0.5-0.6-0.4L924.4,291.5L924.4,291.5z
	 M936.1,300.5c0.3,0,0.5-0.3,0.4-0.6l-0.8-4.4c0-0.3-0.3-0.5-0.6-0.4c-0.3,0-0.5,0.3-0.4,0.6l0.7,3.9l-3.9,0.7
	c-0.3,0-0.5,0.3-0.4,0.6s0.3,0.5,0.6,0.4L936.1,300.5L936.1,300.5z M924.2,292.4l11.5,8l0.6-0.8l-11.5-8L924.2,292.4z M953.7,281.5
	c-0.3,0.1-0.4,0.3-0.4,0.6l1.2,4.3c0.1,0.3,0.4,0.4,0.6,0.3c0.2-0.1,0.4-0.3,0.3-0.6l-1-3.9l3.9-1c0.3-0.1,0.4-0.3,0.4-0.6
	s-0.3-0.4-0.6-0.4L953.7,281.5L953.7,281.5z M966.1,289.5c0.3-0.1,0.4-0.3,0.4-0.6l-1.2-4.3c-0.1-0.3-0.3-0.4-0.6-0.4
	c-0.3,0.1-0.4,0.3-0.4,0.6l1,3.9l-3.9,1c-0.3,0.1-0.4,0.3-0.4,0.6s0.3,0.4,0.6,0.4L966.1,289.5z M953.6,282.4l12.1,7l0.5-0.9
	l-12.1-7L953.6,282.4z M986.1,268.6c-0.3,0.1-0.4,0.4-0.3,0.6c0,0,0,0,0,0l1.5,4.2c0.1,0.3,0.4,0.4,0.6,0.3c0.3-0.1,0.4-0.4,0.3-0.6
	l-1.4-3.8l3.8-1.4c0.3-0.1,0.4-0.4,0.3-0.6s-0.4-0.4-0.6-0.3L986.1,268.6z M999.2,275.5c0.3-0.1,0.4-0.4,0.3-0.6l-1.5-4.2
	c-0.1-0.3-0.4-0.4-0.6-0.3c-0.3,0.1-0.4,0.4-0.3,0.6l1.4,3.8l-3.8,1.4c-0.3,0.1-0.4,0.4-0.3,0.6s0.4,0.4,0.6,0.3L999.2,275.5
	L999.2,275.5z M986.1,269.5l12.7,5.9l0.4-0.9l-12.7-5.9L986.1,269.5L986.1,269.5z M1020.6,250.8c-0.2,0.1-0.4,0.4-0.2,0.7
	c0,0,0,0,0,0l1.9,4.1c0.1,0.3,0.4,0.4,0.7,0.2c0.2-0.1,0.4-0.4,0.2-0.7c0,0,0,0,0,0l-1.7-3.6l3.6-1.7c0.2-0.1,0.4-0.4,0.2-0.7
	c-0.1-0.3-0.4-0.4-0.7-0.2L1020.6,250.8L1020.6,250.8z M1034.2,256.5c0.2-0.1,0.4-0.4,0.2-0.7c0,0,0,0,0,0l-1.9-4.1
	c-0.1-0.2-0.4-0.4-0.7-0.2s-0.4,0.4-0.2,0.7l1.7,3.6l-3.6,1.7c-0.2,0.1-0.4,0.4-0.2,0.7c0,0,0,0,0,0c0.1,0.2,0.4,0.4,0.7,0.2
	L1034.2,256.5L1034.2,256.5z M1020.7,251.7l13.2,4.8l0.3-0.9l-13.2-4.8L1020.7,251.7L1020.7,251.7z M1054.2,223.9
	c-0.2,0.1-0.3,0.4-0.2,0.7l2.2,3.9c0.1,0.2,0.4,0.3,0.7,0.2c0.2-0.1,0.3-0.4,0.2-0.7c0,0,0,0,0,0l-2-3.5l3.5-2
	c0.2-0.1,0.3-0.4,0.2-0.7c0,0,0,0,0,0c-0.1-0.2-0.4-0.3-0.7-0.2L1054.2,223.9z M1068.2,228.4c0.2-0.1,0.3-0.4,0.2-0.7c0,0,0,0,0,0
	l-2.2-3.9c-0.1-0.2-0.4-0.3-0.7-0.2c-0.2,0.1-0.3,0.4-0.2,0.7l2,3.5l-3.5,2c-0.2,0.1-0.3,0.4-0.2,0.7c0,0,0,0,0,0
	c0.1,0.2,0.4,0.3,0.7,0.2L1068.2,228.4L1068.2,228.4z M1054.3,224.9l13.5,3.6l0.3-1l-13.5-3.6L1054.3,224.9L1054.3,224.9z
	 M537.9,333.7c0.2-0.2,0.5-0.1,0.7,0.1l2.9,3.4c0.2,0.2,0.2,0.5-0.1,0.7c-0.2,0.2-0.5,0.2-0.7-0.1l-2.6-3.1l-3.1,2.6
	c-0.2,0.2-0.5,0.2-0.7,0c-0.2-0.2-0.2-0.5,0-0.7c0,0,0,0,0,0L537.9,333.7L537.9,333.7z M537.3,348.4c-0.2,0.2-0.5,0.2-0.7-0.1
	c0,0,0,0,0,0l-2.9-3.4c-0.2-0.2-0.2-0.5,0.1-0.7c0.2-0.2,0.5-0.2,0.7,0.1l2.6,3.1l3.1-2.6c0.2-0.2,0.5-0.2,0.7,0.1
	c0.2,0.2,0.2,0.5-0.1,0.7l0,0L537.3,348.4L537.3,348.4z M538.7,334.1l-1.2,13.9l-1-0.1l1.2-13.9L538.7,334.1L538.7,334.1z
	 M504.1,332.8c0.2-0.2,0.5-0.1,0.7,0.1l2.6,3.7c0.2,0.2,0.1,0.5-0.1,0.7s-0.5,0.1-0.7-0.1l-2.3-3.3l-3.3,2.3
	c-0.2,0.2-0.5,0.1-0.7-0.1s-0.1-0.5,0.1-0.7L504.1,332.8L504.1,332.8z M502.3,347.4c-0.2,0.2-0.5,0.1-0.7-0.1l-2.6-3.7
	c-0.1-0.2-0.1-0.5,0.2-0.7c0.2-0.1,0.5-0.1,0.7,0.1l2.3,3.3l3.3-2.3c0.2-0.1,0.5-0.1,0.7,0.2c0.1,0.2,0.1,0.5-0.1,0.7L502.3,347.4
	L502.3,347.4z M504.9,333.3l-2.4,13.8l-1-0.2l2.4-13.8L504.9,333.3z M472.4,332c0.2-0.1,0.5-0.1,0.7,0.2l0,0l2.2,3.9
	c0.1,0.2,0.1,0.5-0.2,0.7c-0.2,0.1-0.5,0.1-0.7-0.2l-2-3.5l-3.5,2c-0.2,0.1-0.5,0.1-0.7-0.2c-0.1-0.2-0.1-0.5,0.2-0.7L472.4,332
	L472.4,332z M469.2,346.4c-0.2,0.1-0.5,0.1-0.7-0.2l0,0l-2.2-3.9c-0.1-0.2-0.1-0.5,0.2-0.7c0.2-0.1,0.5-0.1,0.7,0.2l2,3.5l3.5-2
	c0.2-0.1,0.5-0.1,0.7,0.2c0.1,0.2,0.1,0.5-0.2,0.7L469.2,346.4L469.2,346.4z M473.1,332.6l-3.6,13.5l-1-0.3l3.6-13.5L473.1,332.6z
	 M440.6,329.4c0.3-0.1,0.5,0,0.7,0.2l1.9,4.1c0.1,0.2,0,0.5-0.2,0.7c-0.2,0.1-0.5,0-0.7-0.2c0,0,0,0,0,0l-1.7-3.6l-3.6,1.7
	c-0.3,0.1-0.5,0-0.7-0.2s0-0.5,0.2-0.7L440.6,329.4z M436.2,343.5c-0.2,0.1-0.5,0-0.7-0.2c0,0,0,0,0,0l-1.9-4.1
	c-0.1-0.3,0-0.5,0.3-0.7c0.2-0.1,0.5,0,0.7,0.2l1.7,3.6l3.6-1.7c0.3-0.1,0.5,0,0.7,0.3c0.1,0.2,0,0.5-0.2,0.7L436.2,343.5z
	 M441.3,330l-4.8,13.2l-0.9-0.3l4.8-13.2L441.3,330z M408.7,325.8c0.3-0.1,0.5,0,0.6,0.3c0,0,0,0,0,0l1.5,4.2c0.1,0.3,0,0.5-0.3,0.6
	c-0.3,0.1-0.5,0-0.6-0.3l-1.4-3.8l-3.8,1.4c-0.3,0.1-0.5,0-0.6-0.3c-0.1-0.3,0-0.5,0.3-0.6L408.7,325.8L408.7,325.8z M403.2,339.5
	c-0.3,0.1-0.5,0-0.6-0.3l-1.5-4.2c-0.1-0.3,0-0.5,0.3-0.6c0.3-0.1,0.5,0,0.6,0.3l1.4,3.8l3.8-1.4c0.3-0.1,0.5,0,0.6,0.3
	c0.1,0.3,0,0.5-0.3,0.6l0,0L403.2,339.5L403.2,339.5z M409.4,326.5l-5.9,12.7l-0.9-0.4l5.9-12.7L409.4,326.5z M376.9,322.4
	c0.3-0.1,0.5,0.1,0.6,0.4l1.2,4.3c0.1,0.3-0.1,0.5-0.4,0.6c-0.3,0.1-0.5-0.1-0.6-0.4l-1-3.9l-3.9,1c-0.3,0.1-0.5-0.1-0.6-0.4
	c-0.1-0.3,0.1-0.5,0.4-0.6L376.9,322.4L376.9,322.4z M370.1,335.5c-0.3,0.1-0.5-0.1-0.6-0.4l-1.2-4.3c-0.1-0.3,0.1-0.5,0.4-0.6
	c0.2-0.1,0.5,0.1,0.6,0.3l1,3.9l3.9-1c0.3-0.1,0.5,0.1,0.6,0.4c0.1,0.2-0.1,0.5-0.3,0.6L370.1,335.5L370.1,335.5z M377.4,323.1
	l-7,12.1l-0.9-0.5l7-12.1L377.4,323.1z M344.9,318c0.3,0,0.5,0.1,0.6,0.4c0,0,0,0,0,0l0.8,4.4c0,0.3-0.1,0.5-0.4,0.6
	c-0.3,0-0.5-0.1-0.6-0.4l-0.7-3.9l-3.9,0.7c-0.3,0-0.5-0.1-0.6-0.4c0-0.3,0.1-0.5,0.4-0.6L344.9,318L344.9,318z M337.1,330.5
	c-0.3,0-0.5-0.1-0.6-0.4l-0.8-4.4c0-0.3,0.1-0.5,0.4-0.6c0.3,0,0.5,0.1,0.6,0.4l0.7,3.9l3.9-0.7c0.3,0,0.5,0.1,0.6,0.4
	c0,0.3-0.1,0.5-0.4,0.6L337.1,330.5L337.1,330.5z M345.4,318.8l-8,11.5l-0.8-0.6l8-11.5L345.4,318.8z M313,312.8
	c0.3,0,0.5,0.2,0.5,0.5c0,0,0,0,0,0l0.4,4.5c0,0.3-0.2,0.5-0.4,0.6c-0.3,0-0.5-0.2-0.6-0.4c0,0,0,0,0,0l-0.3-4l-4,0.3
	c-0.3,0-0.5-0.2-0.5-0.5c0-0.3,0.2-0.5,0.5-0.5L313,312.8z M304,324.5c-0.3,0-0.5-0.2-0.5-0.5l-0.4-4.5c0-0.3,0.2-0.5,0.4-0.6
	c0.3,0,0.5,0.2,0.6,0.4c0,0,0,0,0,0l0.3,4l4-0.3c0.3,0,0.5,0.2,0.6,0.4c0,0.3-0.2,0.5-0.4,0.6c0,0,0,0,0,0L304,324.5L304,324.5z
	 M313.4,313.6l-9,10.7l-0.8-0.6l9-10.7L313.4,313.6z M281.9,307.6c0.3,0,0.5,0.2,0.5,0.5v4.5c0,0.3-0.2,0.5-0.5,0.5
	s-0.5-0.2-0.5-0.5v-4h-4c-0.3,0-0.5-0.2-0.5-0.5s0.2-0.5,0.5-0.5H281.9z M272,318.5c-0.3,0-0.5-0.2-0.5-0.5v-4.5
	c0-0.3,0.2-0.5,0.5-0.5s0.5,0.2,0.5,0.5v4h4c0.3,0,0.5,0.2,0.5,0.5s-0.2,0.5-0.5,0.5H272z M282.3,308.5l-9.9,9.9l-0.7-0.7l9.9-9.9
	L282.3,308.5z M249.8,299.5c0.3,0,0.5,0.3,0.5,0.5c0,0,0,0,0,0l-0.4,4.5c0,0.3-0.3,0.5-0.5,0.5c-0.3,0-0.5-0.3-0.5-0.5l0,0l0.3-4
	l-4-0.3c-0.3,0-0.5-0.3-0.4-0.6c0-0.3,0.3-0.5,0.5-0.4L249.8,299.5L249.8,299.5z M239,309.5c-0.3,0-0.5-0.3-0.5-0.5l0.4-4.5
	c0-0.3,0.3-0.5,0.5-0.5s0.5,0.3,0.5,0.5c0,0,0,0,0,0l-0.3,4l4,0.3c0.3,0,0.5,0.3,0.5,0.5c0,0.3-0.3,0.5-0.5,0.5c0,0,0,0,0,0
	L239,309.5L239,309.5z M250,300.4l-10.7,9l-0.6-0.8l10.7-9L250,300.4z M217.6,291.5c0.3,0,0.5,0.3,0.4,0.6c0,0,0,0,0,0l-0.8,4.4
	c0,0.3-0.3,0.5-0.6,0.4c-0.3,0-0.5-0.3-0.4-0.6l0,0l0.7-3.9l-3.9-0.7c-0.3,0-0.5-0.3-0.4-0.6c0-0.3,0.3-0.5,0.6-0.4L217.6,291.5
	L217.6,291.5z M205.9,300.5c-0.3,0-0.5-0.3-0.4-0.6l0.8-4.4c0-0.3,0.3-0.5,0.6-0.4c0.3,0,0.5,0.3,0.4,0.6l0,0l-0.7,3.9l3.9,0.7
	c0.3,0,0.5,0.3,0.4,0.6c0,0.3-0.3,0.5-0.6,0.4L205.9,300.5L205.9,300.5z M217.8,292.4l-11.5,8l-0.6-0.8l11.5-8L217.8,292.4z
	 M188.3,281.5c0.3,0.1,0.4,0.3,0.4,0.6l-1.2,4.3c-0.1,0.3-0.4,0.4-0.6,0.3c-0.2-0.1-0.4-0.3-0.3-0.6l1-3.9l-3.9-1
	c-0.3-0.1-0.4-0.3-0.4-0.6c0.1-0.3,0.3-0.4,0.6-0.4L188.3,281.5z M175.9,289.5c-0.3-0.1-0.4-0.3-0.4-0.6l1.2-4.3
	c0.1-0.3,0.3-0.4,0.6-0.4c0.3,0.1,0.4,0.3,0.4,0.6l-1,3.9l3.9,1c0.3,0.1,0.4,0.3,0.4,0.6c-0.1,0.3-0.3,0.4-0.6,0.4L175.9,289.5z
	 M188.4,282.4l-12.1,7l-0.5-0.9l12.1-7L188.4,282.4z M155.9,268.6c0.3,0.1,0.4,0.4,0.3,0.6l-1.5,4.2c-0.1,0.3-0.4,0.4-0.6,0.3
	c-0.3-0.1-0.4-0.4-0.3-0.6l1.4-3.8l-3.8-1.4c-0.3-0.1-0.4-0.4-0.3-0.6c0.1-0.3,0.4-0.4,0.6-0.3L155.9,268.6L155.9,268.6z
	 M142.8,275.5c-0.3-0.1-0.4-0.4-0.3-0.6l1.5-4.2c0.1-0.3,0.4-0.4,0.6-0.3c0.3,0.1,0.4,0.4,0.3,0.6l-1.4,3.8l3.8,1.4
	c0.3,0.1,0.4,0.4,0.3,0.6c-0.1,0.3-0.4,0.4-0.6,0.3L142.8,275.5L142.8,275.5z M155.9,269.5l-12.7,5.9l-0.4-0.9l12.7-5.9L155.9,269.5
	L155.9,269.5z M121.4,250.8c0.3,0.1,0.4,0.4,0.2,0.7l-1.9,4.1c-0.1,0.3-0.4,0.4-0.7,0.2c-0.3-0.1-0.4-0.4-0.2-0.7l0,0l1.7-3.6
	l-3.6-1.7c-0.3-0.1-0.4-0.4-0.3-0.7s0.4-0.4,0.7-0.3c0,0,0,0,0,0L121.4,250.8z M107.8,256.5c-0.2-0.1-0.4-0.4-0.2-0.7c0,0,0,0,0,0
	l1.9-4.1c0.1-0.2,0.4-0.4,0.7-0.2c0.2,0.1,0.3,0.4,0.2,0.7l-1.7,3.6l3.6,1.7c0.2,0.1,0.4,0.4,0.2,0.7c-0.1,0.2-0.4,0.3-0.7,0.2
	L107.8,256.5z M121.3,251.7l-13.2,4.8l-0.3-0.9l13.2-4.8L121.3,251.7z M87.8,223.9c0.2,0.1,0.3,0.4,0.2,0.7l-2.2,3.9
	c-0.1,0.2-0.4,0.3-0.7,0.2c-0.2-0.1-0.3-0.4-0.2-0.7l2-3.5l-3.5-2c-0.2-0.1-0.3-0.4-0.2-0.7c0.1-0.2,0.4-0.3,0.7-0.2c0,0,0,0,0,0
	C83.9,221.7,87.8,223.9,87.8,223.9z M73.8,228.4c-0.2-0.1-0.3-0.4-0.2-0.7l2.2-3.9c0.1-0.2,0.4-0.3,0.7-0.2c0.2,0.1,0.3,0.4,0.2,0.7
	l-2,3.5l3.5,2c0.2,0.1,0.3,0.4,0.2,0.7c-0.1,0.2-0.4,0.3-0.7,0.2c0,0,0,0,0,0C77.6,230.7,73.7,228.4,73.8,228.4z M87.7,224.9
	l-13.5,3.6l-0.3-1l13.5-3.6L87.7,224.9L87.7,224.9z"/>
</svg>
